<?xml version="1.0" encoding="UTF-8"?>
<svg xmlns="http://www.w3.org/2000/svg" xmlns:xlink="http://www.w3.org/1999/xlink"
     width="550.0000000000001" height="290.2618657937807" viewBox="-132.20130932896893 -145.13093289689036 550.0000000000001 290.2618657937807">
<defs>
<style type="text/css">
.l241d0 {stroke: rgb(255, 21, 64); fill: rgb(255, 21, 64); fill-opacity: 0.5;}
.l3d0 {stroke: rgb(255, 255, 64); fill: rgb(255, 255, 64); fill-opacity: 0.5;}
</style>
</defs>
<rect x="-132.20130932896893" y="-145.13093289689036" width="550.0000000000001" height="290.2618657937807" fill="#222" stroke="none"/>
<g id="gds" transform="scale(1 -1)">
<polygon class="l241d0" points="101.48412438625205,84.93617021276597 101.51783960720131,85.74729950900165 101.57348608837972,86.55711947626843 101.65171849427169,87.36530278232406 101.75220949263503,88.17086743044192 101.8746317512275,88.97348608837972 102.01931260229132,89.77217675941081 102.1859247135843,90.56661211129297 102.3744680851064,91.35646481178397 102.5846153846154,92.14042553191489 102.8163666121113,92.91849427168576 103.06906710310966,93.69001636661213 103.34337152209493,94.45400981996728 103.63862520458265,95.21047463175124 103.95417348608838,95.95842880523733 104.29067103109657,96.69721767594109 104.64713584288053,97.42651391162029 105.02356792144026,98.1456628477905 105.41996726677579,98.8543371522095 105.8353518821604,99.5518821603928 106.27004909983633,100.23731587561376 106.72340425531917,100.91096563011457 107.19509001636662,101.57152209492635 107.6847790507365,102.2189852700491 108.19247135842882,102.85270049099836 108.71685761047463,103.47234042553193 109.25859247135844,104.07692307692308 109.81669394435353,104.66677577741409 110.39050736497546,105.240589198036 110.98036006546646,105.7986906710311 111.58494271685761,106.3404255319149 112.20458265139118,106.86481178396072 112.83829787234043,107.37250409165304 113.48576104746319,107.86219312602292 114.14631751227496,108.33387888707038 114.81996726677578,108.78723404255321 115.50540098199674,109.22193126022914 116.20294599018004,109.63731587561375 116.91162029459903,110.03371522094928 117.63076923076925,110.410147299509 118.36006546644845,110.76661211129297 119.09885433715222,111.10310965630116 119.84680851063831,111.41865793780688 120.60327332242227,111.71391162029461 121.36726677577742,111.98821603927989 122.13878887070378,112.24091653027824 122.91685761047465,112.47266775777415 123.70081833060557,112.68281505728315 124.49067103109658,112.87135842880525 125.28510638297873,113.03797054009821 126.08379705400982,113.18265139116204 126.88641571194763,113.3050736497545 127.69198036006547,113.40556464811785 128.50016366612113,113.48379705400983 129.3099836333879,113.53944353518823 130.12111292962356,113.57315875613749 130.9328968903437,113.58428805237317 130.9328968903437,115.22094926350246 130.06088379705403,115.20883797054012 129.18919803600656,115.17217675941082 128.31914893617022,115.11096563011458 127.45106382978724,115.02553191489363 126.5859247135843,114.91554828150574 125.72405891980361,114.78166939443537 124.86612111292963,114.62356792144027 124.01342062193126,114.44124386252047 123.1656301145663,114.23535188216039 122.32438625204584,114.00556464811784 121.4896890343699,113.75253682487727 120.66219312602291,113.4759410801964 119.84320785597382,113.17643207855976 119.03273322422258,112.85400981996727 118.2317512274959,112.50867430441899 117.44058919803602,112.14140752864158 116.66022913256957,111.7518821603928 115.89099836333881,111.34075286415714 115.13355155482816,110.90834697217676 114.3885433715221,110.45466448445174 113.65662847790509,109.98036006546646 112.93813420621933,109.48543371522096 112.2340425531915,108.97086743044191 111.54435351882161,108.4366612111293 110.87037643207857,107.8834697217676 110.21178396072014,107.3112929623568 109.569558101473,106.72111292962359 108.94435351882161,106.11292962356794 108.33617021276596,105.48772504091653 107.74599018003273,104.8454991816694 107.17381342062194,104.18690671031098 106.62062193126023,103.51292962356794 106.08641571194764,102.82324058919805 105.57184942716859,102.11914893617022 105.07692307692308,101.40065466448446 104.60261865793781,100.66873977086745 104.14893617021278,99.92373158756138 103.71653027823241,99.16628477905074 103.30540098199674,98.39705400981998 102.91587561374797,97.61669394435353 102.54860883797055,96.82553191489363 102.20327332242226,96.02454991816695 101.8808510638298,95.21407528641572 101.58134206219314,94.39509001636662 101.30474631751228,93.56759410801965 101.0517184942717,92.7328968903437 100.82193126022915,91.89165302782324 100.61603927986907,91.04386252045828 100.43371522094927,90.1911620294599 100.27561374795418,89.33322422258594 100.1417348608838,88.47135842880523 100.0317512274959,87.60621931260229 99.94631751227497,86.73813420621933 99.88510638297873,85.86808510638298 99.84844517184943,84.99639934533552 99.83633387888707,84.12438625204584 101.47299509001637,84.12438625204584"/>
<polygon class="l241d0" points="232.41702127659576,84.93617021276597 232.450736497545,85.74729950900165 232.50638297872342,86.55711947626843 232.5846153846154,87.36530278232406 232.68510638297872,88.17086743044192 232.8075286415712,88.97348608837972 232.95220949263503,89.77217675941081 233.118821603928,90.56661211129297 233.3073649754501,91.35646481178397 233.51751227495907,92.14042553191489 233.74926350245502,92.91849427168576 234.00196399345336,93.69001636661213 234.27626841243867,94.45400981996728 234.57152209492637,95.21047463175124 234.88707037643212,95.95842880523733 235.22356792144026,96.69721767594109 235.58003273322424,97.42651391162029 235.95646481178397,98.1456628477905 236.35286415711948,98.8543371522095 236.7682487725041,99.5518821603928 237.20294599018004,100.23731587561376 237.65630114566287,100.91096563011457 238.12798690671033,101.57152209492635 238.6176759410802,102.2189852700491 239.12536824877253,102.85270049099836 239.64975450081835,103.47234042553193 240.19148936170214,104.07692307692308 240.74959083469724,104.66677577741409 241.3234042553192,105.240589198036 241.91325695581014,105.7986906710311 242.51783960720135,106.3404255319149 243.13747954173488,106.86481178396072 243.77119476268413,107.37250409165304 244.41865793780687,107.86219312602292 245.07921440261867,108.33387888707038 245.7528641571195,108.78723404255321 246.43829787234046,109.22193126022914 247.13584288052374,109.63731587561375 247.84451718494273,110.03371522094928 248.56366612111293,110.410147299509 249.29296235679217,110.76661211129297 250.03175122749593,111.10310965630116 250.779705400982,111.41865793780688 251.53617021276597,111.71391162029461 252.30016366612114,111.98821603927989 253.0716857610475,112.24091653027824 253.84975450081834,112.47266775777415 254.63371522094926,112.68281505728315 255.42356792144028,112.87135842880525 256.21800327332244,113.03797054009821 257.01669394435356,113.18265139116204 257.81931260229135,113.3050736497545 258.6248772504092,113.40556464811785 259.43306055646485,113.48379705400983 260.2428805237316,113.53944353518823 261.0540098199673,113.57315875613749 261.8657937806874,113.58428805237317 261.8657937806874,115.22094926350246 260.99378068739776,115.20883797054012 260.12209492635026,115.17217675941082 259.25204582651395,115.11096563011458 258.383960720131,115.02553191489363 257.518821603928,114.91554828150574 256.65695581014734,114.78166939443537 255.79901800327335,114.62356792144027 254.946317512275,114.44124386252047 254.09852700490998,114.23535188216039 253.25728314238955,114.00556464811784 252.4225859247136,113.75253682487727 251.59509001636664,113.4759410801964 250.77610474631751,113.17643207855976 249.9656301145663,112.85400981996727 249.16464811783962,112.50867430441899 248.3734860883797,112.14140752864158 247.59312602291328,111.7518821603928 246.8238952536825,111.34075286415714 246.06644844517186,110.90834697217676 245.3214402618658,110.45466448445174 244.5895253682488,109.98036006546646 243.871031096563,109.48543371522096 243.1669394435352,108.97086743044191 242.47725040916532,108.4366612111293 241.80327332242226,107.8834697217676 241.14468085106384,107.3112929623568 240.5024549918167,106.72111292962359 239.87725040916533,106.11292962356794 239.26906710310968,105.48772504091653 238.67888707037645,104.8454991816694 238.10671031096567,104.18690671031098 237.55351882160394,103.51292962356794 237.01931260229136,102.82324058919805 236.5047463175123,102.11914893617022 236.0098199672668,101.40065466448446 235.53551554828152,100.66873977086745 235.08183306055648,99.92373158756138 234.64942716857612,99.16628477905074 234.23829787234044,98.39705400981998 233.84877250409167,97.61669394435353 233.48150572831423,96.82553191489363 233.13617021276596,96.02454991816695 232.8137479541735,95.21407528641572 232.51423895253686,94.39509001636662 232.237643207856,93.56759410801965 231.98461538461538,92.7328968903437 231.75482815057285,91.89165302782324 231.54893617021276,91.04386252045828 231.366612111293,90.1911620294599 231.2085106382979,89.33322422258594 231.0746317512275,88.47135842880523 230.96464811783963,87.60621931260229 230.8792144026187,86.73813420621933 230.81800327332243,85.86808510638298 230.78134206219315,84.99639934533552 230.76923076923077,84.12438625204584 232.40589198036008,84.12438625204584"/>
<polygon class="l241d0" points="101.47299509001637,84.12438625204584 99.83633387888707,84.12438625204584 99.83633387888707,32.733224222585925 101.47299509001637,32.733224222585925"/>
<polygon class="l241d0" points="166.93944353518822,84.12438625204584 165.30278232405894,84.12438625204584 165.30278232405894,32.733224222585925 166.93944353518822,32.733224222585925"/>
<polygon class="l241d0" points="232.40589198036008,84.12438625204584 230.76923076923077,84.12438625204584 230.76923076923077,32.733224222585925 232.40589198036008,32.733224222585925"/>
<polygon class="l241d0" points="297.87234042553195,84.12438625204584 296.23567921440264,84.12438625204584 296.23567921440264,32.733224222585925 297.87234042553195,32.733224222585925"/>
<polygon class="l241d0" points="0.0,1.6366612111292964 65.46644844517185,1.6366612111292964 66.32340425531915,1.648445171849427 67.17937806873978,1.6837970540098202 68.03436988543372,1.7427168576104748 68.88739770867431,1.825531914893617 69.73780687397709,1.9312602291325698 70.58461538461539,2.06088379705401 71.42815057283143,2.2134206219312604 72.26677577741408,2.389198036006547 73.10016366612112,2.588216039279869 73.92798690671032,2.810147299509002 74.749263502455,3.054664484451719 75.56333878887071,3.321440261865794 76.37021276595746,3.610801963993454 77.1682487725041,3.922422258592472 77.95777414075287,4.255973813420622 78.73780687397709,4.610801963993453 79.50769230769231,4.987234042553192 80.26677577741408,5.384615384615385 81.01472995090018,5.802945990180033 81.75090016366613,6.241571194762685 82.4746317512275,6.700163666121114 83.18559738134206,7.17872340425532 83.88281505728315,7.676595744680852 84.56628477905075,8.193780687397709 85.2353518821604,8.729296235679215 85.88903436988545,9.283142389525368 86.52765957446809,9.85466448445172 87.14991816693944,10.443862520458266 87.75581014729951,11.04975450081833 88.34500818330606,11.67201309328969 88.91653027823241,12.310638297872343 89.47037643207857,12.964320785597383 90.00589198036008,13.633387888707038 90.52307692307693,14.316857610474633 91.02094926350247,15.014075286415714 91.49950900163667,15.72504091653028 91.9581014729951,16.448772504091654 92.39672667757775,17.184942716857613 92.8150572831424,17.9328968903437 93.2124386252046,18.691980360065468 93.58887070376433,19.46186579378069 93.94369885433716,20.24189852700491 94.2772504091653,21.031423895253685 94.58887070376433,21.829459901800327 94.87823240589199,22.636333878887072 95.14500818330606,23.450409165302787 95.38952536824878,24.27168576104747 95.61145662847792,25.099509001636665 95.81047463175125,25.9328968903437 95.98625204582652,26.771522094926354 96.13878887070378,27.61505728314239 96.26841243862522,28.46186579378069 96.37414075286416,29.312274959083474 96.4569558101473,30.165302782324062 96.51587561374797,31.020294599018005 96.55122749590835,31.87626841243863 96.56301145662849,32.733224222585925 94.9263502454992,32.733224222585925 94.91554828150574,31.935515548281508 94.88314238952537,31.138134206219313 94.8291325695581,30.34238952536825 94.75351882160393,29.547954173486094 94.65662847790507,28.756137479541735 94.53813420621933,27.967266775777414 94.39869067103109,27.181669394435357 94.23764320785598,26.40032733224223 94.0556464811784,25.623567921440266 93.85237315875614,24.851718494271687 93.62880523731589,24.0860883797054 93.38428805237317,23.32667757774141 93.11914893617022,22.574140752864157 92.8340425531915,21.829132569558105 92.52864157119477,21.09198036006547 92.2036006546645,20.363338788870706 91.85891980360067,19.643862520458267 91.49459901800329,18.933878887070378 91.11129296235681,18.23404255319149 90.70932896890345,17.545008183306056 90.2887070376432,16.867103109656302 89.85008183306057,16.200654664484453 89.39345335515549,15.54631751227496 88.91914893617023,14.904746317512275 88.4278232405892,14.276268412438625 87.91980360065467,13.661211129296236 87.39509001636662,13.060229132569559 86.8543371522095,12.47364975450082 86.29787234042553,11.901800327332243 85.72602291325695,11.345335515548282 85.13944353518822,10.804582651391163 84.53846153846155,10.27986906710311 83.92340425531917,9.771849427168577 83.2949263502455,9.280523731587563 82.65335515548283,8.806219312602291 81.99901800327333,8.349590834697217 81.33256955810148,7.910965630114567 80.65466448445173,7.490343698854337 79.96563011456628,7.088379705400983 79.2657937806874,6.705073649754502 78.55581014729951,6.340752864157119 77.83633387888707,5.996072013093291 77.10769230769232,5.671031096563012 76.37054009819968,5.365630114566285 75.62553191489363,5.080523731587562 74.87299509001637,4.815384615384616 74.11358428805238,4.570867430441899 73.3479541734861,4.347299509001637 72.57610474631751,4.144026186579379 71.79934533551555,3.9620294599018004 71.01800327332244,3.800981996726678 70.23240589198036,3.661538461538462 69.44353518821605,3.5430441898527008 68.65171849427169,3.4461538461538463 67.85728314238953,3.370540098199673 67.06153846153846,3.316530278232406 66.26415711947628,3.2841243862520457 65.46644844517185,3.273322422258593 0.0,3.273322422258593"/>
<polygon class="l241d0" points="166.93944353518822,32.733224222585925 165.30278232405894,32.733224222585925 165.30278232405894,0.0 166.93944353518822,0.0"/>
<polygon class="l241d0" points="232.40589198036008,32.733224222585925 230.76923076923077,32.733224222585925 230.76923076923077,0.0 232.40589198036008,0.0"/>
<polygon class="l241d0" points="325.73715220949265,3.316530278232406 324.9414075286416,3.370540098199673 324.14697217675945,3.4461538461538463 323.35515548281506,3.5430441898527008 322.56628477905076,3.661538461538462 321.7806873977087,3.800981996726678 320.99934533551556,3.9620294599018004 320.2225859247136,4.144026186579379 319.45073649754505,4.347299509001637 318.68510638297874,4.570867430441899 317.92569558101474,4.815384615384616 317.1731587561375,5.080523731587562 316.42815057283144,5.365630114566285 315.69099836333885,5.671031096563012 314.9623567921441,5.996072013093291 314.24288052373157,6.340752864157119 313.5328968903437,6.705073649754502 312.83306055646483,7.088379705400983 312.1440261865794,7.490343698854337 311.46612111292967,7.910965630114567 310.7996726677578,8.349590834697217 310.1453355155483,8.806219312602291 309.5037643207856,9.280523731587563 308.87528641571197,9.771849427168577 308.2602291325696,10.27986906710311 307.6592471358429,10.804582651391163 307.0726677577741,11.345335515548282 306.50081833060557,11.901800327332243 305.94435351882163,12.47364975450082 305.4036006546645,13.060229132569559 304.87888707037644,13.661211129296236 304.37086743044193,14.276268412438625 303.8795417348609,14.904746317512275 303.40523731587564,15.54631751227496 302.9486088379706,16.200654664484453 302.5099836333879,16.867103109656302 302.0893617021277,17.545008183306056 301.6873977086743,18.23404255319149 301.30409165302785,18.933878887070378 300.93977086743047,19.643862520458267 300.5950900163666,20.363338788870706 300.2700490998364,21.09198036006547 299.96464811783966,21.829132569558105 299.6795417348609,22.574140752864157 299.41440261865796,23.32667757774141 299.16988543371525,24.0860883797054 298.94631751227496,24.851718494271687 298.7430441898527,25.623567921440266 298.56104746317516,26.40032733224223 298.40000000000003,27.181669394435357 298.2605564648118,27.967266775777414 298.14206219312604,28.756137479541735 298.0451718494272,29.547954173486094 297.969558101473,30.34238952536825 297.9155482815057,31.138134206219313 297.8831423895254,31.935515548281508 297.87234042553195,32.733224222585925 296.23567921440264,32.733224222585925 296.24746317512273,31.87626841243863 296.2828150572832,31.020294599018005 296.34173486088383,30.165302782324062 296.424549918167,29.312274959083474 296.5302782324059,28.46186579378069 296.65990180032736,27.61505728314239 296.8124386252046,26.771522094926354 296.9882160392799,25.9328968903437 297.1872340425532,25.099509001636665 297.40916530278236,24.27168576104747 297.65368248772506,23.450409165302787 297.92045826513913,22.636333878887072 298.20981996726675,21.829459901800327 298.5214402618658,21.031423895253685 298.85499181669394,20.24189852700491 299.2098199672668,19.46186579378069 299.58625204582654,18.691980360065468 299.98363338788874,17.9328968903437 300.40196399345336,17.184942716857613 300.840589198036,16.448772504091654 301.2991816693945,15.72504091653028 301.77774140752865,15.014075286415714 302.2756137479542,14.316857610474633 302.7927986906711,13.633387888707038 303.32831423895254,12.964320785597383 303.8821603927987,12.310638297872343 304.4536824877251,11.67201309328969 305.0428805237316,11.04975450081833 305.64877250409165,10.443862520458266 306.27103109656304,9.85466448445172 306.9096563011457,9.283142389525368 307.56333878887074,8.729296235679215 308.23240589198036,8.193780687397709 308.91587561374797,7.676595744680852 309.61309328968906,7.17872340425532 310.32405891980363,6.700163666121114 311.047790507365,6.241571194762685 311.78396072013095,5.802945990180033 312.53191489361706,5.384615384615385 313.2909983633388,4.987234042553192 314.06088379705403,4.610801963993453 314.84091653027826,4.255973813420622 315.630441898527,3.922422258592472 316.42847790507363,3.610801963993454 317.2353518821604,3.321440261865794 318.04942716857613,3.054664484451719 318.8707037643208,2.810147299509002 319.69852700491,2.588216039279869 320.53191489361706,2.389198036006547 321.3705400981997,2.2134206219312604 322.2140752864157,2.06088379705401 323.06088379705403,1.9312602291325698 323.9112929623568,1.825531914893617 324.7643207855974,1.7427168576104748 325.61931260229136,1.6837970540098202 326.47528641571193,1.648445171849427 327.33224222585926,1.6366612111292964 392.7986906710311,1.6366612111292964 392.7986906710311,3.273322422258593 327.33224222585926,3.273322422258593 326.53453355155483,3.2841243862520457"/>
<polygon class="l241d0" points="230.76923076923077,-32.733224222585925 232.40589198036008,-32.733224222585925 232.40589198036008,0.0 230.76923076923077,0.0"/>
<polygon class="l241d0" points="166.93944353518822,0.0 165.30278232405894,0.0 165.30278232405894,-32.733224222585925 166.93944353518822,-32.733224222585925"/>
<polygon class="l241d0" points="230.76923076923077,-84.12438625204584 232.40589198036008,-84.12438625204584 232.40589198036008,-32.733224222585925 230.76923076923077,-32.733224222585925"/>
<polygon class="l241d0" points="165.30278232405894,-84.12438625204584 166.93944353518822,-84.12438625204584 166.93944353518822,-32.733224222585925 165.30278232405894,-32.733224222585925"/>
<polygon class="l241d0" points="262.67757774140756,113.57315875613749 263.4887070376432,113.53944353518823 264.29852700491,113.48379705400983 265.10671031096564,113.40556464811785 265.9122749590835,113.3050736497545 266.7148936170213,113.18265139116204 267.5135842880524,113.03797054009821 268.30801963993457,112.87135842880525 269.09787234042557,112.68281505728315 269.8818330605565,112.47266775777415 270.65990180032736,112.24091653027824 271.4314238952537,111.98821603927989 272.1954173486089,111.71391162029461 272.9518821603928,111.41865793780688 273.6998363338789,111.10310965630116 274.43862520458265,110.76661211129297 275.1679214402619,110.410147299509 275.8870703764321,110.03371522094928 276.5957446808511,109.63731587561375 277.2932896890344,109.22193126022914 277.97872340425533,108.78723404255321 278.6523731587562,108.33387888707038 279.312929623568,107.86219312602292 279.9603927986907,107.37250409165304 280.59410801964,106.86481178396072 281.21374795417347,106.3404255319149 281.81833060556465,105.7986906710311 282.40818330605566,105.240589198036 282.9819967266776,104.66677577741409 283.5400981996727,104.07692307692308 284.0818330605565,103.47234042553193 284.6062193126023,102.85270049099836 285.11391162029463,102.2189852700491 285.6036006546645,101.57152209492635 286.07528641571196,100.91096563011457 286.5286415711948,100.23731587561376 286.9633387888707,99.5518821603928 287.37872340425537,98.8543371522095 287.7751227495909,98.1456628477905 288.1515548281506,97.42651391162029 288.50801963993456,96.69721767594109 288.84451718494273,95.95842880523733 289.1600654664485,95.21047463175124 289.45531914893616,94.45400981996728 289.72962356792146,93.69001636661213 289.9823240589198,92.91849427168576 290.2140752864157,92.14042553191489 290.4242225859247,91.35646481178397 290.6127659574468,90.56661211129297 290.7793780687398,89.77217675941081 290.92405891980366,88.97348608837972 291.0464811783961,88.17086743044192 291.1469721767594,87.36530278232406 291.22520458265143,86.55711947626843 291.2808510638298,85.74729950900165 291.31456628477906,84.93617021276597 291.32569558101477,84.12438625204584 292.962356792144,84.12438625204584 292.9502454991817,84.99639934533552 292.9135842880524,85.86808510638298 292.85237315875617,86.73813420621933 292.7669394435352,87.60621931260229 292.65695581014734,88.47135842880523 292.5230769230769,89.33322422258594 292.36497545008183,90.1911620294599 292.18265139116204,91.04386252045828 291.976759410802,91.89165302782324 291.74697217675947,92.7328968903437 291.4939443535188,93.56759410801965 291.217348608838,94.39509001636662 290.91783960720136,95.21407528641572 290.59541734860886,96.02454991816695 290.2500818330606,96.82553191489363 289.88281505728315,97.61669394435353 289.4932896890344,98.39705400981998 289.0821603927987,99.16628477905074 288.64975450081835,99.92373158756138 288.19607201309327,100.66873977086745 287.72176759410803,101.40065466448446 287.2268412438625,102.11914893617022 286.71227495908346,102.82324058919805 286.1780687397709,103.51292962356794 285.62487725040916,104.18690671031098 285.0527004909984,104.8454991816694 284.46252045826515,105.48772504091653 283.8543371522095,106.11292962356794 283.2291325695581,106.72111292962359 282.586906710311,107.3112929623568 281.92831423895257,107.8834697217676 281.25433715220953,108.4366612111293 280.5646481178396,108.97086743044191 279.8605564648118,109.48543371522096 279.14206219312604,109.98036006546646 278.41014729950905,110.45466448445174 277.66513911620297,110.90834697217676 276.90769230769234,111.34075286415714 276.13846153846157,111.7518821603928 275.35810147299514,112.14140752864158 274.5669394435352,112.50867430441899 273.76595744680856,112.85400981996727 272.95548281505734,113.17643207855976 272.1364975450082,113.4759410801964 271.30900163666126,113.75253682487727 270.4743044189853,114.00556464811784 269.63306055646484,114.23535188216039 268.78527004909984,114.44124386252047 267.9325695581015,114.62356792144027 267.0746317512275,114.78166939443537 266.21276595744683,114.91554828150574 265.3476268412439,115.02553191489363 264.4795417348609,115.11096563011458 263.6094926350246,115.17217675941082 262.7378068739771,115.20883797054012 261.8657937806874,115.22094926350246 261.8657937806874,113.58428805237317"/>
<polygon class="l241d0" points="161.9806873977087,85.86808510638298 161.91947626841244,86.73813420621933 161.8340425531915,87.60621931260229 161.7240589198036,88.47135842880523 161.59018003273323,89.33322422258594 161.43207855973816,90.1911620294599 161.24975450081834,91.04386252045828 161.04386252045828,91.89165302782324 160.81407528641572,92.7328968903437 160.56104746317513,93.56759410801965 160.28445171849427,94.39509001636662 159.98494271685763,95.21407528641572 159.66252045826516,96.02454991816695 159.31718494271686,96.82553191489363 158.94991816693945,97.61669394435353 158.56039279869069,98.39705400981998 158.149263502455,99.16628477905074 157.71685761047465,99.92373158756138 157.2631751227496,100.66873977086745 156.78887070376433,101.40065466448446 156.29394435351884,102.11914893617022 155.7793780687398,102.82324058919805 155.24517184942718,103.51292962356794 154.6919803600655,104.18690671031098 154.11980360065468,104.8454991816694 153.52962356792145,105.48772504091653 152.9214402618658,106.11292962356794 152.29623567921442,106.72111292962359 151.65400981996729,107.3112929623568 150.99541734860884,107.8834697217676 150.3214402618658,108.4366612111293 149.63175122749593,108.97086743044191 148.9276595744681,109.48543371522096 148.20916530278234,109.98036006546646 147.47725040916532,110.45466448445174 146.73224222585927,110.90834697217676 145.97479541734862,111.34075286415714 145.20556464811784,111.7518821603928 144.4252045826514,112.14140752864158 143.6340425531915,112.50867430441899 142.83306055646483,112.85400981996727 142.0225859247136,113.17643207855976 141.20360065466448,113.4759410801964 140.3761047463175,113.75253682487727 139.54140752864157,114.00556464811784 138.7001636661211,114.23535188216039 137.85237315875614,114.44124386252047 136.99967266775778,114.62356792144027 136.14173486088382,114.78166939443537 135.2798690671031,114.91554828150574 134.41472995090018,115.02553191489363 133.5466448445172,115.11096563011458 132.67659574468087,115.17217675941082 131.8049099836334,115.20883797054012 130.9328968903437,115.22094926350246 130.9328968903437,113.58428805237317 131.74468085106383,113.57315875613749 132.55581014729952,113.53944353518823 133.3656301145663,113.48379705400983 134.17381342062194,113.40556464811785 134.97937806873978,113.3050736497545 135.7819967266776,113.18265139116204 136.5806873977087,113.03797054009821 137.37512274959084,112.87135842880525 138.16497545008184,112.68281505728315 138.94893617021276,112.47266775777415 139.72700490998363,112.24091653027824 140.49852700491,111.98821603927989 141.26252045826516,111.71391162029461 142.01898527004911,111.41865793780688 142.7669394435352,111.10310965630116 143.50572831423898,110.76661211129297 144.23502454991817,110.410147299509 144.9541734860884,110.03371522094928 145.66284779050739,109.63731587561375 146.36039279869067,109.22193126022914 147.04582651391163,108.78723404255321 147.71947626841245,108.33387888707038 148.38003273322423,107.86219312602292 149.027495908347,107.37250409165304 149.66121112929625,106.86481178396072 150.2808510638298,106.3404255319149 150.88543371522096,105.7986906710311 151.47528641571196,105.240589198036 152.04909983633388,104.66677577741409 152.60720130932899,104.07692307692308 153.14893617021278,103.47234042553193 153.6733224222586,102.85270049099836 154.18101472995093,102.2189852700491 154.6707037643208,101.57152209492635 155.14238952536826,100.91096563011457 155.59574468085108,100.23731587561376 156.03044189852702,99.5518821603928 156.44582651391164,98.8543371522095 156.84222585924715,98.1456628477905 157.21865793780688,97.42651391162029 157.57512274959083,96.69721767594109 157.91162029459903,95.95842880523733 158.22716857610476,95.21047463175124 158.52242225859248,94.45400981996728 158.79672667757777,93.69001636661213 159.04942716857613,92.91849427168576 159.28117839607202,92.14042553191489 159.49132569558103,91.35646481178397 159.6798690671031,90.56661211129297 159.8464811783961,89.77217675941081 159.99116202945993,88.97348608837972 160.11358428805238,88.17086743044192 160.21407528641572,87.36530278232406 160.2923076923077,86.55711947626843 160.3479541734861,85.74729950900165 160.38166939443536,84.93617021276597 160.39279869067104,84.12438625204584 162.02945990180035,84.12438625204584 162.01734860883798,84.99639934533552"/>
<polygon class="l241d0" points="291.32569558101477,84.12438625204584 291.32569558101477,32.733224222585925 292.962356792144,32.733224222585925 292.962356792144,84.12438625204584"/>
<polygon class="l241d0" points="225.8592471358429,84.12438625204584 225.8592471358429,32.733224222585925 227.4959083469722,32.733224222585925 227.4959083469722,84.12438625204584"/>
<polygon class="l241d0" points="160.39279869067104,84.12438625204584 160.39279869067104,32.733224222585925 162.02945990180035,32.733224222585925 162.02945990180035,84.12438625204584"/>
<polygon class="l241d0" points="94.9263502454992,84.12438625204584 94.9263502454992,32.733224222585925 96.56301145662849,32.733224222585925 96.56301145662849,84.12438625204584"/>
<polygon class="l241d0" points="326.38527004909986,-1.623567921440262 325.4389525368249,-1.5846153846153848 324.4939443535188,-1.5191489361702128 323.55122749590834,-1.428150572831424 322.6114566284779,-1.3109656301145662 321.675286415712,-1.1679214402618658 320.74304418985275,-0.9990180032733225 319.8160392798691,-0.804909983633388 318.89492635024556,-0.5849427168576105 317.9800327332242,-0.33977086743044194 317.07234042553193,-0.06972176759410802 316.1725040916531,0.225531914893617 315.2808510638298,0.5453355155482815 314.39869067103115,0.8896890343698854 313.52602291325695,1.258265139116203 312.6638297872341,1.6504091653027824 311.81309328968905,2.0664484451718494 310.9741407528642,2.5057283142389526 310.14729950900164,2.967921440261866 309.3335515548282,3.4527004909983634 308.5335515548282,3.960065466448446 307.7479541734861,4.488707037643208 306.97708674304425,5.039279869067103 306.22193126022916,5.610474631751228 305.4824877250409,6.2026186579378075 304.75973813420626,6.814729950900164 304.0540098199673,7.4464811783960725 303.3662847790508,8.097545008183307 302.69656301145665,8.767266775777415 302.0454991816694,9.454991816693946 301.4137479541735,10.160720130932898 300.80163666121115,10.883469721767595 300.20949263502456,11.622913256955812 299.63829787234044,12.378068739770868 299.08772504091655,13.148936170212767 298.55908346972177,13.934533551554829 298.0517184942717,14.734533551554831 297.5669394435352,15.548281505728315 297.1047463175123,16.375122749590837 296.6654664484452,17.214075286415714 296.2494271685761,18.06481178396072 295.8572831423896,18.927004909983637 295.4887070376432,19.799672667757775 295.1443535188216,20.681833060556468 294.82454991816695,21.573486088379706 294.5292962356792,22.473322422258597 294.2592471358429,23.381014729950902 294.01407528641573,24.29590834697218 293.79410801963996,25.217021276595744 293.6,26.14402618657938 293.43109656301147,27.07626841243863 293.2880523731588,28.012438625204584 293.1708674304419,28.952209492635028 293.0798690671031,29.8949263502455 293.014402618658,30.839934533551556 292.97545008183306,31.786252045826515 292.962356792144,32.733224222585925 291.32569558101477,32.733224222585925 291.33878887070375,31.758101472995094 291.3783960720131,30.783960720130935 291.44451718494275,29.81112929623568 291.5368248772504,28.84026186579378 291.6553191489362,27.87234042553192 291.8,26.908019639934533 291.9708674304419,25.94795417348609 292.16759410801967,24.99279869067103 292.389852700491,24.04353518821604 292.63829787234044,23.10049099836334 292.91162029459906,22.164648117839608 293.21047463175125,21.23633387888707 293.53420621931264,20.316530278232406 293.8831423895254,19.405891980360067 294.25630114566286,18.505073649754504 294.65368248772506,17.614402618657937 295.0749590834697,16.73518821603928 295.5201309328969,15.867430441898529 295.9885433715221,15.01211129296236 296.47986906710315,14.169885433715223 296.99378068739776,13.341407528641573 297.52995090016367,12.526677577741408 298.0880523731588,11.72733224222586 298.66775777414074,10.943044189852701 299.2684124386252,10.174795417348609 299.8893617021277,9.423240589198036 300.5306055646481,8.688379705400983 301.19148936170217,7.971522094926351 301.87168576104744,7.272667757774141 302.5705400981997,6.5924713584288055 303.28739770867435,5.931587561374795 304.02225859247136,5.290343698854337 304.77381342062193,4.669394435351883 305.54206219312607,4.06873977086743 306.3263502454992,3.489034369885434 307.1256955810148,2.930932896890344 307.9404255319149,2.3947626841243865 308.7689034369886,1.8808510638297875 309.6111292962357,1.3895253682487727 310.46644844517186,0.921112929623568 311.3342062193126,0.47594108019639936 312.2134206219313,0.0546644844517185 313.10409165302787,-0.34271685761047466 314.0049099836334,-0.7158756137479542 314.9155482815058,-1.0648117839607203 315.8353518821604,-1.388543371522095 316.7636661211129,-1.6873977086743046 317.69950900163667,-1.9607201309328972 318.64255319148936,-2.209165302782324 319.59181669394434,-2.431423895253683 320.5469721767594,-2.6281505728314243 321.50703764320787,-2.7990180032733227 322.4713584288053,-2.9436988543371525 323.4392798690671,-3.0621931260229136 324.410147299509,-3.154500818330606 325.3829787234043,-3.2206219312602293 326.3571194762684,-3.2602291325695587 327.33224222585926,-3.273322422258593 327.33224222585926,-1.6366612111292964"/>
<polygon class="l241d0" points="67.41571194762685,-3.2206219312602293 68.3885433715221,-3.154500818330606 69.359410801964,-3.0621931260229136 70.32733224222586,-2.9436988543371525 71.29165302782324,-2.7990180032733227 72.2517184942717,-2.6281505728314243 73.20687397708674,-2.431423895253683 74.15613747954174,-2.209165302782324 75.09918166939444,-1.9607201309328972 76.03502454991818,-1.6873977086743046 76.9633387888707,-1.388543371522095 77.88314238952537,-1.0648117839607203 78.79378068739771,-0.7158756137479542 79.69459901800329,-0.34271685761047466 80.58527004909983,0.0546644844517185 81.4644844517185,0.47594108019639936 82.33224222585926,0.921112929623568 83.18756137479542,1.3895253682487727 84.02978723404256,1.8808510638297875 84.85826513911621,2.3947626841243865 85.67299509001637,2.930932896890344 86.47234042553193,3.489034369885434 87.25662847790508,4.06873977086743 88.02487725040918,4.669394435351883 88.77643207855974,5.290343698854337 89.51129296235679,5.931587561374795 90.22815057283142,6.5924713584288055 90.92700490998364,7.272667757774141 91.60720130932899,7.971522094926351 92.268085106383,8.688379705400983 92.90932896890345,9.423240589198036 93.5302782324059,10.174795417348609 94.13093289689034,10.943044189852701 94.71063829787235,11.72733224222586 95.26873977086744,12.526677577741408 95.80490998363341,13.341407528641573 96.318821603928,14.169885433715223 96.81014729950901,15.01211129296236 97.2785597381342,15.867430441898529 97.72373158756137,16.73518821603928 98.14500818330608,17.614402618657937 98.54238952536826,18.505073649754504 98.91554828150574,19.405891980360067 99.2644844517185,20.316530278232406 99.58821603927989,21.23633387888707 99.88707037643208,22.164648117839608 100.16039279869068,23.10049099836334 100.40883797054012,24.04353518821604 100.63109656301147,24.99279869067103 100.82782324058921,25.94795417348609 100.9986906710311,26.908019639934533 101.14337152209494,27.87234042553192 101.2618657937807,28.84026186579378 101.35417348608838,29.81112929623568 101.420294599018,30.783960720130935 101.45990180032733,31.758101472995094 101.47299509001637,32.733224222585925 99.83633387888707,32.733224222585925 99.82324058919804,31.786252045826515 99.78428805237317,30.839934533551556 99.718821603928,29.8949263502455 99.62782324058921,28.952209492635028 99.51063829787235,28.012438625204584 99.36759410801965,27.07626841243863 99.19869067103112,26.14402618657938 99.00458265139117,25.217021276595744 98.78461538461538,24.29590834697218 98.53944353518823,23.381014729950902 98.2693944353519,22.473322422258597 97.97414075286416,21.573486088379706 97.65433715220951,20.681833060556468 97.30998363338789,19.799672667757775 96.94140752864158,18.927004909983637 96.549263502455,18.06481178396072 96.13322422258594,17.214075286415714 95.69394435351884,16.375122749590837 95.23175122749592,15.548281505728315 94.74697217675941,14.734533551554831 94.23960720130933,13.934533551554829 93.71096563011457,13.148936170212767 93.16039279869068,12.378068739770868 92.58919803600656,11.622913256955812 91.99705400981998,10.883469721767595 91.38494271685761,10.160720130932898 90.7531914893617,9.454991816693946 90.10212765957448,8.767266775777415 89.43240589198037,8.097545008183307 88.74468085106383,7.4464811783960725 88.03895253682488,6.814729950900164 87.31620294599018,6.2026186579378075 86.57675941080198,5.610474631751228 85.82160392798691,5.039279869067103 85.050736497545,4.488707037643208 84.26513911620296,3.960065466448446 83.46513911620295,3.4527004909983634 82.65139116202947,2.967921440261866 81.82454991816694,2.5057283142389526 80.98559738134207,2.0664484451718494 80.13486088379706,1.6504091653027824 79.27266775777414,1.258265139116203 78.4,0.8896890343698854 77.51783960720132,0.5453355155482815 76.62618657937807,0.225531914893617 75.72635024549919,-0.06972176759410802 74.81865793780688,-0.33977086743044194 73.90376432078561,-0.5849427168576105 72.98265139116204,-0.804909983633388 72.0556464811784,-0.9990180032733225 71.12340425531916,-1.1679214402618658 70.1872340425532,-1.3109656301145662 69.24746317512275,-1.428150572831424 68.30474631751228,-1.5191489361702128 67.35973813420622,-1.5846153846153848 66.41342062193127,-1.623567921440262 65.46644844517185,-1.6366612111292964 0.0,-1.6366612111292964 0.0,-3.273322422258593 65.46644844517185,-3.273322422258593 66.44157119476269,-3.2602291325695587"/>
<polygon class="l241d0" points="392.7986906710311,-3.273322422258593 392.7986906710311,-1.6366612111292964 327.33224222585926,-1.6366612111292964 327.33224222585926,-3.273322422258593"/>
<polygon class="l241d0" points="225.8592471358429,32.733224222585925 225.8592471358429,0.0 227.4959083469722,0.0 227.4959083469722,32.733224222585925"/>
<polygon class="l241d0" points="160.39279869067104,32.733224222585925 160.39279869067104,0.0 162.02945990180035,0.0 162.02945990180035,32.733224222585925"/>
<polygon class="l241d0" points="225.8592471358429,0.0 225.8592471358429,-32.733224222585925 227.4959083469722,-32.733224222585925 227.4959083469722,0.0"/>
<polygon class="l241d0" points="160.39279869067104,0.0 160.39279869067104,-32.733224222585925 162.02945990180035,-32.733224222585925 162.02945990180035,0.0"/>
<polygon class="l241d0" points="225.8592471358429,-32.733224222585925 225.8592471358429,-84.12438625204584 227.4959083469722,-84.12438625204584 227.4959083469722,-32.733224222585925"/>
<polygon class="l241d0" points="160.39279869067104,-32.733224222585925 160.39279869067104,-84.12438625204584 162.02945990180035,-84.12438625204584 162.02945990180035,-32.733224222585925"/>
<polygon class="l241d0" points="195.45237315875613,-118.48117839607201 194.5060556464812,-118.44222585924715 193.56104746317513,-118.37675941080198 192.61833060556464,-118.28576104746318 191.67855973813423,-118.16857610474632 190.74238952536825,-118.02553191489362 189.81014729950903,-117.85662847790509 188.88314238952537,-117.66252045826515 187.96202945990183,-117.44255319148937 187.04713584288052,-117.1973813420622 186.1394435351882,-116.92733224222587 185.23960720130935,-116.63207855973813 184.3479541734861,-116.31227495908348 183.46579378068742,-115.96792144026188 182.59312602291328,-115.59934533551557 181.73093289689035,-115.20720130932898 180.88019639934538,-114.79116202945991 180.04124386252045,-114.35188216039282 179.21440261865794,-113.8896890343699 178.40065466448448,-113.4049099836334 177.6006546644845,-112.89754500818331 176.81505728314238,-112.36890343698855 176.04418985270053,-111.81833060556467 175.28903436988546,-111.24713584288054 174.54959083469723,-110.65499181669395 173.82684124386256,-110.0428805237316 173.12111292962356,-109.41112929623569 172.43338788870705,-108.76006546644845 171.76366612111295,-108.09034369885435 171.11260229132571,-107.40261865793782 170.4808510638298,-106.69689034369887 169.86873977086742,-105.97414075286416 169.27659574468086,-105.23469721767596 168.70540098199675,-104.47954173486089 168.15482815057283,-103.70867430441899 167.62618657937807,-102.92307692307693 167.118821603928,-102.12307692307692 166.6340425531915,-101.30932896890344 166.17184942716858,-100.48248772504093 165.7325695581015,-99.64353518821605 165.31653027823242,-98.79279869067105 164.92438625204585,-97.93060556464812 164.55581014729952,-97.05793780687398 164.21145662847792,-96.1757774140753 163.89165302782325,-95.28412438625206 163.59639934533553,-94.38428805237317 163.32635024549919,-93.47659574468086 163.08117839607203,-92.56170212765959 162.86121112929624,-91.64058919803601 162.6671031096563,-90.71358428805237 162.49819967266777,-89.78134206219313 162.35515548281506,-88.84517184942719 162.23797054009822,-87.90540098199673 162.14697217675942,-86.96268412438626 162.08150572831426,-86.0176759410802 162.0425531914894,-85.07135842880524 162.02945990180035,-84.12438625204584 160.39279869067104,-84.12438625204584 160.40589198036008,-85.09950900163666 160.44549918166942,-86.07364975450082 160.51162029459903,-87.04648117839608 160.6039279869067,-88.01734860883796 160.72242225859247,-88.98527004909985 160.8671031096563,-89.94959083469722 161.0379705400982,-90.90965630114566 161.23469721767594,-91.86481178396072 161.4569558101473,-92.81407528641573 161.70540098199675,-93.75711947626841 161.97872340425533,-94.69296235679214 162.27757774140753,-95.62127659574469 162.6013093289689,-96.54108019639935 162.95024549918168,-97.45171849427169 163.32340425531916,-98.35253682487725 163.72078559738134,-99.24320785597382 164.14206219312604,-100.1224222585925 164.5872340425532,-100.99018003273322 165.0556464811784,-101.8454991816694 165.54697217675943,-102.68772504091655 166.060883797054,-103.51620294599019 166.59705400981997,-104.33093289689035 167.15515548281508,-105.1302782324059 167.73486088379704,-105.91456628477907 168.3355155482815,-106.68281505728315 168.95646481178397,-107.43436988543372 169.5977086743044,-108.16923076923078 170.25859247135844,-108.88608837970541 170.93878887070377,-109.58494271685761 171.63764320785597,-110.26513911620296 172.35450081833062,-110.92602291325697 173.0893617021277,-111.56726677577743 173.84091653027824,-112.18821603927988 174.60916530278234,-112.78887070376433 175.3934533551555,-113.36857610474632 176.19279869067105,-113.92667757774142 177.0075286415712,-114.46284779050738 177.83600654664485,-114.97675941080198 178.67823240589198,-115.46808510638299 179.53355155482816,-115.93649754500818 180.40130932896892,-116.38166939443536 181.28052373158758,-116.80294599018005 182.17119476268414,-117.20032733224224 183.07201309328968,-117.57348608837972 183.98265139116205,-117.92242225859248 184.90245499181668,-118.24615384615386 185.83076923076922,-118.54500818330605 186.76661211129297,-118.81833060556465 187.70965630114566,-119.0667757774141 188.65891980360064,-119.28903436988544 189.61407528641573,-119.48576104746319 190.57414075286417,-119.65662847790507 191.53846153846155,-119.80130932896891 192.50638297872342,-119.91980360065467 193.47725040916532,-120.01211129296236 194.45008183306055,-120.078232405892 195.42422258592472,-120.1178396072013 196.39934533551556,-120.13093289689036 196.39934533551556,-118.49427168576105"/>
<polygon class="l241d0" points="230.75613747954176,-85.07135842880524 230.71718494271687,-86.0176759410802 230.65171849427168,-86.96268412438626 230.56072013093294,-87.90540098199673 230.44353518821606,-88.84517184942719 230.30049099836336,-89.78134206219313 230.13158756137483,-90.71358428805237 229.93747954173486,-91.64058919803601 229.71751227495912,-92.56170212765959 229.47234042553194,-93.47659574468086 229.2022913256956,-94.38428805237317 228.90703764320787,-95.28412438625206 228.58723404255318,-96.1757774140753 228.24288052373163,-97.05793780687398 227.87430441898528,-97.93060556464812 227.4821603927987,-98.79279869067105 227.06612111292964,-99.64353518821605 226.62684124386254,-100.48248772504093 226.16464811783962,-101.30932896890344 225.6798690671031,-102.12307692307692 225.17250409165305,-102.92307692307693 224.6438625204583,-103.70867430441899 224.09328968903438,-104.47954173486089 223.52209492635026,-105.23469721767596 222.9299509001637,-105.97414075286416 222.31783960720134,-106.69689034369887 221.6860883797054,-107.40261865793782 221.03502454991818,-108.09034369885435 220.36530278232408,-108.76006546644845 219.67757774140756,-109.41112929623569 218.97184942716856,-110.0428805237316 218.2490998363339,-110.65499181669395 217.50965630114567,-111.24713584288054 216.7545008183306,-111.81833060556467 215.98363338788874,-112.36890343698855 215.19803600654666,-112.89754500818331 214.39803600654665,-113.4049099836334 213.58428805237318,-113.8896890343699 212.75744680851068,-114.35188216039282 211.91849427168574,-114.79116202945991 211.06775777414077,-115.20720130932898 210.20556464811784,-115.59934533551557 209.3328968903437,-115.96792144026188 208.45073649754502,-116.31227495908348 207.55908346972177,-116.63207855973813 206.65924713584292,-116.92733224222587 205.7515548281506,-117.1973813420622 204.8366612111293,-117.44255319148937 203.91554828150575,-117.66252045826515 202.9885433715221,-117.85662847790509 202.05630114566287,-118.02553191489362 201.12013093289693,-118.16857610474632 200.1803600654665,-118.28576104746318 199.237643207856,-118.37675941080198 198.29263502454992,-118.44222585924715 197.346317512275,-118.48117839607201 196.39934533551556,-118.49427168576105 196.39934533551556,-120.13093289689036 197.3744680851064,-120.1178396072013 198.34860883797057,-120.078232405892 199.3214402618658,-120.01211129296236 200.29230769230773,-119.91980360065467 201.26022913256958,-119.80130932896891 202.22454991816696,-119.65662847790507 203.18461538461543,-119.48576104746319 204.13977086743049,-119.28903436988544 205.08903436988547,-119.0667757774141 206.03207855973815,-118.81833060556465 206.9679214402619,-118.54500818330605 207.89623567921444,-118.24615384615386 208.81603927986907,-117.92242225859248 209.72667757774144,-117.57348608837972 210.627495908347,-117.20032733224224 211.51816693944355,-116.80294599018005 212.3973813420622,-116.38166939443536 213.26513911620296,-115.93649754500818 214.12045826513915,-115.46808510638299 214.96268412438627,-114.97675941080198 215.7911620294599,-114.46284779050738 216.60589198036007,-113.92667757774142 217.40523731587564,-113.36857610474632 218.18952536824878,-112.78887070376433 218.9577741407529,-112.18821603927988 219.70932896890346,-111.56726677577743 220.4441898527005,-110.92602291325697 221.16104746317515,-110.26513911620296 221.85990180032735,-109.58494271685761 222.54009819967268,-108.88608837970541 223.2009819967267,-108.16923076923078 223.84222585924715,-107.43436988543372 224.46317512274962,-106.68281505728315 225.06382978723408,-105.91456628477907 225.64353518821605,-105.1302782324059 226.20163666121115,-104.33093289689035 226.7378068739771,-103.51620294599019 227.2517184942717,-102.68772504091655 227.74304418985272,-101.8454991816694 228.21145662847795,-100.99018003273322 228.65662847790512,-100.1224222585925 229.07790507364976,-99.24320785597382 229.47528641571196,-98.35253682487725 229.84844517184945,-97.45171849427169 230.19738134206222,-96.54108019639935 230.52111292962357,-95.62127659574469 230.8199672667758,-94.69296235679214 231.09328968903438,-93.75711947626841 231.34173486088383,-92.81407528641573 231.56399345335518,-91.86481178396072 231.76072013093292,-90.90965630114566 231.93158756137484,-89.94959083469722 232.07626841243865,-88.98527004909985 232.1947626841244,-88.01734860883796 232.28707037643207,-87.04648117839608 232.35319148936173,-86.07364975450082 232.39279869067107,-85.09950900163666 232.40589198036008,-84.12438625204584 230.76923076923077,-84.12438625204584"/>
<polygon class="l241d0" points="196.39934533551556,-113.58428805237317 195.58756137479543,-113.57315875613749 194.77643207855976,-113.53944353518823 193.96661211129296,-113.48379705400983 193.15842880523735,-113.40556464811785 192.3528641571195,-113.3050736497545 191.5502454991817,-113.18265139116204 190.75155482815057,-113.03797054009821 189.95711947626842,-112.87135842880525 189.16726677577742,-112.68281505728315 188.38330605564647,-112.47266775777415 187.60523731587563,-112.24091653027824 186.8337152209493,-111.98821603927989 186.0697217675941,-111.71391162029461 185.31325695581015,-111.41865793780688 184.56530278232407,-111.10310965630116 183.8265139116203,-110.76661211129297 183.0972176759411,-110.410147299509 182.37806873977087,-110.03371522094928 181.6693944353519,-109.63731587561375 180.9718494271686,-109.22193126022914 180.28641571194763,-108.78723404255321 179.6127659574468,-108.33387888707038 178.95220949263503,-107.86219312602292 178.3047463175123,-107.37250409165304 177.671031096563,-106.86481178396072 177.0513911620295,-106.3404255319149 176.4468085106383,-105.7986906710311 175.85695581014733,-105.240589198036 175.28314238952538,-104.66677577741409 174.72504091653028,-104.07692307692308 174.18330605564648,-103.47234042553193 173.65891980360067,-102.85270049099836 173.15122749590836,-102.2189852700491 172.66153846153847,-101.57152209492635 172.189852700491,-100.91096563011457 171.73649754500818,-100.23731587561376 171.30180032733224,-99.5518821603928 170.88641571194765,-98.8543371522095 170.4900163666121,-98.1456628477905 170.11358428805238,-97.42651391162029 169.7571194762684,-96.69721767594109 169.42062193126026,-95.95842880523733 169.1050736497545,-95.21047463175124 168.8098199672668,-94.45400981996728 168.53551554828152,-93.69001636661213 168.28281505728316,-92.91849427168576 168.05106382978724,-92.14042553191489 167.84091653027826,-91.35646481178397 167.65237315875615,-90.56661211129297 167.48576104746317,-89.77217675941081 167.34108019639936,-88.97348608837972 167.21865793780688,-88.17086743044192 167.11816693944354,-87.36530278232406 167.03993453355156,-86.55711947626843 166.98428805237316,-85.74729950900165 166.9505728314239,-84.93617021276597 166.93944353518822,-84.12438625204584 165.30278232405894,-84.12438625204584 165.31489361702128,-84.99639934533552 165.3515548281506,-85.86808510638298 165.41276595744682,-86.73813420621933 165.49819967266777,-87.60621931260229 165.60818330605565,-88.47135842880523 165.74206219312603,-89.33322422258594 165.90016366612113,-90.1911620294599 166.08248772504092,-91.04386252045828 166.288379705401,-91.89165302782324 166.51816693944355,-92.7328968903437 166.77119476268413,-93.56759410801965 167.047790507365,-94.39509001636662 167.34729950900163,-95.21407528641572 167.66972176759413,-96.02454991816695 168.0150572831424,-96.82553191489363 168.38232405891983,-97.61669394435353 168.77184942716858,-98.39705400981998 169.1829787234043,-99.16628477905074 169.6153846153846,-99.92373158756138 170.0690671031097,-100.66873977086745 170.54337152209493,-101.40065466448446 171.03829787234045,-102.11914893617022 171.5528641571195,-102.82324058919805 172.08707037643208,-103.51292962356794 172.6402618657938,-104.18690671031098 173.21243862520458,-104.8454991816694 173.8026186579378,-105.48772504091653 174.4108019639935,-106.11292962356794 175.03600654664487,-106.72111292962359 175.678232405892,-107.3112929623568 176.3368248772504,-107.8834697217676 177.0108019639935,-108.4366612111293 177.70049099836336,-108.97086743044191 178.40458265139117,-109.48543371522096 179.12307692307695,-109.98036006546646 179.85499181669397,-110.45466448445174 180.6,-110.90834697217676 181.35744680851067,-111.34075286415714 182.12667757774145,-111.7518821603928 182.90703764320784,-112.14140752864158 183.69819967266776,-112.50867430441899 184.49918166939443,-112.85400981996727 185.30965630114568,-113.17643207855976 186.1286415711948,-113.4759410801964 186.95613747954172,-113.75253682487727 187.7908346972177,-114.00556464811784 188.63207855973815,-114.23535188216039 189.47986906710312,-114.44124386252047 190.33256955810148,-114.62356792144027 191.19050736497547,-114.78166939443537 192.05237315875615,-114.91554828150574 192.9175122749591,-115.02553191489363 193.7855973813421,-115.11096563011458 194.65564648117842,-115.17217675941082 195.52733224222587,-115.20883797054012 196.39934533551556,-115.22094926350246"/>
<polygon class="l241d0" points="197.27135842880526,-115.20883797054012 198.1430441898527,-115.17217675941082 199.01309328968907,-115.11096563011458 199.88117839607202,-115.02553191489363 200.74631751227497,-114.91554828150574 201.60818330605568,-114.78166939443537 202.46612111292964,-114.62356792144027 203.318821603928,-114.44124386252047 204.16661211129298,-114.23535188216039 205.00785597381343,-114.00556464811784 205.8425531914894,-113.75253682487727 206.67004909983635,-113.4759410801964 207.48903436988545,-113.17643207855976 208.2995090016367,-112.85400981996727 209.10049099836337,-112.50867430441899 209.89165302782328,-112.14140752864158 210.67201309328968,-111.7518821603928 211.44124386252045,-111.34075286415714 212.19869067103113,-110.90834697217676 212.94369885433716,-110.45466448445174 213.6756137479542,-109.98036006546646 214.39410801963996,-109.48543371522096 215.09819967266776,-108.97086743044191 215.78788870703764,-108.4366612111293 216.46186579378073,-107.8834697217676 217.12045826513912,-107.3112929623568 217.76268412438625,-106.72111292962359 218.38788870703763,-106.11292962356794 218.9960720130933,-105.48772504091653 219.58625204582654,-104.8454991816694 220.15842880523732,-104.18690671031098 220.71162029459904,-103.51292962356794 221.24582651391162,-102.82324058919805 221.76039279869067,-102.11914893617022 222.2553191489362,-101.40065466448446 222.72962356792144,-100.66873977086745 223.1833060556465,-99.92373158756138 223.61571194762683,-99.16628477905074 224.02684124386255,-98.39705400981998 224.41636661211132,-97.61669394435353 224.78363338788876,-96.82553191489363 225.128968903437,-96.02454991816695 225.4513911620295,-95.21407528641572 225.75090016366613,-94.39509001636662 226.027495908347,-93.56759410801965 226.28052373158758,-92.7328968903437 226.51031096563014,-91.89165302782324 226.7162029459902,-91.04386252045828 226.89852700491,-90.1911620294599 227.0566284779051,-89.33322422258594 227.19050736497547,-88.47135842880523 227.30049099836336,-87.60621931260229 227.3859247135843,-86.73813420621933 227.44713584288053,-85.86808510638298 227.4837970540098,-84.99639934533552 227.4959083469722,-84.12438625204584 225.8592471358429,-84.12438625204584 225.84811783960723,-84.93617021276597 225.81440261865797,-85.74729950900165 225.75875613747957,-86.55711947626843 225.68052373158756,-87.36530278232406 225.58003273322424,-88.17086743044192 225.45761047463176,-88.97348608837972 225.31292962356795,-89.77217675941081 225.14631751227498,-90.56661211129297 224.95777414075286,-91.35646481178397 224.74762684124389,-92.14042553191489 224.51587561374797,-92.91849427168576 224.2631751227496,-93.69001636661213 223.98887070376432,-94.45400981996728 223.69361702127662,-95.21047463175124 223.37806873977087,-95.95842880523733 223.04157119476272,-96.69721767594109 222.68510638297874,-97.42651391162029 222.30867430441901,-98.1456628477905 221.91227495908348,-98.8543371522095 221.49689034369888,-99.5518821603928 221.06219312602295,-100.23731587561376 220.60883797054012,-100.91096563011457 220.13715220949265,-101.57152209492635 219.64746317512277,-102.2189852700491 219.13977086743046,-102.85270049099836 218.61538461538464,-103.47234042553193 218.07364975450085,-104.07692307692308 217.51554828150574,-104.66677577741409 216.9417348608838,-105.240589198036 216.35188216039282,-105.7986906710311 215.74729950900164,-106.3404255319149 215.1276595744681,-106.86481178396072 214.49394435351883,-107.37250409165304 213.8464811783961,-107.86219312602292 213.1859247135843,-108.33387888707038 212.5122749590835,-108.78723404255321 211.82684124386253,-109.22193126022914 211.12929623567922,-109.63731587561375 210.42062193126026,-110.03371522094928 209.70147299509003,-110.410147299509 208.97217675941081,-110.76661211129297 208.23338788870706,-111.10310965630116 207.48543371522098,-111.41865793780688 206.72896890343702,-111.71391162029461 205.96497545008182,-111.98821603927989 205.1934533551555,-112.24091653027824 204.41538461538465,-112.47266775777415 203.6314238952537,-112.68281505728315 202.8415711947627,-112.87135842880525 202.04713584288055,-113.03797054009821 201.24844517184943,-113.18265139116204 200.4458265139116,-113.3050736497545 199.64026186579378,-113.40556464811785 198.83207855973816,-113.48379705400983 198.02225859247136,-113.53944353518823 197.2111292962357,-113.57315875613749 196.39934533551556,-113.58428805237317 196.39934533551556,-115.22094926350246"/>
<polygon class="l241d0" points="227.50900163666122,85.07135842880524 227.5479541734861,86.0176759410802 227.61342062193128,86.96268412438626 227.70441898527005,87.90540098199673 227.82160392798693,88.84517184942719 227.96464811783963,89.78134206219313 228.13355155482816,90.71358428805237 228.32765957446813,91.64058919803601 228.54762684124387,92.56170212765959 228.79279869067105,93.47659574468086 229.0628477905074,94.38428805237317 229.3581014729951,95.28412438625206 229.67790507364978,96.1757774140753 230.02225859247136,97.05793780687398 230.3908346972177,97.93060556464812 230.78297872340428,98.79279869067105 231.19901800327332,99.64353518821605 231.63829787234044,100.48248772504093 232.10049099836337,101.30932896890344 232.58527004909985,102.12307692307692 233.09263502454993,102.92307692307693 233.6212765957447,103.70867430441899 234.17184942716858,104.47954173486089 234.74304418985272,105.23469721767596 235.33518821603928,105.97414075286416 235.94729950900165,106.69689034369887 236.57905073649758,107.40261865793782 237.2301145662848,108.09034369885435 237.8998363338789,108.76006546644845 238.58756137479543,109.41112929623569 239.2932896890344,110.0428805237316 240.0160392798691,110.65499181669395 240.75548281505732,111.24713584288054 241.5106382978724,111.81833060556467 242.28150572831424,112.36890343698855 243.06710310965633,112.89754500818331 243.8671031096563,113.4049099836334 244.6808510638298,113.8896890343699 245.5076923076923,114.35188216039282 246.34664484451721,114.79116202945991 247.19738134206222,115.20720130932898 248.05957446808512,115.59934533551557 248.93224222585928,115.96792144026188 249.81440261865797,116.31227495908348 250.70605564648122,116.63207855973813 251.60589198036007,116.92733224222587 252.51358428805239,117.1973813420622 253.4284779050737,117.44255319148937 254.34959083469724,117.66252045826515 255.27659574468086,117.85662847790509 256.2088379705401,118.02553191489362 257.14500818330606,118.16857610474632 258.08477905073653,118.28576104746318 259.02749590834696,118.37675941080198 259.97250409165304,118.44222585924715 260.918821603928,118.48117839607201 261.8657937806874,118.49427168576105 261.8657937806874,120.13093289689036 260.8906710310966,120.1178396072013 259.9165302782324,120.078232405892 258.9436988543372,120.01211129296236 257.9728314238953,119.91980360065467 257.0049099836334,119.80130932896891 256.040589198036,119.65662847790507 255.08052373158756,119.48576104746319 254.1253682487725,119.28903436988544 253.17610474631752,119.0667757774141 252.23306055646484,118.81833060556465 251.29721767594108,118.54500818330605 250.36890343698855,118.24615384615386 249.4490998363339,117.92242225859248 248.53846153846155,117.57348608837972 247.637643207856,117.20032733224224 246.74697217675944,116.80294599018005 245.86775777414076,116.38166939443536 245.00000000000003,115.93649754500818 244.14468085106384,115.46808510638299 243.30245499181672,114.97675941080198 242.47397708674308,114.46284779050738 241.6592471358429,113.92667757774142 240.85990180032735,113.36857610474632 240.0756137479542,112.78887070376433 239.30736497545007,112.18821603927988 238.55581014729952,111.56726677577743 237.82094926350248,110.92602291325697 237.10409165302784,110.26513911620296 236.4052373158756,109.58494271685761 235.7250409165303,108.88608837970541 235.06415711947628,108.16923076923078 234.42291325695584,107.43436988543372 233.80196399345337,106.68281505728315 233.2013093289689,105.91456628477907 232.6216039279869,105.1302782324059 232.0635024549918,104.33093289689035 231.5273322422259,103.51620294599019 231.01342062193126,102.68772504091655 230.52209492635026,101.8454991816694 230.05368248772504,100.99018003273322 229.60851063829787,100.1224222585925 229.18723404255323,99.24320785597382 228.789852700491,98.35253682487725 228.41669394435354,97.45171849427169 228.06775777414074,96.54108019639935 227.74402618657942,95.62127659574469 227.4451718494272,94.69296235679214 227.17184942716858,93.75711947626841 226.92340425531916,92.81407528641573 226.7011456628478,91.86481178396072 226.50441898527006,90.90965630114566 226.33355155482815,89.94959083469722 226.1888707037643,88.98527004909985 226.07037643207858,88.01734860883796 225.9780687397709,87.04648117839608 225.91194762684125,86.07364975450082 225.87234042553192,85.09950900163666 225.8592471358429,84.12438625204584 227.4959083469722,84.12438625204584"/>
<polygon class="l241d0" points="297.8592471358429,85.09950900163666 297.8196399345336,86.07364975450082 297.7535188216039,87.04648117839608 297.66121112929625,88.01734860883796 297.5427168576105,88.98527004909985 297.3980360065467,89.94959083469722 297.22716857610476,90.90965630114566 297.03044189852704,91.86481178396072 296.8081833060557,92.81407528641573 296.55973813420627,93.75711947626841 296.28641571194765,94.69296235679214 295.9875613747954,95.62127659574469 295.6638297872341,96.54108019639935 295.3148936170213,97.45171849427169 294.94173486088386,98.35253682487725 294.5443535188216,99.24320785597382 294.12307692307695,100.1224222585925 293.6779050736498,100.99018003273322 293.20949263502456,101.8454991816694 292.71816693944356,102.68772504091655 292.20425531914896,103.51620294599019 291.668085106383,104.33093289689035 291.1099836333879,105.1302782324059 290.5302782324059,105.91456628477907 289.92962356792145,106.68281505728315 289.308674304419,107.43436988543372 288.66743044189855,108.16923076923078 288.00654664484455,108.88608837970541 287.3263502454992,109.58494271685761 286.627495908347,110.26513911620296 285.91063829787237,110.92602291325697 285.1757774140753,111.56726677577743 284.4242225859247,112.18821603927988 283.65597381342064,112.78887070376433 282.8716857610475,113.36857610474632 282.07234042553193,113.92667757774142 281.25761047463175,114.46284779050738 280.42913256955813,114.97675941080198 279.586906710311,115.46808510638299 278.7315875613748,115.93649754500818 277.86382978723407,116.38166939443536 276.9846153846154,116.80294599018005 276.09394435351885,117.20032733224224 275.1931260229133,117.57348608837972 274.28248772504094,117.92242225859248 273.3626841243863,118.24615384615386 272.43436988543374,118.54500818330605 271.49852700491,118.81833060556465 270.5554828150573,119.0667757774141 269.6062193126023,119.28903436988544 268.6510638297873,119.48576104746319 267.69099836333885,119.65662847790507 266.72667757774144,119.80130932896891 265.75875613747957,119.91980360065467 264.78788870703767,120.01211129296236 263.81505728314244,120.078232405892 262.84091653027826,120.1178396072013 261.8657937806874,120.13093289689036 261.8657937806874,118.49427168576105 262.81276595744686,118.48117839607201 263.75908346972176,118.44222585924715 264.70409165302783,118.37675941080198 265.6468085106383,118.28576104746318 266.5865793780688,118.16857610474632 267.52274959083474,118.02553191489362 268.45499181669396,117.85662847790509 269.3819967266776,117.66252045826515 270.30310965630116,117.44255319148937 271.21800327332244,117.1973813420622 272.1256955810148,116.92733224222587 273.02553191489363,116.63207855973813 273.91718494271686,116.31227495908348 274.79934533551557,115.96792144026188 275.6720130932897,115.59934533551557 276.53420621931264,115.20720130932898 277.3849427168576,114.79116202945991 278.22389525368254,114.35188216039282 279.050736497545,113.8896890343699 279.8644844517185,113.4049099836334 280.6644844517185,112.89754500818331 281.4500818330606,112.36890343698855 282.22094926350246,111.81833060556467 282.9761047463175,111.24713584288054 283.71554828150573,110.65499181669395 284.43829787234046,110.0428805237316 285.1440261865794,109.41112929623569 285.83175122749594,108.76006546644845 286.50147299509,108.09034369885435 287.15253682487725,107.40261865793782 287.7842880523732,106.69689034369887 288.39639934533557,105.97414075286416 288.9885433715221,105.23469721767596 289.55973813420627,104.47954173486089 290.11031096563016,103.70867430441899 290.6389525368249,102.92307692307693 291.146317512275,102.12307692307692 291.63109656301145,101.30932896890344 292.0932896890344,100.48248772504093 292.5325695581015,99.64353518821605 292.94860883797054,98.79279869067105 293.34075286415714,97.93060556464812 293.7093289689035,97.05793780687398 294.05368248772504,96.1757774140753 294.37348608837976,95.28412438625206 294.66873977086743,94.38428805237317 294.9387888707038,93.47659574468086 295.183960720131,92.56170212765959 295.4039279869067,91.64058919803601 295.5980360065467,90.71358428805237 295.7669394435352,89.78134206219313 295.9099836333879,88.84517184942719 296.02716857610477,87.90540098199673 296.11816693944354,86.96268412438626 296.18363338788873,86.0176759410802 296.2225859247136,85.07135842880524 296.23567921440264,84.12438625204584 297.87234042553195,84.12438625204584"/>
<polygon class="l241d0" points="96.57610474631753,85.07135842880524 96.61505728314239,86.0176759410802 96.68052373158756,86.96268412438626 96.77152209492635,87.90540098199673 96.88870703764321,88.84517184942719 97.03175122749592,89.78134206219313 97.20065466448445,90.71358428805237 97.39476268412439,91.64058919803601 97.61472995090018,92.56170212765959 97.85990180032734,93.47659574468086 98.12995090016366,94.38428805237317 98.4252045826514,95.28412438625206 98.74500818330606,96.1757774140753 99.08936170212768,97.05793780687398 99.45793780687399,97.93060556464812 99.85008183306056,98.79279869067105 100.26612111292962,99.64353518821605 100.70540098199673,100.48248772504093 101.16759410801966,101.30932896890344 101.65237315875615,102.12307692307692 102.15973813420624,102.92307692307693 102.68837970540099,103.70867430441899 103.23895253682488,104.47954173486089 103.810147299509,105.23469721767596 104.40229132569559,105.97414075286416 105.01440261865795,106.69689034369887 105.64615384615387,107.40261865793782 106.29721767594108,108.09034369885435 106.9669394435352,108.76006546644845 107.65466448445173,109.41112929623569 108.36039279869068,110.0428805237316 109.08314238952538,110.65499181669395 109.8225859247136,111.24713584288054 110.57774140752865,111.81833060556467 111.34860883797056,112.36890343698855 112.1342062193126,112.89754500818331 112.93420621931261,113.4049099836334 113.7479541734861,113.8896890343699 114.57479541734862,114.35188216039282 115.41374795417349,114.79116202945991 116.2644844517185,115.20720130932898 117.12667757774142,115.59934533551557 117.99934533551556,115.96792144026188 118.88150572831425,116.31227495908348 119.77315875613748,116.63207855973813 120.67299509001637,116.92733224222587 121.58068739770867,117.1973813420622 122.49558101472995,117.44255319148937 123.41669394435353,117.66252045826515 124.34369885433716,117.85662847790509 125.27594108019642,118.02553191489362 126.21211129296236,118.16857610474632 127.15188216039282,118.28576104746318 128.0945990180033,118.37675941080198 129.03960720130934,118.44222585924715 129.9859247135843,118.48117839607201 130.9328968903437,118.49427168576105 130.9328968903437,120.13093289689036 129.9577741407529,120.1178396072013 128.98363338788872,120.078232405892 128.01080196399346,120.01211129296236 127.03993453355157,119.91980360065467 126.0720130932897,119.80130932896891 125.10769230769232,119.65662847790507 124.14762684124388,119.48576104746319 123.19247135842882,119.28903436988544 122.24320785597381,119.0667757774141 121.30016366612112,118.81833060556465 120.3643207855974,118.54500818330605 119.43600654664486,118.24615384615386 118.51620294599019,117.92242225859248 117.60556464811786,117.57348608837972 116.70474631751229,117.20032733224224 115.81407528641573,116.80294599018005 114.93486088379706,116.38166939443536 114.06710310965632,115.93649754500818 113.21178396072014,115.46808510638299 112.369558101473,114.97675941080198 111.54108019639935,114.46284779050738 110.72635024549919,113.92667757774142 109.92700490998364,113.36857610474632 109.14271685761048,112.78887070376433 108.37446808510639,112.18821603927988 107.62291325695583,111.56726677577743 106.88805237315877,110.92602291325697 106.17119476268414,110.26513911620296 105.47234042553193,109.58494271685761 104.79214402618658,108.88608837970541 104.13126022913256,108.16923076923078 103.49001636661211,107.43436988543372 102.86906710310966,106.68281505728315 102.26841243862522,105.91456628477907 101.68870703764321,105.1302782324059 101.13060556464812,104.33093289689035 100.59443535188215,103.51620294599019 100.08052373158756,102.68772504091655 99.58919803600655,101.8454991816694 99.12078559738136,100.99018003273322 98.67561374795419,100.1224222585925 98.25433715220949,99.24320785597382 97.8569558101473,98.35253682487725 97.48379705400983,97.45171849427169 97.13486088379706,96.54108019639935 96.81112929623568,95.62127659574469 96.51227495908348,94.69296235679214 96.23895253682488,93.75711947626841 95.99050736497544,92.81407528641573 95.7682487725041,91.86481178396072 95.57152209492637,90.90965630114566 95.40065466448446,89.94959083469722 95.25597381342062,88.98527004909985 95.13747954173486,88.01734860883796 95.04517184942718,87.04648117839608 94.97905073649756,86.07364975450082 94.93944353518823,85.09950900163666 94.9263502454992,84.12438625204584 96.56301145662849,84.12438625204584"/>
<polygon class="l241d0" points="166.92635024549918,85.09950900163666 166.88674304418987,86.07364975450082 166.82062193126023,87.04648117839608 166.72831423895255,88.01734860883796 166.6098199672668,88.98527004909985 166.46513911620295,89.94959083469722 166.29427168576106,90.90965630114566 166.09754500818332,91.86481178396072 165.87528641571197,92.81407528641573 165.62684124386254,93.75711947626841 165.35351882160393,94.69296235679214 165.05466448445173,95.62127659574469 164.73093289689035,96.54108019639935 164.38199672667758,97.45171849427169 164.00883797054013,98.35253682487725 163.61145662847792,99.24320785597382 163.19018003273322,100.1224222585925 162.74500818330606,100.99018003273322 162.27659574468086,101.8454991816694 161.78527004909986,102.68772504091655 161.27135842880526,103.51620294599019 160.7351882160393,104.33093289689035 160.1770867430442,105.1302782324059 159.5973813420622,105.91456628477907 158.99672667757775,106.68281505728315 158.37577741407532,107.43436988543372 157.73453355155485,108.16923076923078 157.07364975450082,108.88608837970541 156.3934533551555,109.58494271685761 155.6945990180033,110.26513911620296 154.97774140752864,110.92602291325697 154.2428805237316,111.56726677577743 153.49132569558103,112.18821603927988 152.72307692307695,112.78887070376433 151.93878887070377,113.36857610474632 151.13944353518824,113.92667757774142 150.32471358428808,114.46284779050738 149.4962356792144,114.97675941080198 148.65400981996726,115.46808510638299 147.7986906710311,115.93649754500818 146.93093289689037,116.38166939443536 146.05171849427168,116.80294599018005 145.16104746317512,117.20032733224224 144.26022913256955,117.57348608837972 143.34959083469724,117.92242225859248 142.42978723404255,118.24615384615386 141.50147299509,118.54500818330605 140.5656301145663,118.81833060556465 139.6225859247136,119.0667757774141 138.6733224222586,119.28903436988544 137.71816693944353,119.48576104746319 136.7581014729951,119.65662847790507 135.7937806873977,119.80130932896891 134.82585924713584,119.91980360065467 133.85499181669397,120.01211129296236 132.88216039279868,120.078232405892 131.90801963993454,120.1178396072013 130.9328968903437,120.13093289689036 130.9328968903437,118.49427168576105 131.8798690671031,118.48117839607201 132.8261865793781,118.44222585924715 133.77119476268413,118.37675941080198 134.7139116202946,118.28576104746318 135.65368248772506,118.16857610474632 136.589852700491,118.02553191489362 137.52209492635026,117.85662847790509 138.4490998363339,117.66252045826515 139.37021276595746,117.44255319148937 140.28510638297874,117.1973813420622 141.19279869067103,116.92733224222587 142.09263502454993,116.63207855973813 142.98428805237316,116.31227495908348 143.86644844517187,115.96792144026188 144.739116202946,115.59934533551557 145.6013093289689,115.20720130932898 146.4520458265139,114.79116202945991 147.2909983633388,114.35188216039282 148.11783960720132,113.8896890343699 148.9315875613748,113.4049099836334 149.7315875613748,112.89754500818331 150.51718494271685,112.36890343698855 151.28805237315876,111.81833060556467 152.04320785597383,111.24713584288054 152.78265139116203,110.65499181669395 153.50540098199673,110.0428805237316 154.2111292962357,109.41112929623569 154.89885433715222,108.76006546644845 155.56857610474634,108.09034369885435 156.21963993453355,107.40261865793782 156.85139116202947,106.69689034369887 157.4635024549918,105.97414075286416 158.0556464811784,105.23469721767596 158.62684124386254,104.47954173486089 159.1774140752864,103.70867430441899 159.7060556464812,102.92307692307693 160.21342062193128,102.12307692307692 160.69819967266776,101.30932896890344 161.16039279869068,100.48248772504093 161.5996726677578,99.64353518821605 162.01571194762687,98.79279869067105 162.40785597381344,97.93060556464812 162.77643207855974,97.05793780687398 163.12078559738134,96.1757774140753 163.440589198036,95.28412438625206 163.73584288052376,94.38428805237317 164.00589198036008,93.47659574468086 164.25106382978723,92.56170212765959 164.47103109656302,91.64058919803601 164.66513911620297,90.71358428805237 164.8340425531915,89.78134206219313 164.9770867430442,88.84517184942719 165.09427168576107,87.90540098199673 165.18527004909984,86.96268412438626 165.25073649754503,86.0176759410802 165.2896890343699,85.07135842880524 165.30278232405894,84.12438625204584 166.93944353518822,84.12438625204584"/>
<polygon class="l3d0" points="-1.6366612111292964,-101.47299509001637 -1.6366612111292964,-68.73977086743045 -20.458265139116204,-68.73977086743045 -20.458265139116204,-58.91980360065467 20.458265139116204,-58.91980360065467 20.458265139116204,-68.73977086743045 1.6366612111292964,-68.73977086743045 1.6366612111292964,-101.47299509001637 107.20130932896892,-101.47299509001637 107.20130932896892,-65.46644844517185 74.46808510638299,-65.46644844517185 74.46808510638299,-68.73977086743045 33.55155482815058,-68.73977086743045 33.55155482815058,-58.91980360065467 74.46808510638299,-58.91980360065467 74.46808510638299,-62.19312602291326 107.20130932896892,-62.19312602291326 107.20130932896892,62.19312602291326 74.46808510638299,62.19312602291326 74.46808510638299,58.91980360065467 33.55155482815058,58.91980360065467 33.55155482815058,68.73977086743045 74.46808510638299,68.73977086743045 74.46808510638299,65.46644844517185 107.20130932896892,65.46644844517185 107.20130932896892,101.47299509001637 1.6366612111292964,101.47299509001637 1.6366612111292964,68.73977086743045 20.458265139116204,68.73977086743045 20.458265139116204,58.91980360065467 -20.458265139116204,58.91980360065467 -20.458265139116204,68.73977086743045 -1.6366612111292964,68.73977086743045 -1.6366612111292964,101.47299509001637 -107.20130932896892,101.47299509001637 -107.20130932896892,65.46644844517185 -74.46808510638299,65.46644844517185 -74.46808510638299,68.73977086743045 -33.55155482815058,68.73977086743045 -33.55155482815058,58.91980360065467 -74.46808510638299,58.91980360065467 -74.46808510638299,62.19312602291326 -107.20130932896892,62.19312602291326 -107.20130932896892,4.909983633387889 -74.46808510638299,4.909983633387889 -74.46808510638299,54.00981996726678 74.46808510638299,54.00981996726678 74.46808510638299,4.909983633387889 -74.46808510638299,4.909983633387889 -107.20130932896892,4.909983633387889 -107.20130932896892,-54.00981996726678 -74.46808510638299,-54.00981996726678 -74.46808510638299,-4.909983633387889 74.46808510638299,-4.909983633387889 74.46808510638299,-54.00981996726678 -74.46808510638299,-54.00981996726678 -107.20130932896892,-54.00981996726678 -107.20130932896892,-62.19312602291326 -74.46808510638299,-62.19312602291326 -74.46808510638299,-58.91980360065467 -33.55155482815058,-58.91980360065467 -33.55155482815058,-68.73977086743045 -74.46808510638299,-68.73977086743045 -74.46808510638299,-65.46644844517185 -107.20130932896892,-65.46644844517185 -107.20130932896892,-101.47299509001637"/>
</g>
</svg>