<svg xmlns="http://www.w3.org/2000/svg" xmlns:xlink="http://www.w3.org/1999/xlink" width="312.5" height="687.5" viewBox="-156.25 -343.75 312.5 687.5">
<defs>
<style type="text/css">
.l3d0 {stroke: rgb(255, 255, 64); fill: rgb(255, 255, 64); fill-opacity: 0.5;}
</style>
</defs>
<rect x="-156.25" y="-343.75" width="312.5" height="687.5" fill="#222" stroke="none"/>
<g id="gds" transform="scale(1 -1)">
<polygon class="l3d0" points="-86.53846153846154,-274.03846153846154 86.53846153846154,-274.03846153846154 86.53846153846154,-144.23076923076922 48.07692307692308,-105.76923076923077 48.07692307692308,105.76923076923077 86.53846153846154,144.23076923076922 86.53846153846154,274.03846153846154 -86.53846153846154,274.03846153846154 -86.53846153846154,144.23076923076922 -48.07692307692308,105.76923076923077 -48.07692307692308,-105.76923076923077 -86.53846153846154,-144.23076923076922"/>
<polygon class="l3d0" points="-105.76923076923077,117.78846153846154 -74.51923076923077,86.53846153846154 74.51923076923077,86.53846153846154 105.76923076923077,117.78846153846154 105.76923076923077,293.2692307692308 -105.76923076923077,293.2692307692308"/>
<polygon class="l3d0" points="-105.76923076923077,-293.2692307692308 105.76923076923077,-293.2692307692308 105.76923076923077,-117.78846153846154 74.51923076923077,-86.53846153846154 -74.51923076923077,-86.53846153846154 -105.76923076923077,-117.78846153846154"/>
<polygon class="l3d0" points="-125.0,67.3076923076923 125.0,67.3076923076923 125.0,312.5 -125.0,312.5"/>
<polygon class="l3d0" points="-125.0,-312.5 125.0,-312.5 125.0,-67.3076923076923 -125.0,-67.3076923076923"/>
</g>
</svg>
