<svg xmlns="http://www.w3.org/2000/svg" xmlns:xlink="http://www.w3.org/1999/xlink" width="550.0000000000001" height="314.7058823529412" viewBox="-34.80392156862746 -279.90196078431376 550.0000000000001 314.7058823529412">
<defs>
<style type="text/css">
.l3d0 {stroke: rgb(255, 255, 64); fill: rgb(255, 255, 64); fill-opacity: 0.5;}
</style>
</defs>
<rect x="-34.80392156862746" y="-279.90196078431376" width="550.0000000000001" height="314.7058823529412" fill="#222" stroke="none"/>
<g id="gds" transform="scale(1 -1)">
<polygon class="l3d0" points="9.803921568627452,205.8823529411765 9.904411764705884,208.31127450980392 10.205882352941176,210.72303921568627 10.703431372549021,213.1029411764706 11.397058823529413,215.4313725490196 12.28186274509804,217.69607843137254 13.348039215686274,219.87990196078434 14.593137254901961,221.968137254902 16.004901960784316,223.9485294117647 17.575980392156865,225.8014705882353 19.29656862745098,227.52205882352942 21.149509803921568,229.09313725490196 23.129901960784313,230.50490196078434 25.21813725490196,231.75000000000003 27.401960784313726,232.81617647058826 29.666666666666668,233.70098039215688 31.99509803921569,234.39460784313727 34.375,234.8921568627451 36.786764705882355,235.19362745098042 39.21568627450981,235.29411764705884 205.8823529411765,235.29411764705884 208.31127450980392,235.19362745098042 210.72303921568627,234.8921568627451 213.1029411764706,234.39460784313727 215.4313725490196,233.70098039215688 217.69607843137254,232.81617647058826 219.87990196078434,231.75000000000003 221.968137254902,230.50490196078434 223.9485294117647,229.09313725490196 225.8014705882353,227.52205882352942 227.52205882352942,225.8014705882353 229.09313725490196,223.9485294117647 230.50490196078434,221.968137254902 231.75000000000003,219.87990196078434 232.81617647058826,217.69607843137254 233.70098039215688,215.4313725490196 234.39460784313727,213.1029411764706 234.8921568627451,210.72303921568627 235.19362745098042,208.31127450980392 235.29411764705884,205.8823529411765 235.29411764705884,39.21568627450981 235.38970588235296,36.13725490196079 235.68137254901964,33.071078431372555 236.16176470588238,30.029411764705888 236.83333333333334,27.02450980392157 237.69362745098042,24.068627450980394 238.73529411764707,21.17156862745098 239.95833333333337,18.34313725490196 241.35784313725492,15.600490196078432 242.92401960784315,12.948529411764708 244.65686274509804,10.401960784313726 246.54411764705884,7.970588235294118 248.58088235294122,5.659313725490197 250.7573529411765,3.4828431372549025 253.0686274509804,1.446078431372549 255.50000000000003,-0.44117647058823534 258.046568627451,-2.1740196078431375 260.6985294117647,-3.740196078431373 263.44117647058823,-5.139705882352941 266.2696078431373,-6.362745098039216 269.1666666666667,-7.404411764705882 272.12254901960785,-8.264705882352942 275.12745098039215,-8.936274509803923 278.16911764705884,-9.416666666666668 281.2352941176471,-9.708333333333334 284.3137254901961,-9.803921568627452 490.1960784313726,-9.803921568627452 490.1960784313726,-4.901960784313726 284.3137254901961,-4.901960784313726 281.42892156862746,-4.806372549019608 278.5563725490196,-4.524509803921569 275.7058823529412,-4.053921568627451 272.89460784313724,-3.399509803921569 270.13235294117646,-2.561274509803922 267.4313725490196,-1.5441176470588236 264.8014705882353,-0.35294117647058826 262.2549019607843,1.0098039215686274 259.80392156862746,2.5343137254901964 257.4558823529412,4.215686274509804 255.22549019607845,6.046568627450981 253.11764705882356,8.019607843137255 251.14460784313727,10.127450980392156 249.3137254901961,12.357843137254902 247.6323529411765,14.705882352941178 246.10784313725495,17.15686274509804 244.7450980392157,19.70343137254902 243.5539215686275,22.333333333333336 242.53676470588238,25.0343137254902 241.69852941176472,27.79656862745098 241.04411764705884,30.607843137254903 240.57352941176472,33.458333333333336 240.29166666666669,36.33088235294118 240.19607843137257,39.21568627450981 240.19607843137257,205.8823529411765 240.10049019607845,208.44607843137257 239.81372549019608,210.99754901960787 239.3357843137255,213.5171568627451 238.671568627451,215.99754901960785 237.82352941176472,218.41911764705884 236.79901960784318,220.76960784313727 235.59803921568627,223.03921568627453 234.2328431372549,225.2107843137255 232.7107843137255,227.27696078431373 231.03676470588238,229.22058823529414 229.22058823529414,231.03676470588238 227.27696078431373,232.7107843137255 225.2107843137255,234.2328431372549 223.03921568627453,235.59803921568627 220.76960784313727,236.79901960784318 218.41911764705884,237.82352941176472 215.99754901960785,238.671568627451 213.5171568627451,239.3357843137255 210.99754901960787,239.81372549019608 208.44607843137257,240.10049019607845 205.8823529411765,240.19607843137257 39.21568627450981,240.19607843137257 36.65196078431373,240.10049019607845 34.10049019607843,239.81372549019608 31.580882352941178,239.3357843137255 29.100490196078432,238.671568627451 26.67892156862745,237.82352941176472 24.328431372549023,236.79901960784318 22.058823529411768,235.59803921568627 19.887254901960787,234.2328431372549 17.82107843137255,232.7107843137255 15.877450980392158,231.03676470588238 14.061274509803923,229.22058823529414 12.387254901960786,227.27696078431373 10.865196078431373,225.2107843137255 9.5,223.03921568627453 8.299019607843139,220.76960784313727 7.274509803921569,218.41911764705884 6.426470588235294,215.99754901960785 5.762254901960785,213.5171568627451 5.284313725490197,210.99754901960787 4.997549019607844,208.44607843137257 4.901960784313726,205.8823529411765 4.901960784313726,0.0 9.803921568627452,0.0"/>
<polygon class="l3d0" points="-4.806372549019608,208.76715686274514 -4.524509803921569,211.63970588235296 -4.053921568627451,214.49019607843138 -3.399509803921569,217.30147058823533 -2.561274509803922,220.0637254901961 -1.5441176470588236,222.76470588235296 -0.35294117647058826,225.39460784313727 1.0098039215686274,227.94117647058826 2.5343137254901964,230.3921568627451 4.215686274509804,232.74019607843138 6.046568627450981,234.97058823529412 8.019607843137255,237.07843137254903 10.127450980392156,239.0514705882353 12.357843137254902,240.8823529411765 14.705882352941178,242.56372549019608 17.15686274509804,244.08823529411765 19.70343137254902,245.4509803921569 22.333333333333336,246.6421568627451 25.0343137254902,247.65931372549022 27.79656862745098,248.49754901960787 30.607843137254903,249.15196078431373 33.458333333333336,249.62254901960787 36.33088235294118,249.90441176470588 39.21568627450981,250.00000000000003 205.8823529411765,250.00000000000003 208.76715686274514,249.90441176470588 211.63970588235296,249.62254901960787 214.49019607843138,249.15196078431373 217.30147058823533,248.49754901960787 220.0637254901961,247.65931372549022 222.76470588235296,246.6421568627451 225.39460784313727,245.4509803921569 227.94117647058826,244.08823529411765 230.3921568627451,242.56372549019608 232.74019607843138,240.8823529411765 234.97058823529412,239.0514705882353 237.07843137254903,237.07843137254903 239.0514705882353,234.97058823529412 240.8823529411765,232.74019607843138 242.56372549019608,230.3921568627451 244.08823529411765,227.94117647058826 245.4509803921569,225.39460784313727 246.6421568627451,222.76470588235296 247.65931372549022,220.0637254901961 248.49754901960787,217.30147058823533 249.15196078431373,214.49019607843138 249.62254901960787,211.63970588235296 249.90441176470588,208.76715686274514 250.00000000000003,205.8823529411765 250.00000000000003,39.21568627450981 250.09558823529414,36.65196078431373 250.3823529411765,34.10049019607843 250.86029411764707,31.580882352941178 251.52450980392157,29.100490196078432 252.37254901960787,26.67892156862745 253.39705882352942,24.328431372549023 254.5980392156863,22.058823529411768 255.96323529411768,19.887254901960787 257.4852941176471,17.82107843137255 259.1593137254902,15.877450980392158 260.97549019607845,14.061274509803923 262.91911764705884,12.387254901960786 264.9852941176471,10.865196078431373 267.15686274509807,9.5 269.4264705882353,8.299019607843139 271.77696078431376,7.274509803921569 274.19852941176475,6.426470588235294 276.67892156862746,5.762254901960785 279.1985294117647,5.284313725490197 281.75,4.997549019607844 284.3137254901961,4.901960784313726 490.1960784313726,4.901960784313726 490.1960784313726,9.803921568627452 284.3137254901961,9.803921568627452 281.8848039215687,9.904411764705884 279.4730392156863,10.205882352941176 277.093137254902,10.703431372549021 274.764705882353,11.397058823529413 272.50000000000006,12.28186274509804 270.31617647058823,13.348039215686274 268.2279411764706,14.593137254901961 266.2475490196079,16.004901960784316 264.3946078431373,17.575980392156865 262.67401960784315,19.29656862745098 261.1029411764706,21.149509803921568 259.69117647058823,23.129901960784313 258.44607843137254,25.21813725490196 257.3799019607843,27.401960784313726 256.4950980392157,29.666666666666668 255.80147058823533,31.99509803921569 255.30392156862746,34.375 255.00245098039215,36.786764705882355 254.90196078431376,39.21568627450981 254.90196078431376,205.8823529411765 254.8063725490196,208.9607843137255 254.51470588235296,212.02696078431376 254.03431372549022,215.06862745098042 253.36274509803923,218.07352941176472 252.50245098039218,221.0294117647059 251.46078431372553,223.9264705882353 250.23774509803923,226.75490196078434 248.83823529411765,229.49754901960787 247.27205882352942,232.14950980392157 245.53921568627453,234.69607843137257 243.65196078431373,237.12745098039218 241.61519607843138,239.4387254901961 239.4387254901961,241.61519607843138 237.12745098039218,243.65196078431373 234.69607843137257,245.53921568627453 232.14950980392157,247.27205882352942 229.49754901960787,248.83823529411765 226.75490196078434,250.23774509803923 223.9264705882353,251.46078431372553 221.0294117647059,252.50245098039218 218.07352941176472,253.36274509803923 215.06862745098042,254.03431372549022 212.02696078431376,254.51470588235296 208.9607843137255,254.8063725490196 205.8823529411765,254.90196078431376 39.21568627450981,254.90196078431376 36.13725490196079,254.8063725490196 33.071078431372555,254.51470588235296 30.029411764705888,254.03431372549022 27.02450980392157,253.36274509803923 24.068627450980394,252.50245098039218 21.17156862745098,251.46078431372553 18.34313725490196,250.23774509803923 15.600490196078432,248.83823529411765 12.948529411764708,247.27205882352942 10.401960784313726,245.53921568627453 7.970588235294118,243.65196078431373 5.659313725490197,241.61519607843138 3.4828431372549025,239.4387254901961 1.446078431372549,237.12745098039218 -0.44117647058823534,234.69607843137257 -2.1740196078431375,232.14950980392157 -3.740196078431373,229.49754901960787 -5.139705882352941,226.75490196078434 -6.362745098039216,223.9264705882353 -7.404411764705882,221.0294117647059 -8.264705882352942,218.07352941176472 -8.936274509803923,215.06862745098042 -9.416666666666668,212.02696078431376 -9.708333333333334,208.9607843137255 -9.803921568627452,205.8823529411765 -9.803921568627452,0.0 -4.901960784313726,0.0 -4.901960784313726,205.8823529411765"/>
</g>
</svg>