<svg xmlns="http://www.w3.org/2000/svg" xmlns:xlink="http://www.w3.org/1999/xlink" width="550.0122391609458" height="550.1346307704047" viewBox="-274.88371299130796 -275.06731538520233 550.0122391609458 550.1346307704047">
<defs>
<style type="text/css">
.l3d0 {stroke: rgb(255, 255, 64); fill: rgb(255, 255, 64); fill-opacity: 0.5;}
</style>
</defs>
<rect x="-274.88371299130796" y="-275.06731538520233" width="550.0122391609458" height="550.1346307704047" fill="#222" stroke="none"/>
<g id="gds" transform="scale(1 -1)">
<polygon class="l3d0" points="250.12240658916488,0.0 249.1436331091385,22.105844456489418 246.21497289861065,44.03868070789516 241.35934669455304,65.62685457291154 234.61475635551366,86.70140932071683 226.03398744554912,107.09740798647216 215.68419611561632,126.65522422670092 203.6463835156377,145.22179161185596 190.0147618506777,162.65180157866607 174.89601704270032,178.80884066666 158.4084737685798,193.56645813845094 140.6811694090735,206.80915562820488 121.85284415636211,218.43329107295173 102.07085518393504,228.34788985225086 81.49002337691338,236.47535678794443 60.27142164871027,242.7520834316338 38.5811143270922,247.1289458870315 16.588857475656507,249.57168927105468 -5.533229677530324,250.06119580472938 -27.61201180626047,248.59363443573218 -49.47469250485742,245.18049082156867 -70.95016665433653,239.84847743873087 -91.87035955195411,232.6393245213504 -112.07154232364061,223.60945346553652 -131.3956133244316,212.8295352554527 -149.69133549820202,200.3839373670461 -166.81552001268528,186.37006347815873 -182.63414690622804,170.89759115268367 -197.02341397570137,154.08761346492105 -209.87070569659727,136.0716912820876 -221.07547459219774,116.99082362215445 -230.5500281539077,96.99434414535662 -238.22021515403227,76.23875241582913 -244.0260059796715,54.88648908032692 -247.9219624458327,33.10466454991885 -249.87759341083503,11.063751134444825 -249.87759341083503,-11.063751134444653 -247.92196244583266,-33.10466454991891 -244.0260059796715,-54.88648908032685 -238.2202151540323,-76.23875241582907 -230.55002815390776,-96.99434414535655 -221.07547459219785,-116.99082362215421 -209.87070569659727,-136.07169128208767 -197.02341397570143,-154.087613464921 -182.63414690622818,-170.89759115268356 -166.81552001268525,-186.37006347815876 -149.69133549820202,-200.38393736704606 -131.39561332443145,-212.82953525545275 -112.07154232364054,-223.60945346553655 -91.87035955195437,-232.63932452135032 -70.95016665433658,-239.84847743873087 -49.474692504857536,-245.18049082156867 -27.612011806260472,-248.59363443573218 -5.533229677530384,-250.06119580472938 16.588857475656447,-249.57168927105468 38.581114327092244,-247.1289458870315 60.271421648710216,-242.7520834316338 81.49002337691333,-236.4753567879445 102.07085518393514,-228.3478898522508 121.85284415636215,-218.43329107295168 140.68116940907328,-206.80915562820508 158.4084737685797,-193.56645813845103 174.89601704270018,-178.8088406666601 190.0147618506777,-162.65180157866607 203.6463835156377,-145.221791611856 215.68419611561626,-126.655224226701 226.03398744554912,-107.09740798647213 234.61475635551366,-86.70140932071688 241.35934669455304,-65.62685457291138 246.21497289861068,-44.0386807078951 249.14363310913848,-22.10584445648964"/>
</g>
</svg>