<svg xmlns="http://www.w3.org/2000/svg" xmlns:xlink="http://www.w3.org/1999/xlink" width="591.8036290880676" height="1009.8399199687443" viewBox="-45.90181454403383 -963.9381054247106 591.8036290880676 1009.8399199687443">
<defs>
<style type="text/css">
.l3d0 {stroke: rgb(255, 255, 64); fill: rgb(255, 255, 64); fill-opacity: 0.5;}
</style>
</defs>
<rect x="-45.90181454403383" y="-963.9381054247106" width="591.8036290880676" height="1009.8399199687443" fill="#222" stroke="none"/>
<g id="gds" transform="scale(1 -1)">
<polygon class="l3d0" points="197.72345416861575,203.9535580445603 198.66340094292516,205.0003766795088 199.5665557652113,206.0796072721921 200.4294146400433,207.19124982261025 201.25285356627896,208.33267633419007 202.0342445473451,209.5030108080739 202.77358758324178,210.6996252476887 203.47000667511128,211.92251965303436 204.1226258240959,213.1699420263956 204.7296930324803,214.43926437119927 205.29120830026437,215.72961068858766 205.80629562859048,217.03835298198769 206.27495501745864,218.36549125139942 206.69543446915344,219.70839750024965 207.06773398367486,221.06619572968077 207.39097756216523,222.43538194426193 207.66604120348228,223.81508014513548 207.8911729099105,225.20441433344374 208.06637268145002,226.60075651261351 208.19164051810077,228.00235468492946 208.26697641986274,229.40745685267623 208.29238038673594,230.81431101813845 203.03638724055102,230.81431101813845 203.0144872691086,229.59492060822353 202.94878735478127,228.377282196024 202.84016349642678,227.1622717803976 202.68861569404513,225.95251735791737 202.4932679487786,224.748894927441 202.25499625948487,223.55228048782624 201.97467662502166,222.36530203564615 201.652309045389,221.1897115686161 201.28789352058683,220.02550908673612 200.8823060494729,218.87532258657933 200.4355466320472,217.7409040658611 199.94849126716738,216.6222535245814 199.4220159536912,215.52199895931335 198.8569966904763,214.44189236777234 198.25343347752275,213.38193374995836 197.6130783125459,212.34387510358684 196.93505519668804,211.33034442523086 196.22199212652225,210.3413417148904 195.47388910204862,209.37774297142315 194.69162212212476,208.44217619140224 193.87694318446609,207.53464137482766 193.0298522890726,206.65689051941476 196.74671544228306,202.940903365062"/>
<polygon class="l3d0" points="207.98140079225337,194.40254249908457 209.2559791302032,195.8216606485545 210.4797495344066,197.285454739767 211.65008400829046,198.791296776149 212.76523055413935,200.33918675770047 213.8251891719533,201.9247446901329 214.82820786401695,203.54797057344635 215.77165863375714,205.20536041221 216.6555414811739,206.89603820756616 217.47898040740955,208.61649996408403 218.24022341474867,210.36586968290592 218.93927050319127,212.14064336860102 219.57349367616425,213.93994502231166 220.14376893252532,215.76027064860705 220.64834427455907,217.5998682497718 221.08721970226551,219.45610982923276 221.45864321792922,221.32724338927463 221.76436681926566,223.20976493446653 222.00176250970168,225.10279846595077 222.171706288095,227.00283998829667 222.2741981544456,228.907261504931 222.3083621098958,230.81431101813845 217.05236896371085,230.81431101813845 217.02170900369146,229.09472526047824 216.92972912363322,227.37776749939118 216.77642932353615,225.6643137337349 216.5618096034003,223.95786795894017 216.28674596208324,222.26018217272244 215.95123839958512,220.57300837279706 215.55528691590587,218.89985055459488 215.10064350876087,217.24070871811583 214.58643217929242,215.5990868587907 214.01440492521596,213.97761297319266 213.3845617465315,212.37716306017936 212.69777864209667,210.80036511632386 211.95580760962687,209.2480951404839 211.15864864912217,207.724733126948 210.30717775944018,206.23027907571608 209.40402293715408,204.7664849845036 208.44830818340614,203.33685484874127 207.44178549591172,201.94138866842917 206.38708287124393,200.58359043899807 205.2842003094028,199.26346016044795 204.13488980810368,197.9836258293519 202.940903365062,196.74671544228306 206.65689051941476,193.0298522890726"/>
<polygon class="l3d0" points="185.71175783186777,19.27197486934477 32.89901309968691,19.27197486934477 206.65689051941476,193.0298522890726 202.940903365062,196.74583944342535 20.211045644796478,14.015981723159832 180.45576468568285,14.015981723159832 180.45576468568285,5.255993146184937 5.255993146184937,5.255993146184937 5.255993146184937,180.45576468568285 14.015981723159832,180.45576468568285 14.015981723159832,20.211045644796478 196.74583944342535,202.940903365062 193.0298522890726,206.65689051941476 19.27197486934477,32.89901309968691 19.27197486934477,185.71175783186777 0.0,185.71175783186777 0.0,0.0 185.71175783186777,0.0"/>
<polygon class="l3d0" points="208.26084442785887,232.9806561932243 208.16623655122754,235.14437337173712 208.00855675684198,237.30458655481914 207.7886810435599,239.45954374475494 207.50573341252363,241.6066169449715 207.16058986259083,243.74493015661105 206.75412639261916,245.87185538310055 206.28459100489334,247.98651662558228 205.75461169598634,250.0862858874832 205.16418846589823,252.1702871699455 204.5124453157713,254.2358924763962 203.80113424332094,256.2813498091199 203.03113124740483,258.30578316925875 202.202436328023,260.3065645602398 201.31592548403316,262.28281798320535 200.37159871543528,264.23279144044 199.37208401880244,266.1538569353705 198.31650539527698,268.04513846913943 197.20661484257425,269.9048840440312 196.04241236069427,271.73134166233046 194.82652594621015,273.52363532517955 193.5580796002642,275.2791370360053 192.23970131942946,276.9978467948078 190.87139110370597,278.67713660501386 189.45577694966684,280.31525446890817 187.99198285845435,281.91220038649067 186.48351282549928,283.466222360046 184.9294908519439,284.97469239300113 183.33254493436138,286.4384864842136 181.69442707046707,287.85410063825276 180.015137260261,289.22241085397627 178.29642750145854,290.54078913481095 176.54092579063277,291.8092354807569 174.7486321277837,293.02512189524106 172.92217450948445,294.189324377121 171.06242893459265,295.29921492982373 169.17114740082377,296.3547935533492 167.2500819058932,297.35430824998207 165.3001084486586,298.29863501857994 163.32385502569306,299.1851458625698 161.32307363471196,300.0138407819516 159.29864027457307,300.7847197767254 157.25318294184945,301.49515485031804 155.18757763539875,302.146898000445 153.10357635293644,302.7373212305331 151.00380709103553,303.2681765382978 148.88914584855382,303.73683592716594 146.76222062206432,304.1432993971376 144.62390741042472,304.4884429470704 142.47683421020818,304.77139057810666 140.32187702027235,304.99126629138874 138.16166383719033,305.1489460857743 135.99794665867753,305.2435539624056 133.83247748244935,305.27508992128276 90.03253459757488,305.27508992128276 87.61214975375671,305.31012987559063 85.19351690765394,305.4152497385144 82.77926405583966,305.5913255089115 80.37114319602928,305.83748118792454 77.97090632593815,306.1537167755533 75.5811814421394,306.5391562729402 73.2037205423484,306.9937996800852 70.84027562428058,307.51764699698833 68.493474684509,308.11069822364954 66.16419372189138,308.7712013623534 63.8559367318585,309.4991564131 61.56957971326805,310.29368737703163 59.30687466383544,311.15479425414827 57.07044958013375,312.0807250467345 54.862056459878374,313.07147975479035 52.683447300784714,314.1270583783159 50.53637410056817,315.2448329207379 48.42258885694413,316.42392738319865 46.34384356762799,317.665217764556 44.30189023033514,318.9652000693791 42.29935684163868,320.3247502965256 40.3371194003963,321.7421164482801 38.4160539054657,323.2155465269273 36.53966435227768,324.7441645336095 34.70795074083223,326.32709446946876 32.92354106770245,327.96258433679003 31.186435332888323,329.6497581367154 29.50013753182066,331.3859878726718 27.864647664499444,333.17039754580156 26.28171772864008,335.00211115724704 24.753099721957962,336.87850071043505 23.279669643310783,338.79956620536564 21.862303491556247,340.76180364660803 20.502753264409744,342.7643370353045 19.20277095958667,344.80629037259735 17.961480578229327,346.8850356619135 16.781510116910805,348.9988209055375 15.664611573346509,351.14589410575405 14.609032949821033,353.32450326484775 13.618278241765172,355.53289638510313 7.93479765302386,355.53289638510313 8.291329188106738,354.63674955367856 9.273323907585624,352.3574005259497 10.31839054481873,350.1060834616672 11.426529099806054,347.8863023562617 12.595987574832202,345.69718121087567 13.826765969897176,343.5422240209399 15.117112287285577,341.42230678531195 16.467026526997408,339.340057500565 17.874756691317273,337.29635216555675 19.339426781387477,335.2929427780026 20.85928479949262,333.3307053367602 22.43345474677501,331.4122678384027 24.061060624376942,329.5393822806455 25.740350434583032,327.71204866348853 27.470448178535577,325.9328949835049 29.249601858519174,324.2027972395524 31.076935475676137,322.5235074293463 32.949821033433366,320.8959015517444 34.86825853179087,319.321731604462 36.830495973033244,317.80187358635686 38.83390536058741,316.33720349628663 40.87761069559565,314.9294733319668 42.95985998034258,313.58043509111263 45.07977721597051,312.28921277486654 47.23473440590633,311.05843437980155 49.42297955243466,309.8889759047754 51.6436366566978,308.7808373497881 53.89495372098035,307.735770712555 56.174302748709216,306.7537759930761 58.479931742169,305.83660518906686 60.81008870364433,304.98338230166945 63.16389763427749,304.19673532745713 65.53873053749538,303.4766642664298 67.93283541558262,302.8231691185875 70.34446027082382,302.23712588278784 72.77185310550354,301.7185345590309 75.21150992419106,301.26914714503215 77.66430672574403,300.887211643076 80.12586351587397,300.5753560497357 82.59618029458089,300.3318283672958 85.071753066434,300.1583805934717 87.5508298337179,300.053260730548 90.03253459757488,300.0190967750978 133.83247748244935,300.0190967750978 135.7728149522493,299.99194081050916 137.71227642319153,299.9095969178856 139.6491098975607,299.7738170949425 141.58068737878367,299.5837253428221 143.50613286800274,299.33932166152454 145.42457036636023,299.0414820499074 147.33337187728307,298.689330509113 149.23166140191353,298.28374303799905 151.1176869425362,297.82559563542327 152.99057250029344,297.31401230252794 154.84769007861212,296.7507450370285 156.68903967749225,296.1349178400671 158.51199330036073,295.46828270935936 160.31567494835986,294.75083964490506 162.09833262377427,293.9834646455621 163.8582143288885,293.1652817124726 165.59532006370264,292.29891884220984 167.30702183164354,291.3835000359159 168.99331963271118,290.4207772913064 170.65070947147484,289.41162660723893 172.28006734679218,288.3560479837134 173.87876526209007,287.2549174195876 175.44592721851092,286.1099869125771 176.97980121833922,284.92038046382385 178.480387261575,283.68960206875886 179.9459333505029,282.4158997296667 181.37468748740753,281.1027774419782 182.76664967228882,279.74935920683555 184.12006790743143,278.3573970219543 185.43319019511998,276.92864288504967 186.70689253421213,275.46309679612176 187.9376709292771,273.962510752886 189.1264013791726,272.4286367530577 190.2722078850409,270.86147479663686 191.37333844916665,269.26277688133894 192.42891707269214,267.6334190060216 193.43806775675964,265.97602916725793 194.4007905013692,264.2897313661903 195.31620930766306,262.57802959824943 196.18257217792586,260.84179986229293 197.00075511101534,259.081042158321 197.76813011035833,257.29838448290667 198.48557317481257,255.49470283490749 199.15220830552036,253.671749212039 199.7680355024817,251.8303996131589 200.33130276798119,249.97328203484022 200.8428861008765,248.100396477083 201.3010335034523,246.21437093646028 201.70662097456622,244.3160814118298 202.05789651650292,242.407279900907 202.35661212697778,240.4888424025495 202.60101580827538,238.56339691333045 202.79110756039574,236.63181943210745 202.92688738333882,234.69498595773828 203.0092312759624,232.75552448679605 203.03638724055102,230.81518701699613 208.29238038673594,230.81518701699613"/>
<polygon class="l3d0" points="12.692347449178927,357.7693214688048 11.831240572062294,360.0320265182374 11.036709608130671,362.31838353682787 10.308754557384058,364.62664052686074 9.648251418680148,366.9559214894783 9.05520019201895,369.30272242924997 8.531352875115852,371.66616734731775 8.076709467970854,374.04362824710876 7.691269970583957,376.4333531309075 7.375034382955165,378.83359000099864 7.12887870394217,381.24171086080906 6.952802933544975,383.6559637126233 6.847683070621276,386.0745965587261 6.812643116313376,388.4949814025442 6.847683070621276,390.9153662463624 6.952802933544975,393.33312309360747 7.12887870394217,395.74737594542177 7.375034382955165,398.15637280408987 7.691269970583957,400.55573367532327 8.076709467970854,402.945458559122 8.531352875115852,405.322919458913 9.05520019201895,407.68636437698086 9.648251418680148,410.0340413156101 10.308754557384058,412.36244627937003 11.036709608130671,414.67070326940296 11.831240572062294,416.95793628685107 12.692347449178927,419.219765337426 13.618278241765172,421.4561904211277 14.609032949821033,423.6645835413831 15.664611573346509,425.8440686993344 16.781510116910805,427.99114189955094 17.961480578229327,430.10492714317496 19.20277095958667,432.1827964336334 20.502753264409744,434.2247497709263 21.862303491556247,436.22728315962274 23.279669643310783,438.1903965997228 24.753099721957962,440.1105860957957 26.28171772864008,441.9878516478414 27.864647664499444,443.81868926042915 29.50013753182066,445.60397493241663 31.186435332888323,447.34020466837313 32.92354106770245,449.02650246944074 34.70795074083223,450.661992336762 36.53966435227768,452.2449222726213 38.4160539054657,453.7735402793034 40.3371194003963,455.2469703579506 42.29935684163868,456.6643365097052 44.30189023033514,458.0238867368517 46.34384356762799,459.3247450405325 48.42258885694413,460.56515942303207 50.53637410056817,461.7451298843506 52.683447300784714,462.8629044267726 54.862056459878374,463.91760705144037 57.07044958013375,464.9083617594962 59.30687466383544,465.8351685509401 61.56957971326805,466.69539942919914 63.8559367318585,467.4908063919885 66.16419372189138,468.218761442735 68.493474684509,468.879264581439 70.84027562428058,469.4714398092425 73.2037205423484,469.99528712614557 75.5811814421394,470.44993053329057 77.97090632593815,470.8362460295352 80.37114319602928,471.1516056183063 82.77926405583966,471.3977612973192 85.19351690765394,471.57383706771645 87.61214975375671,471.6798329294978 90.03253459757488,471.7148728838058 411.5241153725535,471.7148728838058 413.7298804962358,471.74728484154053 415.9347696210604,471.8453967136026 418.1352787515965,472.00833250113436 420.3305318889864,472.2369682029934 422.517901036657,472.5304278203221 424.6947581980353,472.88871135312036 426.8611033731212,473.3109428025305 429.0134325664839,473.79799816741036 431.1508697792658,474.3481254500444 433.269911016036,474.96132465043263 435.3714322756523,475.63671976971744 437.4510535638262,476.3743108078987 439.5078988816998,477.17322176611884 441.540216231558,478.03257664552007 443.54625361568526,478.9523754461024 445.5242590363662,479.93086617015047 447.47248049588546,480.9671728188066 449.3891659965275,482.06129539207075 451.27256354057715,483.21148189222754 453.1209211303188,484.4168563204194 454.9324867680373,485.67654267778835 456.7063844548747,486.98966496547683 458.4399861942579,488.3544711857695 460.13329198618726,489.77008533980876 461.7827978352316,491.23563142873667 463.38850374139105,492.7493574548379 464.949533705808,494.30951142039703 466.4623837330516,495.9152173265566 459.08647335123874,495.9152173265566 458.3173463541803,495.18901427352534 456.8430402766754,493.87326398926376 455.3310662482896,492.601313647887 453.78317626673817,491.3714112516797 452.20112232973645,490.1870607960727 450.58578043614233,489.04826228106594 448.9380265848133,487.9567677043749 447.2604887723226,486.9117010671418 445.5540429975279,485.9156903659397 443.81868926042915,484.967859601911 442.0579315564572,484.0708367716288 440.27176988561206,483.224621875093 438.4628322444667,482.4292149123038 436.6311186330213,481.6854918821186 434.78013304670645,480.9952047822529 432.9089994866647,480.3574776138492 431.0203459494689,479.77406237462264 429.11680043169224,479.24408306571564 427.19836293333475,478.76929168484367 425.2667854521117,478.34881223314886 423.3246959845964,477.98439670834665 421.37209453078873,477.67516911157946 419.41248508611943,477.4220054417049 417.4458676505885,477.2240296998653 415.4748702207692,477.0838698826336 413.5003687955191,476.99889799343697 411.5241153725535,476.9708660299907 90.03253459757488,476.9708660299907 87.5508298337179,476.93582607568277 85.071753066434,476.83158221161676 82.59618029458089,476.65725843893495 80.12586351587397,476.41460675535274 77.66430672574403,476.1018751631548 75.21150992419106,475.7208156600564 72.77185310550354,475.2705522471999 70.34446027082382,474.751960923443 67.93283541558262,474.1659176876433 65.53873053749538,473.512422539801 63.16389763427749,472.79235147877364 60.81008870364433,472.0057045045614 58.479931742169,471.15335761602165 56.174302748709216,470.23618681201236 53.89495372098035,469.25419209253346 51.6436366566978,468.20912545530035 49.42297955243466,467.10098690031305 47.23473440590633,465.9306524264292 45.07977721597051,464.6998740313643 42.95985998034258,463.4095277139758 40.87761069559565,462.05961347426404 38.83390536058741,460.6518833099442 36.830495973033244,459.18808921873165 34.86825853179087,457.66823120062645 32.949821033433366,456.0931852544864 31.076935475676137,454.46645537574216 29.249601858519174,452.78628956667836 27.470448178535577,451.05619182272585 25.740350434583032,449.27703814274224 24.061060624376942,447.45058052444296 22.43345474677501,445.57681896782805 20.85928479949262,443.65838146947056 19.339426781387477,441.6970200270859 17.874756691317273,439.692734640674 16.467026526997408,437.6490293056658 15.117112287285577,435.5667800209188 13.826765969897176,433.44686278529093 12.595987574832202,431.2919055953551 11.426529099806054,429.10366044882676 10.31839054481873,426.88300334456363 9.273323907585624,424.63256227913877 8.291329188106738,422.3532132514099 7.3732823852397695,420.0467082590924 6.520935496700112,417.7165512976171 5.734288522487767,415.3627423669839 5.01421746146043,412.987909463766 4.360722313618103,410.5938045856788 3.7746790778184827,408.1821797304376 3.2560877540615687,405.75566289461557 2.806700340062757,403.31513007707036 2.424764838106651,400.8632092743751 2.1129092447663447,398.40077648538744 1.8693815623264425,395.93133570553823 1.6959337885023398,393.45576293368515 1.590813925578641,390.9758101675435 1.5566499701284389,388.4949814025442 1.590813925578641,386.0132766386872 1.6959337885023398,383.53419987140336 1.8693815623264425,381.0586270995503 2.1129092447663447,378.5883103208433 2.424764838106651,376.1267535307134 2.806700340062757,373.6748327280181 3.2560877540615687,371.2342999104729 3.7746790778184827,368.80690707579316 4.360722313618103,366.39528222055196 5.01421746146043,364.0011773424647 5.734288522487767,361.6263444392468 6.520935496700112,359.2734115074714 7.3732823852397695,356.94237854713833 7.93479765302386,355.53289638510313 13.618278241765172,355.53289638510313"/>
<polygon class="l3d0" points="467.9279298219795,497.5655991744587 469.34354397601857,499.25802896753015 470.70835019631136,500.99250670577123 472.02147248399984,502.7655283937509 473.28115884136884,504.5779700303271 474.48653326956065,506.42632762006883 475.63671976971744,508.3097251641184 476.7308423429816,510.22553466590284 477.7671489916377,512.173756125422 478.7456397156858,514.151761546103 479.6654385162681,516.1577989302301 480.52479339566935,518.1901162800884 481.3237043538895,520.2478375968197 482.06129539207075,522.3274588849936 482.7375665102133,524.4281041457522 483.3507657106015,526.5480213813801 483.9008929932355,528.6845825953043 484.38707235925756,530.8377877875247 484.80930380866783,533.0032569637528 485.1675873414661,535.1809901239889 485.4610469587947,537.3674832728018 485.68968266065383,539.5627364101917 485.85261844818547,541.7632455407278 485.95073032024766,543.9681346655524 485.9840182768402,546.1747757880923 485.95073032024766,548.3814169106323 485.85261844818547,550.5854300365992 485.68968266065383,552.7859391671353 485.4610469587947,554.9811923045253 485.1675873414661,557.1685614521958 484.80930380866783,559.3454186135741 484.38707235925756,561.51176378866 483.9008929932355,563.6640929820227 483.3507657106015,565.8015301948046 482.7375665102133,567.9214474304325 482.06129539207075,570.0220926911911 481.3237043538895,572.101713979365 480.52479339566935,574.1585592972386 479.6654385162681,576.1908766470968 478.7456397156858,578.1969140312241 477.7671489916377,580.174919451905 476.7308423429816,582.1231409114242 475.63671976971744,584.0398264120663 474.48653326956065,585.923223956116 473.28115884136884,587.7715815458577 472.02147248399984,589.5831471835761 470.70835019631136,591.3570448704135 469.34354397601857,593.0906466097967 467.9279298219795,594.783952401726 466.4623837330516,596.4334582507704 464.949533705808,598.0400401557877 463.38850374139105,599.6001941213468 461.7827978352316,601.1139201474481 460.13329198618726,602.5785902375183 458.4399861942579,603.9942043915574 456.7063844548747,605.3590106118501 454.9324867680373,606.6721328995386 453.1209211303188,607.9318192569076 451.27256354057715,609.1371936850994 449.3891659965275,610.2873801852562 447.47248049588546,611.3815027585204 445.5242590363662,612.4186854060342 443.54625361568526,613.3971761300824 441.540216231558,614.316098931807 439.5078988816998,615.1754538112082 437.4510535638262,615.9743647694283 435.3714322756523,616.7119558076096 433.269911016036,617.3882269257521 431.1508697792658,618.0014261261402 429.0134325664839,618.5515534087743 426.8611033731212,619.0377327747964 424.6947581980353,619.4599642242067 422.517901036657,619.8182477570049 420.3305318889864,620.1117073743335 418.1352787515965,620.3403430761927 415.9347696210604,620.5032788637243 413.7298804962358,620.6013907357865 411.5241153725535,620.634678692379 89.35801547714782,620.634678692379 86.93763063332965,620.6697186466869 84.51899778722688,620.7748385096106 82.10474493541261,620.9509142800079 79.6966240756022,621.1970699590207 77.29638720551108,621.5133055466496 74.90666232171233,621.8987450440364 72.52920142192134,622.3533884511814 70.16575650385352,622.8772357680846 67.81895556408193,623.4702869947457 65.48967460146432,624.1307901334496 63.181417611431435,624.8587451841962 60.895060592840984,625.6532761481278 58.63235554340837,626.5143830252446 46.39114750594365,626.5143830252446 46.560215285479266,626.4180231508979 48.7484604320076,625.2485646758716 50.96911753627073,624.1404261208843 53.220434600553276,623.0953594836512 55.499783628282145,622.1133647641724 57.80541262174194,621.1961939601631 60.13556958321726,620.3429710727656 62.48937851385041,619.5563240985533 64.86421141706832,618.8362530375259 67.25831629515555,618.1827578896837 69.66994115039674,617.5967146538841 72.09733398507647,617.0781233301271 74.53786680262168,616.6287359161283 76.98978760531696,616.2468004141723 79.4513443954469,615.934944820832 81.92166117415383,615.691417138392 84.39723394600692,615.517969364568 86.87631071329083,615.4128495016442 89.35801547714782,615.3786855461941 411.5241153725535,615.3786855461941 413.5003687955191,615.34977758389 415.4748702207692,615.2656816935511 417.4458676505885,615.1246458774617 419.41248508611943,614.9275461344798 421.37209453078873,614.6743824646052 423.3246959845964,614.3651548678381 425.2667854521117,613.9998633441782 427.19836293333475,613.580259891341 429.11680043169224,613.1045925116114 431.0203459494689,612.575489201562 432.9089994866647,611.9911979634778 434.78013304670645,611.353470795074 436.6311186330213,610.6631836952084 438.4628322444667,609.9194606650233 440.27176988561206,609.1249297010917 442.0579315564572,608.2778388056981 443.81868926042915,607.3808159754159 445.5540429975279,606.433861210245 447.2604887723226,605.4369745101852 448.9380265848133,604.3927838718098 450.58578043614233,603.3004132962611 452.20112232973645,602.1616147812542 453.78317626673817,600.9772643256473 455.3310662482896,599.7482379282977 456.8430402766754,598.4754115880633 458.3173463541803,597.1596613038017 459.75486047966194,595.8027390732282 461.15207865768934,594.4055208952008 462.50900088826285,592.9688827685768 463.82475117252443,591.4937006922142 465.0975775127589,589.9817266638283 466.3266039101085,588.4338366822769 467.51095436571546,586.8517827452753 468.64975288072225,585.2364408516811 469.742123456271,583.5886870003521 470.7863140946464,581.9111491878615 471.78320079470615,580.2047034130668 472.7301555598772,578.469349675968 473.62717839015943,576.708591971996 474.47426928555285,574.9224303011508 475.2688002494844,573.1134926600056 476.0125232796696,571.2826550474177 476.70281037953526,569.4307934622452 477.340537547939,567.5596599022034 477.9248287860232,565.6718823638654 478.45393209607255,563.7674608472311 478.9295994758023,561.8490233488735 479.34920292863933,559.9174458676506 479.7144944522992,557.9753564001352 480.0237220490664,556.0236309451852 480.27688571894095,554.0631455016583 480.4739854619229,552.0965280661275 480.61502127801225,550.1255306363081 480.6991171683512,548.1510292110579 480.7280251306552,546.1747757880923 480.6991171683512,544.1985223651268 480.61502127801225,542.2240209398766 480.4739854619229,540.2521475111996 480.27688571894095,538.2855300756687 480.0237220490664,536.3259206309995 479.7144944522992,534.3733191771918 479.34920292863933,532.4312297096765 478.9295994758023,530.4996522284536 478.45393209607255,528.581214730096 477.9248287860232,526.6776692123193 477.340537547939,524.7890156751236 476.70281037953526,522.9187581139395 476.0125232796696,521.066896528767 475.2688002494844,519.2351829173215 474.47426928555285,517.4262452761761 473.62717839015943,515.6400836053309 472.7301555598772,513.879325901359 471.78320079470615,512.1448481631179 470.7863140946464,510.4375263894656 469.742123456271,508.75998857697493 468.64975288072225,507.11311072450366 467.51095436571546,505.4977688309094 466.3266039101085,503.9157148939077 465.0975775127589,502.3678249123563 463.82475117252443,500.85585088397045 462.50900088826285,499.3806688076079 461.15207865768934,497.94403068098393 459.75486047966194,496.54593650409873 459.08647335123874,495.9152173265566 466.4623837330516,495.9152173265566"/>
<polygon class="l3d0" points="56.39593045970668,627.4403138178307 54.1875373394513,628.4310685258866 52.00892818035765,629.4866471494121 49.8618549801411,630.6044216918341 47.74806973651706,631.783516154295 45.66932444720092,633.0248065356523 43.62737110990807,634.3247888404753 41.62483772121161,635.6843390676219 39.66260027996923,637.1017052193763 37.74153478503864,638.5751352980235 35.86514523185062,640.1037533047056 34.03343162040517,641.686683240565 32.24902194727538,643.3221731078862 30.511916212461262,645.0093469078116 28.825618411393588,646.745576643768 27.19012854407238,648.5299863168979 25.607198608213015,650.3616999283432 24.078580601530895,652.2380894815313 22.60515052288372,654.1591549764619 21.18778437112918,656.1213924177043 19.828234143982677,658.1239258064007 18.5282518391596,660.1658791436936 17.28696145780226,662.2446244330098 16.10786699534144,664.3584096766338 14.99009245291944,666.5054828768502 13.934513829393966,668.684092035944 12.943759121338106,670.8924851561993 12.017828328751857,673.1289102399011 11.156721451635228,675.3916152893336 10.362190487703604,677.677972307924 9.63423543695699,679.9862292979569 8.973732298253083,682.3155102605746 8.380681071591882,684.6623112003462 7.856833754688783,687.025756118414 7.402190347543786,689.4032170182049 7.016750850156891,691.7929419020038 6.700515262528097,694.1931787720948 6.454359583515103,696.6012996319052 6.278283813117907,699.0155524837196 6.173163950194208,701.4341853298223 6.138123995886309,703.8545701736405 6.138123995886309,829.5604062532302 6.173163950194208,831.9807910970484 6.278283813117907,834.3985479442935 6.454359583515103,836.8128007961078 6.700515262528097,839.2217976547759 7.016750850156891,841.6211585260093 7.402190347543786,844.010883409808 7.856833754688783,846.388344309599 8.380681071591882,848.7517892276668 8.973732298253083,851.0994661662961 9.63423543695699,853.427871130056 10.362190487703604,855.7361281200889 11.156721451635228,858.0233611375371 12.017828328751857,860.285190188112 12.943759121338106,862.5216152718136 13.934513829393966,864.730008392069 14.99009245291944,866.9094935500204 16.10786699534144,869.0565667502369 17.28696145780226,871.170351993861 18.5282518391596,873.2482212843195 19.828234143982677,875.2901746216123 21.18778437112918,877.2927080103087 22.60515052288372,879.2558214504088 24.078580601530895,881.1760109464817 25.607198608213015,883.0532764985275 27.19012854407238,884.8841141111152 28.825618411393588,886.6693997831027 30.511916212461262,888.4056295190591 32.24902194727538,890.0919273201267 34.03343162040517,891.7274171874479 35.86514523185062,893.3103471233072 37.74153478503864,894.8389651299894 39.66260027996923,896.3123952086365 41.62483772121161,897.7297613603912 43.62737110990807,899.0893115875376 45.66932444720092,900.3901698912184 47.74806973651706,901.6305842737181 49.8618549801411,902.8105547350366 52.00892818035765,903.9283292774586 54.1875373394513,904.9830319021264 56.39593045970668,905.9737866101823 58.63235554340837,906.9005934016262 60.895060592840984,907.7608242798851 63.181417611431435,908.5562312426744 65.48967460146432,909.2841862934212 67.81895556408193,909.944689432125 70.16575650385352,910.5368646599284 72.52920142192134,911.0607119768316 74.90666232171233,911.5153553839766 77.29638720551108,911.9016708802211 79.6966240756022,912.2170304689922 82.10474493541261,912.4631861480052 84.51899778722688,912.6392619184024 86.93763063332965,912.7452577801839 89.35801547714782,912.7802977344918 330.2577013439574,912.7802977344918 330.2577013439574,918.0362908806767 89.35801547714782,918.0362908806767 86.87631071329083,918.0012509263688 84.39723394600692,917.8970070623027 81.92166117415383,917.722683289621 79.4513443954469,917.4800316060388 76.98978760531696,917.1673000138409 74.53786680262168,916.7862405107422 72.09733398507647,916.3359770978858 69.66994115039674,915.8173857741289 67.25831629515555,915.2313425383294 64.86421141706832,914.5778473904869 62.48937851385041,913.8577763294597 60.13556958321726,913.0711293552472 57.80541262174194,912.2187824667076 55.499783628282145,911.3016116626983 53.220434600553276,910.3196169432196 50.96911753627073,909.2745503059865 48.7484604320076,908.166411750999 46.560215285479266,906.9960772771152 44.405258095543445,905.7652988820503 42.285340859915514,904.4749525646619 40.203091575168585,903.1250383249499 38.159386240160345,901.7173081606301 36.15597685260618,900.2535140694177 34.19373941136381,898.7336560513124 32.2753019130063,897.1586101051723 30.402416355249073,895.5318802264281 28.575082738092107,893.8517144173644 26.795929058108506,892.1216166734118 25.065831314155965,890.3424629934283 23.38654150394988,888.516005375129 21.75893562634794,886.642243818514 20.184765679065556,884.7238063201565 18.66490766096041,882.7624448777718 17.20023757089021,880.75815949136 15.79250740657034,878.7144541563517 14.442593166858508,876.6322048716048 13.152246849470107,874.5122876359769 11.921468454405135,872.357330446041 10.752009979378986,870.1690852995127 9.643871424391662,867.9484281952496 8.598804787158558,865.6979871298247 7.616810067679672,863.4186381020959 6.6996392636704,861.1121331097784 5.846416376273045,858.7819761483031 5.0597694020607,856.42816721767 4.339698341033363,854.0533343144521 3.686203193191036,851.6592294363649 3.1001599573914156,849.2476045811236 2.5815686336345016,846.8210877453016 2.1321812196356897,844.3805549277563 1.750245717679584,841.9286341250611 1.4383901243392778,839.4662013360735 1.1948624418993758,836.9967605562242 1.0214146680752727,834.521187784371 0.9162948051515741,832.0412350182296 0.8821308497013719,829.5604062532302 0.8821308497013719,703.8545701736405 0.9162948051515741,701.3728654097835 1.0214146680752727,698.8937886424997 1.1948624418993758,696.4182158706465 1.4383901243392778,693.9478990919396 1.750245717679584,691.4863423018096 2.1321812196356897,689.0344214991144 2.5815686336345016,686.5938886815692 3.1001599573914156,684.1664958468895 3.686203193191036,681.7548709916482 4.339698341033363,679.360766113561 5.0597694020607,676.9859332103431 5.846416376273045,674.6330002785676 6.6996392636704,672.3019673182347 7.616810067679672,669.9963383247748 8.598804787158558,667.716989297046 9.643871424391662,665.4656722327634 10.752009979378986,663.2458911273579 11.921468454405135,661.0567699819719 13.152246849470107,658.9018127920361 14.442593166858508,656.7818955564081 15.79250740657034,654.6996462716612 17.20023757089021,652.655940936653 18.66490766096041,650.6525315490989 20.184765679065556,648.6902941078564 21.75893562634794,646.771856609499 23.38654150394988,644.8989710517417 25.065831314155965,643.0716374345848 26.795929058108506,641.2924837546012 28.575082738092107,639.5623860106487 30.402416355249073,637.8830962004425 32.2753019130063,636.2554903228406 34.19373941136381,634.6813203755582 36.15597685260618,633.161462357453 38.159386240160345,631.6967922673829 40.203091575168585,630.289062103063 42.285340859915514,628.9400238622089 44.405258095543445,627.6488015459628 46.39114750594365,626.5143830252446 58.63235554340837,626.5143830252446"/>
<polygon class="l3d0" points="222.2733221555879,233.2960157819954 222.16907829152188,235.775968548137 221.9947545188401,238.25154131999008 221.7521028352579,240.72098209983932 221.4393712430599,243.183414888827 221.05831173996148,245.63533569152224 220.608048327105,248.07586850906745 220.08945700334806,250.5023853448895 219.50341376754844,252.91401020013066 218.84991861970613,255.30811507821792 218.1298475586788,257.6829479814358 217.34320058446644,260.036756912069 216.49085369592677,262.36691387354426 215.5728068930598,264.6734188658618 214.5916881724386,266.95276789359065 213.54574553634782,269.2032089590155 212.43848298021817,271.4238660632787 211.26814850633434,273.612111209807 210.03737011126938,275.7670683997428 208.74702379388097,277.8869856353707 207.39710955416913,279.9692349201177 205.98937938984926,282.0129402551259 204.52558529863677,284.0172256415378 203.0057272805316,285.97858708392243 201.43068133439152,287.8970245822799 199.8030754567896,289.77078613889483 198.1237856465835,291.5972437571942 196.39368790263094,293.37639743717773 194.61453422264736,295.10649518113024 192.7880766043481,296.78666099019404 190.91431504773317,298.4133908689383 188.99587754937568,299.9884368150784 187.034516106991,301.5082948331835 185.03023072057914,302.972088924396 182.9865253855709,304.3798190887159 180.90427610082395,305.72973332842776 178.78435886519605,307.02007964581617 176.62940167526023,308.2508580408811 174.44115652873188,309.4211925147649 172.22049942446873,310.5293310697523 169.96918236018618,311.57439770698534 167.69070933131502,312.5563924264643 165.38420433899753,313.47356323047353 163.0540473775222,314.3259101190132 160.70023844688907,315.1125570932256 158.32540554367117,315.8326281542529 155.9313006655839,316.4861233020952 153.51967581034273,317.0721665378948 151.0931589745207,317.59075786165175 148.6526261569755,318.04102127450824 146.19982935542254,318.42208077760665 143.7382725652926,318.7348123698047 141.26883178544333,318.9774640533869 138.79325901359024,319.15178782606864 136.31330624744865,319.25603169013465 133.83247748244935,319.2910716444426 90.03253459757488,319.2910716444426 88.05628117460934,319.31910360788885 86.0817797493592,319.40407549708556 84.10990632068216,319.5442353143171 82.14328888515129,319.74221105615675 80.18367944048201,319.99537472603134 78.23107798667431,320.30460232279853 76.28898851915896,320.6690178476007 74.357411037936,321.0894972992955 72.4389735395785,321.5642886801676 70.53542802180185,322.0942679890745 68.64677448460607,322.677683228301 66.77651692342192,323.3154103967048 64.92465533824944,324.00569749657046 63.092941726803986,324.7494205267556 61.28400408565867,325.54482748954496 59.49784241481349,326.39104238608076 57.73708471084153,327.28806521636295 56.0026069726005,328.23589598039166 54.2952851989481,329.23190668159367 52.61774738645741,330.2769733188268 50.970869533986125,331.3684678955178 49.355527640391955,332.50726641052455 47.772597704532586,333.6916168661316 46.225583721838824,334.9215192623389 44.71360969345296,336.19346960371564 43.23842761709039,337.5092198879773 41.801789490466504,338.86614211855067 40.40369531358131,340.26423629543586 39.0467730830079,341.7008744220597 37.731022798746274,343.1760564984223 36.458196458511814,344.6880305268082 35.22917006116224,346.23592050835964 34.04481960555523,347.8179744453613 32.9060210905485,349.4333163389555 31.814526513857423,351.08019419142676 30.76945987662432,352.75773200391745 29.773449175422275,354.4650537775699 28.825618411393588,356.19953151581086 27.928595581111363,357.9602892197828 27.082380684575586,359.746450890628 26.286973721786264,361.55538853177336 25.876130257526146,362.56804321127163 20.232069617381217,362.56804321127163 21.030980575601326,360.5103218945402 21.890335455002567,358.47800454468205 22.81013425558493,356.4719671605548 23.788624979633024,354.49396173987384 24.824931628289153,352.54574028035466 25.919054201553323,350.6299307785702 27.069240701710125,348.74653323452065 28.27461512990187,346.8981756447789 29.534301487270863,345.08573400820285 30.847423774959395,343.31271232022317 32.21222999525208,341.5782345819821 33.62784414929123,339.88580478891055 35.09339023821913,338.23542294100844 36.60711626432039,336.62971703484897 38.16727022987962,335.06956306928976 39.77297613603912,333.5558370431885 41.42335798394119,332.0902909542606 43.11578777701274,330.67467680022145 44.85026551525377,329.30987057992877 46.62328720323348,327.9967482922402 48.43572883980959,326.73706193487124 50.284086429551294,325.5316875066795 52.1666079747432,324.3815010065227 54.083293475385304,323.28737843325854 56.03151493490452,322.2510717846024 58.00952035558546,321.2725810605543 60.015557739712705,320.3527822599719 62.04787508957089,319.49342738057067 64.10472040744459,318.6945164223506 66.18521769447612,317.95692538416927 68.2858629552347,317.28153026488457 70.40578019086263,316.66833106449633 72.54234140478681,316.11820378186223 74.69467059814954,315.63114841698246 76.86101577323542,315.20891696757224 79.0387489334714,314.85063343477395 81.22524208228432,314.55717381744535 83.42049521967424,314.32853811558624 85.62100435021033,314.16560232805455 87.8258934750349,314.0674904559924 90.03253459757488,314.03507849825763 133.83247748244935,314.03507849825763 136.25286232626752,314.0000385439497 138.6706191735126,313.89404268216833 141.0848720253269,313.7179669117711 143.49299288513728,313.47181123275817 145.8932297552284,313.15645164398705 148.28295463902714,312.77013614774245 150.6604155388181,312.31549274059745 153.02386045688596,311.7916454236944 155.37066139665754,311.19947019589085 157.69994235927516,310.53896705718694 160.00819934930803,309.8110120064403 162.2954323667562,309.015605043651 164.5572614173311,308.15537416539206 166.7936865010328,307.2285673739481 169.00207962128817,306.23781266589225 171.18156477923952,305.1831100412245 173.32863797945606,304.06533549880254 175.4424232230801,302.88536503748395 177.52029251353855,301.6449506549843 179.5622458508314,300.3440923513036 181.56477923952787,298.9845421241571 183.52789267962794,297.56717597240254 185.44808217570085,296.09374589375534 187.32447172888885,294.56512788707323 189.1561853403343,292.98219795121383 190.94147101232178,291.3467080838927 192.67770074827823,289.660410282825 194.3639985493459,287.92418054686857 195.9994884166671,286.13889487488103 197.58241835252645,284.3080572622933 199.11103635920858,282.4307917102476 200.58446643785575,280.5106022141747 202.0018325896103,278.5474887740746 203.3613828167568,276.54495538537816 204.66224112043759,274.5030020480853 205.90265550293722,272.4251327576269 207.08262596425573,270.3113475140028 208.20040050667774,268.1642743137863 209.25510313134552,265.98478915583496 210.24585783940137,263.7763960355796 211.1726646308453,261.5399709518779 212.03289550910424,259.27814190130294 212.82830247189358,256.99090888385484 213.55625752264018,254.6826518938219 214.2167606613441,252.354246930062 214.8089358891476,250.00656999143274 215.3327832060507,247.64312507336487 215.7874266131957,245.2656641735739 216.17374210944027,242.87593928977512 216.48910169821136,240.47657841854172 216.73525737722437,238.06758155987364 216.91133314762158,235.65332870805938 217.01645301054526,233.23557186081428 217.05236896371085,230.81518701699613 222.3083621098958,230.81518701699613"/>
<polygon class="l3d0" points="25.543250691601095,363.3871021432188 24.852963591735474,365.2389637283913 24.215236423331703,367.10922128957543 23.631821184105174,368.9978748267712 23.101841875198193,370.90142034454783 22.627050494326152,372.8198578429054 22.20657104263136,374.7514353241283 21.842155517829205,376.69352479164365 21.53292792106199,378.64612624545134 21.279764251187416,380.6057356901207 21.08178850934778,382.5723531256515 20.94075269325849,384.5442265543286 20.856656802919527,386.5187279795787 20.82862483947321,388.4949814025442 20.856656802919527,390.4712348255098 20.94075269325849,392.4457362507599 21.08178850934778,394.4167336805793 21.279764251187416,396.38335111611013 21.53292792106199,398.3438365596371 21.842155517829205,400.2955620145871 22.20657104263136,402.2376514821024 22.627050494326152,404.1692289633254 23.101841875198193,406.08766646168294 23.631821184105174,407.9920879783173 24.215236423331703,409.87986551665534 24.852963591735474,411.7509990766972 25.543250691601095,413.60286066186967 26.286973721786264,415.43369827445747 27.082380684575586,417.24263591560276 27.928595581111363,419.0287975864479 28.825618411393588,420.78955529041986 29.773449175422275,422.5249090275186 30.76945987662432,424.2313548023133 31.814526513857423,425.908892614804 32.9060210905485,427.556646466133 34.04481960555523,429.17198835972715 35.22917006116224,430.7540422967288 36.458196458511814,432.3019322782803 37.731022798746274,433.8139063066661 39.0467730830079,435.28908838302874 40.40369531358131,436.7257265096526 41.801789490466504,438.1229446876801 43.23842761709039,439.4798669182535 44.71360969345296,440.79561720251513 46.225583721838824,442.0684435427496 47.772597704532586,443.2974699400992 49.355527640391955,444.48182039570617 50.970869533986125,445.6206189107129 52.61774738645741,446.7129894862617 54.2952851989481,447.7571801246371 56.0026069726005,448.7540668246969 57.73708471084153,449.70102158986776 59.49784241481349,450.59804442015 61.28400408565867,451.44513531554355 63.092941726803986,452.2396662794751 64.92465533824944,452.98338930966037 66.77651692342192,453.67367640952597 68.64677448460607,454.3114035779297 70.53542802180185,454.89569481601393 72.4389735395785,455.42479812606325 74.357411037936,455.9004655057929 76.28898851915896,456.32006895863003 78.23107798667431,456.6853604822899 80.18367944048201,456.9945880790571 82.14328888515129,457.24775174893165 84.10990632068216,457.4448514919136 86.0817797493592,457.58588730800295 88.05628117460934,457.6699831983419 90.03253459757488,457.698891160646 411.5241153725535,457.698891160646 414.0049441375528,457.7330551160961 416.48489690369445,457.83817497901987 418.96046967554753,458.01162275284395 421.42991045539674,458.25515043528384 423.89146724552666,458.5670060286242 426.34426404707966,458.9489415305802 428.78479686462487,459.398328944579 431.2113137004469,459.91692026833596 433.6229385556881,460.50296350413555 436.01704343377537,461.15645865197786 438.3918763369932,461.8765297130052 440.7456852676264,462.6631766872176 443.07584222910174,463.516399574615 445.3823472214192,464.43357037862427 447.6608202502904,465.4155650981031 449.912137314573,466.4606317353362 452.13279441883606,467.5687702903235 454.32103956536434,468.7382287653497 456.4759967553002,469.96900716041466 458.59591399092807,471.2602294766608 460.6781632756751,472.6092677175149 462.7218686106833,474.01699788183475 464.72615399709514,475.481667971905 466.68751543947985,477.0015259900101 468.60595293783734,478.57569593729255 470.47971449445225,480.2033018148944 472.30617211275154,481.88259162510053 474.0853257927351,483.6126893690531 475.81542353668766,485.39184304903665 477.4947133468938,487.2191766661936 479.09954325419557,489.0657822582199 472.05563643945004,489.0657822582199 470.3693386383824,487.3295525222635 468.633108902426,485.6423787223381 466.8478232304385,484.0068888550169 465.016109618993,482.42395891915754 463.13972006580497,480.8953409124754 461.21953056973206,479.4219108338282 459.25641712963204,478.00454468207374 457.2538837409356,476.6449944549272 455.2119304036427,475.3450121501041 453.1340611131843,474.1037217687468 451.0202758695603,472.924627306286 448.8732026693437,471.80685276386396 446.6937175113924,470.7512741403385 444.485324391137,469.7605194322826 442.2488993074353,468.83458863969645 439.98707025686036,467.97348176257975 437.69983723941226,467.1789507986481 435.3915802493794,466.4509957479016 433.0622992867617,465.79049260919766 430.71549834699016,465.1974413825364 428.3520534289223,464.6735940656334 425.97459252913137,464.2189506584884 423.58486764533257,463.8335111611014 421.1846307752415,463.51727557347266 418.77650991543106,463.2711198944597 416.36225706361677,463.09504412406244 413.9445002163717,462.98992426113875 411.5241153725535,462.9548843068309 90.03253459757488,462.9548843068309 87.8258934750349,462.92159635023836 85.62100435021033,462.82348447817617 83.42049521967424,462.66054869064453 81.22524208228432,462.4319129887854 79.0387489334714,462.1384533714568 76.86101577323542,461.78016983865854 74.69467059814954,461.3579383892483 72.54234140478681,460.8717590232262 70.40578019086263,460.3216317405922 68.2858629552347,459.708432540204 66.18521769447612,459.0321614220615 64.10472040744459,458.2945703838802 62.04787508957089,457.49565942566005 60.015557739712705,456.6363045462588 58.00952035558546,455.7173817445342 56.03151493490452,454.7388910204861 54.083293475385304,453.70170837297223 52.1666079747432,452.60758579970815 50.284086429551294,451.45739929955135 48.43572883980959,450.25202487135954 46.62328720323348,448.99233851399055 44.85026551525377,447.67921622630206 43.11578777701274,446.3144100060093 41.42335798394119,444.8987958519702 39.77297613603912,443.4341257619 38.16727022987962,441.92039973579875 36.60711626432039,440.3602457702395 35.09339023821913,438.7536638652223 33.62784414929123,437.10415801617796 32.21222999525208,435.4108522242487 30.847423774959395,433.67725048486534 29.534301487270863,431.9033527980279 28.27461512990187,430.09178716030954 27.069240701710125,428.2434295705678 25.919054201553323,426.36003202651824 24.824931628289153,424.4433465258761 23.788624979633024,422.4951250663569 22.81013425558493,420.51711964567596 21.890335455002567,418.5110822615487 21.030980575601326,416.4787649116905 20.232069617381217,414.4219195938168 19.49447857919993,412.342298305643 18.819083459915166,410.2416530448844 18.205884259526925,408.12173580925645 17.655756976892903,405.9842985964746 17.1687016120131,403.8319694031119 16.746470162602908,401.665624228026 16.388186629804633,399.48876706664777 16.094727012475975,397.3013979189771 15.866091310616929,395.1061447815872 15.703155523085195,392.9056356510511 15.60504365102308,390.7016225250842 15.572631693288272,388.4949814025442 15.60504365102308,386.28834028000426 15.703155523085195,384.08345115517966 15.866091310616929,381.88294202464357 16.094727012475975,379.6876888872537 16.388186629804633,377.50119573844074 16.746470162602908,375.3234625782048 17.1687016120131,373.1579934019766 17.655756976892903,371.00478820975616 18.205884259526925,368.868226995832 18.819083459915166,366.74830976020405 19.49447857919993,364.64766449944545 20.232069617381217,362.56804321127163 25.876130257526146,362.56804321127163"/>
<polygon class="l3d0" points="479.1223192244957,489.0920622239509 480.69736517063575,491.01049972230834 482.21722318874095,492.97273716355073 483.6810172799535,494.97614655110493 485.08874744427334,497.01985188611314 486.4386616839852,499.10210117086 487.72900800137353,501.222018406488 488.9597863964385,503.37697559642373 490.13012087032234,505.5660967418098 491.23738342645197,507.78587784721526 492.28332606254276,510.0371949114978 493.264444783164,512.3165439392267 494.18249158603095,514.6221729326866 495.0348384745706,516.9532058930195 495.82148544878294,519.306138824795 496.5415565098103,521.6809717280129 497.19505165765264,524.0750766061001 497.7810948934523,526.4867014613413 498.29968621720917,528.9140942960211 498.74994963006566,531.3546271135663 499.13100913316407,533.8065479162615 499.44374072536215,536.2681047063915 499.68639240894424,538.7384214850983 499.8607161816261,541.2139942569515 499.96496004569207,543.6930710242353 500.0,546.1747757880923 499.96496004569207,548.6556045530917 499.8607161816261,551.1355573192332 499.68639240894424,553.6111300910864 499.44374072536215,556.0805708709356 499.13100913316407,558.5430036599232 498.74994963006566,560.9949244626184 498.29968621720917,563.4354572801637 497.7810948934523,565.8619741159857 497.19505165765264,568.273598971227 496.5415565098103,570.6677038493142 495.82148544878294,573.0425367525321 495.0348384745706,575.3963456831652 494.18249158603095,577.7265026446405 493.264444783164,580.033007636958 492.28332606254276,582.3123566646868 491.23738342645197,584.5627977301117 490.13012087032234,586.7834548343749 488.9597863964385,588.9716999809032 487.72900800137353,591.126657170839 486.4386616839852,593.246574406467 485.08874744427334,595.3288236912139 483.6810172799535,597.3725290262221 482.21722318874095,599.376814412634 480.69736517063575,601.3381758550187 479.1223192244957,603.2566133533761 477.4947133468938,605.1303749099911 475.81542353668766,606.9568325282904 474.0853257927351,608.735986208274 472.30617211275154,610.4660839522265 470.47971449445225,612.1462497612903 468.60595293783734,613.7729796400345 466.68751543947985,615.3480255861746 464.72615399709514,616.8678836042798 462.7218686106833,618.3316776954923 460.6781632756751,619.7394078598121 458.59591399092807,621.0893220995239 456.4759967553002,622.3796684169124 454.32103956536434,623.6104468119773 452.13279441883606,624.7807812858612 449.912137314573,625.8889198408485 447.6608202502904,626.9339864780816 445.3823472214192,627.9159811975604 443.07584222910174,628.8331520015697 440.7456852676264,629.6854988901094 438.3918763369932,630.4721458643218 436.01704343377537,631.192216925349 433.6229385556881,631.8457120731914 431.2113137004469,632.4317553089911 428.78479686462487,632.9503466327479 426.34426404707966,633.4006100456045 423.89146724552666,633.7816695487029 421.42991045539674,634.0944011409008 418.96046967554753,634.3370528244831 416.48489690369445,634.5113765971648 414.0049441375528,634.6156204612308 411.5241153725535,634.6506604155388 89.35801547714782,634.6506604155388 87.41680200849018,634.6778163801274 85.47734053754793,634.7592842738933 83.54138306203649,634.8950640968364 81.60892958195582,635.0851558489568 79.68348409273673,635.3295595302544 77.76592259323694,635.6282751407292 75.85712108231411,635.9804266815236 73.95795555882596,636.3851381537797 72.07193001820326,636.8441615552133 70.19992045930371,637.354868889251 68.34192688212735,637.9181361547504 66.50145328210492,638.5339633517118 64.67849965923645,639.2005984824195 64.25101221668007,639.3705422608128 52.128064025004505,639.3705422608128 54.01934555877339,638.3149636372874 55.94041105370398,637.3145729417969 57.8895085120809,636.3711221720566 59.865761935046436,635.483735329209 61.8665433260275,634.6550404098273 63.890976686166404,633.8850374139112 65.93643401889004,633.1737263414608 68.00203932534072,632.5228591901915 70.08604060780304,631.9315599612459 72.18580986970393,631.4015806523388 74.30047111218566,630.9329212634707 76.42827233753287,630.5255817946413 78.56570955031474,630.1804382447085 80.71365874938898,629.8974906136722 82.86773994046712,629.6776149003902 85.02795312354911,629.5208111048622 87.19167030206192,629.426203228231 89.35801547714782,629.3946672693539 411.5241153725535,629.3946672693539 413.9445002163717,629.3596273150459 416.36225706361677,629.2536314532646 418.77650991543106,629.0775556828673 421.1846307752415,628.8314000038544 423.58486764533257,628.5160404150832 425.97459252913137,628.1297249188386 428.3520534289223,627.6750815116936 430.71549834699016,627.1512341947906 433.0622992867617,626.5590589669871 435.3915802493794,625.8985558282832 437.69983723941226,625.1706007775366 439.98707025686036,624.3751938147473 442.2488993074353,623.5149629364882 444.485324391137,622.5881561450443 446.6937175113924,621.5974014369885 448.8732026693437,620.5426988123207 451.0202758695603,619.4249242698987 453.1340611131843,618.2449538085802 455.2119304036427,617.0045394260806 457.2538837409356,615.7036811223999 459.25641712963204,614.3441308952533 461.21953056973206,612.9267647434987 463.13972006580497,611.4533346648516 465.016109618993,609.9247166581694 466.8478232304385,608.3417867223101 468.633108902426,606.7062968549889 470.3693386383824,605.0199990539212 472.05563643945004,603.2837693179648 473.6911263067713,601.4984836459773 475.2740562426307,599.6676460333896 476.8026742493128,597.7903804813438 478.2761043279599,595.8701909852709 479.6934704797145,593.9070775451709 481.053020706861,591.9045441564745 482.3538790105418,589.8625908191816 483.59429339304137,587.7847215287231 484.7742638543599,585.6709362850991 485.8920383967819,583.5238630848826 486.94674102144967,581.3443779269311 487.9374957295055,579.1359848066758 488.86430252094954,576.8995597229741 489.72453339920844,574.6377306723992 490.5199403619978,572.350497654951 491.2478954127443,570.0422406649182 491.9083985514482,567.7138357011582 492.5005737792518,565.3661587625289 493.02442109615487,563.0027138444611 493.47906450329987,560.6252529446701 493.8653799995445,558.2355280608714 494.1807395883156,555.836167189638 494.4268952673285,553.42717033097 494.60297103772575,551.0129174791556 494.70809090064944,548.5951606319105 494.7440068538151,546.1747757880923 494.70809090064944,543.7543909442742 494.60297103772575,541.3357580981715 494.4268952673285,538.9215052463571 494.1807395883156,536.5133843865467 493.8653799995445,534.1131475164557 493.47906450329987,531.7234226326568 493.02442109615487,529.3459617328659 492.5005737792518,526.982516814798 491.9083985514482,524.6357158750264 491.2478954127443,522.3064349124088 490.5199403619978,519.9981779223759 489.72453339920844,517.7118209037855 488.86430252094954,515.449115854353 487.9374957295055,513.2126907706512 486.94674102144967,511.00429765039587 485.8920383967819,508.8256884913022 484.7742638543599,506.6786152910856 483.59429339304137,504.56483004746167 482.3538790105418,502.48608475814547 481.053020706861,500.4441314208526 479.6934704797145,498.4415980321562 478.2761043279599,496.4793605909138 476.8026742493128,494.5582950959832 475.2740562426307,492.68190554279516 473.6911263067713,490.8501919313497 472.05563643945004,489.0657822582199 479.09954325419557,489.0657822582199"/>
<polygon class="l3d0" points="62.874818011237316,639.9180415468737 61.09216033582292,640.6862925450745 59.33140263185097,641.5035994793063 57.59429689703684,642.369962349569 55.88259512909595,643.285381155863 54.19717332688598,644.2481039004724 52.53890748926463,645.25725458454 50.910425612805,646.3137092069231 49.31172769750708,647.4139637721912 47.74456574108627,648.5597702780595 46.20981574240027,649.7485007279549 44.70922969916447,650.9801551218777 43.24368361023657,652.2529814621122 41.814929473331965,653.5669797486584 40.42296728845066,654.9195219849432 39.06954905330804,656.3114841698247 37.756426765619494,657.7402383067292 36.48360042538505,659.2057843956571 35.251946031462374,660.7063704388929 34.06321558156688,662.241120437579 32.917409075698565,663.8082823939998 31.817154510430516,665.4069803092976 30.76069988804735,667.0354621857573 29.751549203979838,668.6937280233786 28.788826459370295,670.3791498255886 27.87340765307642,672.0908515935295 27.0070447828136,673.8279573283436 26.189737848581842,675.5887150323156 25.421486850381147,677.37137270773 24.704043785926903,679.1750543557291 24.037408655219114,680.9980079785976 23.421581458257776,682.83848157862 22.858314192758293,684.6964751557964 22.347606858720656,686.568484714696 21.88858345728717,688.4553862541763 21.48387198503093,690.3536757788067 21.131720444236542,692.2624772897295 20.833004833761695,694.1800387892293 20.588601152464097,696.1063602773062 20.39850940034374,698.0379377585291 20.26272957740063,699.9738952340406 20.181261683634762,701.9133567049829 20.154105719046143,703.8545701736405 20.154105719046143,829.5604062532302 20.181261683634762,831.5007437230302 20.26272957740063,833.4402051939725 20.39850940034374,835.3770386683416 20.588601152464097,837.3086161495645 20.833004833761695,839.2340616387836 21.131720444236542,841.1524991371411 21.48387198503093,843.0613006480639 21.88858345728717,844.9595901726943 22.347606858720656,846.8456157133171 22.858314192758293,848.7185012710743 23.421581458257776,850.575618849393 24.037408655219114,852.4169684482731 24.704043785926903,854.2399220711416 25.421486850381147,856.0436037191407 26.189737848581842,857.8262613945551 27.0070447828136,859.5870190985271 27.87340765307642,861.3232488344835 28.788826459370295,863.0349506024244 29.751549203979838,864.721248403492 30.76069988804735,866.3786382422558 31.817154510430516,868.007996117573 32.917409075698565,869.6066940328709 34.06321558156688,871.1738559892917 35.251946031462374,872.7077299891201 36.48360042538505,874.2083160323559 37.756426765619494,875.6738621212838 39.06954905330804,877.1026162581884 40.42296728845066,878.4945784430697 41.814929473331965,879.8479966782123 43.24368361023657,881.1611189659009 44.70922969916447,882.434821304993 46.20981574240027,883.6655997000579 47.74456574108627,884.8552061488111 49.31172769750708,886.0001366558218 50.910425612805,887.1012672199475 52.53890748926463,888.156845843473 54.19717332688598,889.1659965275404 55.88259512909595,890.1287192721501 57.59429689703684,891.0441380784439 59.33140263185097,891.9105009487067 61.09216033582292,892.7286838817962 62.874818011237316,893.4960588811392 64.67849965923645,894.2135019455934 66.50145328210492,894.8801370763013 68.34192688212735,895.4959642732625 70.19992045930371,896.059231538762 72.07193001820326,896.5708148716574 73.95795555882596,897.0289622742332 75.85712108231411,897.4345497453471 77.76592259323694,897.7867012861416 79.68348409273673,898.0845408977586 81.60892958195582,898.3289445790563 83.54138306203649,898.5190363311766 85.47734053754793,898.6548161541198 87.41680200849018,898.7371600467434 89.35801547714782,898.764316011332 330.2577013439574,898.764316011332 330.2577013439574,904.0203091575169 89.35801547714782,904.0203091575169 87.19167030206192,903.9887731986397 85.02795312354911,903.8941653220085 82.86773994046712,903.7364855276228 80.71365874938898,903.5166098143408 78.56570955031474,903.2336621833044 76.42827233753287,902.8885186333716 74.30047111218566,902.4820551634 72.18580986970393,902.0133957745318 70.08604060780304,901.4825404667671 68.00203932534072,900.892117236679 65.93643401889004,900.2403740865522 63.890976686166404,899.5299390129595 61.8665433260275,898.7590600181857 59.865761935046436,897.9303650988039 57.8895085120809,897.0438542548139 55.94041105370398,896.0995274862162 54.01934555877339,895.1000127895833 52.128064025004505,894.0444341660578 50.26831845011274,892.9345436133551 48.44098483295578,891.7703411314751 46.64956716896441,890.554454716991 44.89318945928094,889.2860083710451 43.175355699336166,887.9676300902104 41.49606588913008,886.5993198744868 39.85707202637808,885.1837057204477 38.26012610879555,883.7199116292352 36.706980134097904,882.2114415962801 35.19763410228513,880.6574196227248 33.73471600993032,879.0604737051423 32.31822585703348,877.422355841248 30.949915641310007,875.7430660310418 29.63153736047528,874.0243562722394 28.36396701338701,872.2688545614136 27.1472046000452,870.4765608985646 25.983878117022932,868.6501032802653 24.873111565462516,866.7903577053736 23.81840894079474,864.8990761716046 22.818018245304206,862.978010676674 21.873691476706313,861.0280372194394 20.987180632716452,859.0517837964738 20.15848571333463,857.0510024054928 19.388482717418533,855.0265690453539 18.677171644968176,852.9811117126303 18.026304493698937,850.9155064061796 17.435005264753134,848.8315051237173 16.905025955846153,846.7317358618164 16.436366566978,844.6170746193347 16.029027098148664,842.4901493928452 15.683883548215853,840.3518361812056 15.400935917179563,838.204762980989 15.181060203897491,836.0498057910531 15.023380409511944,833.8895926079712 14.929648531738314,831.7258754294585 14.898112572861205,829.5604062532302 14.898112572861205,703.8545701736405 14.929648531738314,701.6882249985546 15.023380409511944,699.5245078200418 15.181060203897491,697.3642946369597 15.400935917179563,695.2102134458817 15.683883548215853,693.0622642468074 16.029027098148664,690.9248270340255 16.436366566978,688.7970258086783 16.905025955846153,686.6823645661966 17.435005264753134,684.5825953042958 18.026304493698937,682.4985940218334 18.677171644968176,680.4329887153826 19.388482717418533,678.3875313826591 20.15848571333463,676.3630980225201 20.987180632716452,674.3623166315391 21.873691476706313,672.3860632085735 22.818018245304206,670.4369657501967 23.81840894079474,668.515900255266 24.873111565462516,666.6246187214972 25.983878117022932,664.7648731466054 27.1472046000452,662.9375395294484 28.36396701338701,661.1461218654571 29.63153736047528,659.3897441557737 30.949915641310007,657.6719103958288 32.31822585703348,655.9926205856227 33.73471600993032,654.3536267228708 35.19763410228513,652.7566808052883 36.706980134097904,651.2035348305906 38.26012610879555,649.6941887987778 39.85707202637808,648.231270706423 41.49606588913008,646.8147805535261 43.175355699336166,645.4464703378027 44.89318945928094,644.128092056968 46.64956716896441,642.8605217098797 48.44098483295578,641.6437592965378 50.26831845011274,640.4804328135156 52.128064025004505,639.3705422608128 64.25101221668007,639.3705422608128"/>
</g>
</svg>