<svg xmlns="http://www.w3.org/2000/svg" xmlns:xlink="http://www.w3.org/1999/xlink" width="550.0" height="327.33904055178084" viewBox="-525.0 -297.6660996831746 550.0 327.33904055178084">
<defs>
<style type="text/css">
.l3d0 {stroke: rgb(255, 255, 64); fill: rgb(255, 255, 64); fill-opacity: 0.5;}
</style>
</defs>
<rect x="-525.0" y="-297.6660996831746" width="550.0" height="327.33904055178084" fill="#222" stroke="none"/>
<g id="gds" transform="scale(1 -1)">
<polygon class="l3d0" points="-334.10686081178324,270.32962924887147 -205.60098692511144,270.32962924887147 -204.54116393611153,270.31093748539706 -203.48227553528537,270.2557967831475 -202.42619089898034,270.16327255394907 -201.37384461537022,270.03383209188866 -200.32663856671556,269.86840998514003 -199.28597463527697,269.6660716455294 -198.25278740922812,269.4272843671436 -197.22894606491647,269.1529827381564 -196.21491789642894,268.8431667585678 -195.2125720801129,268.49783642837787 -194.22284320414207,268.11792633576016 -193.24666585669024,267.70343648071474 -192.2859092141048,267.2557687455023 -191.34150786455947,266.7744558360359 -190.41392910214114,266.26043234048916 -189.5050421031972,265.7141655529491 -188.6162487499883,265.13659006158935 -187.7475490425144,264.5286404545837 -186.90081215712294,263.89078402601893 -186.07697268198768,263.22348806998195 -185.27696520528227,262.5276871746465 -184.50125702109366,261.80478322227304 -183.7517173057692,261.05524350694867 -183.0288133533958,260.27953532276 -182.33301245806035,259.4795278460546 -181.66618379611023,258.65568837091934 -181.02786007345864,257.8089514855279 -180.41991046645296,256.94071907214084 -179.8423349750932,256.0514584248451 -179.29653548164,255.14257142590117 -178.7825119860933,254.21545995756966 -178.30119907662686,253.27059131393753 -177.85306404732754,252.30983467135206 -177.43857419228215,251.33365732390024 -177.05866409966447,250.34392844792941 -176.71380106356133,249.34158263161336 -176.40351778988588,248.32755446312584 -176.1292161608987,247.3037131188142 -175.8908961765998,246.27052589276533 -175.68855783698913,245.22986196132675 -175.5226684361536,244.1826559126721 -175.3932279740932,243.13030962906194 -175.30117103898166,242.07422499275694 -175.24556304264524,241.01533659193078 -175.22687127917084,239.95551360293086 -172.8904008448677,239.95551360293086 -172.909559902429,241.07234647052775 -172.96656978102598,242.18777745586408 -173.06189777474555,243.30040467667922 -173.19507658950084,244.40976083888634 -173.36610622529182,245.51350947205114 -173.57451938803166,246.61071598799987 -173.8207833718072,247.70044579855883 -174.10349629435788,248.7808297273806 -174.42312544977054,249.85093318629148 -174.77920354395835,250.90982158711762 -175.17126328283442,251.95562575351167 -175.59837007822503,252.98741109729997 -176.06099122421705,254.00424303030866 -176.5577248385499,255.0047196702773 -177.08857092122355,255.98743913494516 -177.65259488406434,256.95146683613865 -178.2488621388985,257.895868185684 -178.87737268572602,258.8192413013206 -179.53719193637323,259.7206515948747 -180.22691800857953,260.59869718408584 -180.94655090234485,261.45291077486706 -181.6951560294956,262.2823577790447 -182.4713315077711,263.08516902027117 -183.27461004308452,263.86181179263355 -184.10358975317527,264.6099496256974 -184.95780334395647,265.32958251946275 -185.83631622725443,266.0193085916691 -186.7377265208086,266.6791278423163 -187.6610996364452,267.30763838914385 -188.60503369190366,267.90390564397796 -189.569528687184,268.4679296068187 -190.5522481518519,268.99877568949245 -191.55225749773362,269.49550930382526 -192.56908943074234,269.9581304498173 -193.6008747745306,270.3852372452079 -194.64714623501152,270.77729698408393 -195.70556734175085,271.13337507827174 -196.7756708006617,271.4530042336844 -197.8565220235703,271.73618445032196 -198.94578454004244,271.9819811400106 -200.04345835007803,272.19039430275046 -201.14720698324282,272.36142393854146 -202.25609585136309,272.49460275329676 -203.36872307217823,272.5899307470163 -204.48415405751453,272.6469406256133 -205.60098692511144,272.6660996831746 -334.10686081178324,272.6660996831746"/>
<polygon class="l3d0" points="-172.8904008448677,239.95551360293086 -175.22687127917084,239.95551360293086 -175.22687127917084,196.26351648146243 -172.8904008448677,196.26351648146243"/>
<polygon class="l3d0" points="-468.8712044037795,4.72621239450836 -469.6576603519659,4.7930354489294285 -470.44177982971803,4.886026972214693 -471.2216936606884,5.005654258451013 -471.99740184487706,5.1514500135515275 -472.76750250002334,5.322946943429377 -473.53152833204047,5.521079636258282 -474.28854475275466,5.744446209777661 -475.03761717399226,5.993513958074375 -475.7778110075795,6.267348292974701 -476.5081916653426,6.5664165085655 -477.227824559108,6.889784016673053 -477.93670968887557,7.237450817297358 -478.63297787829794,7.608949616351555 -479.31662912737505,8.00334582566192 -479.9862615538463,8.42110673931532 -480.6414078636249,8.860830475051168 -481.28160076262395,9.322517032869465 -481.90590566266974,9.805699118683352 -482.5133879755885,10.309442144319107 -483.1031131132066,10.833746109776728 -483.6755483696109,11.377209132795635 -484.2288245684539,11.940298507462686 -484.76247441564874,12.521145057430443 -485.27696520528224,13.120216076785765 -485.7704277610071,13.736109683268067 -486.24286208282314,14.368358582790494 -486.6938008766437,15.01602818717932 -487.1223095542949,15.678651202347684 -487.52838811577675,16.355293040121868 -487.9115692670025,17.045486406415012 -488.27091841979836,17.74782941896653 -488.6064355741642,18.462322077776427 -488.9176534360133,19.187562500584118 -489.20457200534577,19.92308339330274 -489.46578939990087,20.667482873671716 -489.70224020785236,21.420760941691043 -489.91298984102656,22.18104842101328 -490.0980382994233,22.948345311638427 -490.256918288956,23.72171702539276 -490.3891625155375,24.499761680015702 -490.49570556734176,25.281544687333525 -490.5756128561948,26.066598753259374 -490.628884382097,26.85445658370639 -490.65552014504806,27.643249002327124 -490.65552014504806,28.432041420947858 -490.628884382097,29.22083383956859 -490.5756128561948,30.008691670015608 -490.49570556734176,30.793745735941453 -490.3891625155375,31.57552874325928 -490.256918288956,32.35357339788222 -490.0980382994233,33.12694511163656 -489.91298984102656,33.894242002261706 -489.70224020785236,34.654529481583936 -489.46578939990087,35.40780754960327 -489.20457200534577,36.15220702997224 -488.9176534360133,36.887727922690864 -488.6064355741642,37.61296834549855 -488.27091841979836,38.32746100430845 -487.9115692670025,39.02980401685997 -487.52838811577675,39.719997383153114 -487.1223095542949,40.39663922092729 -486.6938008766437,41.05926223609566 -486.24286208282314,41.706931840484486 -485.7704277610071,42.33918074000692 -485.27696520528224,42.95507434648922 -484.76247441564874,43.55414536584454 -484.2288245684539,44.13499191581229 -483.6755483696109,44.69808129047935 -483.1031131132066,45.24154431349826 -482.5133879755885,45.76584827895588 -481.90590566266974,46.269591304591636 -481.28160076262395,46.752773390405515 -480.6414078636249,47.21445994822381 -479.9862615538463,47.65418368395966 -479.31662912737505,48.07194459761306 -478.63297787829794,48.46634080692343 -477.93670968887557,48.83783960597762 -477.227824559108,49.18550640660193 -476.5081916653426,49.508873914709476 -475.7778110075795,49.807942130300276 -475.03761717399226,50.08177646520061 -474.28854475275466,50.330844213497315 -473.53152833204047,50.5542107870167 -472.76750250002334,50.7523434798456 -471.99740184487706,50.923840409723454 -471.2216936606884,51.06963616482397 -470.44177982971803,51.189263451060285 -469.6576603519659,51.28225497434555 -468.8712044037795,51.34907802876662 -468.08334657333245,51.38879802614978 -467.2940868606249,51.40234955466873 -467.2940868606249,53.738819988971855 -468.19082421331035,53.722931990018594 -469.08709427190905,53.67620258133253 -469.9805605659866,53.59816446882681 -470.8712230955429,53.488817652501425 -471.7572126842307,53.34816213235638 -472.6375947438761,53.177132496565385 -473.51190198039234,52.9752614510416 -474.37826521743193,52.74301628987187 -475.23621716090804,52.48086430714306 -476.08435592856006,52.18880550285517 -476.92174693221426,51.86730717109506 -477.7479228777839,51.516836605949585 -478.56054729483446,51.13786110150562 -479.360087477453,50.730380657763156 -480.14467424929205,50.29532986289591 -480.9138403162646,49.833643305077615 -481.66618379611026,49.3448536902214 -482.4007701006551,48.83036290058785 -483.1171319358125,48.29063823026383 -483.8143347134085,47.72567967924934 -484.49144384526954,47.13735642389181 -485.1475247432218,46.52566846419125 -485.78211011317865,45.891083094234524 -486.3937980728792,45.23500219628221 -486.9821213282367,44.55789306442116 -487.54707987925116,43.86069028682511 -488.0868045495753,43.144328451667775 -488.6012953392088,42.40974214712287 -489.090084954065,41.65739866727726 -489.5517715118833,40.888232600304676 -489.98682230675047,40.10364582846569 -490.39430275049295,39.30410564584716 -490.7732782549369,38.49148122879653 -491.12374882008237,37.66530528322694 -491.4452471518425,36.82791427957271 -491.7373059561304,35.97977551192067 -491.99945793885917,35.12182356844456 -492.23170310002894,34.25546033140496 -492.43357414555277,33.38115309488874 -492.6046037813437,32.50077103524332 -492.7452593014887,31.614781446555575 -492.85460611781417,30.72411891699922 -492.9326442303199,29.83065262292171 -492.9793736390059,28.934382564323027 -492.99526163795923,28.03764521163749 -492.9793736390059,27.14090785895195 -492.9326442303199,26.24463780035327 -492.85460611781417,25.351171506275758 -492.7452593014887,24.460508976719407 -492.6046037813437,23.57451938803166 -492.43357414555277,22.694137328386244 -492.23170310002894,21.819830091870017 -491.99945793885917,20.95346685483042 -491.7373059561304,20.09551491135431 -491.4452471518425,19.247376143702276 -491.12374882008237,18.409985140048036 -490.7732782549369,17.58380919447845 -490.39430275049295,16.771184777427827 -489.98682230675047,15.971644594809298 -489.5517715118833,15.187057822970308 -489.090084954065,14.417891755997719 -488.6012953392088,13.665548276152112 -488.0868045495753,12.93096197160721 -487.54707987925116,12.214600136449873 -486.9821213282367,11.51739735885382 -486.3937980728792,10.840288226992776 -485.78211011317865,10.184207329040458 -485.1475247432218,9.54962195908373 -484.49144384526954,8.937933999383171 -483.8143347134085,8.349610744025645 -483.1171319358125,7.784652193011149 -482.4007701006551,7.244927522687127 -481.66618379611026,6.73043673305358 -480.9138403162646,6.241647118197366 -480.14467424929205,5.7799605603790685 -479.360087477453,5.344909765511828 -478.56054729483446,4.937429321769362 -477.7479228777839,4.558453817325396 -476.92174693221426,4.207983252179927 -476.08435592856006,3.886484920419817 -475.23621716090804,3.594426116131926 -474.37826521743193,3.332274133403116 -473.51190198039234,3.1000289722333854 -472.6375947438761,2.898157926709595 -471.7572126842307,2.7271282909186065 -470.8712230955429,2.5864727707735584 -469.9805605659866,2.4771259544481725 -469.08709427190905,2.399087841942448 -468.19082421331035,2.3523584332563856 -467.2940868606249,2.3364704343031244 0.0,2.3364704343031244 0.0,4.672940868606249 -467.2940868606249,4.672940868606249 -468.08334657333245,4.686492397125207"/>
<polygon class="l3d0" points="-205.60098692511144,263.3202179459621 -204.80331591884035,263.3066664174431 -204.006579500743,263.2655445377994 -203.2117122589931,263.1977868952047 -202.4196487817643,263.102458901485 -201.63132365723044,262.9804951448144 -200.84720417947833,262.8314283311059 -200.06915952485537,262.6557257544463 -199.29718969336162,262.4538547089225 -198.5331638613445,262.2253479004477 -197.77661473471713,261.9711399171955 -197.02987878391386,261.691230759166 -196.2924887148478,261.38608772044597 -195.56631370386637,261.0557108010355 -194.85182104505648,260.7005672950214 -194.14994532659182,260.32159179057743 -193.46115384255927,259.9187842877036 -192.7868484752194,259.4926120804867 -192.1270292245722,259.04354246301364 -191.48309797287823,258.57251002345816 -190.85598930831128,258.079982055907 -190.24570323087133,257.5659585603604 -189.6536416228189,257.0313741249918 -189.07980448415407,256.47669604388824 -188.52512640305048,255.90332619931027 -187.9910092617688,255.310797297171 -187.4769857662221,254.700511219731 -186.98399050458414,254.07340255516405 -186.51295806502864,253.42947130347008 -186.06388844755557,252.77011934690978 -185.6377162403387,252.09534668548307 -185.23490873746482,251.40702249553732 -184.85593323302086,250.70467948298582 -184.50125702109366,249.99018682417594 -184.1708801016832,249.2640118131945 -183.86526976887635,248.52708903821528 -183.58536061084683,247.77988579332518 -183.33115262759463,247.02380396078465 -183.1026458191198,246.2593108346807 -182.900774773596,245.4873410031869 -182.72507219693642,244.709296348564 -182.57600538322788,243.92564416489873 -182.45404162655723,243.13685174627798 -182.3587136328377,242.34478826904925 -182.29095599024288,241.54992102729932 -182.24983411059918,240.75318460920195 -182.2362825820802,239.95551360293086 -179.89981214777708,239.95551360293086 -179.91570014673036,240.8522509556164 -179.96242955541638,241.74852101421507 -180.04093496200898,242.6419873082926 -180.1498144842475,243.53264983784894 -180.29047000439255,244.4186394265367 -180.46149964018355,245.29902148618208 -180.66337068570732,246.17332872269836 -180.89561584687706,247.03969195973792 -181.15776782960586,247.89764390321403 -181.44982663389376,248.74578267086608 -181.7713249656539,249.58317367452028 -182.12179553079935,250.4093496200899 -182.50123832933016,251.22197403714054 -182.9082514789858,252.02151421975907 -183.34330227385303,252.80610099159804 -183.80545612575816,253.5752670585706 -184.29377844652754,254.32761053841622 -184.80826923616107,255.06219684296113 -185.34846120057196,255.7785586781185 -185.9129524574996,256.4757614557145 -186.5012757128571,257.1528705875756 -187.11343096664453,257.8089514855279 -187.7475490425144,258.4435368554846 -188.40362994046671,259.0552248151852 -189.0807390723278,259.6435480705427 -189.77794184992382,260.2085066215572 -190.49430368508115,260.7482312918812 -191.22935728371291,261.26272208151477 -191.98170076355854,261.751511696371 -192.75039953644426,262.21319825418925 -193.53498630828324,262.6482490490565 -194.3345264909018,263.05572949279895 -195.14761820203927,263.43470499724293 -195.973326853522,263.7851755623884 -196.81071785717623,264.1066738941485 -197.65885662482825,264.39873269843645 -198.51680856830436,264.66088468116527 -199.38363909943084,264.893129842335 -200.25747904186022,265.09500088785876 -201.13832839559248,265.26603052364976 -202.0243179842802,265.4066860437948 -202.91451321974972,265.51603286012016 -203.8084468079141,265.5940709726259 -204.7042495724259,265.640800381312 -205.60098692511144,265.6566883802652 -334.10686081178324,265.6566883802652 -334.10686081178324,263.3202179459621"/>
<polygon class="l3d0" points="-182.2362825820802,239.95551360293086 -182.2362825820802,196.26351648146243 -179.89981214777708,196.26351648146243 -179.89981214777708,239.95551360293086"/>
<polygon class="l3d0" points="-203.36872307217823,163.62909933737697 -202.25609585136309,163.72442733109656 -201.14720698324282,163.8576061458518 -200.04345835007803,164.0286357816428 -198.94578454004244,164.23704894438265 -197.8565220235703,164.48284563407134 -196.7756708006617,164.76602585070887 -195.70556734175085,165.08565500612153 -194.64714623501152,165.44173310030934 -193.6008747745306,165.8337928391854 -192.56908943074234,166.26089963457602 -191.55225749773362,166.72352078056804 -190.5522481518519,167.22025439490088 -189.569528687184,167.75110047757454 -188.60503369190366,168.3151244404153 -187.6610996364452,168.91139169524948 -186.7377265208086,169.53990224207703 -185.83631622725443,170.19972149272422 -184.95780334395647,170.8894475649305 -184.10358975317527,171.60908045869587 -183.27461004308452,172.35721829175972 -182.4713315077711,173.13386106412207 -181.6951560294956,173.93667230534865 -180.94655090234485,174.76611930952623 -180.22691800857953,175.6203329003075 -179.53719193637323,176.4983784895186 -178.87737268572602,177.39978878307272 -178.2488621388985,178.32316189870932 -177.65259488406434,179.26756324825465 -177.08857092122355,180.23159094944813 -176.5577248385499,181.21431041411603 -176.06099122421705,182.2147870540846 -175.59837007822503,183.23161898709333 -175.17126328283442,184.2634043308816 -174.77920354395835,185.30920849727568 -174.42312544977054,186.36809689810184 -174.10349629435788,187.43820035701268 -173.8207833718072,188.51858428583444 -173.57451938803166,189.6083140963934 -173.36610622529182,190.70552061234216 -173.19507658950084,191.80926924550695 -173.06189777474555,192.91862540771407 -172.96656978102598,194.03125262852924 -172.909559902429,195.14668361386555 -172.8904008448677,196.26351648146243 -175.22687127917084,196.26351648146243 -175.24556304264524,195.20369349246255 -175.30117103898166,194.14480509163636 -175.3932279740932,193.08872045533136 -175.5226684361536,192.03637417172123 -175.68855783698913,190.98916812306658 -175.8908961765998,189.94850419162793 -176.1292161608987,188.9153169655791 -176.40351778988588,187.8914756212675 -176.71380106356133,186.87744745277993 -177.05866409966447,185.87510163646388 -177.43857419228215,184.88537276049308 -177.85306404732754,183.90919541304123 -178.30119907662686,182.94843877045577 -178.7825119860933,182.0035701268236 -179.29653548164,181.07645865849213 -179.8423349750932,180.16757165954823 -180.41991046645296,179.27831101225243 -181.02786007345864,178.4100785988654 -181.66618379611023,177.56334171347396 -182.33301245806035,176.73950223833867 -183.0288133533958,175.93949476163328 -183.7517173057692,175.16378657744463 -184.50125702109366,174.4142468621202 -185.27696520528227,173.69134290974682 -186.07697268198768,172.99554201441134 -186.90081215712294,172.32824605837436 -187.7475490425144,171.6903896298096 -188.6162487499883,171.08244002280395 -189.5050421031972,170.5048645314442 -190.41392910214114,169.95859774390416 -191.34150786455947,169.44457424835747 -192.2859092141048,168.963261338891 -193.24666585669024,168.51559360367852 -194.22284320414207,168.10110374863316 -195.2125720801129,167.7211936560155 -196.21491789642894,167.37586332582546 -197.22894606491647,167.06604734623687 -198.25278740922812,166.79174571724968 -199.28597463527697,166.55295843886393 -200.32663856671556,166.35062009925326 -201.37384461537022,166.18519799250458 -202.42619089898034,166.0557575304442 -203.48227553528537,165.9632333012458 -204.54116393611153,165.90809259899626 -205.60098692511144,165.88940083552183 -467.2940868606249,165.88940083552183 -467.2940868606249,163.5529304012187 -205.60098692511144,163.5529304012187 -204.48415405751453,163.57208945877997"/>
<polygon class="l3d0" points="0.0,-4.672940868606249 0.0,-2.3364704343031244 -467.2940868606249,-2.3364704343031244 -467.2940868606249,-4.672940868606249"/>
<polygon class="l3d0" points="-478.6722305815942,112.02581332535817 -479.6484079290461,112.44030318040355 -480.6091645716314,112.88797091561604 -481.5540332152637,113.36928382508248 -482.4811446835952,113.88330732062916 -483.390031682539,114.42957410816923 -484.27929232983485,115.00714959952896 -485.1475247432218,115.61509920653462 -485.99426162861334,116.25295563509938 -486.8181011037486,116.92025159113636 -487.61810858045396,117.61605248647183 -488.3938167646426,118.33895643884522 -489.1433564799671,119.08849615416966 -489.8662604323405,119.8642043383583 -490.5620613276759,120.66421181506368 -491.2293572837129,121.48805129019898 -491.86721371227765,122.33478817559042 -492.4751633192833,123.20302058897745 -493.0527388106431,124.09228123627324 -493.5990055981831,125.00116823521715 -494.11302909372984,125.92827970354861 -494.5943420031963,126.8731483471808 -495.0420097384088,127.83390498976625 -495.45649959345417,128.8100823372181 -495.83640968607176,129.79981121318892 -496.1817400162618,130.80215702950494 -496.4915559958504,131.8161851979925 -496.76585762483757,132.84002654230412 -497.0046449032233,133.87321376835297 -497.206983242834,134.91387769979158 -497.37240534958266,135.96108374844624 -497.5018458116431,137.0134300320564 -497.5943700408415,138.0695146683614 -497.64951074309107,139.12840306918756 -497.6682025065655,140.18822605818747 -497.64951074309107,141.24804904718735 -497.5943700408415,142.3069374480135 -497.5018458116431,143.36302208431854 -497.37240534958266,144.41536836792866 -497.206983242834,145.46257441658332 -497.0046449032233,146.50323834802194 -496.76585762483757,147.5364255740708 -496.4915559958504,148.5602669183824 -496.1817400162618,149.57429508686997 -495.83640968607176,150.576640903186 -495.45649959345417,151.56636977915682 -495.0420097384088,152.54254712660864 -494.5943420031963,153.5033037691941 -494.11302909372984,154.4481724128263 -493.5990055981831,155.37528388115777 -493.0527388106431,156.28417088010167 -492.4751633192833,157.17343152739744 -491.86721371227765,158.0416639407845 -491.2293572837129,158.88840082617594 -490.5620613276759,159.71224030131123 -489.8662604323405,160.51224777801662 -489.1433564799671,161.28795596220525 -488.3938167646426,162.0374956775297 -487.61810858045396,162.76039962990308 -486.8181011037486,163.45620052523856 -485.99426162861334,164.1234964812755 -485.1475247432218,164.76135290984027 -484.27929232983485,165.36930251684595 -483.390031682539,165.9468780082057 -482.4811446835952,166.49314479574574 -481.5540332152637,167.00716829129243 -480.6091645716314,167.48848120075888 -479.6484079290461,167.93614893597135 -478.6722305815942,168.35063879101673 -478.6722305815942,170.85112944980793 -479.17130066636133,170.66654828549798 -480.1937401284124,170.24785278367088 -481.2016934737707,169.79504481350293 -482.19375882017584,169.308591669081 -483.1685342853671,168.78849335040513 -484.1255525752577,168.23615173973587 -485.063411807587,167.65156683707323 -485.98071010009437,167.03567323059093 -486.8765128646062,166.3894055084627 -487.7503528070356,165.71323096477536 -488.6008280451219,165.00761689361582 -489.4270039906915,164.27396517724463 -490.22794605557056,163.51274310974867 -491.0022523574986,162.72488527930167 -491.74992289647565,161.91132627407734 -492.47002308432786,161.07300068224936 -493.1606837447079,160.21037579790465 -493.8223721717025,159.32532079739062 -494.4536864830513,158.418770268881 -495.0536920905802,157.4907242123758 -495.6223889942897,156.54351909830933 -496.1583753119188,155.5776222207684 -496.66165104346766,154.5939681679268 -497.1317488948495,153.5934915279582 -497.5672669838036,152.5785287712969 -497.96867260441684,151.5486126038561 -498.3345638744287,150.50607949607004 -498.66540808792604,149.45186403611248 -498.96027065673513,148.38736810624397 -499.21915158085585,147.31305900055142 -499.4415835662016,146.2308058953822 -499.62756661277206,145.1415433789101 -499.7761661323937,144.04667333339563 -499.8883167132403,142.94759764109943 -499.9626164730512,141.84478359610839 -500.0,140.74056766885673 -500.0,139.63588444751818 -499.9626164730512,138.53166852026652 -499.8883167132403,137.42885447527547 -499.7761661323937,136.32977878297928 -499.62756661277206,135.23490873746482 -499.4415835662016,134.14564622099272 -499.21915158085585,133.0633931158235 -498.96027065673513,131.98908401013094 -498.66540808792604,130.92458808026242 -498.3345638744287,129.87037262030486 -497.96867260441684,128.8278395125188 -497.5672669838036,127.79792334507799 -497.1317488948495,126.7829605884167 -496.66165104346766,125.78248394844812 -496.1583753119188,124.7988298956065 -495.6223889942897,123.83293301806559 -495.0536920905802,122.8857279039991 -494.4536864830513,121.9576818474939 -493.8223721717025,121.05113131898429 -493.1606837447079,120.16607631847027 -492.47002308432786,119.30345143412555 -491.74992289647565,118.4651258422976 -491.0022523574986,117.65156683707323 -490.22794605557056,116.86370900662624 -489.4270039906915,116.10248693913026 -488.6008280451219,115.36883522275909 -487.7503528070356,114.66322115159954 -486.8765128646062,113.98704660791222 -485.98071010009437,113.34077888578398 -485.063411807587,112.72488527930167 -484.1255525752577,112.14030037663903 -483.1685342853671,111.58795876596977 -482.19375882017584,111.0678604472939 -481.2016934737707,110.58140730287198 -480.1937401284124,110.12859933270404 -479.17130066636133,109.70990383087691 -478.6722305815942,109.52532266656698"/>
<polygon class="l3d0" points="-477.6825017056234,168.7305488836344 -476.68015588930734,169.07587921382444 -475.6661277208198,169.38569519341303 -474.6422863765082,169.65999682240022 -473.6090991504593,169.89878410078597 -472.5684352190207,170.1011224403966 -471.5212291703661,170.26654454714532 -470.4688828867559,170.3959850092057 -469.4127982504509,170.48850923840408 -468.35390984962476,170.54364994065364 -467.2940868606249,170.56234170412807 -205.60098692511144,170.56234170412807 -204.7042495724259,170.57822970308132 -203.8084468079141,170.6249591117674 -202.91451321974972,170.7029972242731 -202.0243179842802,170.8123440405985 -201.13832839559248,170.95299956074356 -200.25747904186022,171.12402919653454 -199.38363909943084,171.32590024205834 -198.51680856830436,171.55814540322805 -197.65885662482825,171.82029738595688 -196.81071785717623,172.11235619024475 -195.973326853522,172.43385452200488 -195.14761820203927,172.78432508715034 -194.3345264909018,173.1633005915943 -193.53498630828324,173.57078103533678 -192.75039953644426,174.00583183020402 -191.98170076355854,174.4675183880223 -191.22935728371291,174.95630800287853 -190.49430368508115,175.47079879251208 -189.77794184992382,176.0105234628361 -189.0807390723278,176.57548201385057 -188.40362994046671,177.16380526920813 -187.7475490425144,177.77549322890866 -187.11343096664453,178.4100785988654 -186.5012757128571,179.0661594968177 -185.9129524574996,179.74326862867875 -185.34846120057196,180.4404714062748 -184.80826923616107,181.15683324143217 -184.29377844652754,181.89141954597707 -183.80545612575816,182.64376302582266 -183.34330227385303,183.41292909279525 -182.9082514789858,184.19751586463423 -182.50123832933016,184.99705604725276 -182.12179553079935,185.8096804643034 -181.7713249656539,186.63585640987299 -181.44982663389376,187.47324741352722 -181.15776782960586,188.32138618117926 -180.89561584687706,189.17933812465535 -180.66337068570732,190.04570136169497 -180.46149964018355,190.92000859821118 -180.29047000439255,191.8003906578566 -180.1498144842475,192.68638024654436 -180.04093496200898,193.57704277610068 -179.96242955541638,194.47050907017822 -179.91570014673036,195.3667791287769 -179.89981214777708,196.26351648146243 -182.2362825820802,196.26351648146243 -182.24983411059918,195.46584547519134 -182.29095599024288,194.669109057094 -182.3587136328377,193.87424181534405 -182.45404162655723,193.0821783381153 -182.57600538322788,192.29338591949457 -182.72507219693642,191.5097337358293 -182.900774773596,190.73168908120635 -183.1026458191198,189.9597192497126 -183.33115262759463,189.19522612360865 -183.58536061084683,188.43914429106812 -183.86526976887635,187.691941046178 -184.1708801016832,186.95501827119878 -184.50125702109366,186.2288432602174 -184.85593323302086,185.5143506014075 -185.23490873746482,184.81200758885598 -185.6377162403387,184.12368339891026 -186.06388844755557,183.44891073748352 -186.51295806502864,182.7895587809232 -186.98399050458414,182.14562752922924 -187.4769857662221,181.5185188646623 -187.9910092617688,180.9082327872223 -188.52512640305048,180.31570388508302 -189.07980448415407,179.74233404050503 -189.6536416228189,179.1876559594015 -190.24570323087133,178.65307152403292 -190.85598930831128,178.13904802848623 -191.48309797287823,177.64652006093516 -192.1270292245722,177.17548762137963 -192.7868484752194,176.72641800390656 -193.46115384255927,176.30024579668967 -194.14994532659182,175.8974382938158 -194.85182104505648,175.51846278937185 -195.56631370386637,175.1633192833578 -196.2924887148478,174.83294236394732 -197.02987878391386,174.52779932522733 -197.77661473471713,174.24789016719782 -198.5331638613445,173.99368218394565 -199.29718969336162,173.7651753754708 -200.06915952485537,173.56330432994702 -200.84720417947833,173.3876017532874 -201.63132365723044,173.23853493957887 -202.4196487817643,173.11657118290825 -203.2117122589931,173.02124318918868 -204.006579500743,172.9534855465939 -204.80331591884035,172.91236366695014 -205.60098692511144,172.8988121384312 -467.2940868606249,172.8988121384312 -468.3987700819634,172.88012037495676 -469.50251871512813,172.82404508453348 -470.60346358377177,172.73105356124825 -471.7006700997205,172.60067851101414 -472.79273638071385,172.43338722791802 -473.8787278385779,172.22917971195992 -474.95724259105225,171.98852325722672 -476.0268787558762,171.71141786371834 -477.0862344507893,171.39879811960859 -478.13484238170446,171.05019673081054 -478.6722305815942,170.85112944980793 -478.6722305815942,168.35063879101673"/>
<polygon class="l3d0" points="-467.2940868606249,109.81411041224683 -468.35390984962476,109.83280217572126 -469.4127982504509,109.88794287797081 -470.4688828867559,109.98046710716922 -471.5212291703661,110.10990756922962 -472.5684352190207,110.27532967597827 -473.6090991504593,110.47766801558892 -474.6422863765082,110.7164552939747 -475.6661277208198,110.99075692296189 -476.68015588930734,111.3005729025505 -477.6825017056234,111.64590323274048 -478.6722305815942,112.02581332535817 -478.6722305815942,109.52532266656698 -478.13484238170446,109.32625538556434 -477.0862344507893,108.97765399676632 -476.0268787558762,108.66503425265657 -474.95724259105225,108.38792885914822 -473.8787278385779,108.14727240441499 -472.79273638071385,107.9430648884569 -471.7006700997205,107.7757736053608 -470.60346358377177,107.64539855512669 -469.50251871512813,107.55240703184141 -468.3987700819634,107.49633174141813 -467.2940868606249,107.47763997794371"/>
<polygon class="l3d0" points="-467.2940868606249,116.82352171515622 -468.08334657333245,116.83707324367516 -468.8712044037795,116.87679324105832 -469.6576603519659,116.9436162954794 -470.44177982971803,117.03660781876465 -471.2216936606884,117.15623510500097 -471.99740184487706,117.3020308601015 -472.76750250002334,117.47352778997934 -473.53152833204047,117.67166048280825 -474.28854475275466,117.89502705632762 -475.03761717399226,118.14409480462433 -475.7778110075795,118.41792913952467 -476.5081916653426,118.71699735511547 -477.227824559108,119.04036486322302 -477.93670968887557,119.38803166384731 -478.63297787829794,119.75953046290152 -479.31662912737505,120.1539266722119 -479.9862615538463,120.57168758586529 -480.6414078636249,121.01141132160113 -481.28160076262395,121.47309787941943 -481.90590566266974,121.9562799652333 -482.5133879755885,122.46002299086908 -483.1031131132066,122.9843269563267 -483.6755483696109,123.52778997934558 -484.2288245684539,124.09087935401266 -484.76247441564874,124.67172590398042 -485.27696520528224,125.27079692333572 -485.7704277610071,125.88669052981803 -486.24286208282314,126.51893942934045 -486.6938008766437,127.16660903372929 -487.1223095542949,127.82923204889765 -487.52838811577675,128.50587388667182 -487.9115692670025,129.19606725296495 -488.27091841979836,129.8984102655165 -488.6064355741642,130.6129029243264 -488.9176534360133,131.33814334713406 -489.20457200534577,132.0736642398527 -489.46578939990087,132.8180637202217 -489.70224020785236,133.571341788241 -489.91298984102656,134.33162926756324 -490.0980382994233,135.0989261581884 -490.256918288956,135.87229787194272 -490.3891625155375,136.65034252656565 -490.49570556734176,137.43212553388346 -490.5756128561948,138.21717959980933 -490.628884382097,139.00503743025635 -490.65552014504806,139.7938298488771 -490.65552014504806,140.5826222674978 -490.628884382097,141.37141468611856 -490.5756128561948,142.15927251656558 -490.49570556734176,142.94432658249144 -490.3891625155375,143.72610958980925 -490.256918288956,144.5041542444322 -490.0980382994233,145.27752595818652 -489.91298984102656,146.04482284881166 -489.70224020785236,146.8051103281339 -489.46578939990087,147.55838839615322 -489.20457200534577,148.30278787652222 -488.9176534360133,149.03830876924084 -488.6064355741642,149.76354919204852 -488.27091841979836,150.4780418508584 -487.9115692670025,151.18038486340996 -487.52838811577675,151.87057822970309 -487.1223095542949,152.54722006747724 -486.6938008766437,153.20984308264562 -486.24286208282314,153.85751268703444 -485.7704277610071,154.48976158655688 -485.27696520528224,155.10565519303918 -484.76247441564874,155.7047262123945 -484.2288245684539,156.28557276236225 -483.6755483696109,156.84866213702932 -483.1031131132066,157.3921251600482 -482.5133879755885,157.91642912550583 -481.90590566266974,158.4201721511416 -481.28160076262395,158.9033542369555 -480.6414078636249,159.3650407947738 -479.9862615538463,159.80476453050963 -479.31662912737505,160.222525444163 -478.63297787829794,160.61692165347338 -477.93670968887557,160.98842045252758 -477.227824559108,161.33608725315187 -476.5081916653426,161.65945476125944 -475.7778110075795,161.95852297685025 -475.03761717399226,162.23235731175055 -474.28854475275466,162.4814250600473 -473.53152833204047,162.70479163356666 -472.76750250002334,162.90292432639555 -471.99740184487706,163.0744212562734 -471.2216936606884,163.22021701137393 -470.44177982971803,163.33984429761026 -469.6576603519659,163.43283582089552 -468.8712044037795,163.49965887531658 -468.08334657333245,163.53937887269973 -467.2940868606249,163.5529304012187 -467.2940868606249,165.88940083552183 -468.19082421331035,165.87351283656855 -469.08709427190905,165.8267834278825 -469.9805605659866,165.74874531537677 -470.8712230955429,165.63939849905137 -471.7572126842307,165.49874297890634 -472.6375947438761,165.32771334311536 -473.51190198039234,165.12584229759156 -474.37826521743193,164.89359713642185 -475.23621716090804,164.63144515369302 -476.08435592856006,164.33938634940512 -476.92174693221426,164.01788801764502 -477.7479228777839,163.66741745249956 -478.56054729483446,163.2884419480556 -479.360087477453,162.88096150431312 -480.14467424929205,162.44591070944585 -480.9138403162646,161.98422415162756 -481.66618379611026,161.49543453677137 -482.4007701006551,160.98094374713781 -483.1171319358125,160.4412190768138 -483.8143347134085,159.8762605257993 -484.49144384526954,159.28793727044177 -485.1475247432218,158.6762493107412 -485.78211011317865,158.0416639407845 -486.3937980728792,157.38558304283217 -486.9821213282367,156.70847391097112 -487.54707987925116,156.01127113337506 -488.0868045495753,155.29490929821773 -488.6012953392088,154.56032299367283 -489.090084954065,153.80797951382723 -489.5517715118833,153.03881344685465 -489.98682230675047,152.25422667501567 -490.39430275049295,151.45468649239712 -490.7732782549369,150.64206207534647 -491.12374882008237,149.8158861297769 -491.4452471518425,148.97849512612265 -491.7373059561304,148.13035635847064 -491.99945793885917,147.27240441499453 -492.23170310002894,146.40604117795493 -492.43357414555277,145.5317339414387 -492.6046037813437,144.6513518817933 -492.7452593014887,143.7653622931055 -492.85460611781417,142.8746997635492 -492.9326442303199,141.98123346947168 -492.9793736390059,141.08496341087297 -492.99526163795923,140.18822605818747 -492.9793736390059,139.29148870550193 -492.9326442303199,138.39521864690323 -492.85460611781417,137.50175235282572 -492.7452593014887,136.6110898232694 -492.6046037813437,135.72510023458165 -492.43357414555277,134.84471817493622 -492.23170310002894,133.97041093841997 -491.99945793885917,133.10404770138038 -491.7373059561304,132.24609575790427 -491.4452471518425,131.39795699025225 -491.12374882008237,130.560565986598 -490.7732782549369,129.73439004102843 -490.39430275049295,128.9217656239778 -489.98682230675047,128.12222544135923 -489.5517715118833,127.33763866952027 -489.090084954065,126.56847260254767 -488.6012953392088,125.8161291227021 -488.0868045495753,125.08154281815719 -487.54707987925116,124.36518098299985 -486.9821213282367,123.66797820540378 -486.3937980728792,122.99086907354273 -485.78211011317865,122.33478817559042 -485.1475247432218,121.70020280563368 -484.49144384526954,121.08851484593313 -483.8143347134085,120.50019159057561 -483.1171319358125,119.93523303956111 -482.4007701006551,119.39550836923709 -481.66618379611026,118.88101757960354 -480.9138403162646,118.39222796474733 -480.14467424929205,117.93054140692904 -479.360087477453,117.49549061206179 -478.56054729483446,117.08801016831933 -477.7479228777839,116.70903466387536 -476.92174693221426,116.35856409872989 -476.08435592856006,116.03706576696979 -475.23621716090804,115.7450069626819 -474.37826521743193,115.48285497995307 -473.51190198039234,115.25060981878335 -472.6375947438761,115.04873877325956 -471.7572126842307,114.87770913746857 -470.8712230955429,114.73705361732353 -469.9805605659866,114.62770680099813 -469.08709427190905,114.5496686884924 -468.19082421331035,114.50293927980634 -467.2940868606249,114.48705128085308"/>
<polygon class="l3d0" points="-203.57012682361517,51.42104131814316 -202.46637819045037,51.47711660856643 -201.36543332180673,51.5701081318517 -200.26822680585798,51.70048318208581 -199.1761605248647,51.86777446518191 -198.0901690670006,52.07198198114001 -197.01165431452628,52.312638435873225 -195.94201814970233,52.58974382938158 -194.88266245478928,52.902363573491336 -193.83405452387404,53.250964962289366 -192.7975962392172,53.63461340760194 -191.77515677716613,54.053308909429056 -190.76720343180776,54.506116879597 -189.77513808540266,54.99257002401892 -188.8003626202114,55.512668342694795 -187.84334433032083,56.06500995336405 -186.90548509799154,56.64959485602669 -185.98818680548416,57.26548846250899 -185.09238404097235,57.91175618463724 -184.21854409854296,58.58793072832456 -183.36806886045662,59.2935447994841 -182.54189291488706,60.02719651585528 -181.74095085000795,60.78841858335125 -180.96664454807987,61.576276413798254 -180.21897400910288,62.38983541902261 -179.49887382125067,63.22816101085056 -178.80821316087065,64.09078589519528 -178.14652473387602,64.9758408957093 -177.5152104225273,65.88239142421891 -176.91520481499828,66.81043748072412 -176.34650791128888,67.7576425947906 -175.81052159365976,68.72353947233152 -175.30724586211085,69.70719352517312 -174.83714801072907,70.70767016514172 -174.40162992177497,71.72263292180301 -174.0002243011617,72.75254908924381 -173.63433303114982,73.79508219702987 -173.3034888176525,74.84929765698745 -173.00862624884346,75.91379358685596 -172.74974532472265,76.98810269254852 -172.527313339377,78.07035579771772 -172.34133029280648,79.15961831418986 -172.1927307731848,80.2544883597043 -172.08058019233826,81.35356405200048 -172.00628043252738,82.45637809699156 -171.96889690557853,83.56059402424322 -171.96889690557853,84.66527724558172 -172.00628043252738,85.76949317283338 -172.08058019233826,86.87230721782446 -172.1927307731848,87.97138291012065 -172.34133029280648,89.0662529556351 -172.527313339377,90.15551547210721 -172.74974532472265,91.23776857727643 -173.00862624884346,92.31207768296899 -173.3034888176525,93.3765736128375 -173.63433303114982,94.43078907279508 -174.0002243011617,95.47332218058112 -174.40162992177497,96.50323834802194 -174.83714801072907,97.51820110468323 -175.30724586211085,98.51867774465181 -175.81052159365976,99.50233179749343 -176.34650791128888,100.46822867503434 -176.91520481499828,101.41543378910082 -177.5152104225273,102.34347984560603 -178.14652473387602,103.25003037411564 -178.80821316087065,104.13508537462967 -179.49887382125067,104.99771025897438 -180.21897400910288,105.83603585080233 -180.96664454807987,106.6495948560267 -181.74095085000795,107.43745268647369 -182.54189291488706,108.19867475396966 -183.36806886045662,108.93232647034084 -184.21854409854296,109.63794054150038 -185.09238404097235,110.31411508518771 -185.98818680548416,110.96038280731595 -186.90548509799154,111.57627641379825 -187.84334433032083,112.1608613164609 -188.8003626202114,112.71320292713015 -189.77513808540266,113.23330124580603 -190.76720343180776,113.71975439022795 -191.77515677716613,114.17256236039589 -192.7975962392172,114.59125786222302 -193.83405452387404,114.97490630753559 -194.88266245478928,115.3235076963336 -195.94201814970233,115.63612744044336 -197.01165431452628,115.91323283395171 -198.0901690670006,116.15388928868494 -199.1761605248647,116.35809680464303 -200.26822680585798,116.52538808773913 -201.36543332180673,116.65576313797324 -202.46637819045037,116.74875466125852 -203.57012682361517,116.8048299516818 -204.6748100449537,116.82352171515622 -467.2940868606249,116.82352171515622 -467.2940868606249,114.48705128085308 -204.6748100449537,114.48705128085308 -203.6149870559538,114.46835951737867 -202.5560986551276,114.41321881512911 -201.5000140188226,114.32069458593071 -200.44766773521246,114.19125412387031 -199.40046168655783,114.02583201712166 -198.3597977551192,113.82349367751101 -197.32661052907034,113.58470639912521 -196.30276918475872,113.31040477013804 -195.28874101627116,113.00058879054943 -194.28639519995514,112.65525846035945 -193.29666632398434,112.27534836774174 -192.3204889765325,111.86085851269637 -191.35973233394702,111.41319077748389 -190.41486369031486,110.93187786801745 -189.48775222198338,110.41785437247077 -188.57886522303946,109.8715875849307 -187.6896045757437,109.29401209357097 -186.82137216235665,108.68606248656529 -185.97463527696522,108.04820605800055 -185.1507958018299,107.38091010196356 -184.35078832512454,106.6851092066281 -183.57508014093588,105.96220525425471 -182.82554042561145,105.21266553893027 -182.10263647323808,104.43695735474162 -181.4068355779026,103.63694987803625 -180.73953962186562,102.81311040290096 -180.10168319330086,101.9663735175095 -179.49373358629518,101.09814110412248 -178.91615809493547,100.20888045682669 -178.3698913073954,99.29999345788278 -177.8558678118487,98.3728819895513 -177.37455490238224,97.42801334591911 -176.92688716716978,96.46725670333366 -176.51239731212442,95.49107935588182 -176.13248721950671,94.50135047991103 -175.78715688931672,93.49900466359499 -175.4773409097281,92.48497649510743 -175.20303928074094,91.4611351507958 -174.96425200235515,90.42794792474696 -174.76191366274452,89.38728399330834 -174.59649155599584,88.34007794465369 -174.46705109393545,87.28773166104357 -174.37452686473705,86.23164702473854 -174.3193861624875,85.17275862391237 -174.30069439901305,84.11293563491247 -174.3193861624875,83.05311264591258 -174.37452686473705,81.9942242450864 -174.46705109393545,80.93813960878138 -174.59649155599584,79.88579332517126 -174.76191366274452,78.83858727651659 -174.96425200235515,77.79792334507799 -175.20303928074094,76.76473611902915 -175.4773409097281,75.74089477471752 -175.78715688931672,74.72686660622996 -176.13248721950671,73.72452078991392 -176.51239731212442,72.73479191394313 -176.92688716716978,71.75861456649127 -177.37455490238224,70.79785792390582 -177.8558678118487,69.85298928027365 -178.3698913073954,68.92587781194216 -178.91615809493547,68.01699081299826 -179.49373358629518,67.12773016570247 -180.10168319330086,66.25949775231544 -180.73953962186562,65.41276086692399 -181.4068355779026,64.5889213917887 -182.10263647323808,63.78891391508332 -182.82554042561145,63.01320573089468 -183.57508014093588,62.26366601557024 -184.35078832512454,61.54076206319685 -185.1507958018299,60.84496116786138 -185.97463527696522,60.177665211824404 -186.82137216235665,59.53980878325965 -187.6896045757437,58.93185917625398 -188.57886522303946,58.35428368489425 -189.48775222198338,57.80801689735418 -190.41486369031486,57.29399340180749 -191.35973233394702,56.81268049234105 -192.3204889765325,56.36501275712857 -193.29666632398434,55.95052290208319 -194.28639519995514,55.57061280946551 -195.28874101627116,55.225282479275506 -196.30276918475872,54.915466499686914 -197.32661052907034,54.641164870699725 -198.3597977551192,54.40237759231395 -199.40046168655783,54.20003925270329 -200.44766773521246,54.034617145954634 -201.5000140188226,53.90517668389424 -202.5560986551276,53.81265245469584 -203.6149870559538,53.757511752446284 -204.6748100449537,53.738819988971855 -467.2940868606249,53.738819988971855 -467.2940868606249,51.40234955466873 -204.6748100449537,51.40234955466873"/>
<polygon class="l3d0" points="-467.2940868606249,-2.3364704343031244 -468.35390984962476,-2.3177786708286994 -469.4127982504509,-2.262637968579145 -470.4688828867559,-2.1701137393807417 -471.5212291703661,-2.040673277320349 -472.5684352190207,-1.8752511705716874 -473.6090991504593,-1.672912830961037 -474.6422863765082,-1.4341255525752576 -475.6661277208198,-1.159823923588071 -476.68015588930734,-0.8500079439994765 -477.6825017056234,-0.5046776138094748 -478.6722305815942,-0.12476752119178684 -479.6484079290461,0.2897223338535874 -480.6091645716314,0.7373900690660661 -481.5540332152637,1.2187029785325096 -482.4811446835952,1.732726474079197 -483.390031682539,2.2789932616192674 -484.27929232983485,2.856568752979 -485.1475247432218,3.4645183599846723 -485.99426162861334,4.102374788549425 -486.8181011037486,4.769670744586398 -487.61810858045396,5.465471639921868 -488.3938167646426,6.188375592295255 -489.1433564799671,6.937915307619697 -489.8662604323405,7.713623491808335 -490.5620613276759,8.513630968513725 -491.2293572837129,9.337470443649005 -491.86721371227765,10.184207329040458 -492.4751633192833,11.052439742427499 -493.0527388106431,11.941700389723268 -493.5990055981831,12.850587388667183 -494.11302909372984,13.777698856998663 -494.5943420031963,14.722567500630847 -495.0420097384088,15.68332414321629 -495.45649959345417,16.659501490668138 -495.83640968607176,17.64923036663894 -496.1817400162618,18.65157618295498 -496.4915559958504,19.66560435144254 -496.76585762483757,20.689445695754163 -497.0046449032233,21.722632921803005 -497.206983242834,22.76329685324162 -497.37240534958266,23.810502901896278 -497.5018458116431,24.862849185506406 -497.5943700408415,25.918933821811418 -497.64951074309107,26.97782222263759 -497.6682025065655,28.03764521163749 -497.64951074309107,29.097468200637387 -497.5943700408415,30.156356601463568 -497.5018458116431,31.212441237768573 -497.37240534958266,32.26478752137871 -497.206983242834,33.311993570033366 -497.0046449032233,34.352657501471974 -496.76585762483757,35.38584472752081 -496.4915559958504,36.409686071832446 -496.1817400162618,37.42371424032 -495.83640968607176,38.42606005663604 -495.45649959345417,39.415788932606844 -495.0420097384088,40.39196628005869 -494.5943420031963,41.35272292264413 -494.11302909372984,42.297591566276324 -493.5990055981831,43.2247030346078 -493.0527388106431,44.13359003355171 -492.4751633192833,45.02285068084748 -491.86721371227765,45.891083094234524 -491.2293572837129,46.737819979625975 -490.5620613276759,47.56165945476126 -489.8662604323405,48.361666931466644 -489.1433564799671,49.13737511565529 -488.3938167646426,49.88691483097973 -487.61810858045396,50.60981878335311 -486.8181011037486,51.305619678688586 -485.99426162861334,51.97291563472556 -485.1475247432218,52.610772063290305 -484.27929232983485,53.218721670295984 -483.390031682539,53.796297161655716 -482.4811446835952,54.342563949195785 -481.5540332152637,54.85658744474247 -480.6091645716314,55.33790035420891 -479.6484079290461,55.78556808942139 -478.6722305815942,56.200057944466764 -477.6825017056234,56.579968037084456 -476.68015588930734,56.92529836727446 -475.6661277208198,57.23511434686305 -474.6422863765082,57.50941597585024 -473.6090991504593,57.74820325423602 -472.5684352190207,57.95054159384667 -471.5212291703661,58.11596370059533 -470.4688828867559,58.245404162655724 -469.4127982504509,58.33792839185413 -468.35390984962476,58.39306909410368 -467.2940868606249,58.41176085757811 -467.2940868606249,60.74823129188123 -468.3987700819634,60.72953952840681 -469.50251871512813,60.67346423798353 -470.60346358377177,60.58047271469826 -471.7006700997205,60.450097664464145 -472.79273638071385,60.28280638136804 -473.8787278385779,60.07859886540996 -474.95724259105225,59.83794241067673 -476.0268787558762,59.56083701716838 -477.0862344507893,59.24821727305863 -478.13484238170446,58.8996158842606 -479.17130066636133,58.515967438948024 -480.1937401284124,58.0972719371209 -481.2016934737707,57.64446396695296 -482.19375882017584,57.15801082253105 -483.1685342853671,56.63791250385517 -484.1255525752577,56.08557089318592 -485.063411807587,55.500985990523276 -485.98071010009437,54.88509238404097 -486.8765128646062,54.23882466191272 -487.7503528070356,53.562650118225406 -488.6008280451219,52.85703604706586 -489.4270039906915,52.12338433069468 -490.22794605557056,51.36216226319872 -491.0022523574986,50.5743044327517 -491.74992289647565,49.760745427527354 -492.47002308432786,48.922419835699394 -493.1606837447079,48.05979495135468 -493.8223721717025,47.17473995084066 -494.4536864830513,46.26818942233105 -495.0536920905802,45.340143365825845 -495.6223889942897,44.39293825175936 -496.1583753119188,43.427041374218454 -496.66165104346766,42.44338732137683 -497.1317488948495,41.442910681408236 -497.5672669838036,40.42794792474696 -497.96867260441684,39.39803175730614 -498.3345638744287,38.35549864952009 -498.66540808792604,37.30128318956252 -498.96027065673513,36.23678725969402 -499.21915158085585,35.16247815400144 -499.4415835662016,34.08022504883223 -499.62756661277206,32.990962532360115 -499.7761661323937,31.89609248684567 -499.8883167132403,30.79701679454948 -499.9626164730512,29.694202749558407 -500.0,28.589986822306752 -500.0,27.48530360096823 -499.9626164730512,26.381087673716575 -499.8883167132403,25.2782736287255 -499.7761661323937,24.17919793642931 -499.62756661277206,23.084327890914867 -499.4415835662016,21.995065374442753 -499.21915158085585,20.912812269273545 -498.96027065673513,19.838503163580967 -498.66540808792604,18.774007233712464 -498.3345638744287,17.719791773754896 -497.96867260441684,16.67725866596884 -497.5672669838036,15.647342498528023 -497.1317488948495,14.632379741866746 -496.66165104346766,13.631903101898148 -496.1583753119188,12.648249049056533 -495.6223889942897,11.682352171515621 -495.0536920905802,10.735147057449135 -494.4536864830513,9.807101000943932 -493.8223721717025,8.900550472434322 -493.1606837447079,8.015495471920298 -492.47002308432786,7.152870587575585 -491.74992289647565,6.314544995747624 -491.0022523574986,5.500985990523276 -490.22794605557056,4.713128160076263 -489.4270039906915,3.9519060925803045 -488.6008280451219,3.218254376209123 -487.7503528070356,2.5126403050495796 -486.8765128646062,1.8364657613622557 -485.98071010009437,1.1901980392340115 -485.063411807587,0.574304432751708 -484.1255525752577,-0.010280469910933746 -483.1685342853671,-0.5626220805801923 -482.19375882017584,-1.082720399256068 -481.2016934737707,-1.5691735436779783 -480.1937401284124,-2.021981513845924 -479.17130066636133,-2.4406770156730433 -478.13484238170446,-2.8243254609856163 -477.0862344507893,-3.172926849783643 -476.0268787558762,-3.4855465938934005 -474.95724259105225,-3.762651987401751 -473.8787278385779,-4.003308442134973 -472.79273638071385,-4.207515958093066 -471.7006700997205,-4.37480724118917 -470.60346358377177,-4.505182291423284 -469.50251871512813,-4.598173814708549 -468.3987700819634,-4.654249105131824 -467.2940868606249,-4.672940868606249"/>
<polygon class="l3d0" points="-204.6748100449537,58.41176085757811 -203.77807269226815,58.42764885653137 -202.88180263366948,58.47437826521743 -201.98833633959194,58.552416377723155 -201.09767381003562,58.66176319404854 -200.21168422134787,58.802418714193585 -199.33130216170244,58.97344834998458 -198.45699492518622,59.17531939550837 -197.5906316881466,59.407564556678096 -196.73267974467052,59.669716539406906 -195.88454097701847,59.961775343694804 -195.0471499733642,60.28327367545491 -194.22097402779465,60.63374424060037 -193.408349610744,61.01271974504434 -192.60880942812548,61.4202001887868 -191.8242226562865,61.85525098365405 -191.0550565893139,62.31693754147235 -190.30271310946833,62.80572715632856 -189.56812680492342,63.320217945962106 -188.85176496976607,63.859942616286126 -188.15456219217,64.42490116730062 -187.47745306030896,65.01322442265815 -186.82137216235665,65.62491238235872 -186.18678679239991,66.25949775231544 -185.57509883269938,66.91557865026776 -184.98677557734183,67.59268778212879 -184.42181702632735,68.28989055972485 -183.88209235600334,69.0062523948822 -183.36760156636979,69.7408386994271 -182.87881195151357,70.49318217927271 -182.41712539369527,71.2623482462453 -181.982074598828,72.04693501808428 -181.57459415508555,72.8464752007028 -181.1956186506416,73.65909961775343 -180.8451480854961,74.48527556332301 -180.523649753736,75.32266656697726 -180.23159094944813,76.17080533462929 -179.96943896671928,77.0287572781054 -179.7371938055496,77.895120515145 -179.5353227600258,78.76942775166123 -179.3642931242348,79.64980981130665 -179.22363760408976,80.53579939999439 -179.11429078776436,81.42646192955074 -179.03625267525865,82.31992822362827 -178.98952326657258,83.21619828222693 -178.97363526761933,84.11293563491247 -178.98952326657258,85.00967298759802 -179.03625267525865,85.90594304619668 -179.11429078776436,86.7994093402742 -179.22363760408976,87.69007186983056 -179.3642931242348,88.5760614585183 -179.5353227600258,89.45644351816372 -179.7371938055496,90.33075075467995 -179.96943896671928,91.19711399171955 -180.23159094944813,92.05506593519566 -180.523649753736,92.90320470284769 -180.8451480854961,93.74059570650194 -181.1956186506416,94.56677165207151 -181.57459415508555,95.37939606912214 -181.982074598828,96.17893625174067 -182.41712539369527,96.96352302357965 -182.87881195151357,97.73268909055224 -183.36760156636979,98.48503257039785 -183.88209235600334,99.21961887494275 -184.42181702632735,99.93598071010008 -184.98677557734183,100.63318348769614 -185.57509883269938,101.31029261955719 -186.18678679239991,101.9663735175095 -186.82137216235665,102.60095888746623 -187.47745306030896,103.21264684716678 -188.15456219217,103.80097010252432 -188.85176496976607,104.36592865353882 -189.56812680492342,104.90565332386284 -190.30271310946833,105.42014411349639 -191.0550565893139,105.9089337283526 -191.8242226562865,106.37062028617089 -192.60880942812548,106.80567108103814 -193.408349610744,107.2131515247806 -194.22097402779465,107.59212702922457 -195.0471499733642,107.94259759437004 -195.88454097701847,108.26409592613014 -196.73267974467052,108.55615473041803 -197.5906316881466,108.81830671314685 -198.45699492518622,109.05055187431658 -199.33130216170244,109.25242291984037 -200.21168422134787,109.42345255563136 -201.09767381003562,109.5641080757764 -201.98833633959194,109.6734548921018 -202.88180263366948,109.75149300460752 -203.77807269226815,109.79822241329359 -204.6748100449537,109.81411041224683 -467.2940868606249,109.81411041224683 -467.2940868606249,107.47763997794371 -204.6748100449537,107.47763997794371 -203.88555033224608,107.46408844942476 -203.0976925017991,107.4243684520416 -202.31123655361264,107.35754539762053 -201.52711707586053,107.26455387433528 -200.74720324489013,107.14492658809895 -199.9714950607015,106.99913083299843 -199.20139440555516,106.82763390312059 -198.43736857353807,106.62950121029168 -197.68035215282384,106.4061346367723 -196.93127973158624,106.1570668884756 -196.19108589799905,105.88323255357525 -195.46070524023588,105.58416433798446 -194.74107234647053,105.26079682987691 -194.03218721670297,104.9131300292526 -193.33591902728062,104.54163123019842 -192.6522677782035,104.14723502088803 -191.98263535173226,103.72947410723465 -191.32748904195367,103.2897503714988 -190.6872961429546,102.8280638136805 -190.0629912429088,102.3448817278666 -189.45550892998997,101.84113870223085 -188.86578379237187,101.31683473677323 -188.29334853596762,100.77337171375433 -187.74007233712464,100.21028233908729 -187.2064224899298,99.62943578911953 -186.69193170029627,99.0303647697642 -186.19846914457145,98.41447116328189 -185.72603482275534,97.78222226375948 -185.27509602893485,97.13455265937066 -184.84658735128363,96.47192964420228 -184.44050878980178,95.79528780642809 -184.05732763857606,95.10509444013495 -183.69797848578023,94.40275142758344 -183.3624613314143,93.68825876877354 -183.05124346956512,92.96301834596585 -182.7643249002327,92.22749745324722 -182.5031075056776,91.48309797287824 -182.26665669772615,90.72981990485891 -182.055907064552,89.96953242553668 -181.8708586061552,89.20223553491154 -181.7119786166226,88.4288638211572 -181.579734390041,87.65081916653426 -181.4731913382368,86.86903615921644 -181.39328404938362,86.08398209329059 -181.34001252348153,85.29612426284358 -181.31337676053047,84.50733184422283 -181.31337676053047,83.7185394256021 -181.34001252348153,82.92974700698136 -181.39328404938362,82.14188917653436 -181.4731913382368,81.35683511060851 -181.579734390041,80.57505210329069 -181.7119786166226,79.79700744866774 -181.8708586061552,79.02363573491341 -182.055907064552,78.25633884428827 -182.26665669772615,77.49605136496602 -182.5031075056776,76.7427732969467 -182.7643249002327,75.99837381657771 -183.05124346956512,75.2628529238591 -183.3624613314143,74.5376125010514 -183.69797848578023,73.82311984224151 -184.05732763857606,73.12077682969 -184.44050878980178,72.43058346339686 -184.84658735128363,71.75394162562266 -185.27509602893485,71.0913186104543 -185.72603482275534,70.44364900606547 -186.19846914457145,69.81140010654305 -186.69193170029627,69.19550650006074 -187.2064224899298,68.59643548070542 -187.74007233712464,68.01558893073766 -188.29334853596762,67.45249955607062 -188.86578379237187,66.9090365330517 -189.45550892998997,66.3847325675941 -190.0629912429088,65.88098954195834 -190.6872961429546,65.39780745614445 -191.32748904195367,64.93612089832614 -191.98263535173226,64.4963971625903 -192.6522677782035,64.0786362489369 -193.33591902728062,63.68424003962653 -194.03218721670297,63.312741240572336 -194.74107234647053,62.96507443994803 -195.46070524023588,62.64170693184048 -196.19108589799905,62.34263871624969 -196.93127973158624,62.06880438134935 -197.68035215282384,61.81973663305265 -198.43736857353807,61.596370059533264 -199.20139440555516,61.39823736670436 -199.9714950607015,61.22674043682651 -200.74720324489013,61.08094468172599 -201.52711707586053,60.96131739548967 -202.31123655361264,60.868325872204416 -203.0976925017991,60.801502817783344 -203.88555033224608,60.761782820400185 -204.6748100449537,60.74823129188123 -467.2940868606249,60.74823129188123 -467.2940868606249,58.41176085757811"/>
</g>
</svg>