<svg xmlns="http://www.w3.org/2000/svg" xmlns:xlink="http://www.w3.org/1999/xlink" width="550.0" height="466.6666666666667" viewBox="-275.0 -233.33333333333334 550.0 466.6666666666667">
<defs>
<style type="text/css">
.l3d0 {stroke: rgb(255, 255, 64); fill: rgb(255, 255, 64); fill-opacity: 0.5;}
</style>
</defs>
<rect x="-275.0" y="-233.33333333333334" width="550.0" height="466.6666666666667" fill="#222" stroke="none"/>
<g id="gds" transform="scale(1 -1)">
<polygon class="l3d0" points="250.0,-208.33333333333334 250.0,-166.66666666666669 189.58333333333334,-166.66666666666669 189.58333333333334,-175.0 85.41666666666667,-175.0 85.41666666666667,-150.0 189.58333333333334,-150.0 189.58333333333334,-158.33333333333334 250.0,-158.33333333333334 250.0,158.33333333333334 189.58333333333334,158.33333333333334 189.58333333333334,150.0 85.41666666666667,150.0 85.41666666666667,175.0 189.58333333333334,175.0 189.58333333333334,166.66666666666669 250.0,166.66666666666669 250.0,208.33333333333334 4.166666666666667,208.33333333333334 4.166666666666667,175.0 52.083333333333336,175.0 52.083333333333336,150.0 -52.083333333333336,150.0 -52.083333333333336,175.0 -4.166666666666667,175.0 -4.166666666666667,208.33333333333334 -250.0,208.33333333333334 -250.0,166.66666666666669 -189.58333333333334,166.66666666666669 -189.58333333333334,175.0 -85.41666666666667,175.0 -85.41666666666667,150.0 -189.58333333333334,150.0 -189.58333333333334,158.33333333333334 -250.0,158.33333333333334 -250.0,12.5 -189.58333333333334,12.5 -189.58333333333334,137.5 189.58333333333334,137.5 189.58333333333334,12.5 -189.58333333333334,12.5 -250.0,12.5 -250.0,-137.5 -189.58333333333334,-137.5 -189.58333333333334,-12.5 189.58333333333334,-12.5 189.58333333333334,-137.5 -189.58333333333334,-137.5 -250.0,-137.5 -250.0,-158.33333333333334 -189.58333333333334,-158.33333333333334 -189.58333333333334,-150.0 -85.41666666666667,-150.0 -85.41666666666667,-175.0 -189.58333333333334,-175.0 -189.58333333333334,-166.66666666666669 -250.0,-166.66666666666669 -250.0,-208.33333333333334 -4.166666666666667,-208.33333333333334 -4.166666666666667,-175.0 -52.083333333333336,-175.0 -52.083333333333336,-150.0 52.083333333333336,-150.0 52.083333333333336,-175.0 4.166666666666667,-175.0 4.166666666666667,-208.33333333333334"/>
</g>
</svg>