<svg xmlns="http://www.w3.org/2000/svg" xmlns:xlink="http://www.w3.org/1999/xlink" width="550.0" height="117.86803924581312" viewBox="-137.8152505542264 -86.00880177352444 550.0 117.86803924581312">
<defs>
<style type="text/css">
.l3d0 {stroke: rgb(255, 255, 64); fill: rgb(255, 255, 64); fill-opacity: 0.5;}
</style>
</defs>
<rect x="-137.8152505542264" y="-86.00880177352444" width="550.0" height="117.86803924581312" fill="#222" stroke="none"/>
<g id="gds" transform="scale(1 -1)">
<polygon class="l3d0" points="278.2540222568537,9.6111635461709 277.2608046708663,9.140345486073004 276.2494786979521,8.712329067802191 275.2205930771088,8.327114291358459 274.17634276432756,7.985798634737374 273.1189227155995,7.688382097938936 272.04997914791807,7.435962158958713 270.9706095392787,7.229087556794486 269.8841063236682,7.067209552448473 268.79156697908206,6.951974362914023 267.6951864615114,6.8822845101955705 266.5971597269475,6.85923747228868 7.7723391645997495,6.85923747228868 6.674312430035778,6.8822845101955705 5.5779319124651545,6.951974362914023 4.485392567879013,7.067209552448473 3.398889352268487,7.229087556794486 2.31951974362914,7.435962158958713 1.2505761759476721,7.688382097938936 0.19315612721964923,7.985798634737374 -0.8510941855615795,8.327114291358459 -1.8799798064048816,8.712329067802191 -2.891305779319125,9.140345486073004 -3.884523365306525,9.6111635461709 -106.68034855901139,61.00880177352444 -107.90732895805438,58.55484097543844 -5.111503764349524,7.1572027480849005 -4.106213920410895,6.678702342018042 -3.0839131675409908,6.239162404793783 -2.0446015057398097,5.839680414407691 -0.9910226299962686,5.480805109857547 0.07517724269628394,5.162536491143352 1.1534493733400644,4.8859720362606724 2.2415988059439407,4.651660484207292 3.3379793235145634,4.459053095985425 4.4403959700608,4.308698610592858 5.548300006584868,4.201694506025154 6.659496477095634,4.136943304286749 7.7723391645997495,4.115542483373209 266.5971597269475,4.115542483373209 267.7100024144516,4.136943304286749 268.82119888496237,4.201694506025154 269.92910292148645,4.308698610592858 271.03151956803265,4.459053095985425 272.1279000856033,4.651660484207292 273.21604951820717,4.8859720362606724 274.29432164885094,5.162536491143352 275.3605215215435,5.480805109857547 276.41410039728703,5.839680414407691 277.4534120590882,6.239162404793783 278.4757128119581,6.678702342018042 279.48100265589676,7.1572027480849005 382.2768278496016,58.55484097543844 381.04984745055856,61.00880177352444"/>
<polygon class="l3d0" points="-10.019425360521522,-2.6591891832568755 -8.831405430321123,-3.228780262955728 -7.625277113193881,-3.758862134814197 -6.402137887135362,-4.2483373208367174 -5.163633969138918,-4.697205821023289 -3.910862837200114,-5.104918896376128 -2.6449219693145154,-5.470927807897452 -1.3680063214732543,-5.79523255558726 -0.08066463267411488,-6.076186922452205 1.214908141091771,-6.3148883864878504 2.5176145218288375,-6.5107882086964155 3.826357031541517,-6.662788911082332 5.139489453236462,-6.771987971641168 6.45481683092254,-6.837287912377357 7.7723391645997495,-6.85923747228868 266.5971597269475,-6.85923747228868 267.91468206062467,-6.837287912377357 269.2300094383108,-6.771987971641168 270.5431418600057,-6.662788911082332 271.8518843697184,-6.5107882086964155 273.15459075045544,-6.3148883864878504 274.45016352422135,-6.076186922452205 275.7375052130205,-5.79523255558726 277.0144208608617,-5.470927807897452 278.2803617287473,-5.104918896376128 279.5331328606861,-4.697205821023289 280.77163677868253,-4.2483373208367174 281.9947760047411,-3.758862134814197 283.20090432186834,-3.228780262955728 284.38892425206876,-2.6591891832568755 387.1847494457736,48.73899778309444 385.9577690467306,51.19295858118045 283.1619438530258,-0.20522838517087733 281.97008274984086,-0.7748194648697293 280.7584670427358,-1.3016089027414999 279.5292916877017,-1.784499220790623 278.28310542373623,-2.2234904190170983 277.02265194582844,-2.6180337584231435 275.7484799929761,-2.9670317610131915 274.46278452117036,-3.2704844267872426 273.16721174740445,-3.528391755745297 271.8634078886718,-3.7391075308940054 270.552470422968,-3.903729230228934 269.2371430452819,-4.021159375754516 267.91797449461137,-4.091946706468535 266.5971597269475,-4.115542483373209 7.7723391645997495,-4.115542483373209 6.451524396935841,-4.091946706468535 5.132355846265282,-4.021159375754516 3.817028468579205,-3.903729230228934 2.5060910028753924,-3.7391075308940054 1.2022871441427598,-3.528391755745297 -0.09328562962312606,-3.2704844267872426 -1.3789811014289162,-2.9670317610131915 -2.6531530542812614,-2.6180337584231435 -3.9136065321890294,-2.2234904190170983 -5.159792796154437,-1.784499220790623 -6.3889681511885685,-1.3016089027414999 -7.600583858293642,-0.7748194648697293 -8.792444961478521,-0.20522838517087733 -111.5882701551834,51.19295858118045 -112.81525055422638,48.73899778309444"/>
</g>
</svg>