<?xml version="1.0" encoding="UTF-8"?>
<svg xmlns="http://www.w3.org/2000/svg" xmlns:xlink="http://www.w3.org/1999/xlink"
     width="550.0" height="550.0" viewBox="-49.43609022556391 -500.56390977443607 550.0 550.0">
<defs>
<style type="text/css">
.l3d0 {stroke: rgb(255, 255, 64); fill: rgb(255, 255, 64); fill-opacity: 0.5;}
</style>
</defs>
<rect x="-49.43609022556391" y="-500.56390977443607" width="550.0" height="550.0" fill="#222" stroke="none"/>
<g id="gds" transform="scale(1 -1)">
<polygon class="l3d0" points="-24.296917293233083,-14.252781954887219 -19.230902255639098,-10.150375939849624 -13.571428571428571,-10.150375939849624 -13.571428571428571,-10.902255639097744 -18.964586466165414,-10.902255639097744 -24.030676691729322,-15.004661654135338 -24.43609022556391,-15.004661654135338 -24.43609022556391,-24.43609022556391 -0.37593984962406013,-24.43609022556391 -0.37593984962406013,-11.278195488721805 -1.1278195488721803,-11.278195488721805 -1.1278195488721803,-9.022556390977442 1.1278195488721803,-9.022556390977442 1.1278195488721803,-11.278195488721805 0.37593984962406013,-11.278195488721805 0.37593984962406013,-24.43609022556391 24.43609022556391,-24.43609022556391 24.43609022556391,-15.004661654135338 24.030676691729322,-15.004661654135338 18.964586466165414,-10.902255639097744 13.571428571428571,-10.902255639097744 13.571428571428571,-10.150375939849624 19.230902255639098,-10.150375939849624 24.296917293233083,-14.252781954887219 24.43609022556391,-14.252781954887219 24.43609022556391,14.252781954887219 24.296917293233083,14.252781954887219 19.230902255639098,10.150375939849624 13.571428571428571,10.150375939849624 13.571428571428571,10.902255639097744 18.964586466165414,10.902255639097744 24.030676691729322,15.004661654135338 24.43609022556391,15.004661654135338 24.43609022556391,24.43609022556391 0.37593984962406013,24.43609022556391 0.37593984962406013,11.278195488721805 1.1278195488721803,11.278195488721805 1.1278195488721803,9.022556390977442 -1.1278195488721803,9.022556390977442 -1.1278195488721803,11.278195488721805 -0.37593984962406013,11.278195488721805 -0.37593984962406013,24.43609022556391 -24.43609022556391,24.43609022556391 -24.43609022556391,14.553533834586466 -24.110526315789475,14.553533834586466 -19.044511278195486,10.451127819548871 -13.571428571428571,10.451127819548871 -13.571428571428571,10.150375939849624 -19.150977443609023,10.150375939849624 -24.21706766917293,14.252781954887219 -24.43609022556391,14.252781954887219 -24.43609022556391,1.1278195488721803 -17.105263157894736,1.1278195488721803 -17.105263157894736,7.894736842105263 17.105263157894736,7.894736842105263 17.105263157894736,1.1278195488721803 -17.105263157894736,1.1278195488721803 -24.43609022556391,1.1278195488721803 -24.43609022556391,-7.894736842105263 -17.105263157894736,-7.894736842105263 -17.105263157894736,-1.1278195488721803 17.105263157894736,-1.1278195488721803 17.105263157894736,-7.894736842105263 -17.105263157894736,-7.894736842105263 -24.43609022556391,-7.894736842105263 -24.43609022556391,-14.252781954887219"/>
<polygon class="l3d0" points="126.07902255639098,-14.252781954887219 131.14503759398497,-10.150375939849624 136.8045112781955,-10.150375939849624 136.8045112781955,-10.902255639097744 131.41135338345865,-10.902255639097744 126.34526315789473,-15.004661654135338 125.93984962406014,-15.004661654135338 125.93984962406014,-24.43609022556391 150.0,-24.43609022556391 150.0,-11.278195488721805 149.24812030075188,-11.278195488721805 149.24812030075188,-9.022556390977442 151.50375939849624,-9.022556390977442 151.50375939849624,-11.278195488721805 150.75187969924812,-11.278195488721805 150.75187969924812,-24.43609022556391 174.81203007518795,-24.43609022556391 174.81203007518795,-15.004661654135338 174.4066165413534,-15.004661654135338 169.34052631578945,-10.902255639097744 163.94736842105263,-10.902255639097744 163.94736842105263,-10.150375939849624 169.60684210526315,-10.150375939849624 174.6728571428571,-14.252781954887219 174.81203007518795,-14.252781954887219 174.81203007518795,14.252781954887219 174.6728571428571,14.252781954887219 169.60684210526315,10.150375939849624 163.94736842105263,10.150375939849624 163.94736842105263,10.902255639097744 169.34052631578945,10.902255639097744 174.4066165413534,15.004661654135338 174.81203007518795,15.004661654135338 174.81203007518795,24.43609022556391 150.75187969924812,24.43609022556391 150.75187969924812,11.278195488721805 151.50375939849624,11.278195488721805 151.50375939849624,9.022556390977442 149.24812030075188,9.022556390977442 149.24812030075188,11.278195488721805 150.0,11.278195488721805 150.0,24.43609022556391 125.93984962406014,24.43609022556391 125.93984962406014,14.553533834586466 126.26541353383458,14.553533834586466 131.33142857142857,10.451127819548871 136.8045112781955,10.451127819548871 136.8045112781955,10.150375939849624 131.22496240601504,10.150375939849624 126.15887218045113,14.252781954887219 125.93984962406014,14.252781954887219 125.93984962406014,1.1278195488721803 133.2706766917293,1.1278195488721803 133.2706766917293,7.894736842105263 167.4812030075188,7.894736842105263 167.4812030075188,1.1278195488721803 133.2706766917293,1.1278195488721803 125.93984962406014,1.1278195488721803 125.93984962406014,-7.894736842105263 133.2706766917293,-7.894736842105263 133.2706766917293,-1.1278195488721803 167.4812030075188,-1.1278195488721803 167.4812030075188,-7.894736842105263 133.2706766917293,-7.894736842105263 125.93984962406014,-7.894736842105263 125.93984962406014,-14.252781954887219"/>
<polygon class="l3d0" points="276.45496240601506,-14.252781954887219 281.520977443609,-10.150375939849624 287.18045112781954,-10.150375939849624 287.18045112781954,-10.902255639097744 281.7872932330827,-10.902255639097744 276.7212030075188,-15.004661654135338 276.3157894736842,-15.004661654135338 276.3157894736842,-24.43609022556391 300.37593984962405,-24.43609022556391 300.37593984962405,-11.278195488721805 299.6240601503759,-11.278195488721805 299.6240601503759,-9.022556390977442 301.8796992481203,-9.022556390977442 301.8796992481203,-11.278195488721805 301.12781954887214,-11.278195488721805 301.12781954887214,-24.43609022556391 325.187969924812,-24.43609022556391 325.187969924812,-15.004661654135338 324.78255639097745,-15.004661654135338 319.7164661654135,-10.902255639097744 314.32330827067665,-10.902255639097744 314.32330827067665,-10.150375939849624 319.9827819548872,-10.150375939849624 325.0487969924812,-14.252781954887219 325.187969924812,-14.252781954887219 325.187969924812,14.252781954887219 325.0487969924812,14.252781954887219 319.9827819548872,10.150375939849624 314.32330827067665,10.150375939849624 314.32330827067665,10.902255639097744 319.7164661654135,10.902255639097744 324.78255639097745,15.004661654135338 325.187969924812,15.004661654135338 325.187969924812,24.43609022556391 301.12781954887214,24.43609022556391 301.12781954887214,11.278195488721805 301.8796992481203,11.278195488721805 301.8796992481203,9.022556390977442 299.6240601503759,9.022556390977442 299.6240601503759,11.278195488721805 300.37593984962405,11.278195488721805 300.37593984962405,24.43609022556391 276.3157894736842,24.43609022556391 276.3157894736842,14.553533834586466 276.64135338345864,14.553533834586466 281.70736842105265,10.451127819548871 287.18045112781954,10.451127819548871 287.18045112781954,10.150375939849624 281.6009022556391,10.150375939849624 276.53481203007516,14.252781954887219 276.3157894736842,14.252781954887219 276.3157894736842,1.1278195488721803 283.64661654135335,1.1278195488721803 283.64661654135335,7.894736842105263 317.85714285714283,7.894736842105263 317.85714285714283,1.1278195488721803 283.64661654135335,1.1278195488721803 276.3157894736842,1.1278195488721803 276.3157894736842,-7.894736842105263 283.64661654135335,-7.894736842105263 283.64661654135335,-1.1278195488721803 317.85714285714283,-1.1278195488721803 317.85714285714283,-7.894736842105263 283.64661654135335,-7.894736842105263 276.3157894736842,-7.894736842105263 276.3157894736842,-14.252781954887219"/>
<polygon class="l3d0" points="426.83090225563905,-14.252781954887219 431.89691729323306,-10.150375939849624 437.5563909774436,-10.150375939849624 437.5563909774436,-10.902255639097744 432.1632330827067,-10.902255639097744 427.09714285714284,-15.004661654135338 426.69172932330827,-15.004661654135338 426.69172932330827,-24.43609022556391 450.7518796992481,-24.43609022556391 450.7518796992481,-11.278195488721805 450.0,-11.278195488721805 450.0,-9.022556390977442 452.25563909774434,-9.022556390977442 452.25563909774434,-11.278195488721805 451.50375939849624,-11.278195488721805 451.50375939849624,-24.43609022556391 475.56390977443607,-24.43609022556391 475.56390977443607,-15.004661654135338 475.1584962406015,-15.004661654135338 470.09240601503757,-10.902255639097744 464.69924812030075,-10.902255639097744 464.69924812030075,-10.150375939849624 470.3587218045112,-10.150375939849624 475.4247368421053,-14.252781954887219 475.56390977443607,-14.252781954887219 475.56390977443607,14.252781954887219 475.4247368421053,14.252781954887219 470.3587218045112,10.150375939849624 464.69924812030075,10.150375939849624 464.69924812030075,10.902255639097744 470.09240601503757,10.902255639097744 475.1584962406015,15.004661654135338 475.56390977443607,15.004661654135338 475.56390977443607,24.43609022556391 451.50375939849624,24.43609022556391 451.50375939849624,11.278195488721805 452.25563909774434,11.278195488721805 452.25563909774434,9.022556390977442 450.0,9.022556390977442 450.0,11.278195488721805 450.7518796992481,11.278195488721805 450.7518796992481,24.43609022556391 426.69172932330827,24.43609022556391 426.69172932330827,14.553533834586466 427.0172932330827,14.553533834586466 432.08330827067664,10.451127819548871 437.5563909774436,10.451127819548871 437.5563909774436,10.150375939849624 431.9768421052632,10.150375939849624 426.91075187969926,14.252781954887219 426.69172932330827,14.252781954887219 426.69172932330827,1.1278195488721803 434.0225563909774,1.1278195488721803 434.0225563909774,7.894736842105263 468.2330827067669,7.894736842105263 468.2330827067669,1.1278195488721803 434.0225563909774,1.1278195488721803 426.69172932330827,1.1278195488721803 426.69172932330827,-7.894736842105263 434.0225563909774,-7.894736842105263 434.0225563909774,-1.1278195488721803 468.2330827067669,-1.1278195488721803 468.2330827067669,-7.894736842105263 434.0225563909774,-7.894736842105263 426.69172932330827,-7.894736842105263 426.69172932330827,-14.252781954887219"/>
<polygon class="l3d0" points="-24.296917293233083,136.12315789473683 -19.230902255639098,140.22556390977442 -13.571428571428571,140.22556390977442 -13.571428571428571,139.4736842105263 -18.964586466165414,139.4736842105263 -24.030676691729322,135.3712781954887 -24.43609022556391,135.3712781954887 -24.43609022556391,125.93984962406014 -0.37593984962406013,125.93984962406014 -0.37593984962406013,139.09774436090225 -1.1278195488721803,139.09774436090225 -1.1278195488721803,141.35338345864662 1.1278195488721803,141.35338345864662 1.1278195488721803,139.09774436090225 0.37593984962406013,139.09774436090225 0.37593984962406013,125.93984962406014 24.43609022556391,125.93984962406014 24.43609022556391,135.3712781954887 24.030676691729322,135.3712781954887 18.964586466165414,139.4736842105263 13.571428571428571,139.4736842105263 13.571428571428571,140.22556390977442 19.230902255639098,140.22556390977442 24.296917293233083,136.12315789473683 24.43609022556391,136.12315789473683 24.43609022556391,164.62872180451126 24.296917293233083,164.62872180451126 19.230902255639098,160.52631578947367 13.571428571428571,160.52631578947367 13.571428571428571,161.2781954887218 18.964586466165414,161.2781954887218 24.030676691729322,165.38060150375938 24.43609022556391,165.38060150375938 24.43609022556391,174.81203007518795 0.37593984962406013,174.81203007518795 0.37593984962406013,161.65413533834587 1.1278195488721803,161.65413533834587 1.1278195488721803,159.3984962406015 -1.1278195488721803,159.3984962406015 -1.1278195488721803,161.65413533834587 -0.37593984962406013,161.65413533834587 -0.37593984962406013,174.81203007518795 -24.43609022556391,174.81203007518795 -24.43609022556391,164.9294736842105 -24.110526315789475,164.9294736842105 -19.044511278195486,160.82706766917292 -13.571428571428571,160.82706766917292 -13.571428571428571,160.52631578947367 -19.150977443609023,160.52631578947367 -24.21706766917293,164.62872180451126 -24.43609022556391,164.62872180451126 -24.43609022556391,151.50375939849624 -17.105263157894736,151.50375939849624 -17.105263157894736,158.2706766917293 17.105263157894736,158.2706766917293 17.105263157894736,151.50375939849624 -17.105263157894736,151.50375939849624 -24.43609022556391,151.50375939849624 -24.43609022556391,142.4812030075188 -17.105263157894736,142.4812030075188 -17.105263157894736,149.24812030075188 17.105263157894736,149.24812030075188 17.105263157894736,142.4812030075188 -17.105263157894736,142.4812030075188 -24.43609022556391,142.4812030075188 -24.43609022556391,136.12315789473683"/>
<polygon class="l3d0" points="126.07902255639098,136.12315789473683 131.14503759398497,140.22556390977442 136.8045112781955,140.22556390977442 136.8045112781955,139.4736842105263 131.41135338345865,139.4736842105263 126.34526315789473,135.3712781954887 125.93984962406014,135.3712781954887 125.93984962406014,125.93984962406014 150.0,125.93984962406014 150.0,139.09774436090225 149.24812030075188,139.09774436090225 149.24812030075188,141.35338345864662 151.50375939849624,141.35338345864662 151.50375939849624,139.09774436090225 150.75187969924812,139.09774436090225 150.75187969924812,125.93984962406014 174.81203007518795,125.93984962406014 174.81203007518795,135.3712781954887 174.4066165413534,135.3712781954887 169.34052631578945,139.4736842105263 163.94736842105263,139.4736842105263 163.94736842105263,140.22556390977442 169.60684210526315,140.22556390977442 174.6728571428571,136.12315789473683 174.81203007518795,136.12315789473683 174.81203007518795,164.62872180451126 174.6728571428571,164.62872180451126 169.60684210526315,160.52631578947367 163.94736842105263,160.52631578947367 163.94736842105263,161.2781954887218 169.34052631578945,161.2781954887218 174.4066165413534,165.38060150375938 174.81203007518795,165.38060150375938 174.81203007518795,174.81203007518795 150.75187969924812,174.81203007518795 150.75187969924812,161.65413533834587 151.50375939849624,161.65413533834587 151.50375939849624,159.3984962406015 149.24812030075188,159.3984962406015 149.24812030075188,161.65413533834587 150.0,161.65413533834587 150.0,174.81203007518795 125.93984962406014,174.81203007518795 125.93984962406014,164.9294736842105 126.26541353383458,164.9294736842105 131.33142857142857,160.82706766917292 136.8045112781955,160.82706766917292 136.8045112781955,160.52631578947367 131.22496240601504,160.52631578947367 126.15887218045113,164.62872180451126 125.93984962406014,164.62872180451126 125.93984962406014,151.50375939849624 133.2706766917293,151.50375939849624 133.2706766917293,158.2706766917293 167.4812030075188,158.2706766917293 167.4812030075188,151.50375939849624 133.2706766917293,151.50375939849624 125.93984962406014,151.50375939849624 125.93984962406014,142.4812030075188 133.2706766917293,142.4812030075188 133.2706766917293,149.24812030075188 167.4812030075188,149.24812030075188 167.4812030075188,142.4812030075188 133.2706766917293,142.4812030075188 125.93984962406014,142.4812030075188 125.93984962406014,136.12315789473683"/>
<polygon class="l3d0" points="276.45496240601506,136.12315789473683 281.520977443609,140.22556390977442 287.18045112781954,140.22556390977442 287.18045112781954,139.4736842105263 281.7872932330827,139.4736842105263 276.7212030075188,135.3712781954887 276.3157894736842,135.3712781954887 276.3157894736842,125.93984962406014 300.37593984962405,125.93984962406014 300.37593984962405,139.09774436090225 299.6240601503759,139.09774436090225 299.6240601503759,141.35338345864662 301.8796992481203,141.35338345864662 301.8796992481203,139.09774436090225 301.12781954887214,139.09774436090225 301.12781954887214,125.93984962406014 325.187969924812,125.93984962406014 325.187969924812,135.3712781954887 324.78255639097745,135.3712781954887 319.7164661654135,139.4736842105263 314.32330827067665,139.4736842105263 314.32330827067665,140.22556390977442 319.9827819548872,140.22556390977442 325.0487969924812,136.12315789473683 325.187969924812,136.12315789473683 325.187969924812,164.62872180451126 325.0487969924812,164.62872180451126 319.9827819548872,160.52631578947367 314.32330827067665,160.52631578947367 314.32330827067665,161.2781954887218 319.7164661654135,161.2781954887218 324.78255639097745,165.38060150375938 325.187969924812,165.38060150375938 325.187969924812,174.81203007518795 301.12781954887214,174.81203007518795 301.12781954887214,161.65413533834587 301.8796992481203,161.65413533834587 301.8796992481203,159.3984962406015 299.6240601503759,159.3984962406015 299.6240601503759,161.65413533834587 300.37593984962405,161.65413533834587 300.37593984962405,174.81203007518795 276.3157894736842,174.81203007518795 276.3157894736842,164.9294736842105 276.64135338345864,164.9294736842105 281.70736842105265,160.82706766917292 287.18045112781954,160.82706766917292 287.18045112781954,160.52631578947367 281.6009022556391,160.52631578947367 276.53481203007516,164.62872180451126 276.3157894736842,164.62872180451126 276.3157894736842,151.50375939849624 283.64661654135335,151.50375939849624 283.64661654135335,158.2706766917293 317.85714285714283,158.2706766917293 317.85714285714283,151.50375939849624 283.64661654135335,151.50375939849624 276.3157894736842,151.50375939849624 276.3157894736842,142.4812030075188 283.64661654135335,142.4812030075188 283.64661654135335,149.24812030075188 317.85714285714283,149.24812030075188 317.85714285714283,142.4812030075188 283.64661654135335,142.4812030075188 276.3157894736842,142.4812030075188 276.3157894736842,136.12315789473683"/>
<polygon class="l3d0" points="426.83090225563905,136.12315789473683 431.89691729323306,140.22556390977442 437.5563909774436,140.22556390977442 437.5563909774436,139.4736842105263 432.1632330827067,139.4736842105263 427.09714285714284,135.3712781954887 426.69172932330827,135.3712781954887 426.69172932330827,125.93984962406014 450.7518796992481,125.93984962406014 450.7518796992481,139.09774436090225 450.0,139.09774436090225 450.0,141.35338345864662 452.25563909774434,141.35338345864662 452.25563909774434,139.09774436090225 451.50375939849624,139.09774436090225 451.50375939849624,125.93984962406014 475.56390977443607,125.93984962406014 475.56390977443607,135.3712781954887 475.1584962406015,135.3712781954887 470.09240601503757,139.4736842105263 464.69924812030075,139.4736842105263 464.69924812030075,140.22556390977442 470.3587218045112,140.22556390977442 475.4247368421053,136.12315789473683 475.56390977443607,136.12315789473683 475.56390977443607,164.62872180451126 475.4247368421053,164.62872180451126 470.3587218045112,160.52631578947367 464.69924812030075,160.52631578947367 464.69924812030075,161.2781954887218 470.09240601503757,161.2781954887218 475.1584962406015,165.38060150375938 475.56390977443607,165.38060150375938 475.56390977443607,174.81203007518795 451.50375939849624,174.81203007518795 451.50375939849624,161.65413533834587 452.25563909774434,161.65413533834587 452.25563909774434,159.3984962406015 450.0,159.3984962406015 450.0,161.65413533834587 450.7518796992481,161.65413533834587 450.7518796992481,174.81203007518795 426.69172932330827,174.81203007518795 426.69172932330827,164.9294736842105 427.0172932330827,164.9294736842105 432.08330827067664,160.82706766917292 437.5563909774436,160.82706766917292 437.5563909774436,160.52631578947367 431.9768421052632,160.52631578947367 426.91075187969926,164.62872180451126 426.69172932330827,164.62872180451126 426.69172932330827,151.50375939849624 434.0225563909774,151.50375939849624 434.0225563909774,158.2706766917293 468.2330827067669,158.2706766917293 468.2330827067669,151.50375939849624 434.0225563909774,151.50375939849624 426.69172932330827,151.50375939849624 426.69172932330827,142.4812030075188 434.0225563909774,142.4812030075188 434.0225563909774,149.24812030075188 468.2330827067669,149.24812030075188 468.2330827067669,142.4812030075188 434.0225563909774,142.4812030075188 426.69172932330827,142.4812030075188 426.69172932330827,136.12315789473683"/>
<polygon class="l3d0" points="-24.296917293233083,286.4990977443609 -19.230902255639098,290.6015037593985 -13.571428571428571,290.6015037593985 -13.571428571428571,289.84962406015035 -18.964586466165414,289.84962406015035 -24.030676691729322,285.7472180451128 -24.43609022556391,285.7472180451128 -24.43609022556391,276.3157894736842 -0.37593984962406013,276.3157894736842 -0.37593984962406013,289.4736842105263 -1.1278195488721803,289.4736842105263 -1.1278195488721803,291.72932330827064 1.1278195488721803,291.72932330827064 1.1278195488721803,289.4736842105263 0.37593984962406013,289.4736842105263 0.37593984962406013,276.3157894736842 24.43609022556391,276.3157894736842 24.43609022556391,285.7472180451128 24.030676691729322,285.7472180451128 18.964586466165414,289.84962406015035 13.571428571428571,289.84962406015035 13.571428571428571,290.6015037593985 19.230902255639098,290.6015037593985 24.296917293233083,286.4990977443609 24.43609022556391,286.4990977443609 24.43609022556391,315.0046616541353 24.296917293233083,315.0046616541353 19.230902255639098,310.90225563909775 13.571428571428571,310.90225563909775 13.571428571428571,311.65413533834584 18.964586466165414,311.65413533834584 24.030676691729322,315.75654135338345 24.43609022556391,315.75654135338345 24.43609022556391,325.187969924812 0.37593984962406013,325.187969924812 0.37593984962406013,312.0300751879699 1.1278195488721803,312.0300751879699 1.1278195488721803,309.77443609022555 -1.1278195488721803,309.77443609022555 -1.1278195488721803,312.0300751879699 -0.37593984962406013,312.0300751879699 -0.37593984962406013,325.187969924812 -24.43609022556391,325.187969924812 -24.43609022556391,315.30541353383455 -24.110526315789475,315.30541353383455 -19.044511278195486,311.203007518797 -13.571428571428571,311.203007518797 -13.571428571428571,310.90225563909775 -19.150977443609023,310.90225563909775 -24.21706766917293,315.0046616541353 -24.43609022556391,315.0046616541353 -24.43609022556391,301.8796992481203 -17.105263157894736,301.8796992481203 -17.105263157894736,308.64661654135335 17.105263157894736,308.64661654135335 17.105263157894736,301.8796992481203 -17.105263157894736,301.8796992481203 -24.43609022556391,301.8796992481203 -24.43609022556391,292.85714285714283 -17.105263157894736,292.85714285714283 -17.105263157894736,299.6240601503759 17.105263157894736,299.6240601503759 17.105263157894736,292.85714285714283 -17.105263157894736,292.85714285714283 -24.43609022556391,292.85714285714283 -24.43609022556391,286.4990977443609"/>
<polygon class="l3d0" points="126.07902255639098,286.4990977443609 131.14503759398497,290.6015037593985 136.8045112781955,290.6015037593985 136.8045112781955,289.84962406015035 131.41135338345865,289.84962406015035 126.34526315789473,285.7472180451128 125.93984962406014,285.7472180451128 125.93984962406014,276.3157894736842 150.0,276.3157894736842 150.0,289.4736842105263 149.24812030075188,289.4736842105263 149.24812030075188,291.72932330827064 151.50375939849624,291.72932330827064 151.50375939849624,289.4736842105263 150.75187969924812,289.4736842105263 150.75187969924812,276.3157894736842 174.81203007518795,276.3157894736842 174.81203007518795,285.7472180451128 174.4066165413534,285.7472180451128 169.34052631578945,289.84962406015035 163.94736842105263,289.84962406015035 163.94736842105263,290.6015037593985 169.60684210526315,290.6015037593985 174.6728571428571,286.4990977443609 174.81203007518795,286.4990977443609 174.81203007518795,315.0046616541353 174.6728571428571,315.0046616541353 169.60684210526315,310.90225563909775 163.94736842105263,310.90225563909775 163.94736842105263,311.65413533834584 169.34052631578945,311.65413533834584 174.4066165413534,315.75654135338345 174.81203007518795,315.75654135338345 174.81203007518795,325.187969924812 150.75187969924812,325.187969924812 150.75187969924812,312.0300751879699 151.50375939849624,312.0300751879699 151.50375939849624,309.77443609022555 149.24812030075188,309.77443609022555 149.24812030075188,312.0300751879699 150.0,312.0300751879699 150.0,325.187969924812 125.93984962406014,325.187969924812 125.93984962406014,315.30541353383455 126.26541353383458,315.30541353383455 131.33142857142857,311.203007518797 136.8045112781955,311.203007518797 136.8045112781955,310.90225563909775 131.22496240601504,310.90225563909775 126.15887218045113,315.0046616541353 125.93984962406014,315.0046616541353 125.93984962406014,301.8796992481203 133.2706766917293,301.8796992481203 133.2706766917293,308.64661654135335 167.4812030075188,308.64661654135335 167.4812030075188,301.8796992481203 133.2706766917293,301.8796992481203 125.93984962406014,301.8796992481203 125.93984962406014,292.85714285714283 133.2706766917293,292.85714285714283 133.2706766917293,299.6240601503759 167.4812030075188,299.6240601503759 167.4812030075188,292.85714285714283 133.2706766917293,292.85714285714283 125.93984962406014,292.85714285714283 125.93984962406014,286.4990977443609"/>
<polygon class="l3d0" points="276.45496240601506,286.4990977443609 281.520977443609,290.6015037593985 287.18045112781954,290.6015037593985 287.18045112781954,289.84962406015035 281.7872932330827,289.84962406015035 276.7212030075188,285.7472180451128 276.3157894736842,285.7472180451128 276.3157894736842,276.3157894736842 300.37593984962405,276.3157894736842 300.37593984962405,289.4736842105263 299.6240601503759,289.4736842105263 299.6240601503759,291.72932330827064 301.8796992481203,291.72932330827064 301.8796992481203,289.4736842105263 301.12781954887214,289.4736842105263 301.12781954887214,276.3157894736842 325.187969924812,276.3157894736842 325.187969924812,285.7472180451128 324.78255639097745,285.7472180451128 319.7164661654135,289.84962406015035 314.32330827067665,289.84962406015035 314.32330827067665,290.6015037593985 319.9827819548872,290.6015037593985 325.0487969924812,286.4990977443609 325.187969924812,286.4990977443609 325.187969924812,315.0046616541353 325.0487969924812,315.0046616541353 319.9827819548872,310.90225563909775 314.32330827067665,310.90225563909775 314.32330827067665,311.65413533834584 319.7164661654135,311.65413533834584 324.78255639097745,315.75654135338345 325.187969924812,315.75654135338345 325.187969924812,325.187969924812 301.12781954887214,325.187969924812 301.12781954887214,312.0300751879699 301.8796992481203,312.0300751879699 301.8796992481203,309.77443609022555 299.6240601503759,309.77443609022555 299.6240601503759,312.0300751879699 300.37593984962405,312.0300751879699 300.37593984962405,325.187969924812 276.3157894736842,325.187969924812 276.3157894736842,315.30541353383455 276.64135338345864,315.30541353383455 281.70736842105265,311.203007518797 287.18045112781954,311.203007518797 287.18045112781954,310.90225563909775 281.6009022556391,310.90225563909775 276.53481203007516,315.0046616541353 276.3157894736842,315.0046616541353 276.3157894736842,301.8796992481203 283.64661654135335,301.8796992481203 283.64661654135335,308.64661654135335 317.85714285714283,308.64661654135335 317.85714285714283,301.8796992481203 283.64661654135335,301.8796992481203 276.3157894736842,301.8796992481203 276.3157894736842,292.85714285714283 283.64661654135335,292.85714285714283 283.64661654135335,299.6240601503759 317.85714285714283,299.6240601503759 317.85714285714283,292.85714285714283 283.64661654135335,292.85714285714283 276.3157894736842,292.85714285714283 276.3157894736842,286.4990977443609"/>
<polygon class="l3d0" points="426.83090225563905,286.4990977443609 431.89691729323306,290.6015037593985 437.5563909774436,290.6015037593985 437.5563909774436,289.84962406015035 432.1632330827067,289.84962406015035 427.09714285714284,285.7472180451128 426.69172932330827,285.7472180451128 426.69172932330827,276.3157894736842 450.7518796992481,276.3157894736842 450.7518796992481,289.4736842105263 450.0,289.4736842105263 450.0,291.72932330827064 452.25563909774434,291.72932330827064 452.25563909774434,289.4736842105263 451.50375939849624,289.4736842105263 451.50375939849624,276.3157894736842 475.56390977443607,276.3157894736842 475.56390977443607,285.7472180451128 475.1584962406015,285.7472180451128 470.09240601503757,289.84962406015035 464.69924812030075,289.84962406015035 464.69924812030075,290.6015037593985 470.3587218045112,290.6015037593985 475.4247368421053,286.4990977443609 475.56390977443607,286.4990977443609 475.56390977443607,315.0046616541353 475.4247368421053,315.0046616541353 470.3587218045112,310.90225563909775 464.69924812030075,310.90225563909775 464.69924812030075,311.65413533834584 470.09240601503757,311.65413533834584 475.1584962406015,315.75654135338345 475.56390977443607,315.75654135338345 475.56390977443607,325.187969924812 451.50375939849624,325.187969924812 451.50375939849624,312.0300751879699 452.25563909774434,312.0300751879699 452.25563909774434,309.77443609022555 450.0,309.77443609022555 450.0,312.0300751879699 450.7518796992481,312.0300751879699 450.7518796992481,325.187969924812 426.69172932330827,325.187969924812 426.69172932330827,315.30541353383455 427.0172932330827,315.30541353383455 432.08330827067664,311.203007518797 437.5563909774436,311.203007518797 437.5563909774436,310.90225563909775 431.9768421052632,310.90225563909775 426.91075187969926,315.0046616541353 426.69172932330827,315.0046616541353 426.69172932330827,301.8796992481203 434.0225563909774,301.8796992481203 434.0225563909774,308.64661654135335 468.2330827067669,308.64661654135335 468.2330827067669,301.8796992481203 434.0225563909774,301.8796992481203 426.69172932330827,301.8796992481203 426.69172932330827,292.85714285714283 434.0225563909774,292.85714285714283 434.0225563909774,299.6240601503759 468.2330827067669,299.6240601503759 468.2330827067669,292.85714285714283 434.0225563909774,292.85714285714283 426.69172932330827,292.85714285714283 426.69172932330827,286.4990977443609"/>
<polygon class="l3d0" points="-24.296917293233083,436.8750375939849 -19.230902255639098,440.97744360902254 -13.571428571428571,440.97744360902254 -13.571428571428571,440.2255639097744 -18.964586466165414,440.2255639097744 -24.030676691729322,436.12315789473683 -24.43609022556391,436.12315789473683 -24.43609022556391,426.69172932330827 -0.37593984962406013,426.69172932330827 -0.37593984962406013,439.84962406015035 -1.1278195488721803,439.84962406015035 -1.1278195488721803,442.10526315789474 1.1278195488721803,442.10526315789474 1.1278195488721803,439.84962406015035 0.37593984962406013,439.84962406015035 0.37593984962406013,426.69172932330827 24.43609022556391,426.69172932330827 24.43609022556391,436.12315789473683 24.030676691729322,436.12315789473683 18.964586466165414,440.2255639097744 13.571428571428571,440.2255639097744 13.571428571428571,440.97744360902254 19.230902255639098,440.97744360902254 24.296917293233083,436.8750375939849 24.43609022556391,436.8750375939849 24.43609022556391,465.38060150375935 24.296917293233083,465.38060150375935 19.230902255639098,461.2781954887218 13.571428571428571,461.2781954887218 13.571428571428571,462.0300751879699 18.964586466165414,462.0300751879699 24.030676691729322,466.1324812030075 24.43609022556391,466.1324812030075 24.43609022556391,475.56390977443607 0.37593984962406013,475.56390977443607 0.37593984962406013,462.40601503759393 1.1278195488721803,462.40601503759393 1.1278195488721803,460.1503759398496 -1.1278195488721803,460.1503759398496 -1.1278195488721803,462.40601503759393 -0.37593984962406013,462.40601503759393 -0.37593984962406013,475.56390977443607 -24.43609022556391,475.56390977443607 -24.43609022556391,465.6813533834586 -24.110526315789475,465.6813533834586 -19.044511278195486,461.57894736842104 -13.571428571428571,461.57894736842104 -13.571428571428571,461.2781954887218 -19.150977443609023,461.2781954887218 -24.21706766917293,465.38060150375935 -24.43609022556391,465.38060150375935 -24.43609022556391,452.25563909774434 -17.105263157894736,452.25563909774434 -17.105263157894736,459.0225563909774 17.105263157894736,459.0225563909774 17.105263157894736,452.25563909774434 -17.105263157894736,452.25563909774434 -24.43609022556391,452.25563909774434 -24.43609022556391,443.2330827067669 -17.105263157894736,443.2330827067669 -17.105263157894736,450.0 17.105263157894736,450.0 17.105263157894736,443.2330827067669 -17.105263157894736,443.2330827067669 -24.43609022556391,443.2330827067669 -24.43609022556391,436.8750375939849"/>
<polygon class="l3d0" points="126.07902255639098,436.8750375939849 131.14503759398497,440.97744360902254 136.8045112781955,440.97744360902254 136.8045112781955,440.2255639097744 131.41135338345865,440.2255639097744 126.34526315789473,436.12315789473683 125.93984962406014,436.12315789473683 125.93984962406014,426.69172932330827 150.0,426.69172932330827 150.0,439.84962406015035 149.24812030075188,439.84962406015035 149.24812030075188,442.10526315789474 151.50375939849624,442.10526315789474 151.50375939849624,439.84962406015035 150.75187969924812,439.84962406015035 150.75187969924812,426.69172932330827 174.81203007518795,426.69172932330827 174.81203007518795,436.12315789473683 174.4066165413534,436.12315789473683 169.34052631578945,440.2255639097744 163.94736842105263,440.2255639097744 163.94736842105263,440.97744360902254 169.60684210526315,440.97744360902254 174.6728571428571,436.8750375939849 174.81203007518795,436.8750375939849 174.81203007518795,465.38060150375935 174.6728571428571,465.38060150375935 169.60684210526315,461.2781954887218 163.94736842105263,461.2781954887218 163.94736842105263,462.0300751879699 169.34052631578945,462.0300751879699 174.4066165413534,466.1324812030075 174.81203007518795,466.1324812030075 174.81203007518795,475.56390977443607 150.75187969924812,475.56390977443607 150.75187969924812,462.40601503759393 151.50375939849624,462.40601503759393 151.50375939849624,460.1503759398496 149.24812030075188,460.1503759398496 149.24812030075188,462.40601503759393 150.0,462.40601503759393 150.0,475.56390977443607 125.93984962406014,475.56390977443607 125.93984962406014,465.6813533834586 126.26541353383458,465.6813533834586 131.33142857142857,461.57894736842104 136.8045112781955,461.57894736842104 136.8045112781955,461.2781954887218 131.22496240601504,461.2781954887218 126.15887218045113,465.38060150375935 125.93984962406014,465.38060150375935 125.93984962406014,452.25563909774434 133.2706766917293,452.25563909774434 133.2706766917293,459.0225563909774 167.4812030075188,459.0225563909774 167.4812030075188,452.25563909774434 133.2706766917293,452.25563909774434 125.93984962406014,452.25563909774434 125.93984962406014,443.2330827067669 133.2706766917293,443.2330827067669 133.2706766917293,450.0 167.4812030075188,450.0 167.4812030075188,443.2330827067669 133.2706766917293,443.2330827067669 125.93984962406014,443.2330827067669 125.93984962406014,436.8750375939849"/>
<polygon class="l3d0" points="276.45496240601506,436.8750375939849 281.520977443609,440.97744360902254 287.18045112781954,440.97744360902254 287.18045112781954,440.2255639097744 281.7872932330827,440.2255639097744 276.7212030075188,436.12315789473683 276.3157894736842,436.12315789473683 276.3157894736842,426.69172932330827 300.37593984962405,426.69172932330827 300.37593984962405,439.84962406015035 299.6240601503759,439.84962406015035 299.6240601503759,442.10526315789474 301.8796992481203,442.10526315789474 301.8796992481203,439.84962406015035 301.12781954887214,439.84962406015035 301.12781954887214,426.69172932330827 325.187969924812,426.69172932330827 325.187969924812,436.12315789473683 324.78255639097745,436.12315789473683 319.7164661654135,440.2255639097744 314.32330827067665,440.2255639097744 314.32330827067665,440.97744360902254 319.9827819548872,440.97744360902254 325.0487969924812,436.8750375939849 325.187969924812,436.8750375939849 325.187969924812,465.38060150375935 325.0487969924812,465.38060150375935 319.9827819548872,461.2781954887218 314.32330827067665,461.2781954887218 314.32330827067665,462.0300751879699 319.7164661654135,462.0300751879699 324.78255639097745,466.1324812030075 325.187969924812,466.1324812030075 325.187969924812,475.56390977443607 301.12781954887214,475.56390977443607 301.12781954887214,462.40601503759393 301.8796992481203,462.40601503759393 301.8796992481203,460.1503759398496 299.6240601503759,460.1503759398496 299.6240601503759,462.40601503759393 300.37593984962405,462.40601503759393 300.37593984962405,475.56390977443607 276.3157894736842,475.56390977443607 276.3157894736842,465.6813533834586 276.64135338345864,465.6813533834586 281.70736842105265,461.57894736842104 287.18045112781954,461.57894736842104 287.18045112781954,461.2781954887218 281.6009022556391,461.2781954887218 276.53481203007516,465.38060150375935 276.3157894736842,465.38060150375935 276.3157894736842,452.25563909774434 283.64661654135335,452.25563909774434 283.64661654135335,459.0225563909774 317.85714285714283,459.0225563909774 317.85714285714283,452.25563909774434 283.64661654135335,452.25563909774434 276.3157894736842,452.25563909774434 276.3157894736842,443.2330827067669 283.64661654135335,443.2330827067669 283.64661654135335,450.0 317.85714285714283,450.0 317.85714285714283,443.2330827067669 283.64661654135335,443.2330827067669 276.3157894736842,443.2330827067669 276.3157894736842,436.8750375939849"/>
<polygon class="l3d0" points="426.83090225563905,436.8750375939849 431.89691729323306,440.97744360902254 437.5563909774436,440.97744360902254 437.5563909774436,440.2255639097744 432.1632330827067,440.2255639097744 427.09714285714284,436.12315789473683 426.69172932330827,436.12315789473683 426.69172932330827,426.69172932330827 450.7518796992481,426.69172932330827 450.7518796992481,439.84962406015035 450.0,439.84962406015035 450.0,442.10526315789474 452.25563909774434,442.10526315789474 452.25563909774434,439.84962406015035 451.50375939849624,439.84962406015035 451.50375939849624,426.69172932330827 475.56390977443607,426.69172932330827 475.56390977443607,436.12315789473683 475.1584962406015,436.12315789473683 470.09240601503757,440.2255639097744 464.69924812030075,440.2255639097744 464.69924812030075,440.97744360902254 470.3587218045112,440.97744360902254 475.4247368421053,436.8750375939849 475.56390977443607,436.8750375939849 475.56390977443607,465.38060150375935 475.4247368421053,465.38060150375935 470.3587218045112,461.2781954887218 464.69924812030075,461.2781954887218 464.69924812030075,462.0300751879699 470.09240601503757,462.0300751879699 475.1584962406015,466.1324812030075 475.56390977443607,466.1324812030075 475.56390977443607,475.56390977443607 451.50375939849624,475.56390977443607 451.50375939849624,462.40601503759393 452.25563909774434,462.40601503759393 452.25563909774434,460.1503759398496 450.0,460.1503759398496 450.0,462.40601503759393 450.7518796992481,462.40601503759393 450.7518796992481,475.56390977443607 426.69172932330827,475.56390977443607 426.69172932330827,465.6813533834586 427.0172932330827,465.6813533834586 432.08330827067664,461.57894736842104 437.5563909774436,461.57894736842104 437.5563909774436,461.2781954887218 431.9768421052632,461.2781954887218 426.91075187969926,465.38060150375935 426.69172932330827,465.38060150375935 426.69172932330827,452.25563909774434 434.0225563909774,452.25563909774434 434.0225563909774,459.0225563909774 468.2330827067669,459.0225563909774 468.2330827067669,452.25563909774434 434.0225563909774,452.25563909774434 426.69172932330827,452.25563909774434 426.69172932330827,443.2330827067669 434.0225563909774,443.2330827067669 434.0225563909774,450.0 468.2330827067669,450.0 468.2330827067669,443.2330827067669 434.0225563909774,443.2330827067669 426.69172932330827,443.2330827067669 426.69172932330827,436.8750375939849"/>
</g>
</svg>