<svg xmlns="http://www.w3.org/2000/svg" xmlns:xlink="http://www.w3.org/1999/xlink" width="550.0000000000001" height="223.55371900826447" viewBox="-29.13223140495868 -194.4214876033058 550.0000000000001 223.55371900826447">
<defs>
<style type="text/css">
.l3d0 {stroke: rgb(255, 255, 64); fill: rgb(255, 255, 64); fill-opacity: 0.5;}
</style>
</defs>
<rect x="-29.13223140495868" y="-194.4214876033058" width="550.0000000000001" height="223.55371900826447" fill="#222" stroke="none"/>
<g id="gds" transform="scale(1 -1)">
<polygon class="l3d0" points="-2.479338842975207,158.67768595041323 -2.466115702479339,159.1699173553719 -2.426115702479339,159.66049586776862 -2.3596694214876033,160.14842975206614 -2.2667768595041324,160.6320661157025 -2.148099173553719,161.1097520661157 -2.003305785123967,161.5804958677686 -1.8337190082644628,162.04264462809917 -1.6390082644628101,162.49487603305786 -1.420495867768595,162.93586776859505 -1.1781818181818182,163.36462809917356 -0.9127272727272728,163.7795041322314 -0.6257851239669422,164.179173553719 -0.31702479338842976,164.56297520661158 0.011570247933884299,164.9295867768595 0.35966942148760334,165.27768595041323 0.7262809917355373,165.60628099173553 1.1100826446280991,165.91504132231404 1.5097520661157027,166.20198347107439 1.9246280991735538,166.46743801652894 2.353388429752066,166.70975206611573 2.794380165289256,166.92826446280992 3.246611570247934,167.12297520661159 3.7087603305785124,167.29256198347107 4.179504132231405,167.43735537190082 4.657190082644628,167.55603305785127 5.140826446280992,167.6489256198347 5.628760330578513,167.71537190082645 6.119338842975207,167.75537190082645 6.6115702479338845,167.76859504132233 158.67768595041323,167.76859504132233 159.1699173553719,167.75537190082645 159.66049586776862,167.71537190082645 160.14842975206614,167.6489256198347 160.6320661157025,167.55603305785127 161.1097520661157,167.43735537190082 161.5804958677686,167.29256198347107 162.04264462809917,167.12297520661159 162.2009917355372,167.05487603305787 162.2009917355372,168.82512396694216 161.79636363636365,168.95900826446282 161.2882644628099,169.0995041322314 160.77355371900825,169.21520661157024 160.25421487603307,169.30512396694215 159.73090909090908,169.3699173553719 159.20495867768597,169.40859504132231 158.67768595041323,169.4214876033058 6.6115702479338845,169.4214876033058 6.084297520661157,169.40859504132231 5.558347107438017,169.3699173553719 5.03504132231405,169.30512396694215 4.515702479338843,169.21520661157024 4.00099173553719,169.0995041322314 3.492892561983471,168.95900826446282 2.9920661157024795,168.79338842975207 2.5001652892561985,168.60363636363638 2.0178512396694215,168.3900826446281 1.5471074380165288,168.15272727272728 1.0882644628099174,167.89289256198347 0.6426446280991736,167.6109090909091 0.21157024793388432,167.30710743801652 -0.20429752066115703,166.98280991735538 -0.6036363636363636,166.63834710743802 -0.9854545454545455,166.27471074380165 -1.3490909090909093,165.89289256198347 -1.6935537190082646,165.49355371900828 -2.0178512396694215,165.07768595041324 -2.3216528925619833,164.64661157024793 -2.603636363636364,164.2009917355372 -2.8634710743801657,163.7421487603306 -3.1008264462809922,163.2714049586777 -3.3143801652892564,162.78909090909093 -3.5041322314049586,162.29719008264465 -3.669752066115703,161.79636363636365 -3.8102479338842974,161.2882644628099 -3.9259504132231404,160.77355371900825 -4.015867768595041,160.25421487603307 -4.080661157024793,159.73090909090908 -4.119338842975207,159.20495867768597 -4.132231404958678,158.67768595041323 -4.132231404958678,0.0 -2.479338842975207,0.0"/>
<polygon class="l3d0" points="4.132231404958678,158.67768595041323 4.1457851239669425,158.93685950413223 4.186446280991736,159.19305785123967 4.253553719008265,159.44396694214876 4.346446280991736,159.68628099173554 4.464462809917356,159.91735537190084 4.605619834710744,160.13487603305785 4.768925619834711,160.33652892561983 4.952727272727272,160.52033057851241 5.154380165289257,160.68363636363637 5.371900826446281,160.82479338842975 5.602975206611571,160.94280991735536 5.845289256198347,161.03570247933885 6.096198347107438,161.1028099173554 6.352396694214876,161.14347107438016 6.6115702479338845,161.15702479338844 158.67768595041323,161.15702479338844 158.93685950413223,161.14347107438016 159.19305785123967,161.1028099173554 159.44396694214876,161.03570247933885 159.68628099173554,160.94280991735536 159.91735537190084,160.82479338842975 160.13487603305785,160.68363636363637 160.33652892561983,160.52033057851241 160.52033057851241,160.33652892561983 160.68363636363637,160.13487603305785 160.82479338842975,159.91735537190084 160.94280991735536,159.68628099173554 161.03570247933885,159.44396694214876 161.1028099173554,159.19305785123967 161.14347107438016,158.93685950413223 161.15702479338844,158.67768595041323 161.15702479338844,6.6115702479338845 161.1699173553719,6.084297520661157 161.20859504132233,5.558347107438017 161.27338842975206,5.03504132231405 161.36330578512397,4.515702479338843 161.4790082644628,4.00099173553719 161.6195041322314,3.492892561983471 161.78512396694214,2.9920661157024795 161.97487603305785,2.5001652892561985 162.18842975206613,2.0178512396694215 162.2009917355372,1.9930578512396695 162.2009917355372,160.83669421487605 162.020826446281,161.10644628099175 161.8198347107438,161.3613223140496 161.59966942148762,161.59966942148762 161.3613223140496,161.8198347107438 161.10644628099175,162.020826446281 160.83669421487605,162.2009917355372 160.55371900826447,162.3596694214876 160.25917355371902,162.49520661157024 159.95471074380166,162.60760330578512 159.6423140495868,162.69586776859504 159.32396694214876,162.7590082644628 159.0019834710744,162.79702479338843 158.67768595041323,162.8099173553719 6.6115702479338845,162.8099173553719 6.287272727272727,162.79702479338843 5.965289256198348,162.7590082644628 5.646942148760331,162.69586776859504 5.334545454545455,162.60760330578512 5.0300826446280995,162.49520661157024 4.735537190082645,162.3596694214876 4.452561983471075,162.2009917355372 4.182809917355372,162.020826446281 3.927933884297521,161.8198347107438 3.689586776859504,161.59966942148762 3.469421487603306,161.3613223140496 3.268429752066116,161.10644628099175 3.0882644628099176,160.83669421487605 2.9295867768595043,160.55371900826447 2.7940495867768598,160.25917355371902 2.6816528925619836,159.95471074380166 2.593388429752066,159.6423140495868 2.5302479338842976,159.32396694214876 2.4922314049586776,159.0019834710744 2.479338842975207,158.67768595041323 2.479338842975207,0.0 4.132231404958678,0.0"/>
<polygon class="l3d0" points="363.6363636363636,-2.975206611570248 495.86776859504135,-2.975206611570248 495.86776859504135,2.975206611570248 363.6363636363636,2.975206611570248 330.57851239669424,4.132231404958678 171.900826446281,4.132231404958678 171.64165289256198,4.1457851239669425 171.38545454545456,4.186446280991736 171.13454545454547,4.253553719008265 170.89223140495866,4.346446280991736 170.6611570247934,4.464462809917356 170.44363636363636,4.605619834710744 170.24198347107438,4.768925619834711 170.05818181818185,4.952727272727272 169.89487603305787,5.154380165289257 169.75371900826445,5.371900826446281 169.63570247933885,5.602975206611571 169.54280991735536,5.845289256198347 169.47570247933885,6.096198347107438 169.43504132231408,6.352396694214876 169.4214876033058,6.6115702479338845 169.4214876033058,158.67768595041323 169.40859504132231,159.20495867768597 169.3699173553719,159.73090909090908 169.30512396694215,160.25421487603307 169.21520661157024,160.77355371900825 169.0995041322314,161.2882644628099 168.95900826446282,161.79636363636365 168.79338842975207,162.29719008264465 168.60363636363638,162.78909090909093 168.3900826446281,163.2714049586777 168.15272727272728,163.7421487603306 167.89289256198347,164.2009917355372 167.6109090909091,164.64661157024793 167.30710743801652,165.07768595041324 166.98280991735538,165.49355371900828 166.63834710743802,165.89289256198347 166.27471074380165,166.27471074380165 165.89289256198347,166.63834710743802 165.49355371900828,166.98280991735538 165.07768595041324,167.30710743801652 164.64661157024793,167.6109090909091 164.2009917355372,167.89289256198347 163.7421487603306,168.15272727272728 163.2714049586777,168.3900826446281 162.78909090909093,168.60363636363638 162.29719008264465,168.79338842975207 162.2009917355372,168.82512396694216 162.2009917355372,167.05487603305787 162.49487603305786,166.92826446280992 162.93586776859505,166.70975206611573 163.36462809917356,166.46743801652894 163.7795041322314,166.20198347107439 164.179173553719,165.91504132231404 164.56297520661158,165.60628099173553 164.9295867768595,165.27768595041323 165.27768595041323,164.9295867768595 165.60628099173553,164.56297520661158 165.91504132231404,164.179173553719 166.20198347107439,163.7795041322314 166.46743801652894,163.36462809917356 166.70975206611573,162.93586776859505 166.92826446280992,162.49487603305786 167.12297520661159,162.04264462809917 167.29256198347107,161.5804958677686 167.43735537190082,161.1097520661157 167.55603305785127,160.6320661157025 167.6489256198347,160.14842975206614 167.71537190082645,159.66049586776862 167.75537190082645,159.1699173553719 167.76859504132233,158.67768595041323 167.76859504132233,6.6115702479338845 167.78148760330578,6.287272727272727 167.8195041322314,5.965289256198348 167.8826446280992,5.646942148760331 167.97090909090912,5.334545454545455 168.08330578512397,5.0300826446280995 168.21884297520663,4.735537190082645 168.37752066115704,4.452561983471075 168.55768595041323,4.182809917355372 168.75867768595043,3.927933884297521 168.97884297520662,3.689586776859504 169.21719008264463,3.469421487603306 169.4720661157025,3.268429752066116 169.7418181818182,3.0882644628099176 170.02479338842977,2.9295867768595043 170.3193388429752,2.7940495867768598 170.62380165289255,2.6816528925619836 170.93619834710745,2.593388429752066 171.25454545454545,2.5302479338842976 171.57652892561984,2.4922314049586776 171.900826446281,2.479338842975207 330.57851239669424,2.479338842975207 363.6363636363636,1.6528925619834711 494.54545454545456,1.6528925619834711 494.54545454545456,-1.6528925619834711 363.6363636363636,-1.6528925619834711 330.57851239669424,-2.479338842975207 171.900826446281,-2.479338842975207 171.40859504132231,-2.466115702479339 170.91801652892565,-2.426115702479339 170.43008264462813,-2.3596694214876033 169.94644628099172,-2.2667768595041324 169.46876033057853,-2.148099173553719 168.99801652892563,-2.003305785123967 168.53586776859507,-1.8337190082644628 168.08363636363637,-1.6390082644628101 167.6426446280992,-1.420495867768595 167.21388429752068,-1.1781818181818182 166.79900826446283,-0.9127272727272728 166.39933884297523,-0.6257851239669422 166.01553719008265,-0.31702479338842976 165.64892561983473,0.011570247933884299 165.300826446281,0.35966942148760334 164.97223140495868,0.7262809917355373 164.66347107438017,1.1100826446280991 164.37652892561982,1.5097520661157027 164.1110743801653,1.9246280991735538 163.8687603305785,2.353388429752066 163.6502479338843,2.794380165289256 163.45553719008265,3.246611570247934 163.28595041322313,3.7087603305785124 163.1411570247934,4.179504132231405 163.02247933884297,4.657190082644628 162.9295867768595,5.140826446280992 162.86314049586778,5.628760330578513 162.8231404958678,6.119338842975207 162.8099173553719,6.6115702479338845 162.8099173553719,158.67768595041323 162.79702479338843,159.0019834710744 162.7590082644628,159.32396694214876 162.69586776859504,159.6423140495868 162.60760330578512,159.95471074380166 162.49520661157024,160.25917355371902 162.3596694214876,160.55371900826447 162.2009917355372,160.83669421487605 162.2009917355372,1.9930578512396695 162.42578512396696,1.5471074380165288 162.68561983471076,1.0882644628099174 162.96760330578513,0.6426446280991736 163.2714049586777,0.21157024793388432 163.59570247933885,-0.20429752066115703 163.94016528925619,-0.6036363636363636 164.30380165289256,-0.9854545454545455 164.68561983471074,-1.3490909090909093 165.08495867768596,-1.6935537190082646 165.500826446281,-2.0178512396694215 165.93190082644628,-2.3216528925619833 166.377520661157,-2.603636363636364 166.83636363636364,-2.8634710743801657 167.30710743801652,-3.1008264462809922 167.7894214876033,-3.3143801652892564 168.2813223140496,-3.5041322314049586 168.78214876033059,-3.669752066115703 169.29024793388427,-3.8102479338842974 169.80495867768593,-3.9259504132231404 170.32429752066116,-4.015867768595041 170.84760330578513,-4.080661157024793 171.37355371900827,-4.119338842975207 171.900826446281,-4.132231404958678 330.57851239669424,-4.132231404958678"/>
</g>
</svg>