<svg xmlns="http://www.w3.org/2000/svg" xmlns:xlink="http://www.w3.org/1999/xlink" width="550.0" height="318.4953703703704" viewBox="-34.25925925925926 -265.74074074074076 550.0 318.4953703703704">
<defs>
<style type="text/css">
.l3d0 {stroke: rgb(255, 255, 64); fill: rgb(255, 255, 64); fill-opacity: 0.5;}
</style>
</defs>
<rect x="-34.25925925925926" y="-265.74074074074076" width="550.0" height="318.4953703703704" fill="#222" stroke="none"/>
<g id="gds" transform="scale(1 -1)">
<polygon class="l3d0" points="-4.62962962962963,194.44444444444446 -4.539351851851852,197.1689814814815 -4.273148148148149,199.88194444444446 -3.8287037037037037,202.57407407407408 -3.2106481481481484,205.22916666666669 -2.4189814814814814,207.83796296296296 -1.4583333333333335,210.3888888888889 -0.3333333333333333,212.8726851851852 0.9537037037037037,215.27777777777777 2.3935185185185186,217.5925925925926 3.9814814814814814,219.8101851851852 5.710648148148149,221.91666666666666 7.5740740740740735,223.9074074074074 9.564814814814815,225.77083333333334 11.671296296296296,227.5 13.88888888888889,229.08796296296296 16.203703703703702,230.52777777777777 18.608796296296298,231.81481481481484 21.09259259259259,232.9398148148148 23.64351851851852,233.90046296296296 26.252314814814813,234.69212962962965 28.90740740740741,235.3101851851852 31.599537037037038,235.75462962962965 34.3125,236.02083333333334 37.03703703703704,236.11111111111111 194.44444444444446,236.11111111111111 197.1689814814815,236.02083333333334 199.88194444444446,235.75462962962965 202.57407407407408,235.3101851851852 205.22916666666669,234.69212962962965 207.83796296296296,233.90046296296296 210.3888888888889,232.9398148148148 212.8726851851852,231.81481481481484 215.27777777777777,230.52777777777777 217.5925925925926,229.08796296296296 218.875,228.1689814814815 218.875,233.75694444444446 216.7476851851852,235.01388888888889 214.15740740740742,236.33564814814815 211.48611111111111,237.49074074074076 208.75000000000003,238.47453703703704 205.95833333333334,239.28703703703704 203.12037037037038,239.9212962962963 200.2476851851852,240.375 197.35185185185185,240.65046296296296 194.44444444444446,240.74074074074076 37.03703703703704,240.74074074074076 34.12962962962963,240.65046296296296 31.233796296296298,240.375 28.361111111111114,239.9212962962963 25.52314814814815,239.28703703703704 22.731481481481485,238.47453703703704 19.99537037037037,237.49074074074076 17.324074074074076,236.33564814814815 14.733796296296298,235.01388888888889 12.229166666666668,233.53472222222223 9.824074074074074,231.89814814814818 7.527777777777778,230.11574074074073 5.344907407407408,228.19212962962962 3.289351851851852,226.13657407407408 1.3657407407407407,223.95370370370372 -0.4166666666666667,221.65740740740742 -2.053240740740741,219.2523148148148 -3.5324074074074074,216.7476851851852 -4.854166666666667,214.15740740740742 -6.0092592592592595,211.48611111111111 -6.993055555555555,208.75000000000003 -7.805555555555555,205.95833333333334 -8.439814814814815,203.12037037037038 -8.893518518518519,200.2476851851852 -9.168981481481481,197.35185185185185 -9.25925925925926,194.44444444444446 -9.25925925925926,0.0 -4.62962962962963,0.0"/>
<polygon class="l3d0" points="9.25925925925926,194.44444444444446 9.354166666666668,196.73842592592592 9.63888888888889,199.0162037037037 10.108796296296296,201.26388888888889 10.76388888888889,203.46296296296296 11.599537037037038,205.60185185185185 12.606481481481481,207.66435185185185 13.782407407407407,209.63657407407408 15.115740740740742,211.50694444444443 16.599537037037038,213.25694444444443 18.224537037037038,214.88194444444443 19.974537037037038,216.36574074074073 21.84490740740741,217.6990740740741 23.81712962962963,218.875 25.87962962962963,219.88194444444446 28.01851851851852,220.71759259259258 30.217592592592595,221.3726851851852 32.46527777777778,221.8425925925926 34.74305555555556,222.12731481481484 37.03703703703704,222.22222222222223 194.44444444444446,222.22222222222223 196.73842592592592,222.12731481481484 199.0162037037037,221.8425925925926 201.26388888888889,221.3726851851852 203.46296296296296,220.71759259259258 205.60185185185185,219.88194444444446 207.66435185185185,218.875 209.63657407407408,217.6990740740741 211.50694444444443,216.36574074074073 213.25694444444443,214.88194444444443 214.88194444444443,213.25694444444443 216.36574074074073,211.50694444444443 217.6990740740741,209.63657407407408 218.875,207.66435185185185 218.875,215.7037037037037 218.2013888888889,216.48611111111114 216.48611111111114,218.2013888888889 214.65046296296296,219.78240740740742 212.69907407407408,221.2199074074074 210.64814814814815,222.50925925925927 208.50462962962962,223.64351851851853 206.28472222222223,224.61111111111111 203.9976851851852,225.41203703703704 201.65509259259258,226.03935185185185 199.275462962963,226.49074074074073 196.86574074074076,226.76157407407408 194.44444444444446,226.85185185185185 37.03703703703704,226.85185185185185 34.61574074074074,226.76157407407408 32.20601851851852,226.49074074074073 29.82638888888889,226.03935185185185 27.483796296296294,225.41203703703704 25.19675925925926,224.61111111111111 22.97685185185185,223.64351851851853 20.833333333333336,222.50925925925927 18.78240740740741,221.2199074074074 16.83101851851852,219.78240740740742 14.99537037037037,218.2013888888889 13.280092592592593,216.48611111111114 11.699074074074074,214.65046296296296 10.261574074074074,212.69907407407408 8.972222222222221,210.64814814814815 7.837962962962964,208.50462962962962 6.87037037037037,206.28472222222223 6.069444444444445,203.9976851851852 5.44212962962963,201.65509259259258 4.990740740740741,199.275462962963 4.719907407407407,196.86574074074076 4.62962962962963,194.44444444444446 4.62962962962963,0.0 9.25925925925926,0.0"/>
<polygon class="l3d0" points="268.51851851851853,9.25925925925926 266.22453703703707,9.354166666666668 263.9467592592593,9.63888888888889 261.6990740740741,10.108796296296296 259.5,10.76388888888889 257.36111111111114,11.599537037037038 255.29861111111111,12.606481481481481 253.32638888888889,13.782407407407407 251.45601851851853,15.115740740740742 249.70601851851853,16.599537037037038 248.08101851851853,18.224537037037038 246.59722222222223,19.974537037037038 245.26388888888889,21.84490740740741 244.08796296296296,23.81712962962963 243.0810185185185,25.87962962962963 242.24537037037038,28.01851851851852 241.5902777777778,30.217592592592595 241.12037037037038,32.46527777777778 240.83564814814815,34.74305555555556 240.74074074074076,37.03703703703704 240.74074074074076,194.44444444444446 240.65046296296296,197.35185185185185 240.375,200.2476851851852 239.9212962962963,203.12037037037038 239.28703703703704,205.95833333333334 238.47453703703704,208.75000000000003 237.49074074074076,211.48611111111111 236.33564814814815,214.15740740740742 235.01388888888889,216.7476851851852 233.53472222222223,219.2523148148148 231.89814814814818,221.65740740740742 230.11574074074073,223.95370370370372 228.19212962962962,226.13657407407408 226.13657407407408,228.19212962962962 223.95370370370372,230.11574074074073 221.65740740740742,231.89814814814818 219.2523148148148,233.53472222222223 218.875,233.75694444444446 218.875,228.1689814814815 219.8101851851852,227.5 221.91666666666666,225.77083333333334 223.9074074074074,223.9074074074074 225.77083333333334,221.91666666666666 227.5,219.8101851851852 229.08796296296296,217.5925925925926 230.52777777777777,215.27777777777777 231.81481481481484,212.8726851851852 232.9398148148148,210.3888888888889 233.90046296296296,207.83796296296296 234.69212962962965,205.22916666666669 235.3101851851852,202.57407407407408 235.75462962962965,199.88194444444446 236.02083333333334,197.1689814814815 236.11111111111111,194.44444444444446 236.11111111111111,37.03703703703704 236.20138888888889,34.61574074074074 236.47222222222223,32.20601851851852 236.92361111111111,29.82638888888889 237.55092592592592,27.483796296296294 238.35185185185188,25.19675925925926 239.31944444444443,22.97685185185185 240.45370370370372,20.833333333333336 241.74305555555557,18.78240740740741 243.18055555555557,16.83101851851852 244.76157407407408,14.99537037037037 246.47685185185185,13.280092592592593 248.3125,11.699074074074074 250.2638888888889,10.261574074074074 252.3148148148148,8.972222222222221 254.45833333333334,7.837962962962964 256.67824074074076,6.87037037037037 258.96527777777777,6.069444444444445 261.3078703703704,5.44212962962963 263.6875,4.990740740740741 266.09722222222223,4.719907407407407 268.51851851851853,4.62962962962963"/>
<polygon class="l3d0" points="268.51851851851853,-4.62962962962963 265.79398148148147,-4.539351851851852 263.08101851851853,-4.273148148148149 260.3888888888889,-3.8287037037037037 257.7337962962963,-3.2106481481481484 255.125,-2.4189814814814814 252.57407407407408,-1.4583333333333335 250.0902777777778,-0.3333333333333333 247.6851851851852,0.9537037037037037 245.37037037037038,2.3935185185185186 243.1527777777778,3.9814814814814814 241.0462962962963,5.710648148148149 239.05555555555557,7.5740740740740735 237.19212962962965,9.564814814814815 235.46296296296296,11.671296296296296 233.87500000000003,13.88888888888889 232.43518518518522,16.203703703703702 231.14814814814815,18.608796296296298 230.02314814814815,21.09259259259259 229.0625,23.64351851851852 228.27083333333334,26.252314814814813 227.6527777777778,28.90740740740741 227.20833333333334,31.599537037037038 226.94212962962965,34.3125 226.85185185185185,37.03703703703704 226.85185185185185,194.44444444444446 226.76157407407408,196.86574074074076 226.49074074074073,199.275462962963 226.03935185185185,201.65509259259258 225.41203703703704,203.9976851851852 224.61111111111111,206.28472222222223 223.64351851851853,208.50462962962962 222.50925925925927,210.64814814814815 221.2199074074074,212.69907407407408 219.78240740740742,214.65046296296296 218.875,215.7037037037037 218.875,207.66435185185185 219.88194444444446,205.60185185185185 220.71759259259258,203.46296296296296 221.3726851851852,201.26388888888889 221.8425925925926,199.0162037037037 222.12731481481484,196.73842592592592 222.22222222222223,194.44444444444446 222.22222222222223,37.03703703703704 222.3125,34.12962962962963 222.58796296296296,31.233796296296298 223.04166666666666,28.361111111111114 223.67592592592592,25.52314814814815 224.48842592592592,22.731481481481485 225.47222222222223,19.99537037037037 226.62731481481484,17.324074074074076 227.94907407407408,14.733796296296298 229.42824074074073,12.229166666666668 231.0648148148148,9.824074074074074 232.84722222222223,7.527777777777778 234.77083333333334,5.344907407407408 236.82638888888889,3.289351851851852 239.00925925925927,1.3657407407407407 241.30555555555557,-0.4166666666666667 243.71064814814815,-2.053240740740741 246.21527777777777,-3.5324074074074074 248.80555555555554,-4.854166666666667 251.47685185185188,-6.0092592592592595 254.21296296296296,-6.993055555555555 257.0046296296296,-7.805555555555555 259.8425925925926,-8.439814814814815 262.71527777777777,-8.893518518518519 265.61111111111114,-9.168981481481481 268.51851851851853,-9.25925925925926"/>
<polygon class="l3d0" points="466.3101851851852,-27.57638888888889 468.51851851851853,-27.21527777777778 470.6921296296296,-26.680555555555557 472.8125,-25.972222222222225 474.8703703703704,-25.094907407407405 476.85185185185185,-24.055555555555554 478.7430555555556,-22.86111111111111 480.5300925925926,-21.516203703703702 482.20601851851853,-20.03240740740741 483.7546296296296,-18.41898148148148 485.16898148148147,-16.6875 486.43981481481484,-14.847222222222221 487.5578703703704,-12.909722222222223 488.51851851851853,-10.88888888888889 489.3101851851852,-8.796296296296296 489.9328703703704,-6.648148148148148 490.38194444444446,-4.456018518518519 490.650462962963,-2.236111111111111 490.74074074074076,0.0 490.650462962963,2.236111111111111 490.38194444444446,4.456018518518519 489.9328703703704,6.648148148148148 489.3101851851852,8.796296296296296 488.51851851851853,10.88888888888889 487.5578703703704,12.909722222222223 486.43981481481484,14.847222222222221 485.16898148148147,16.6875 483.7546296296296,18.41898148148148 482.20601851851853,20.03240740740741 480.5300925925926,21.516203703703702 478.7430555555556,22.86111111111111 476.85185185185185,24.055555555555554 474.8703703703704,25.094907407407405 472.8125,25.972222222222225 470.6921296296296,26.680555555555557 468.51851851851853,27.21527777777778 466.3101851851852,27.57638888888889 464.08101851851853,27.75462962962963 461.8449074074074,27.75462962962963 459.61574074074076,27.57638888888889 457.4074074074074,27.21527777777778 455.2337962962963,26.680555555555557 453.1134259259259,25.972222222222225 451.05555555555554,25.094907407407405 449.0740740740741,24.055555555555554 447.1828703703704,22.86111111111111 445.39583333333337,21.516203703703702 443.71990740740745,20.03240740740741 442.1712962962963,18.41898148148148 440.75694444444446,16.6875 439.48611111111114,14.847222222222221 438.36805555555554,12.909722222222223 437.40740740740745,10.88888888888889 436.79166666666663,9.25925925925926 268.51851851851853,9.25925925925926 268.51851851851853,4.62962962962963 440.29861111111114,4.62962962962963 440.3796296296296,5.078703703703704 440.9166666666667,7.055555555555556 441.6273148148148,8.976851851851853 442.50231481481484,10.826388888888888 443.5393518518519,12.592592592592593 444.7291666666667,14.25925925925926 446.0601851851852,15.81712962962963 447.52546296296293,17.247685185185183 449.1087962962963,18.54398148148148 450.80324074074076,19.69675925925926 452.5902777777778,20.694444444444443 454.46064814814815,21.530092592592595 456.39583333333337,22.19675925925926 458.38425925925924,22.689814814814813 460.4074074074074,23.006944444444446 462.4513888888889,23.14351851851852 464.4976851851852,23.09722222222222 466.53240740740745,22.870370370370374 468.5416666666667,22.46527777777778 470.5046296296297,21.884259259259263 472.40972222222223,21.131944444444443 474.24074074074076,20.21527777777778 475.98148148148147,19.13888888888889 477.6226851851852,17.91435185185185 479.14814814814815,16.54861111111111 480.54861111111114,15.053240740740742 481.81018518518516,13.439814814814815 482.9236111111111,11.722222222222223 483.88194444444446,9.912037037037038 484.6759259259259,8.023148148148149 485.300925925926,6.074074074074074 485.75,4.076388888888888 486.02083333333337,2.0462962962962963 486.11111111111114,0.0 486.02083333333337,-2.0462962962962963 485.75,-4.076388888888888 485.300925925926,-6.074074074074074 484.6759259259259,-8.023148148148149 483.88194444444446,-9.912037037037038 482.9236111111111,-11.722222222222223 481.81018518518516,-13.439814814814815 480.54861111111114,-15.053240740740742 479.14814814814815,-16.54861111111111 477.6226851851852,-17.91435185185185 475.98148148148147,-19.13888888888889 474.24074074074076,-20.21527777777778 472.40972222222223,-21.131944444444443 470.5046296296297,-21.884259259259263 468.5416666666667,-22.46527777777778 466.53240740740745,-22.870370370370374 464.4976851851852,-23.09722222222222 462.4513888888889,-23.14351851851852 460.4074074074074,-23.006944444444446 458.38425925925924,-22.689814814814813 456.39583333333337,-22.19675925925926 454.46064814814815,-21.530092592592595 452.5902777777778,-20.694444444444443 450.80324074074076,-19.69675925925926 449.1087962962963,-18.54398148148148 447.52546296296293,-17.247685185185183 446.0601851851852,-15.81712962962963 444.7291666666667,-14.25925925925926 443.5393518518519,-12.592592592592593 442.50231481481484,-10.826388888888888 441.6273148148148,-8.976851851851853 440.9166666666667,-7.055555555555556 440.3796296296296,-5.078703703703704 440.29861111111114,-4.62962962962963 268.51851851851853,-4.62962962962963 268.51851851851853,-9.25925925925926 436.79166666666663,-9.25925925925926 437.40740740740745,-10.88888888888889 438.36805555555554,-12.909722222222223 439.48611111111114,-14.847222222222221 440.75694444444446,-16.6875 442.1712962962963,-18.41898148148148 443.71990740740745,-20.03240740740741 445.39583333333337,-21.516203703703702 447.1828703703704,-22.86111111111111 449.0740740740741,-24.055555555555554 451.05555555555554,-25.094907407407405 453.1134259259259,-25.972222222222225 455.2337962962963,-26.680555555555557 457.4074074074074,-27.21527777777778 459.61574074074076,-27.57638888888889 461.8449074074074,-27.75462962962963 464.08101851851853,-27.75462962962963"/>
</g>
</svg>