<svg xmlns="http://www.w3.org/2000/svg" xmlns:xlink="http://www.w3.org/1999/xlink" width="550.0" height="254.45535714285717" viewBox="-25.0 -127.22767857142858 550.0 254.45535714285717">
<defs>
<style type="text/css">
.l0d0 {stroke: rgb(255, 0, 0); fill: rgb(255, 0, 0); fill-opacity: 0.5;}
</style>
</defs>
<rect x="-25.0" y="-127.22767857142858" width="550.0" height="254.45535714285717" fill="#222" stroke="none"/>
<g id="q0_cp_q1_cell" transform="scale(1 -1)">
<polygon class="l0d0" points="274.49375000000003,72.69508928571429 274.4191964285714,73.54866071428572 274.31473214285717,74.39955357142857 274.18035714285713,75.24598214285714 274.0169642857143,76.08705357142857 273.82410714285714,76.92232142857144 273.6022321428572,77.75 273.3517857142857,78.56964285714287 273.0727678571429,79.37991071428573 272.765625,80.17991071428573 272.4308035714286,80.96919642857144 272.06875,81.74553571428572 271.6794642857143,82.509375 271.2638392857143,83.25892857142857 270.8227678571429,83.99374999999999 270.35580357142857,84.7125 269.8642857142857,85.41428571428573 269.34866071428576,86.09866071428571 268.80892857142857,86.76473214285716 268.24687500000005,87.41160714285715 267.6625,88.03839285714285 267.05625000000003,88.64464285714286 266.4294642857143,89.22901785714286 265.78258928571427,89.79107142857144 265.11651785714287,90.33080357142858 264.4321428571429,90.84642857142858 263.73035714285714,91.33794642857144 263.01160714285714,91.80491071428573 262.2767857142857,92.24598214285714 261.52723214285714,92.66160714285715 260.7633928571429,93.05089285714286 259.9870535714286,93.41294642857143 259.1977678571428,93.74776785714286 258.39776785714287,94.05491071428571 257.5875,94.33392857142857 256.76785714285717,94.58437500000001 255.9401785714286,94.80625 255.1049107142857,94.99910714285714 254.2638392857143,95.1625 253.41741071428572,95.296875 252.56651785714288,95.4013392857143 251.71294642857143,95.47589285714287 250.85669642857144,95.52053571428573 250.0,95.53571428571429 249.1433035714286,95.52053571428573 248.2870535714286,95.47589285714287 247.43348214285714,95.4013392857143 246.5825892857143,95.296875 245.73616071428572,95.1625 244.89508928571433,94.99910714285714 244.0598214285714,94.80625 243.2321428571429,94.58437500000001 242.41250000000002,94.33392857142857 241.60223214285713,94.05491071428571 240.80223214285718,93.74776785714286 240.01294642857144,93.41294642857143 239.23660714285714,93.05089285714286 238.47276785714286,92.66160714285715 237.7232142857143,92.24598214285714 236.98839285714288,91.80491071428573 236.26964285714288,91.33794642857144 235.56785714285718,90.84642857142858 234.88348214285716,90.33080357142858 234.21741071428576,89.79107142857144 233.5705357142857,89.22901785714286 232.94375,88.64464285714286 232.33750000000003,88.03839285714285 231.75312499999998,87.41160714285715 231.19107142857146,86.76473214285716 230.6513392857143,86.09866071428571 230.1357142857143,85.41428571428573 229.64419642857146,84.7125 229.17723214285715,83.99374999999999 228.73616071428575,83.25892857142857 228.3205357142857,82.509375 227.93125,81.74553571428572 227.56919642857144,80.96919642857144 227.234375,80.17991071428573 226.92723214285715,79.37991071428573 226.6482142857143,78.56964285714287 226.39776785714287,77.75 226.17589285714288,76.92232142857144 225.98303571428573,76.08705357142857 225.81964285714287,75.24598214285714 225.6852678571429,74.39955357142857 225.5808035714286,73.54866071428572 225.50625000000002,72.69508928571429 225.46160714285716,71.8388392857143 225.44642857142858,70.98214285714286 227.67857142857144,70.98214285714286 227.69151785714286,71.73616071428572 227.7294642857143,72.48883928571429 227.7933035714286,73.24017857142857 227.88214285714287,73.98928571428571 227.99642857142857,74.734375 228.1357142857143,75.47544642857143 228.2995535714286,76.21116071428571 228.4888392857143,76.94107142857143 228.70223214285716,77.66428571428571 228.9401785714286,78.37991071428571 229.20178571428573,79.08705357142857 229.4875,79.78482142857143 229.7964285714286,80.47232142857143 230.12857142857146,81.14955357142858 230.48348214285716,81.81473214285714 230.86026785714284,82.46785714285716 231.259375,83.1075892857143 231.6794642857143,83.73348214285714 232.12053571428575,84.34508928571428 232.58214285714288,84.94151785714287 233.06339285714287,85.521875 233.56428571428572,86.08526785714285 234.08348214285715,86.63214285714287 234.6214285714286,87.16071428571429 235.17633928571428,87.67053571428572 235.74866071428573,88.16205357142857 236.33705357142858,88.63348214285715 236.94107142857146,89.08482142857144 237.55982142857144,89.515625 238.19285714285718,89.925 238.83928571428572,90.31294642857142 239.4986607142857,90.67901785714287 240.1696428571429,91.02232142857143 240.85223214285716,91.34285714285716 241.5450892857143,91.64017857142858 242.24776785714286,91.91428571428573 242.95892857142857,92.16383928571429 243.67857142857144,92.38973214285716 244.40491071428573,92.59107142857142 245.13794642857147,92.76785714285715 245.87678571428575,92.91964285714286 246.6200892857143,93.04598214285714 247.3669642857143,93.14776785714287 248.11696428571432,93.22410714285715 248.86964285714285,93.275 249.62321428571428,93.30044642857143 250.37678571428575,93.30044642857143 251.13035714285718,93.275 251.8830357142857,93.22410714285715 252.63303571428574,93.14776785714287 253.37991071428573,93.04598214285714 254.12321428571428,92.91964285714286 254.86205357142856,92.76785714285715 255.5950892857143,92.59107142857142 256.32142857142856,92.38973214285716 257.04107142857146,92.16383928571429 257.75223214285717,91.91428571428573 258.4549107142857,91.64017857142858 259.14776785714287,91.34285714285716 259.83035714285717,91.02232142857143 260.5013392857143,90.67901785714287 261.1607142857143,90.31294642857142 261.8071428571429,89.925 262.4401785714286,89.515625 263.05892857142857,89.08482142857144 263.66294642857144,88.63348214285715 264.2513392857143,88.16205357142857 264.8236607142857,87.67053571428572 265.37857142857143,87.16071428571429 265.9165178571429,86.63214285714287 266.4357142857143,86.08526785714285 266.93660714285716,85.521875 267.41785714285714,84.94151785714287 267.8794642857143,84.34508928571428 268.3205357142857,83.73348214285714 268.740625,83.1075892857143 269.13973214285716,82.46785714285716 269.51651785714284,81.81473214285714 269.87142857142857,81.14955357142858 270.2035714285714,80.47232142857143 270.5125,79.78482142857143 270.79821428571427,79.08705357142857 271.0598214285714,78.37991071428571 271.29776785714284,77.66428571428571 271.5111607142857,76.94107142857143 271.70044642857147,76.21116071428571 271.86428571428576,75.47544642857143 272.00357142857143,74.734375 272.11785714285713,73.98928571428571 272.2066964285715,73.24017857142857 272.2705357142857,72.48883928571429 272.30848214285714,71.73616071428572 272.3214285714286,70.98214285714286 274.55357142857144,70.98214285714286 274.53839285714287,71.8388392857143"/>
<polygon class="l0d0" points="381.63660714285714,72.69508928571429 381.5620535714286,73.54866071428572 381.45758928571433,74.39955357142857 381.3232142857143,75.24598214285714 381.15982142857143,76.08705357142857 380.9669642857143,76.92232142857144 380.7450892857143,77.75 380.4946428571429,78.56964285714287 380.215625,79.37991071428573 379.90848214285717,80.17991071428573 379.5736607142857,80.96919642857144 379.21160714285713,81.74553571428572 378.82232142857146,82.509375 378.4066964285714,83.25892857142857 377.96562500000005,83.99374999999999 377.49866071428573,84.7125 377.00714285714287,85.41428571428573 376.49151785714287,86.09866071428571 375.95178571428573,86.76473214285716 375.38973214285716,87.41160714285715 374.80535714285713,88.03839285714285 374.19910714285714,88.64464285714286 373.57232142857146,89.22901785714286 372.92544642857143,89.79107142857144 372.25937500000003,90.33080357142858 371.575,90.84642857142858 370.8732142857143,91.33794642857144 370.1544642857143,91.80491071428573 369.4196428571429,92.24598214285714 368.6700892857143,92.66160714285715 367.90625,93.05089285714286 367.1299107142857,93.41294642857143 366.340625,93.74776785714286 365.54062500000003,94.05491071428571 364.73035714285714,94.33392857142857 363.9107142857143,94.58437500000001 363.08303571428576,94.80625 362.24776785714283,94.99910714285714 361.4066964285715,95.1625 360.5602678571429,95.296875 359.709375,95.4013392857143 358.85580357142857,95.47589285714287 357.9995535714286,95.52053571428573 357.14285714285717,95.53571428571429 356.28616071428576,95.52053571428573 355.4299107142857,95.47589285714287 354.5763392857143,95.4013392857143 353.72544642857144,95.296875 352.87901785714286,95.1625 352.03794642857144,94.99910714285714 351.2026785714286,94.80625 350.37500000000006,94.58437500000001 349.5553571428572,94.33392857142857 348.7450892857143,94.05491071428571 347.94508928571435,93.74776785714286 347.1558035714286,93.41294642857143 346.3794642857143,93.05089285714286 345.615625,92.66160714285715 344.86607142857144,92.24598214285714 344.13125,91.80491071428573 343.4125,91.33794642857144 342.7107142857143,90.84642857142858 342.0263392857143,90.33080357142858 341.3602678571429,89.79107142857144 340.7133928571429,89.22901785714286 340.08660714285713,88.64464285714286 339.4803571428572,88.03839285714285 338.8959821428571,87.41160714285715 338.3339285714286,86.76473214285716 337.79419642857147,86.09866071428571 337.27857142857147,85.41428571428573 336.7870535714286,84.7125 336.3200892857143,83.99374999999999 335.8790178571429,83.25892857142857 335.4633928571429,82.509375 335.0741071428572,81.74553571428572 334.7120535714286,80.96919642857144 334.37723214285717,80.17991071428573 334.0700892857143,79.37991071428573 333.79107142857146,78.56964285714287 333.540625,77.75 333.31875,76.92232142857144 333.1258928571429,76.08705357142857 332.96250000000003,75.24598214285714 332.828125,74.39955357142857 332.72366071428576,73.54866071428572 332.6491071428572,72.69508928571429 332.6044642857143,71.8388392857143 332.5892857142857,70.98214285714286 334.8214285714286,70.98214285714286 334.834375,71.73616071428572 334.87232142857147,72.48883928571429 334.93616071428573,73.24017857142857 335.02500000000003,73.98928571428571 335.13928571428573,74.734375 335.27857142857147,75.47544642857143 335.4424107142857,76.21116071428571 335.63169642857144,76.94107142857143 335.8450892857143,77.66428571428571 336.08303571428576,78.37991071428571 336.3446428571429,79.08705357142857 336.6303571428572,79.78482142857143 336.93928571428575,80.47232142857143 337.2714285714286,81.14955357142858 337.6263392857143,81.81473214285714 338.003125,82.46785714285716 338.40223214285714,83.1075892857143 338.82232142857146,83.73348214285714 339.2633928571429,84.34508928571428 339.725,84.94151785714287 340.20625,85.521875 340.70714285714286,86.08526785714285 341.2263392857143,86.63214285714287 341.76428571428573,87.16071428571429 342.31919642857144,87.67053571428572 342.8915178571429,88.16205357142857 343.4799107142857,88.63348214285715 344.0839285714286,89.08482142857144 344.7026785714286,89.515625 345.3357142857143,89.925 345.9821428571429,90.31294642857142 346.64151785714284,90.67901785714287 347.3125,91.02232142857143 347.9950892857143,91.34285714285716 348.6879464285715,91.64017857142858 349.390625,91.91428571428573 350.1017857142857,92.16383928571429 350.8214285714286,92.38973214285716 351.54776785714284,92.59107142857142 352.28080357142863,92.76785714285715 353.01964285714286,92.91964285714286 353.7629464285714,93.04598214285714 354.50982142857146,93.14776785714287 355.25982142857146,93.22410714285715 356.0125,93.275 356.7660714285714,93.30044642857143 357.5196428571429,93.30044642857143 358.27321428571435,93.275 359.0258928571429,93.22410714285715 359.7758928571429,93.14776785714287 360.52276785714287,93.04598214285714 361.2660714285714,92.91964285714286 362.0049107142857,92.76785714285715 362.73794642857143,92.59107142857142 363.4642857142857,92.38973214285716 364.1839285714286,92.16383928571429 364.89508928571433,91.91428571428573 365.59776785714286,91.64017857142858 366.29062500000003,91.34285714285716 366.9732142857143,91.02232142857143 367.64419642857143,90.67901785714287 368.30357142857144,90.31294642857142 368.95,89.925 369.5830357142857,89.515625 370.20178571428573,89.08482142857144 370.8058035714286,88.63348214285715 371.39419642857143,88.16205357142857 371.9665178571429,87.67053571428572 372.5214285714286,87.16071428571429 373.05937500000005,86.63214285714287 373.5785714285715,86.08526785714285 374.0794642857143,85.521875 374.5607142857143,84.94151785714287 375.02232142857144,84.34508928571428 375.4633928571429,83.73348214285714 375.8834821428572,83.1075892857143 376.2825892857143,82.46785714285716 376.659375,81.81473214285714 377.01428571428573,81.14955357142858 377.3464285714286,80.47232142857143 377.65535714285716,79.78482142857143 377.94107142857143,79.08705357142857 378.2026785714286,78.37991071428571 378.440625,77.66428571428571 378.65401785714283,76.94107142857143 378.84330357142863,76.21116071428571 379.00714285714287,75.47544642857143 379.1464285714286,74.734375 379.2607142857143,73.98928571428571 379.3495535714286,73.24017857142857 379.41339285714287,72.48883928571429 379.4513392857143,71.73616071428572 379.4642857142857,70.98214285714286 381.6964285714286,70.98214285714286 381.68125000000003,71.8388392857143"/>
<polygon class="l0d0" points="167.35089285714287,72.69508928571429 167.2763392857143,73.54866071428572 167.171875,74.39955357142857 167.0375,75.24598214285714 166.87410714285716,76.08705357142857 166.68125,76.92232142857144 166.45937500000002,77.75 166.20892857142857,78.56964285714287 165.9299107142857,79.37991071428573 165.62276785714286,80.17991071428573 165.28794642857144,80.96919642857144 164.92589285714288,81.74553571428572 164.53660714285715,82.509375 164.12098214285714,83.25892857142857 163.6799107142857,83.99374999999999 163.21294642857143,84.7125 162.72142857142856,85.41428571428573 162.2058035714286,86.09866071428571 161.66607142857143,86.76473214285716 161.10401785714285,87.41160714285715 160.51964285714288,88.03839285714285 159.91339285714287,88.64464285714286 159.28660714285715,89.22901785714286 158.63973214285716,89.79107142857144 157.97366071428573,90.33080357142858 157.2892857142857,90.84642857142858 156.5875,91.33794642857144 155.86875,91.80491071428573 155.13392857142858,92.24598214285714 154.38437500000003,92.66160714285715 153.62053571428572,93.05089285714286 152.84419642857142,93.41294642857143 152.05491071428574,93.74776785714286 151.2549107142857,94.05491071428571 150.44464285714287,94.33392857142857 149.62500000000003,94.58437500000001 148.79732142857142,94.80625 147.96205357142858,94.99910714285714 147.12098214285714,95.1625 146.27455357142856,95.296875 145.42366071428575,95.4013392857143 144.5700892857143,95.47589285714287 143.71383928571427,95.52053571428573 142.85714285714286,95.53571428571429 142.00044642857145,95.52053571428573 141.14419642857143,95.47589285714287 140.290625,95.4013392857143 139.43973214285717,95.296875 138.59330357142858,95.1625 137.75223214285714,94.99910714285714 136.9169642857143,94.80625 136.08928571428572,94.58437500000001 135.26964285714288,94.33392857142857 134.45937500000002,94.05491071428571 133.659375,93.74776785714286 132.8700892857143,93.41294642857143 132.09375,93.05089285714286 131.32991071428572,92.66160714285715 130.58035714285714,92.24598214285714 129.84553571428572,91.80491071428573 129.12678571428575,91.33794642857144 128.425,90.84642857142858 127.74062500000001,90.33080357142858 127.07455357142858,89.79107142857144 126.42767857142857,89.22901785714286 125.80089285714286,88.64464285714286 125.19464285714285,88.03839285714285 124.61026785714287,87.41160714285715 124.0482142857143,86.76473214285716 123.50848214285715,86.09866071428571 122.99285714285716,85.41428571428573 122.5013392857143,84.7125 122.03437500000003,83.99374999999999 121.59330357142859,83.25892857142857 121.17767857142857,82.509375 120.78839285714285,81.74553571428572 120.42633928571429,80.96919642857144 120.09151785714286,80.17991071428573 119.78437500000001,79.37991071428573 119.50535714285715,78.56964285714287 119.25491071428571,77.75 119.03303571428573,76.92232142857144 118.84017857142858,76.08705357142857 118.67678571428573,75.24598214285714 118.54241071428574,74.39955357142857 118.43794642857144,73.54866071428572 118.36339285714287,72.69508928571429 118.31875000000001,71.8388392857143 118.30357142857143,70.98214285714286 120.53571428571429,70.98214285714286 120.54866071428572,71.73616071428572 120.58660714285713,72.48883928571429 120.65044642857144,73.24017857142857 120.73928571428573,73.98928571428571 120.85357142857143,74.734375 120.99285714285715,75.47544642857143 121.15669642857145,76.21116071428571 121.34598214285715,76.94107142857143 121.559375,77.66428571428571 121.79732142857145,78.37991071428571 122.05892857142857,79.08705357142857 122.34464285714287,79.78482142857143 122.65357142857145,80.47232142857143 122.9857142857143,81.14955357142858 123.34062500000002,81.81473214285714 123.71741071428572,82.46785714285716 124.11651785714287,83.1075892857143 124.53660714285715,83.73348214285714 124.97767857142857,84.34508928571428 125.43928571428572,84.94151785714287 125.92053571428572,85.521875 126.42142857142859,86.08526785714285 126.940625,86.63214285714287 127.47857142857144,87.16071428571429 128.03348214285717,87.67053571428572 128.60580357142857,88.16205357142857 129.19419642857142,88.63348214285715 129.7982142857143,89.08482142857144 130.4169642857143,89.515625 131.05,89.925 131.69642857142858,90.31294642857142 132.35580357142857,90.67901785714287 133.02678571428572,91.02232142857143 133.70937500000002,91.34285714285716 134.40223214285714,91.64017857142858 135.10491071428572,91.91428571428573 135.81607142857143,92.16383928571429 136.53571428571428,92.38973214285716 137.26205357142857,92.59107142857142 137.99508928571427,92.76785714285715 138.73392857142858,92.91964285714286 139.47723214285713,93.04598214285714 140.22410714285715,93.14776785714287 140.97410714285715,93.22410714285715 141.72678571428574,93.275 142.48035714285714,93.30044642857143 143.23392857142858,93.30044642857143 143.9875,93.275 144.7401785714286,93.22410714285715 145.4901785714286,93.14776785714287 146.2370535714286,93.04598214285714 146.98035714285714,92.91964285714286 147.71919642857145,92.76785714285715 148.45223214285716,92.59107142857142 149.17857142857144,92.38973214285716 149.8982142857143,92.16383928571429 150.609375,91.91428571428573 151.31205357142858,91.64017857142858 152.00491071428573,91.34285714285716 152.6875,91.02232142857143 153.35848214285716,90.67901785714287 154.01785714285714,90.31294642857142 154.6642857142857,89.925 155.29732142857142,89.515625 155.91607142857143,89.08482142857144 156.5200892857143,88.63348214285715 157.10848214285716,88.16205357142857 157.68080357142858,87.67053571428572 158.2357142857143,87.16071428571429 158.77366071428574,86.63214285714287 159.29285714285714,86.08526785714285 159.79375000000002,85.521875 160.275,84.94151785714287 160.73660714285717,84.34508928571428 161.17767857142857,83.73348214285714 161.59776785714286,83.1075892857143 161.99687500000002,82.46785714285716 162.3736607142857,81.81473214285714 162.72857142857143,81.14955357142858 163.06071428571428,80.47232142857143 163.36964285714285,79.78482142857143 163.65535714285716,79.08705357142857 163.91696428571427,78.37991071428571 164.15491071428573,77.66428571428571 164.36830357142858,76.94107142857143 164.55758928571427,76.21116071428571 164.7214285714286,75.47544642857143 164.8607142857143,74.734375 164.975,73.98928571428571 165.0638392857143,73.24017857142857 165.1276785714286,72.48883928571429 165.165625,71.73616071428572 165.17857142857144,70.98214285714286 167.4107142857143,70.98214285714286 167.39553571428573,71.8388392857143"/>
<polygon class="l0d0" points="120.53571428571429,70.98214285714286 118.30357142857143,70.98214285714286 118.30357142857143,26.78571428571429 120.53571428571429,26.78571428571429"/>
<polygon class="l0d0" points="174.10714285714286,70.98214285714286 171.875,70.98214285714286 171.875,26.78571428571429 174.10714285714286,26.78571428571429"/>
<polygon class="l0d0" points="225.44642857142858,26.78571428571429 227.67857142857144,26.78571428571429 227.67857142857144,70.98214285714286 225.44642857142858,70.98214285714286"/>
<polygon class="l0d0" points="279.01785714285717,26.78571428571429 281.25,26.78571428571429 281.25,70.98214285714286 279.01785714285717,70.98214285714286"/>
<polygon class="l0d0" points="334.8214285714286,70.98214285714286 332.5892857142857,70.98214285714286 332.5892857142857,26.78571428571429 334.8214285714286,26.78571428571429"/>
<polygon class="l0d0" points="386.16071428571433,26.78571428571429 388.39285714285717,26.78571428571429 388.39285714285717,70.98214285714286 386.16071428571433,70.98214285714286"/>
<polygon class="l0d0" points="0.0,2.232142857142857 89.28571428571429,2.232142857142857 90.14241071428573,2.2473214285714285 90.99866071428572,2.291964285714286 91.85223214285715,2.366517857142857 92.703125,2.4709821428571432 93.54955357142858,2.605357142857143 94.390625,2.7687500000000003 95.22589285714287,2.9616071428571433 96.05357142857143,3.183482142857143 96.8732142857143,3.433928571428572 97.68348214285714,3.7129464285714286 98.48348214285716,4.0200892857142865 99.27276785714287,4.354910714285715 100.04910714285715,4.716964285714286 100.81294642857144,5.10625 101.5625,5.5218750000000005 102.29732142857142,5.962946428571429 103.01607142857144,6.429910714285715 103.71785714285716,6.921428571428572 104.40223214285714,7.437053571428572 105.06830357142859,7.976785714285714 105.71517857142858,8.538839285714285 106.34196428571428,9.123214285714287 106.94821428571429,9.729464285714286 107.53258928571428,10.356250000000001 108.09464285714286,11.003125 108.634375,11.669196428571428 109.15,12.35357142857143 109.64151785714287,13.055357142857144 110.10848214285716,13.774107142857144 110.54955357142858,14.508928571428573 110.96517857142858,15.258482142857144 111.35446428571429,16.02232142857143 111.71651785714286,16.798660714285713 112.05133928571429,17.587946428571428 112.35848214285714,18.38794642857143 112.6375,19.198214285714286 112.88794642857144,20.017857142857146 113.10982142857144,20.845535714285717 113.30267857142857,21.680803571428573 113.46607142857142,22.521875 113.60044642857143,23.368303571428573 113.70491071428573,24.21919642857143 113.7794642857143,25.072767857142857 113.82410714285716,25.92901785714286 113.83928571428572,26.78571428571429 111.60714285714286,26.78571428571429 111.59419642857144,26.023660714285715 111.55491071428573,25.262500000000003 111.49017857142857,24.503125 111.39910714285715,23.746428571428574 111.2825892857143,22.992857142857144 111.14017857142858,22.244196428571428 110.97232142857143,21.50089285714286 110.77946428571428,20.763392857142858 110.56116071428572,20.033035714285717 110.31830357142857,19.310714285714287 110.05089285714287,18.596875 109.759375,17.892857142857142 109.44375000000001,17.199107142857144 109.1044642857143,16.51651785714286 108.74241071428573,15.845535714285715 108.3575892857143,15.18794642857143 107.95044642857144,14.543303571428572 107.52142857142859,13.913392857142858 107.07142857142858,13.298214285714286 106.60089285714287,12.699107142857144 106.10982142857144,12.116071428571429 105.59910714285715,11.55 105.06919642857143,11.002232142857144 104.52142857142857,10.472321428571428 103.95535714285715,9.961607142857144 103.37232142857144,9.470535714285715 102.77321428571429,9.0 102.15803571428572,8.55 101.528125,8.120982142857143 100.88348214285715,7.713839285714286 100.22589285714287,7.329017857142858 99.55491071428571,6.966964285714286 98.87232142857142,6.6276785714285715 98.17857142857143,6.312053571428572 97.47455357142857,6.020535714285715 96.76071428571429,5.753125000000001 96.03839285714287,5.510267857142858 95.30803571428572,5.291964285714285 94.57053571428571,5.099107142857143 93.82723214285714,4.93125 93.07857142857144,4.788839285714286 92.325,4.672321428571428 91.56830357142857,4.581250000000001 90.80892857142858,4.5165178571428575 90.04776785714286,4.477232142857143 89.28571428571429,4.464285714285714 0.0,4.464285714285714"/>
<polygon class="l0d0" points="334.8214285714286,26.78571428571429 332.5892857142857,26.78571428571429 332.5892857142857,0.0 334.8214285714286,0.0"/>
<polygon class="l0d0" points="227.67857142857144,26.78571428571429 225.44642857142858,26.78571428571429 225.44642857142858,0.0 227.67857142857144,0.0"/>
<polygon class="l0d0" points="281.25,26.78571428571429 279.01785714285717,26.78571428571429 279.01785714285717,0.0 281.25,0.0"/>
<polygon class="l0d0" points="171.875,0.0 174.10714285714286,0.0 174.10714285714286,26.78571428571429 171.875,26.78571428571429"/>
<polygon class="l0d0" points="409.19107142857143,4.5165178571428575 408.4316964285714,4.581250000000001 407.675,4.672321428571428 406.9214285714286,4.788839285714286 406.1727678571429,4.93125 405.42946428571435,5.099107142857143 404.6919642857143,5.291964285714285 403.9616071428572,5.510267857142858 403.2392857142857,5.753125000000001 402.52544642857146,6.020535714285715 401.8214285714286,6.312053571428572 401.1276785714286,6.6276785714285715 400.4450892857143,6.966964285714286 399.7741071428572,7.329017857142858 399.11651785714287,7.713839285714286 398.471875,8.120982142857143 397.8419642857143,8.55 397.22678571428577,9.0 396.6276785714286,9.470535714285715 396.0446428571429,9.961607142857144 395.47857142857146,10.472321428571428 394.9308035714286,11.002232142857144 394.4008928571429,11.55 393.8901785714286,12.116071428571429 393.3991071428572,12.699107142857144 392.92857142857144,13.298214285714286 392.47857142857146,13.913392857142858 392.0495535714286,14.543303571428572 391.64241071428575,15.18794642857143 391.25758928571435,15.845535714285715 390.89553571428576,16.51651785714286 390.55625000000003,17.199107142857144 390.240625,17.892857142857142 389.94910714285714,18.596875 389.6816964285714,19.310714285714287 389.43883928571427,20.033035714285717 389.22053571428575,20.763392857142858 389.0276785714286,21.50089285714286 388.8598214285715,22.244196428571428 388.71741071428573,22.992857142857144 388.60089285714287,23.746428571428574 388.5098214285714,24.503125 388.4450892857143,25.262500000000003 388.4058035714286,26.023660714285715 388.39285714285717,26.78571428571429 386.16071428571433,26.78571428571429 386.17589285714286,25.92901785714286 386.22053571428575,25.072767857142857 386.2950892857143,24.21919642857143 386.39955357142856,23.368303571428573 386.5339285714286,22.521875 386.69732142857146,21.680803571428573 386.8901785714286,20.845535714285717 387.1120535714286,20.017857142857146 387.3625,19.198214285714286 387.6415178571429,18.38794642857143 387.9486607142857,17.587946428571428 388.28348214285717,16.798660714285713 388.64553571428576,16.02232142857143 389.03482142857143,15.258482142857144 389.45044642857147,14.508928571428573 389.89151785714284,13.774107142857144 390.35848214285716,13.055357142857144 390.85,12.35357142857143 391.365625,11.669196428571428 391.9053571428572,11.003125 392.46741071428573,10.356250000000001 393.05178571428576,9.729464285714286 393.65803571428575,9.123214285714287 394.28482142857143,8.538839285714285 394.93169642857146,7.976785714285714 395.59776785714286,7.437053571428572 396.2821428571429,6.921428571428572 396.9839285714286,6.429910714285715 397.70267857142863,5.962946428571429 398.4375,5.5218750000000005 399.1870535714286,5.10625 399.9508928571429,4.716964285714286 400.7272321428572,4.354910714285715 401.5165178571429,4.0200892857142865 402.31651785714286,3.7129464285714286 403.12678571428575,3.433928571428572 403.9464285714286,3.183482142857143 404.77410714285713,2.9616071428571433 405.60937500000006,2.7687500000000003 406.4504464285714,2.605357142857143 407.29687500000006,2.4709821428571432 408.14776785714287,2.366517857142857 409.0013392857143,2.291964285714286 409.8575892857143,2.2473214285714285 410.7142857142857,2.232142857142857 500.0,2.232142857142857 500.0,4.464285714285714 410.7142857142857,4.464285714285714 409.95223214285716,4.477232142857143"/>
<polygon class="l0d0" points="225.44642857142858,-26.78571428571429 227.67857142857144,-26.78571428571429 227.67857142857144,0.0 225.44642857142858,0.0"/>
<polygon class="l0d0" points="174.10714285714286,0.0 171.875,0.0 171.875,-26.78571428571429 174.10714285714286,-26.78571428571429"/>
<polygon class="l0d0" points="334.8214285714286,0.0 332.5892857142857,0.0 332.5892857142857,-26.78571428571429 334.8214285714286,-26.78571428571429"/>
<polygon class="l0d0" points="279.01785714285717,-26.78571428571429 281.25,-26.78571428571429 281.25,0.0 279.01785714285717,0.0"/>
<polygon class="l0d0" points="225.44642857142858,-70.98214285714286 227.67857142857144,-70.98214285714286 227.67857142857144,-26.78571428571429 225.44642857142858,-26.78571428571429"/>
<polygon class="l0d0" points="334.8214285714286,-26.78571428571429 332.5892857142857,-26.78571428571429 332.5892857142857,-70.98214285714286 334.8214285714286,-70.98214285714286"/>
<polygon class="l0d0" points="279.01785714285717,-70.98214285714286 281.25,-70.98214285714286 281.25,-26.78571428571429 279.01785714285717,-26.78571428571429"/>
<polygon class="l0d0" points="171.875,-70.98214285714286 174.10714285714286,-70.98214285714286 174.10714285714286,-26.78571428571429 171.875,-26.78571428571429"/>
<polygon class="l0d0" points="225.42857142857144,-71.99464285714286 225.37589285714287,-73.00625 225.28750000000002,-74.01517857142858 225.16383928571432,-75.02053571428571 225.00580357142857,-76.02098214285715 224.8125,-77.01517857142858 224.58437500000002,-78.00223214285714 224.32232142857146,-78.98035714285714 224.0263392857143,-79.94910714285716 223.69642857142858,-80.90669642857144 223.33348214285715,-81.85223214285715 222.9375,-82.78482142857143 222.50982142857146,-83.70267857142858 222.05,-84.60535714285714 221.55892857142857,-85.49107142857143 221.03705357142857,-86.359375 220.48526785714287,-87.20892857142859 219.9044642857143,-88.03839285714285 219.2950892857143,-88.84732142857143 218.6575892857143,-89.634375 217.99285714285713,-90.39866071428571 217.30223214285715,-91.13973214285714 216.58616071428574,-91.85580357142858 215.8450892857143,-92.54642857142858 215.0808035714286,-93.21116071428573 214.29375,-93.84866071428571 213.48482142857145,-94.45803571428573 212.65535714285716,-95.03883928571429 211.80580357142858,-95.590625 210.9375,-96.11250000000001 210.05178571428573,-96.60357142857143 209.14910714285716,-97.06339285714286 208.23125000000002,-97.49107142857143 207.29866071428572,-97.88705357142858 206.353125,-98.25000000000001 205.39553571428573,-98.57991071428572 204.42678571428573,-98.87589285714286 203.44866071428572,-99.13794642857142 202.46160714285716,-99.36607142857144 201.4674107142857,-99.559375 200.46696428571428,-99.71741071428572 199.46160714285713,-99.84107142857144 198.45267857142858,-99.9294642857143 197.44107142857143,-99.98214285714286 196.42857142857144,-100.0 195.41607142857146,-99.98214285714286 194.4044642857143,-99.9294642857143 193.39553571428573,-99.84107142857144 192.39017857142858,-99.71741071428572 191.38973214285716,-99.559375 190.39553571428573,-99.36607142857144 189.40848214285714,-99.13794642857142 188.43035714285716,-98.87589285714286 187.46160714285713,-98.57991071428572 186.50401785714286,-98.25000000000001 185.55848214285714,-97.88705357142858 184.62589285714287,-97.49107142857143 183.7080357142857,-97.06339285714286 182.80535714285713,-96.60357142857143 181.91964285714286,-96.11250000000001 181.0513392857143,-95.590625 180.2017857142857,-95.03883928571429 179.37232142857144,-94.45803571428573 178.56339285714287,-93.84866071428571 177.7763392857143,-93.21116071428573 177.0120535714286,-92.54642857142858 176.27098214285715,-91.85580357142858 175.5549107142857,-91.13973214285714 174.86428571428573,-90.39866071428571 174.19955357142857,-89.634375 173.56205357142858,-88.84732142857143 172.95267857142858,-88.03839285714285 172.37187500000002,-87.20892857142859 171.8200892857143,-86.359375 171.2982142857143,-85.49107142857143 170.80714285714288,-84.60535714285714 170.34732142857143,-83.70267857142858 169.91964285714286,-82.78482142857143 169.5236607142857,-81.85223214285715 169.1607142857143,-80.90669642857144 168.83080357142856,-79.94910714285716 168.53482142857143,-78.98035714285714 168.27276785714287,-78.00223214285714 168.04464285714286,-77.01517857142858 167.85133928571432,-76.02098214285715 167.69330357142857,-75.02053571428571 167.56964285714287,-74.01517857142858 167.48125000000002,-73.00625 167.42857142857144,-71.99464285714286 167.4107142857143,-70.98214285714286 165.17857142857144,-70.98214285714286 165.19642857142858,-72.03750000000001 165.25000000000003,-73.09196428571428 165.33883928571427,-74.14375 165.46339285714285,-75.19196428571429 165.62321428571428,-76.23526785714286 165.81830357142857,-77.27276785714287 166.0482142857143,-78.30312500000001 166.31294642857142,-79.325 166.61160714285714,-80.33705357142858 166.94464285714287,-81.3388392857143 167.3111607142857,-82.32901785714286 167.7111607142857,-83.30580357142857 168.14375,-84.26875000000001 168.60848214285716,-85.21651785714286 169.10535714285714,-86.14776785714287 169.63303571428574,-87.06205357142858 170.19151785714286,-87.95803571428573 170.77991071428573,-88.83437500000001 171.39732142857144,-89.69017857142858 172.0433035714286,-90.525 172.71741071428573,-91.3375 173.41830357142857,-92.12678571428572 174.14553571428573,-92.8919642857143 174.8982142857143,-93.63169642857144 175.67544642857143,-94.34598214285715 176.4763392857143,-95.03392857142858 177.30044642857143,-95.69375000000001 178.14598214285715,-96.32589285714286 179.0120535714286,-96.92901785714287 179.89866071428574,-97.50223214285715 180.80357142857144,-98.04553571428572 181.7263392857143,-98.5575892857143 182.66607142857146,-99.03839285714287 183.62187500000002,-99.48750000000001 184.59151785714286,-99.90357142857142 185.57544642857144,-100.28705357142857 186.57142857142858,-100.63660714285714 187.57857142857142,-100.95267857142856 188.59553571428572,-101.234375 189.62187500000002,-101.48169642857142 190.65580357142858,-101.69419642857143 191.69642857142858,-101.87187500000002 192.7424107142857,-102.01383928571428 193.79241071428575,-102.12098214285714 194.84598214285714,-102.19196428571429 195.90089285714285,-102.22767857142858 196.95625,-102.22767857142858 198.01116071428572,-102.19196428571429 199.06473214285714,-102.12098214285714 200.11473214285715,-102.01383928571428 201.1607142857143,-101.87187500000002 202.20133928571428,-101.69419642857143 203.23526785714287,-101.48169642857142 204.26160714285714,-101.234375 205.27857142857144,-100.95267857142856 206.28571428571428,-100.63660714285714 207.28169642857142,-100.28705357142857 208.265625,-99.90357142857142 209.23526785714287,-99.48750000000001 210.19107142857143,-99.03839285714287 211.13080357142857,-98.5575892857143 212.05357142857144,-98.04553571428572 212.95848214285715,-97.50223214285715 213.8450892857143,-96.92901785714287 214.7111607142857,-96.32589285714286 215.55669642857143,-95.69375000000001 216.38080357142857,-95.03392857142858 217.18169642857146,-94.34598214285715 217.9589285714286,-93.63169642857144 218.71160714285716,-92.8919642857143 219.4388392857143,-92.12678571428572 220.13973214285716,-91.3375 220.8138392857143,-90.525 221.45982142857144,-89.69017857142858 222.07723214285716,-88.83437500000001 222.665625,-87.95803571428573 223.22410714285715,-87.06205357142858 223.75178571428572,-86.14776785714287 224.24866071428573,-85.21651785714286 224.71339285714288,-84.26875000000001 225.14598214285715,-83.30580357142857 225.54598214285716,-82.32901785714286 225.9125,-81.3388392857143 226.24553571428572,-80.33705357142858 226.54419642857144,-79.325 226.8089285714286,-78.30312500000001 227.0388392857143,-77.27276785714287 227.23392857142858,-76.23526785714286 227.39375,-75.19196428571429 227.5183035714286,-74.14375 227.60714285714286,-73.09196428571428 227.66071428571428,-72.03750000000001 227.67857142857144,-70.98214285714286 225.44642857142858,-70.98214285714286"/>
<polygon class="l0d0" points="171.89017857142858,-71.8388392857143 171.93482142857144,-72.69508928571429 172.009375,-73.54866071428572 172.1138392857143,-74.39955357142857 172.2482142857143,-75.24598214285714 172.41160714285715,-76.08705357142857 172.6044642857143,-76.92232142857144 172.82633928571428,-77.75 173.07678571428573,-78.56964285714287 173.3558035714286,-79.37991071428573 173.66294642857144,-80.17991071428573 173.99776785714286,-80.96919642857144 174.35982142857142,-81.74553571428572 174.74910714285716,-82.509375 175.16473214285716,-83.25892857142857 175.6058035714286,-83.99374999999999 176.07276785714288,-84.7125 176.56428571428575,-85.41428571428573 177.07991071428572,-86.09866071428571 177.61964285714288,-86.76473214285716 178.18169642857146,-87.41160714285715 178.76607142857142,-88.03839285714285 179.37232142857144,-88.64464285714286 179.99910714285716,-89.22901785714286 180.64598214285715,-89.79107142857144 181.31205357142858,-90.33080357142858 181.9964285714286,-90.84642857142858 182.6982142857143,-91.33794642857144 183.4169642857143,-91.80491071428573 184.15178571428572,-92.24598214285714 184.90133928571427,-92.66160714285715 185.66517857142858,-93.05089285714286 186.44151785714288,-93.41294642857143 187.23080357142857,-93.74776785714286 188.03080357142858,-94.05491071428571 188.84107142857144,-94.33392857142857 189.66071428571428,-94.58437500000001 190.48839285714288,-94.80625 191.32366071428572,-94.99910714285714 192.16473214285716,-95.1625 193.01116071428575,-95.296875 193.86205357142856,-95.4013392857143 194.71562500000002,-95.47589285714287 195.571875,-95.52053571428573 196.42857142857144,-95.53571428571429 197.28526785714286,-95.52053571428573 198.14151785714287,-95.47589285714287 198.9950892857143,-95.4013392857143 199.84598214285714,-95.296875 200.69241071428573,-95.1625 201.53348214285717,-94.99910714285714 202.36875,-94.80625 203.19642857142858,-94.58437500000001 204.01607142857142,-94.33392857142857 204.82633928571428,-94.05491071428571 205.6263392857143,-93.74776785714286 206.415625,-93.41294642857143 207.1919642857143,-93.05089285714286 207.9558035714286,-92.66160714285715 208.70535714285717,-92.24598214285714 209.4401785714286,-91.80491071428573 210.15892857142856,-91.33794642857144 210.8607142857143,-90.84642857142858 211.54508928571428,-90.33080357142858 212.21116071428574,-89.79107142857144 212.85803571428573,-89.22901785714286 213.48482142857145,-88.64464285714286 214.09107142857144,-88.03839285714285 214.67544642857143,-87.41160714285715 215.2375,-86.76473214285716 215.77723214285714,-86.09866071428571 216.29285714285714,-85.41428571428573 216.784375,-84.7125 217.2513392857143,-83.99374999999999 217.6924107142857,-83.25892857142857 218.10803571428573,-82.509375 218.49732142857144,-81.74553571428572 218.859375,-80.96919642857144 219.19419642857144,-80.17991071428573 219.5013392857143,-79.37991071428573 219.78035714285716,-78.56964285714287 220.0308035714286,-77.75 220.2526785714286,-76.92232142857144 220.44553571428574,-76.08705357142857 220.60892857142858,-75.24598214285714 220.74330357142858,-74.39955357142857 220.84776785714288,-73.54866071428572 220.92232142857142,-72.69508928571429 220.9669642857143,-71.8388392857143 220.98214285714286,-70.98214285714286 218.75,-70.98214285714286 218.7370535714286,-71.73616071428572 218.69910714285717,-72.48883928571429 218.63526785714288,-73.24017857142857 218.54642857142858,-73.98928571428571 218.43214285714288,-74.734375 218.29285714285714,-75.47544642857143 218.12901785714286,-76.21116071428571 217.93973214285717,-76.94107142857143 217.7263392857143,-77.66428571428571 217.48839285714286,-78.37991071428571 217.22678571428574,-79.08705357142857 216.94107142857143,-79.78482142857143 216.63214285714287,-80.47232142857143 216.3,-81.14955357142858 215.9450892857143,-81.81473214285714 215.56830357142857,-82.46785714285716 215.16919642857144,-83.1075892857143 214.74910714285716,-83.73348214285714 214.30803571428572,-84.34508928571428 213.8464285714286,-84.94151785714287 213.36517857142857,-85.521875 212.86428571428573,-86.08526785714285 212.3450892857143,-86.63214285714287 211.80714285714285,-87.16071428571429 211.25223214285714,-87.67053571428572 210.67991071428574,-88.16205357142857 210.0915178571429,-88.63348214285715 209.4875,-89.08482142857144 208.86875,-89.515625 208.2357142857143,-89.925 207.58928571428572,-90.31294642857142 206.92991071428574,-90.67901785714287 206.25892857142858,-91.02232142857143 205.57633928571428,-91.34285714285716 204.88348214285716,-91.64017857142858 204.18080357142858,-91.91428571428573 203.46964285714287,-92.16383928571429 202.75000000000003,-92.38973214285716 202.02366071428574,-92.59107142857142 201.290625,-92.76785714285715 200.55178571428573,-92.91964285714286 199.80848214285717,-93.04598214285714 199.06160714285716,-93.14776785714287 198.31160714285716,-93.22410714285715 197.55892857142857,-93.275 196.80535714285716,-93.30044642857143 196.05178571428573,-93.30044642857143 195.2982142857143,-93.275 194.5455357142857,-93.22410714285715 193.7955357142857,-93.14776785714287 193.04866071428572,-93.04598214285714 192.30535714285716,-92.91964285714286 191.56651785714286,-92.76785714285715 190.83348214285715,-92.59107142857142 190.10714285714286,-92.38973214285716 189.38750000000002,-92.16383928571429 188.67633928571428,-91.91428571428573 187.97366071428573,-91.64017857142858 187.28080357142858,-91.34285714285716 186.5982142857143,-91.02232142857143 185.92723214285715,-90.67901785714287 185.26785714285714,-90.31294642857142 184.6214285714286,-89.925 183.98839285714288,-89.515625 183.36964285714285,-89.08482142857144 182.765625,-88.63348214285715 182.17723214285715,-88.16205357142857 181.60491071428572,-87.67053571428572 181.05,-87.16071428571429 180.51205357142857,-86.63214285714287 179.99285714285716,-86.08526785714285 179.4919642857143,-85.521875 179.0107142857143,-84.94151785714287 178.54910714285714,-84.34508928571428 178.1080357142857,-83.73348214285714 177.68794642857145,-83.1075892857143 177.2888392857143,-82.46785714285716 176.9120535714286,-81.81473214285714 176.55714285714288,-81.14955357142858 176.22500000000002,-80.47232142857143 175.91607142857146,-79.78482142857143 175.63035714285715,-79.08705357142857 175.36875,-78.37991071428571 175.13080357142857,-77.66428571428571 174.91741071428572,-76.94107142857143 174.728125,-76.21116071428571 174.56428571428572,-75.47544642857143 174.425,-74.734375 174.3107142857143,-73.98928571428571 174.221875,-73.24017857142857 174.15803571428572,-72.48883928571429 174.1200892857143,-71.73616071428572 174.10714285714286,-70.98214285714286 171.875,-70.98214285714286"/>
<polygon class="l0d0" points="332.5714285714286,-71.99464285714286 332.51875,-73.00625 332.4303571428572,-74.01517857142858 332.30669642857146,-75.02053571428571 332.14866071428577,-76.02098214285715 331.95535714285717,-77.01517857142858 331.72723214285713,-78.00223214285714 331.46517857142857,-78.98035714285714 331.1691964285714,-79.94910714285716 330.8392857142857,-80.90669642857144 330.47633928571435,-81.85223214285715 330.08035714285717,-82.78482142857143 329.6526785714286,-83.70267857142858 329.1928571428572,-84.60535714285714 328.70178571428573,-85.49107142857143 328.17991071428577,-86.359375 327.628125,-87.20892857142859 327.0473214285715,-88.03839285714285 326.4379464285714,-88.84732142857143 325.80044642857143,-89.634375 325.1357142857143,-90.39866071428571 324.4450892857143,-91.13973214285714 323.7290178571429,-91.85580357142858 322.9879464285715,-92.54642857142858 322.2236607142857,-93.21116071428573 321.43660714285716,-93.84866071428571 320.6276785714286,-94.45803571428573 319.79821428571427,-95.03883928571429 318.9486607142858,-95.590625 318.08035714285717,-96.11250000000001 317.19464285714287,-96.60357142857143 316.2919642857143,-97.06339285714286 315.37410714285716,-97.49107142857143 314.4415178571429,-97.88705357142858 313.49598214285714,-98.25000000000001 312.53839285714287,-98.57991071428572 311.5696428571429,-98.87589285714286 310.5915178571429,-99.13794642857142 309.6044642857143,-99.36607142857144 308.6102678571429,-99.559375 307.6098214285715,-99.71741071428572 306.6044642857143,-99.84107142857144 305.59553571428575,-99.9294642857143 304.5839285714286,-99.98214285714286 303.5714285714286,-100.0 302.55892857142857,-99.98214285714286 301.5473214285714,-99.9294642857143 300.53839285714287,-99.84107142857144 299.5330357142857,-99.71741071428572 298.53258928571427,-99.559375 297.53839285714287,-99.36607142857144 296.5513392857143,-99.13794642857142 295.5732142857143,-98.87589285714286 294.6044642857143,-98.57991071428572 293.646875,-98.25000000000001 292.70133928571425,-97.88705357142858 291.76875,-97.49107142857143 290.85089285714287,-97.06339285714286 289.9482142857143,-96.60357142857143 289.0625,-96.11250000000001 288.19419642857144,-95.590625 287.3446428571429,-95.03883928571429 286.5151785714286,-94.45803571428573 285.70625,-93.84866071428571 284.91919642857147,-93.21116071428573 284.15491071428573,-92.54642857142858 283.4138392857143,-91.85580357142858 282.6977678571429,-91.13973214285714 282.00714285714287,-90.39866071428571 281.34241071428573,-89.634375 280.70491071428575,-88.84732142857143 280.09553571428575,-88.03839285714285 279.51473214285716,-87.20892857142859 278.9629464285714,-86.359375 278.44107142857143,-85.49107142857143 277.95,-84.60535714285714 277.4901785714286,-83.70267857142858 277.0625,-82.78482142857143 276.6665178571428,-81.85223214285715 276.30357142857144,-80.90669642857144 275.97366071428576,-79.94910714285716 275.6776785714286,-78.98035714285714 275.41562500000003,-78.00223214285714 275.1875,-77.01517857142858 274.99419642857146,-76.02098214285715 274.83616071428577,-75.02053571428571 274.71250000000003,-74.01517857142858 274.62410714285716,-73.00625 274.57142857142856,-71.99464285714286 274.55357142857144,-70.98214285714286 272.3214285714286,-70.98214285714286 272.3392857142857,-72.03750000000001 272.39285714285717,-73.09196428571428 272.48169642857147,-74.14375 272.60625000000005,-75.19196428571429 272.7660714285714,-76.23526785714286 272.9611607142857,-77.27276785714287 273.19107142857143,-78.30312500000001 273.4558035714286,-79.325 273.75446428571433,-80.33705357142858 274.08750000000003,-81.3388392857143 274.4540178571429,-82.32901785714286 274.8540178571429,-83.30580357142857 275.2866071428572,-84.26875000000001 275.7513392857143,-85.21651785714286 276.2482142857143,-86.14776785714287 276.7758928571429,-87.06205357142858 277.334375,-87.95803571428573 277.9227678571429,-88.83437500000001 278.54017857142856,-89.69017857142858 279.18616071428573,-90.525 279.86026785714284,-91.3375 280.56116071428573,-92.12678571428572 281.28839285714287,-92.8919642857143 282.04107142857146,-93.63169642857144 282.8183035714286,-94.34598214285715 283.61919642857146,-95.03392857142858 284.4433035714286,-95.69375000000001 285.2888392857143,-96.32589285714286 286.15491071428573,-96.92901785714287 287.0415178571429,-97.50223214285715 287.9464285714286,-98.04553571428572 288.86919642857146,-98.5575892857143 289.8089285714286,-99.03839285714287 290.76473214285716,-99.48750000000001 291.734375,-99.90357142857142 292.7183035714286,-100.28705357142857 293.7142857142857,-100.63660714285714 294.7214285714286,-100.95267857142856 295.73839285714286,-101.234375 296.76473214285716,-101.48169642857142 297.7986607142857,-101.69419642857143 298.8392857142857,-101.87187500000002 299.8852678571429,-102.01383928571428 300.9352678571429,-102.12098214285714 301.98883928571433,-102.19196428571429 303.04375,-102.22767857142858 304.0991071428572,-102.22767857142858 305.15401785714283,-102.19196428571429 306.2075892857143,-102.12098214285714 307.2575892857143,-102.01383928571428 308.30357142857144,-101.87187500000002 309.3441964285715,-101.69419642857143 310.378125,-101.48169642857142 311.4044642857143,-101.234375 312.4214285714286,-100.95267857142856 313.42857142857144,-100.63660714285714 314.4245535714286,-100.28705357142857 315.40848214285717,-99.90357142857142 316.378125,-99.48750000000001 317.3339285714286,-99.03839285714287 318.2736607142857,-98.5575892857143 319.1964285714286,-98.04553571428572 320.10133928571435,-97.50223214285715 320.98794642857143,-96.92901785714287 321.8540178571429,-96.32589285714286 322.69955357142857,-95.69375000000001 323.5236607142857,-95.03392857142858 324.32455357142857,-94.34598214285715 325.1017857142857,-93.63169642857144 325.8544642857143,-92.8919642857143 326.58169642857143,-92.12678571428572 327.2825892857143,-91.3375 327.9566964285715,-90.525 328.6026785714286,-89.69017857142858 329.22008928571427,-88.83437500000001 329.80848214285714,-87.95803571428573 330.36696428571435,-87.06205357142858 330.89464285714286,-86.14776785714287 331.3915178571429,-85.21651785714286 331.85625,-84.26875000000001 332.2888392857143,-83.30580357142857 332.68883928571427,-82.32901785714286 333.05535714285713,-81.3388392857143 333.38839285714283,-80.33705357142858 333.6870535714286,-79.325 333.95178571428573,-78.30312500000001 334.18169642857146,-77.27276785714287 334.37678571428575,-76.23526785714286 334.5366071428571,-75.19196428571429 334.6611607142857,-74.14375 334.75000000000006,-73.09196428571428 334.80357142857144,-72.03750000000001 334.8214285714286,-70.98214285714286 332.5892857142857,-70.98214285714286"/>
<polygon class="l0d0" points="279.03303571428575,-71.8388392857143 279.0776785714286,-72.69508928571429 279.1522321428572,-73.54866071428572 279.25669642857144,-74.39955357142857 279.3910714285714,-75.24598214285714 279.5544642857143,-76.08705357142857 279.74732142857147,-76.92232142857144 279.9691964285714,-77.75 280.2196428571429,-78.56964285714287 280.49866071428573,-79.37991071428573 280.8058035714286,-80.17991071428573 281.140625,-80.96919642857144 281.5026785714286,-81.74553571428572 281.8919642857143,-82.509375 282.3075892857143,-83.25892857142857 282.74866071428573,-83.99374999999999 283.21562500000005,-84.7125 283.70714285714286,-85.41428571428573 284.22276785714286,-86.09866071428571 284.76250000000005,-86.76473214285716 285.32455357142857,-87.41160714285715 285.9089285714286,-88.03839285714285 286.5151785714286,-88.64464285714286 287.14196428571427,-89.22901785714286 287.78883928571435,-89.79107142857144 288.45491071428575,-90.33080357142858 289.13928571428573,-90.84642857142858 289.84107142857147,-91.33794642857144 290.55982142857147,-91.80491071428573 291.2946428571429,-92.24598214285714 292.0441964285714,-92.66160714285715 292.8080357142857,-93.05089285714286 293.584375,-93.41294642857143 294.37366071428573,-93.74776785714286 295.1736607142857,-94.05491071428571 295.9839285714286,-94.33392857142857 296.80357142857144,-94.58437500000001 297.63125,-94.80625 298.4665178571429,-94.99910714285714 299.3075892857143,-95.1625 300.1540178571429,-95.296875 301.0049107142857,-95.4013392857143 301.85848214285716,-95.47589285714287 302.71473214285714,-95.52053571428573 303.5714285714286,-95.53571428571429 304.428125,-95.52053571428573 305.284375,-95.47589285714287 306.13794642857147,-95.4013392857143 306.9888392857143,-95.296875 307.83526785714287,-95.1625 308.6763392857143,-94.99910714285714 309.5116071428572,-94.80625 310.3392857142857,-94.58437500000001 311.1589285714286,-94.33392857142857 311.9691964285715,-94.05491071428571 312.76919642857143,-93.74776785714286 313.55848214285714,-93.41294642857143 314.33482142857144,-93.05089285714286 315.09866071428576,-92.66160714285715 315.8482142857143,-92.24598214285714 316.5830357142857,-91.80491071428573 317.3017857142857,-91.33794642857144 318.00357142857143,-90.84642857142858 318.6879464285714,-90.33080357142858 319.3540178571429,-89.79107142857144 320.0008928571429,-89.22901785714286 320.6276785714286,-88.64464285714286 321.2339285714286,-88.03839285714285 321.8183035714286,-87.41160714285715 322.3803571428571,-86.76473214285716 322.9200892857143,-86.09866071428571 323.4357142857143,-85.41428571428573 323.9272321428572,-84.7125 324.39419642857143,-83.99374999999999 324.83526785714287,-83.25892857142857 325.2508928571429,-82.509375 325.6401785714286,-81.74553571428572 326.00223214285717,-80.96919642857144 326.3370535714286,-80.17991071428573 326.64419642857143,-79.37991071428573 326.9232142857143,-78.56964285714287 327.17366071428575,-77.75 327.3955357142857,-76.92232142857144 327.5883928571429,-76.08705357142857 327.75178571428575,-75.24598214285714 327.8861607142857,-74.39955357142857 327.990625,-73.54866071428572 328.0651785714286,-72.69508928571429 328.1098214285714,-71.8388392857143 328.125,-70.98214285714286 325.89285714285717,-70.98214285714286 325.87991071428576,-71.73616071428572 325.8419642857143,-72.48883928571429 325.77812500000005,-73.24017857142857 325.68928571428575,-73.98928571428571 325.57500000000005,-74.734375 325.4357142857143,-75.47544642857143 325.271875,-76.21116071428571 325.0825892857143,-76.94107142857143 324.86919642857146,-77.66428571428571 324.63125,-78.37991071428571 324.3696428571429,-79.08705357142857 324.0839285714286,-79.78482142857143 323.775,-80.47232142857143 323.4428571428571,-81.14955357142858 323.08794642857146,-81.81473214285714 322.71116071428577,-82.46785714285716 322.31205357142863,-83.1075892857143 321.8919642857143,-83.73348214285714 321.45089285714283,-84.34508928571428 320.9892857142857,-84.94151785714287 320.5080357142857,-85.521875 320.00714285714287,-86.08526785714285 319.48794642857143,-86.63214285714287 318.95,-87.16071428571429 318.39508928571433,-87.67053571428572 317.8227678571429,-88.16205357142857 317.234375,-88.63348214285715 316.6303571428571,-89.08482142857144 316.01160714285714,-89.515625 315.37857142857143,-89.925 314.7321428571429,-90.31294642857142 314.0727678571429,-90.67901785714287 313.4017857142857,-91.02232142857143 312.7191964285714,-91.34285714285716 312.0263392857143,-91.64017857142858 311.3236607142857,-91.91428571428573 310.6125,-92.16383928571429 309.89285714285717,-92.38973214285716 309.1665178571429,-92.59107142857142 308.43348214285714,-92.76785714285715 307.69464285714287,-92.91964285714286 306.9513392857143,-93.04598214285714 306.2044642857143,-93.14776785714287 305.45446428571427,-93.22410714285715 304.70178571428573,-93.275 303.9482142857143,-93.30044642857143 303.19464285714287,-93.30044642857143 302.44107142857143,-93.275 301.6883928571429,-93.22410714285715 300.93839285714284,-93.14776785714287 300.19151785714286,-93.04598214285714 299.4482142857143,-92.91964285714286 298.709375,-92.76785714285715 297.9763392857143,-92.59107142857142 297.25000000000006,-92.38973214285716 296.53035714285716,-92.16383928571429 295.81919642857144,-91.91428571428573 295.11651785714287,-91.64017857142858 294.42366071428575,-91.34285714285716 293.74107142857144,-91.02232142857143 293.0700892857143,-90.67901785714287 292.4107142857143,-90.31294642857142 291.76428571428573,-89.925 291.13125,-89.515625 290.51250000000005,-89.08482142857144 289.90848214285717,-88.63348214285715 289.3200892857143,-88.16205357142857 288.74776785714283,-87.67053571428572 288.1928571428572,-87.16071428571429 287.65491071428573,-86.63214285714287 287.1357142857143,-86.08526785714285 286.63482142857146,-85.521875 286.15357142857147,-84.94151785714287 285.69196428571433,-84.34508928571428 285.25089285714284,-83.73348214285714 284.8308035714286,-83.1075892857143 284.4316964285714,-82.46785714285716 284.0549107142857,-81.81473214285714 283.70000000000005,-81.14955357142858 283.3678571428572,-80.47232142857143 283.0589285714286,-79.78482142857143 282.7732142857143,-79.08705357142857 282.51160714285714,-78.37991071428571 282.2736607142857,-77.66428571428571 282.0602678571429,-76.94107142857143 281.87098214285714,-76.21116071428571 281.70714285714286,-75.47544642857143 281.5678571428572,-74.734375 281.4535714285715,-73.98928571428571 281.3647321428571,-73.24017857142857 281.3008928571429,-72.48883928571429 281.26294642857147,-71.73616071428572 281.25,-70.98214285714286 279.01785714285717,-70.98214285714286"/>
<polygon class="l0d0" points="388.37500000000006,72.03750000000001 388.3214285714286,73.09196428571428 388.2325892857143,74.14375 388.10803571428573,75.19196428571429 387.9482142857143,76.23526785714286 387.753125,77.27276785714287 387.5232142857143,78.30312500000001 387.25848214285713,79.325 386.95982142857144,80.33705357142858 386.62678571428575,81.3388392857143 386.2602678571429,82.32901785714286 385.8602678571429,83.30580357142857 385.42767857142854,84.26875000000001 384.96294642857146,85.21651785714286 384.4660714285714,86.14776785714287 383.9383928571429,87.06205357142858 383.3799107142857,87.95803571428573 382.7915178571429,88.83437500000001 382.17410714285717,89.69017857142858 381.52812500000005,90.525 380.8540178571429,91.3375 380.15312500000005,92.12678571428572 379.42589285714286,92.8919642857143 378.67321428571427,93.63169642857144 377.8959821428571,94.34598214285715 377.0950892857143,95.03392857142858 376.2709821428572,95.69375000000001 375.42544642857143,96.32589285714286 374.55937500000005,96.92901785714287 373.6727678571429,97.50223214285715 372.76785714285717,98.04553571428572 371.8450892857143,98.5575892857143 370.90535714285716,99.03839285714287 369.9495535714286,99.48750000000001 368.9799107142857,99.90357142857142 367.9959821428572,100.28705357142857 367.00000000000006,100.63660714285714 365.99285714285713,100.95267857142856 364.9758928571429,101.234375 363.94955357142857,101.48169642857142 362.91562500000003,101.69419642857143 361.87500000000006,101.87187500000002 360.82901785714284,102.01383928571428 359.7790178571429,102.12098214285714 358.72544642857144,102.19196428571429 357.67053571428573,102.22767857142858 356.6151785714286,102.22767857142858 355.5602678571429,102.19196428571429 354.50669642857144,102.12098214285714 353.4566964285715,102.01383928571428 352.4107142857143,101.87187500000002 351.3700892857143,101.69419642857143 350.33616071428577,101.48169642857142 349.3098214285714,101.234375 348.2928571428572,100.95267857142856 347.2857142857143,100.63660714285714 346.28973214285713,100.28705357142857 345.3058035714286,99.90357142857142 344.3361607142857,99.48750000000001 343.3803571428572,99.03839285714287 342.440625,98.5575892857143 341.51785714285717,98.04553571428572 340.61294642857143,97.50223214285715 339.7263392857143,96.92901785714287 338.8602678571429,96.32589285714286 338.01473214285716,95.69375000000001 337.190625,95.03392857142858 336.38973214285716,94.34598214285715 335.6125,93.63169642857144 334.8598214285715,92.8919642857143 334.1325892857143,92.12678571428572 333.4316964285714,91.3375 332.7575892857143,90.525 332.1116071428571,89.69017857142858 331.49419642857146,88.83437500000001 330.90580357142863,87.95803571428573 330.34732142857143,87.06205357142858 329.8196428571429,86.14776785714287 329.3227678571429,85.21651785714286 328.85803571428573,84.26875000000001 328.42544642857143,83.30580357142857 328.02544642857146,82.32901785714286 327.6589285714286,81.3388392857143 327.3258928571429,80.33705357142858 327.0272321428572,79.325 326.7625,78.30312500000001 326.5325892857143,77.27276785714287 326.33750000000003,76.23526785714286 326.1776785714286,75.19196428571429 326.053125,74.14375 325.9642857142857,73.09196428571428 325.9107142857143,72.03750000000001 325.89285714285717,70.98214285714286 328.125,70.98214285714286 328.14285714285717,71.99464285714286 328.1955357142857,73.00625 328.2839285714286,74.01517857142858 328.4075892857143,75.02053571428571 328.565625,76.02098214285715 328.75892857142856,77.01517857142858 328.9870535714286,78.00223214285714 329.24910714285716,78.98035714285714 329.5450892857143,79.94910714285716 329.875,80.90669642857144 330.23794642857143,81.85223214285715 330.6339285714286,82.78482142857143 331.06160714285716,83.70267857142858 331.52142857142854,84.60535714285714 332.0125,85.49107142857143 332.534375,86.359375 333.08616071428577,87.20892857142859 333.6669642857143,88.03839285714285 334.2763392857143,88.84732142857143 334.9138392857143,89.634375 335.5785714285715,90.39866071428571 336.2691964285715,91.13973214285714 336.98526785714284,91.85580357142858 337.7263392857143,92.54642857142858 338.490625,93.21116071428573 339.27767857142857,93.84866071428571 340.08660714285713,94.45803571428573 340.91607142857146,95.03883928571429 341.765625,95.590625 342.6339285714286,96.11250000000001 343.5196428571429,96.60357142857143 344.4223214285714,97.06339285714286 345.3401785714286,97.49107142857143 346.27276785714287,97.88705357142858 347.2183035714286,98.25000000000001 348.17589285714286,98.57991071428572 349.14464285714286,98.87589285714286 350.1227678571429,99.13794642857142 351.1098214285714,99.36607142857144 352.1040178571429,99.559375 353.1044642857143,99.71741071428572 354.1098214285715,99.84107142857144 355.11875000000003,99.9294642857143 356.1303571428571,99.98214285714286 357.14285714285717,100.0 358.15535714285716,99.98214285714286 359.1669642857143,99.9294642857143 360.17589285714286,99.84107142857144 361.18125000000003,99.71741071428572 362.18169642857146,99.559375 363.17589285714286,99.36607142857144 364.16294642857144,99.13794642857142 365.1410714285715,98.87589285714286 366.1098214285715,98.57991071428572 367.06741071428576,98.25000000000001 368.01294642857147,97.88705357142858 368.9455357142857,97.49107142857143 369.8633928571429,97.06339285714286 370.7660714285714,96.60357142857143 371.6517857142857,96.11250000000001 372.52008928571433,95.590625 373.3696428571429,95.03883928571429 374.19910714285714,94.45803571428573 375.00803571428577,93.84866071428571 375.79508928571425,93.21116071428573 376.55937500000005,92.54642857142858 377.30044642857143,91.85580357142858 378.01651785714284,91.13973214285714 378.70714285714286,90.39866071428571 379.37187500000005,89.634375 380.00937500000003,88.84732142857143 380.61875000000003,88.03839285714285 381.19955357142857,87.20892857142859 381.7513392857143,86.359375 382.27321428571435,85.49107142857143 382.76428571428573,84.60535714285714 383.2241071428572,83.70267857142858 383.6517857142857,82.78482142857143 384.0477678571429,81.85223214285715 384.41071428571433,80.90669642857144 384.740625,79.94910714285716 385.0366071428572,78.98035714285714 385.29866071428575,78.00223214285714 385.5267857142858,77.01517857142858 385.7200892857143,76.02098214285715 385.878125,75.02053571428571 386.00178571428575,74.01517857142858 386.09017857142857,73.00625 386.14285714285717,71.99464285714286 386.16071428571433,70.98214285714286 388.39285714285717,70.98214285714286"/>
<polygon class="l0d0" points="281.2321428571429,72.03750000000001 281.17857142857144,73.09196428571428 281.08973214285714,74.14375 280.96517857142857,75.19196428571429 280.8053571428572,76.23526785714286 280.6102678571429,77.27276785714287 280.3803571428572,78.30312500000001 280.11562499999997,79.325 279.8169642857143,80.33705357142858 279.4839285714286,81.3388392857143 279.1174107142857,82.32901785714286 278.71741071428573,83.30580357142857 278.28482142857143,84.26875000000001 277.8200892857143,85.21651785714286 277.3232142857143,86.14776785714287 276.79553571428573,87.06205357142858 276.2370535714286,87.95803571428573 275.6486607142857,88.83437500000001 275.03125000000006,89.69017857142858 274.3852678571429,90.525 273.71116071428577,91.3375 273.0102678571429,92.12678571428572 272.28303571428575,92.8919642857143 271.53035714285716,93.63169642857144 270.753125,94.34598214285715 269.95223214285716,95.03392857142858 269.128125,95.69375000000001 268.28258928571427,96.32589285714286 267.4165178571429,96.92901785714287 266.52991071428573,97.50223214285715 265.625,98.04553571428572 264.70223214285716,98.5575892857143 263.7625,99.03839285714287 262.80669642857146,99.48750000000001 261.83705357142856,99.90357142857142 260.85312500000003,100.28705357142857 259.8571428571429,100.63660714285714 258.84999999999997,100.95267857142856 257.83303571428576,101.234375 256.8066964285714,101.48169642857142 255.7727678571429,101.69419642857143 254.7321428571429,101.87187500000002 253.6861607142857,102.01383928571428 252.63616071428572,102.12098214285714 251.58258928571428,102.19196428571429 250.5276785714286,102.22767857142858 249.47232142857143,102.22767857142858 248.41741071428575,102.19196428571429 247.3638392857143,102.12098214285714 246.31383928571432,102.01383928571428 245.26785714285714,101.87187500000002 244.22723214285713,101.69419642857143 243.1933035714286,101.48169642857142 242.16696428571427,101.234375 241.15000000000003,100.95267857142856 240.14285714285714,100.63660714285714 239.146875,100.28705357142857 238.16294642857144,99.90357142857142 237.19330357142857,99.48750000000001 236.2375,99.03839285714287 235.29776785714287,98.5575892857143 234.375,98.04553571428572 233.47008928571427,97.50223214285715 232.58348214285715,96.92901785714287 231.71741071428573,96.32589285714286 230.87187500000002,95.69375000000001 230.04776785714287,95.03392857142858 229.24687500000002,94.34598214285715 228.46964285714287,93.63169642857144 227.7169642857143,92.8919642857143 226.98973214285715,92.12678571428572 226.2888392857143,91.3375 225.61473214285715,90.525 224.96875000000003,89.69017857142858 224.35133928571432,88.83437500000001 223.76294642857144,87.95803571428573 223.2044642857143,87.06205357142858 222.67678571428573,86.14776785714287 222.1799107142857,85.21651785714286 221.7151785714286,84.26875000000001 221.2825892857143,83.30580357142857 220.8825892857143,82.32901785714286 220.51607142857145,81.3388392857143 220.18303571428572,80.33705357142858 219.884375,79.325 219.61964285714285,78.30312500000001 219.38973214285716,77.27276785714287 219.19464285714287,76.23526785714286 219.03482142857143,75.19196428571429 218.91026785714286,74.14375 218.82142857142858,73.09196428571428 218.76785714285717,72.03750000000001 218.75,70.98214285714286 220.98214285714286,70.98214285714286 221.00000000000003,71.99464285714286 221.0526785714286,73.00625 221.14107142857145,74.01517857142858 221.26473214285716,75.02053571428571 221.42276785714287,76.02098214285715 221.61607142857144,77.01517857142858 221.84419642857142,78.00223214285714 222.10625,78.98035714285714 222.40223214285714,79.94910714285716 222.7321428571429,80.90669642857144 223.0950892857143,81.85223214285715 223.49107142857144,82.78482142857143 223.91875,83.70267857142858 224.37857142857143,84.60535714285714 224.86964285714288,85.49107142857143 225.39151785714287,86.359375 225.94330357142857,87.20892857142859 226.52410714285716,88.03839285714285 227.13348214285716,88.84732142857143 227.77098214285715,89.634375 228.4357142857143,90.39866071428571 229.12633928571432,91.13973214285714 229.8424107142857,91.85580357142858 230.58348214285712,92.54642857142858 231.34776785714288,93.21116071428573 232.13482142857143,93.84866071428571 232.94375,94.45803571428573 233.77321428571432,95.03883928571429 234.62276785714286,95.590625 235.49107142857144,96.11250000000001 236.37678571428575,96.60357142857143 237.27946428571428,97.06339285714286 238.19732142857146,97.49107142857143 239.1299107142857,97.88705357142858 240.07544642857144,98.25000000000001 241.03303571428572,98.57991071428572 242.00178571428572,98.87589285714286 242.97991071428572,99.13794642857142 243.96696428571428,99.36607142857144 244.9611607142857,99.559375 245.96160714285713,99.71741071428572 246.9669642857143,99.84107142857144 247.97589285714287,99.9294642857143 248.9875,99.98214285714286 250.0,100.0 251.01250000000002,99.98214285714286 252.02410714285716,99.9294642857143 253.03303571428572,99.84107142857144 254.0383928571429,99.71741071428572 255.03883928571432,99.559375 256.03303571428575,99.36607142857144 257.02008928571433,99.13794642857142 257.9982142857143,98.87589285714286 258.9669642857143,98.57991071428572 259.9245535714286,98.25000000000001 260.8700892857143,97.88705357142858 261.8026785714286,97.49107142857143 262.72053571428575,97.06339285714286 263.62321428571425,96.60357142857143 264.5089285714286,96.11250000000001 265.37723214285717,95.590625 266.2267857142857,95.03883928571429 267.05625000000003,94.45803571428573 267.8651785714286,93.84866071428571 268.65223214285714,93.21116071428573 269.4165178571429,92.54642857142858 270.1575892857143,91.85580357142858 270.87366071428573,91.13973214285714 271.56428571428575,90.39866071428571 272.2290178571429,89.634375 272.86651785714287,88.84732142857143 273.47589285714287,88.03839285714285 274.0566964285714,87.20892857142859 274.60848214285716,86.359375 275.1303571428572,85.49107142857143 275.6214285714286,84.60535714285714 276.08125,83.70267857142858 276.5089285714286,82.78482142857143 276.90491071428573,81.85223214285715 277.26785714285717,80.90669642857144 277.59776785714286,79.94910714285716 277.89375,78.98035714285714 278.1558035714286,78.00223214285714 278.3839285714286,77.01517857142858 278.57723214285716,76.02098214285715 278.73526785714284,75.02053571428571 278.8589285714286,74.01517857142858 278.94732142857146,73.00625 279.00000000000006,71.99464285714286 279.01785714285717,70.98214285714286 281.25,70.98214285714286"/>
<polygon class="l0d0" points="174.08928571428572,72.03750000000001 174.03571428571428,73.09196428571428 173.946875,74.14375 173.82232142857146,75.19196428571429 173.66250000000002,76.23526785714286 173.46741071428573,77.27276785714287 173.2375,78.30312500000001 172.97276785714286,79.325 172.67410714285717,80.33705357142858 172.34107142857144,81.3388392857143 171.9745535714286,82.32901785714286 171.57455357142857,83.30580357142857 171.1419642857143,84.26875000000001 170.67723214285715,85.21651785714286 170.18035714285716,86.14776785714287 169.65267857142857,87.06205357142858 169.09419642857145,87.95803571428573 168.50580357142857,88.83437500000001 167.88839285714286,89.69017857142858 167.2424107142857,90.525 166.56830357142857,91.3375 165.86741071428574,92.12678571428572 165.14017857142858,92.8919642857143 164.38750000000002,93.63169642857144 163.61026785714287,94.34598214285715 162.809375,95.03392857142858 161.98526785714284,95.69375000000001 161.13973214285713,96.32589285714286 160.2736607142857,96.92901785714287 159.38705357142857,97.50223214285715 158.48214285714286,98.04553571428572 157.55937500000002,98.5575892857143 156.61964285714285,99.03839285714287 155.6638392857143,99.48750000000001 154.69419642857144,99.90357142857142 153.71026785714287,100.28705357142857 152.71428571428572,100.63660714285714 151.70714285714288,100.95267857142856 150.6901785714286,101.234375 149.6638392857143,101.48169642857142 148.62991071428573,101.69419642857143 147.58928571428572,101.87187500000002 146.5433035714286,102.01383928571428 145.49330357142856,102.12098214285714 144.43973214285717,102.19196428571429 143.38482142857146,102.22767857142858 142.3294642857143,102.22767857142858 141.27455357142858,102.19196428571429 140.22098214285717,102.12098214285714 139.17098214285716,102.01383928571428 138.125,101.87187500000002 137.08437500000002,101.69419642857143 136.05044642857143,101.48169642857142 135.02410714285716,101.234375 134.00714285714287,100.95267857142856 133.0,100.63660714285714 132.00401785714288,100.28705357142857 131.0200892857143,99.90357142857142 130.05044642857143,99.48750000000001 129.09464285714287,99.03839285714287 128.15491071428573,98.5575892857143 127.23214285714286,98.04553571428572 126.32723214285716,97.50223214285715 125.44062500000001,96.92901785714287 124.5745535714286,96.32589285714286 123.72901785714288,95.69375000000001 122.90491071428573,95.03392857142858 122.10401785714285,94.34598214285715 121.32678571428572,93.63169642857144 120.57410714285716,92.8919642857143 119.846875,92.12678571428572 119.14598214285715,91.3375 118.47187500000001,90.525 117.82589285714286,89.69017857142858 117.20848214285716,88.83437500000001 116.62008928571429,87.95803571428573 116.06160714285716,87.06205357142858 115.53392857142858,86.14776785714287 115.03705357142857,85.21651785714286 114.57232142857143,84.26875000000001 114.13973214285716,83.30580357142857 113.73973214285714,82.32901785714286 113.37321428571428,81.3388392857143 113.04017857142858,80.33705357142858 112.74151785714287,79.325 112.47678571428573,78.30312500000001 112.246875,77.27276785714287 112.05178571428573,76.23526785714286 111.8919642857143,75.19196428571429 111.76741071428573,74.14375 111.67857142857143,73.09196428571428 111.625,72.03750000000001 111.60714285714286,70.98214285714286 113.83928571428572,70.98214285714286 113.85714285714286,71.99464285714286 113.90982142857143,73.00625 113.99821428571428,74.01517857142858 114.12187500000002,75.02053571428571 114.27991071428572,76.02098214285715 114.4732142857143,77.01517857142858 114.70133928571428,78.00223214285714 114.96339285714285,78.98035714285714 115.259375,79.94910714285716 115.58928571428572,80.90669642857144 115.95223214285716,81.85223214285715 116.34821428571429,82.78482142857143 116.77589285714285,83.70267857142858 117.2357142857143,84.60535714285714 117.72678571428574,85.49107142857143 118.24866071428572,86.359375 118.80044642857143,87.20892857142859 119.38125,88.03839285714285 119.99062500000001,88.84732142857143 120.628125,89.634375 121.29285714285716,90.39866071428571 121.98348214285714,91.13973214285714 122.69955357142857,91.85580357142858 123.44062500000001,92.54642857142858 124.20491071428572,93.21116071428573 124.9919642857143,93.84866071428571 125.80089285714286,94.45803571428573 126.63035714285715,95.03883928571429 127.47991071428572,95.590625 128.3482142857143,96.11250000000001 129.23392857142858,96.60357142857143 130.13660714285714,97.06339285714286 131.0544642857143,97.49107142857143 131.9870535714286,97.88705357142858 132.9325892857143,98.25000000000001 133.89017857142858,98.57991071428572 134.85892857142858,98.87589285714286 135.83705357142856,99.13794642857142 136.82410714285714,99.36607142857144 137.8183035714286,99.559375 138.81875000000002,99.71741071428572 139.82410714285714,99.84107142857144 140.83303571428573,99.9294642857143 141.84464285714287,99.98214285714286 142.85714285714286,100.0 143.86964285714285,99.98214285714286 144.88125,99.9294642857143 145.89017857142858,99.84107142857144 146.89553571428573,99.71741071428572 147.89598214285715,99.559375 148.89017857142858,99.36607142857144 149.87723214285717,99.13794642857142 150.85535714285714,98.87589285714286 151.82410714285714,98.57991071428572 152.78169642857142,98.25000000000001 153.72723214285713,97.88705357142858 154.65982142857143,97.49107142857143 155.5776785714286,97.06339285714286 156.48035714285717,96.60357142857143 157.36607142857144,96.11250000000001 158.234375,95.590625 159.08392857142857,95.03883928571429 159.91339285714287,94.45803571428573 160.72232142857143,93.84866071428571 161.509375,93.21116071428573 162.2736607142857,92.54642857142858 163.01473214285716,91.85580357142858 163.7308035714286,91.13973214285714 164.42142857142858,90.39866071428571 165.08616071428574,89.634375 165.72366071428573,88.84732142857143 166.33303571428573,88.03839285714285 166.9138392857143,87.20892857142859 167.46562500000002,86.359375 167.98749999999998,85.49107142857143 168.47857142857143,84.60535714285714 168.93839285714287,83.70267857142858 169.36607142857144,82.78482142857143 169.76205357142857,81.85223214285715 170.125,80.90669642857144 170.45491071428572,79.94910714285716 170.75089285714287,78.98035714285714 171.01294642857144,78.00223214285714 171.24107142857142,77.01517857142858 171.434375,76.02098214285715 171.59241071428573,75.02053571428571 171.71607142857144,74.01517857142858 171.8044642857143,73.00625 171.85714285714286,71.99464285714286 171.875,70.98214285714286 174.10714285714286,70.98214285714286"/>
<polygon class="l0d0" points="379.4642857142857,70.98214285714286 379.4642857142857,26.78571428571429 381.6964285714286,26.78571428571429 381.6964285714286,70.98214285714286"/>
<polygon class="l0d0" points="325.89285714285717,70.98214285714286 325.89285714285717,26.78571428571429 328.125,26.78571428571429 328.125,70.98214285714286"/>
<polygon class="l0d0" points="272.3214285714286,70.98214285714286 272.3214285714286,26.78571428571429 274.55357142857144,26.78571428571429 274.55357142857144,70.98214285714286"/>
<polygon class="l0d0" points="218.75,70.98214285714286 218.75,26.78571428571429 220.98214285714286,26.78571428571429 220.98214285714286,70.98214285714286"/>
<polygon class="l0d0" points="165.17857142857144,70.98214285714286 165.17857142857144,26.78571428571429 167.4107142857143,26.78571428571429 167.4107142857143,70.98214285714286"/>
<polygon class="l0d0" points="111.60714285714286,70.98214285714286 111.60714285714286,26.78571428571429 113.83928571428572,26.78571428571429 113.83928571428572,70.98214285714286"/>
<polygon class="l0d0" points="409.70178571428573,-2.2142857142857144 408.6901785714286,-2.1616071428571426 407.68125000000003,-2.0732142857142857 406.67589285714286,-1.9495535714285714 405.67544642857143,-1.7915178571428572 404.68125000000003,-1.5982142857142858 403.69419642857144,-1.3700892857142857 402.7160714285714,-1.1080357142857145 401.74732142857147,-0.8120535714285715 400.7897321428572,-0.4821428571428572 399.8441964285714,-0.11919642857142858 398.9116071428572,0.2767857142857143 397.99375000000003,0.7044642857142858 397.09107142857147,1.1642857142857144 396.20535714285717,1.655357142857143 395.33705357142856,2.177232142857143 394.48750000000007,2.7290178571428574 393.65803571428575,3.3098214285714285 392.8491071428572,3.919196428571429 392.06205357142863,4.5566964285714295 391.29776785714284,5.2214285714285715 390.55669642857146,5.912053571428572 389.84062500000005,6.628125 389.15000000000003,7.3691964285714295 388.4852678571429,8.133482142857144 387.84776785714286,8.920535714285714 387.23839285714286,9.729464285714286 386.6575892857143,10.558928571428572 386.10580357142857,11.408482142857144 385.5839285714286,12.276785714285715 385.09285714285716,13.162500000000001 384.6330357142857,14.065178571428572 384.20535714285717,14.983035714285714 383.809375,15.915625000000002 383.44642857142856,16.861160714285713 383.1165178571429,17.81875 382.82053571428577,18.7875 382.5584821428572,19.765625 382.33035714285717,20.75267857142857 382.13705357142857,21.746875000000003 381.9790178571429,22.74732142857143 381.85535714285714,23.752678571428575 381.7669642857143,24.761607142857144 381.7142857142857,25.773214285714285 381.6964285714286,26.78571428571429 379.4642857142857,26.78571428571429 379.4825892857143,25.71875 379.5370535714286,24.653125 379.628125,23.590178571428574 379.7553571428572,22.530357142857145 379.91875000000005,21.47589285714286 380.1178571428572,20.427678571428572 380.3526785714286,19.386607142857144 380.6232142857143,18.354464285714286 380.92857142857144,17.332142857142856 381.26875,16.320535714285715 381.6433035714286,15.321428571428573 382.0513392857143,14.335714285714287 382.49330357142856,13.364285714285716 382.96785714285716,12.408482142857144 383.475,11.469642857142858 384.0138392857143,10.548660714285715 384.5834821428572,9.646428571428572 385.1839285714286,8.764285714285716 385.81428571428575,7.903125 386.47321428571433,7.064285714285715 387.16071428571433,6.248214285714286 387.8754464285715,5.4558035714285715 388.61741071428577,4.688839285714286 389.38437500000003,3.946875 390.1767857142857,3.232142857142857 390.99285714285713,2.544642857142857 391.83169642857143,1.885714285714286 392.6928571428571,1.2553571428571428 393.575,0.6549107142857143 394.4772321428572,0.08526785714285715 395.3982142857143,-0.4535714285714286 396.33705357142856,-0.9607142857142859 397.2928571428572,-1.4352678571428572 398.26428571428573,-1.877232142857143 399.25000000000006,-2.2852678571428573 400.24910714285716,-2.659821428571429 401.2607142857143,-3.0 402.28303571428575,-3.305357142857143 403.3151785714286,-3.575892857142857 404.35625000000005,-3.810714285714286 405.4044642857143,-4.009821428571429 406.4589285714286,-4.173214285714287 407.51875,-4.300446428571428 408.58169642857143,-4.3915178571428575 409.64732142857144,-4.445982142857143 410.7142857142857,-4.464285714285714 410.7142857142857,-2.232142857142857"/>
<polygon class="l0d0" points="500.0,-4.464285714285714 500.0,-2.232142857142857 410.7142857142857,-2.232142857142857 410.7142857142857,-4.464285714285714"/>
<polygon class="l0d0" points="91.41830357142857,-4.3915178571428575 92.48125,-4.300446428571428 93.54107142857144,-4.173214285714287 94.59553571428572,-4.009821428571429 95.64375,-3.810714285714286 96.68482142857144,-3.575892857142857 97.71696428571428,-3.305357142857143 98.73928571428571,-3.0 99.75089285714287,-2.659821428571429 100.75000000000001,-2.2852678571428573 101.7357142857143,-1.877232142857143 102.70714285714286,-1.4352678571428572 103.66294642857144,-0.9607142857142859 104.60178571428571,-0.4535714285714286 105.52276785714287,0.08526785714285715 106.425,0.6549107142857143 107.30714285714286,1.2553571428571428 108.16830357142858,1.885714285714286 109.00714285714285,2.544642857142857 109.82321428571429,3.232142857142857 110.61562500000001,3.946875 111.3825892857143,4.688839285714286 112.12455357142858,5.4558035714285715 112.83928571428572,6.248214285714286 113.52678571428572,7.064285714285715 114.1857142857143,7.903125 114.81607142857143,8.764285714285716 115.41651785714286,9.646428571428572 115.98616071428573,10.548660714285715 116.52500000000002,11.469642857142858 117.03214285714286,12.408482142857144 117.50669642857143,13.364285714285716 117.94866071428571,14.335714285714287 118.35669642857145,15.321428571428573 118.73125000000002,16.320535714285715 119.07142857142858,17.332142857142856 119.37678571428572,18.354464285714286 119.64732142857143,19.386607142857144 119.88214285714287,20.427678571428572 120.08125000000003,21.47589285714286 120.24464285714286,22.530357142857145 120.371875,23.590178571428574 120.46294642857143,24.653125 120.51741071428572,25.71875 120.53571428571429,26.78571428571429 118.30357142857143,26.78571428571429 118.28571428571428,25.773214285714285 118.23303571428572,24.761607142857144 118.14464285714287,23.752678571428575 118.02098214285716,22.74732142857143 117.86294642857142,21.746875000000003 117.66964285714286,20.75267857142857 117.44151785714287,19.765625 117.1794642857143,18.7875 116.88348214285716,17.81875 116.55357142857143,16.861160714285713 116.19062500000001,15.915625000000002 115.79464285714286,14.983035714285714 115.3669642857143,14.065178571428572 114.90714285714286,13.162500000000001 114.41607142857143,12.276785714285715 113.89419642857143,11.408482142857144 113.34241071428572,10.558928571428572 112.76160714285716,9.729464285714286 112.15223214285714,8.920535714285714 111.51473214285716,8.133482142857144 110.85000000000001,7.3691964285714295 110.15937500000001,6.628125 109.44330357142857,5.912053571428572 108.70223214285714,5.2214285714285715 107.93794642857144,4.5566964285714295 107.15089285714286,3.919196428571429 106.34196428571428,3.3098214285714285 105.51250000000002,2.7290178571428574 104.66294642857143,2.177232142857143 103.79464285714286,1.655357142857143 102.90892857142858,1.1642857142857144 102.00625000000001,0.7044642857142858 101.08839285714286,0.2767857142857143 100.15580357142858,-0.11919642857142858 99.21026785714287,-0.4821428571428572 98.25267857142859,-0.8120535714285715 97.28392857142858,-1.1080357142857145 96.30580357142857,-1.3700892857142857 95.31875000000001,-1.5982142857142858 94.32455357142858,-1.7915178571428572 93.32410714285714,-1.9495535714285714 92.31875000000001,-2.0732142857142857 91.30982142857142,-2.1616071428571426 90.2982142857143,-2.2142857142857144 89.28571428571429,-2.232142857142857 0.0,-2.232142857142857 0.0,-4.464285714285714 89.28571428571429,-4.464285714285714 90.35267857142857,-4.445982142857143"/>
<polygon class="l0d0" points="325.89285714285717,26.78571428571429 325.89285714285717,0.0 328.125,0.0 328.125,26.78571428571429"/>
<polygon class="l0d0" points="272.3214285714286,26.78571428571429 272.3214285714286,0.0 274.55357142857144,0.0 274.55357142857144,26.78571428571429"/>
<polygon class="l0d0" points="218.75,26.78571428571429 218.75,0.0 220.98214285714286,0.0 220.98214285714286,26.78571428571429"/>
<polygon class="l0d0" points="165.17857142857144,26.78571428571429 165.17857142857144,0.0 167.4107142857143,0.0 167.4107142857143,26.78571428571429"/>
<polygon class="l0d0" points="325.89285714285717,0.0 325.89285714285717,-26.78571428571429 328.125,-26.78571428571429 328.125,0.0"/>
<polygon class="l0d0" points="272.3214285714286,0.0 272.3214285714286,-26.78571428571429 274.55357142857144,-26.78571428571429 274.55357142857144,0.0"/>
<polygon class="l0d0" points="218.75,0.0 218.75,-26.78571428571429 220.98214285714286,-26.78571428571429 220.98214285714286,0.0"/>
<polygon class="l0d0" points="165.17857142857144,0.0 165.17857142857144,-26.78571428571429 167.4107142857143,-26.78571428571429 167.4107142857143,0.0"/>
<polygon class="l0d0" points="325.89285714285717,-26.78571428571429 325.89285714285717,-70.98214285714286 328.125,-70.98214285714286 328.125,-26.78571428571429"/>
<polygon class="l0d0" points="272.3214285714286,-26.78571428571429 272.3214285714286,-70.98214285714286 274.55357142857144,-70.98214285714286 274.55357142857144,-26.78571428571429"/>
<polygon class="l0d0" points="218.75,-26.78571428571429 218.75,-70.98214285714286 220.98214285714286,-70.98214285714286 220.98214285714286,-26.78571428571429"/>
<polygon class="l0d0" points="165.17857142857144,-26.78571428571429 165.17857142857144,-70.98214285714286 167.4107142857143,-70.98214285714286 167.4107142857143,-26.78571428571429"/>
</g>
</svg>