<svg xmlns="http://www.w3.org/2000/svg" xmlns:xlink="http://www.w3.org/1999/xlink" width="550.0" height="252.33463035019457" viewBox="-525.0 -223.443579766537 550.0 252.33463035019457">
<defs>
<style type="text/css">
.l3d0 {stroke: rgb(255, 255, 64); fill: rgb(255, 255, 64); fill-opacity: 0.5;}
</style>
</defs>
<rect x="-525.0" y="-223.443579766537" width="550.0" height="252.33463035019457" fill="#222" stroke="none"/>
<g id="gds" transform="scale(1 -1)">
<polygon class="l3d0" points="-491.07003891050584,25.65466926070042 -491.318093385214,25.4708171206226 -491.88424124513614,24.95817120622571 -492.3968871595331,24.39202334630353 -492.852140077821,23.779182879377462 -493.2441634241245,23.12354085603116 -493.57101167315176,22.432879377431938 -493.8287937743191,21.7140077821012 -494.0136186770428,20.97373540856034 -494.12548638132296,20.217898832684856 -494.1634241245136,19.455252918287968 -494.1634241245136,9.727626459144 -494.12548638132296,8.964980544747112 -494.0136186770428,8.209143968871626 -493.8287937743191,7.46887159533077 -493.57101167315176,6.75000000000003 -493.2441634241245,6.059338521400808 -492.852140077821,5.403696498054504 -492.3968871595331,4.790856031128435 -491.88424124513614,4.224708171206256 -491.318093385214,3.7120622568093684 -491.07003891050584,3.5282101167315476 -490.7052529182879,3.256809338521431 -490.50875486381324,3.139105058365789 -490.50875486381324,5.600194552529213 -490.94455252918283,6.088521400778241 -491.32295719844353,6.622568093385244 -491.6400778210117,7.195525291828824 -491.8900778210117,7.799610894941664 -492.0719844357977,8.428988326848277 -492.1809338521401,9.073929961089522 -492.2178988326848,9.727626459143998 -492.2178988326848,19.455252918287968 -492.1809338521401,20.108949416342444 -492.0719844357977,20.75389105058369 -491.8900778210117,21.3832684824903 -491.6400778210117,21.987354085603144 -491.32295719844353,22.560311284046723 -490.94455252918283,23.094357976653725 -490.50875486381324,23.582684824902753 -490.02042801556416,24.018482490272405 -489.4863813229572,24.396887159533104 -488.9134241245136,24.7140077821012 -488.3093385214008,24.9640077821012 -487.67996108949416,25.145914396887193 -487.03501945525295,25.2548638132296 -486.38132295719845,25.29182879377435 -257.89396887159535,25.291828793774336 -256.8764591439689,25.329766536965 -255.863813229572,25.44357976653698 -254.86381322957197,25.633268482490287 -253.87937743190662,25.896887159533087 -253.76653696498056,25.936770428015578 -252.91828793774317,26.23346303501947 -251.98540856031127,26.640077821011687 -251.08463035019454,27.11673151750974 -250.22276264591437,27.65856031128406 -249.40272373540859,28.2626459143969 -248.63132295719842,28.927042801556432 -247.91050583657588,29.647859922179002 -247.24610894941634,30.41926070038912 -246.6420233463035,31.239299610894953 -246.1001945525292,32.10116731517511 -245.62354085603113,33.001945525291845 -245.2169260700389,33.93482490272375 -244.88035019455253,34.89591439688717 -244.61673151750972,35.88035019455254 -244.4270428015564,36.88035019455254 -244.31322957198444,37.89299610894943 -244.27529182879377,38.91050583657589 -244.27529182879377,48.638132295719856 -244.31322957198444,49.65564202334632 -244.4270428015564,50.66828793774321 -244.61673151750972,51.66828793774321 -244.88035019455253,52.65272373540858 -245.2169260700389,53.613813229572 -245.62354085603113,54.546692607003905 -246.1001945525292,55.44747081712064 -246.6420233463035,56.3093385214008 -247.24610894941634,57.129377431906626 -247.91050583657588,57.90077821011674 -248.63132295719842,58.62159533073931 -249.40272373540859,59.285992217898844 -250.22276264591437,59.89007782101169 -251.08463035019454,60.43190661478601 -251.98540856031127,60.908560311284056 -252.91828793774317,61.315175097276274 -253.76653696498056,61.61186770428017 -253.76653696498056,59.546692607003905 -253.20525291828795,59.32782101167316 -252.3385214007782,58.9046692607004 -251.50972762645915,58.41050583657589 -250.72373540856034,57.850194552529196 -249.98832684824902,57.22665369649807 -249.3054474708171,56.543774319066166 -248.681906614786,55.80836575875488 -248.1215953307393,55.022373540856044 -247.6274319066148,54.19357976653698 -247.204280155642,53.32684824902725 -246.8531128404669,52.42801556420235 -246.57782101167314,51.50389105058367 -246.38035019455253,50.55933852140079 -246.26070038910507,49.602140077821026 -246.22081712062257,48.638132295719856 -246.22081712062257,38.91050583657589 -246.26070038910507,37.94649805447472 -246.38035019455253,36.98929961089495 -246.57782101167314,36.044747081712075 -246.8531128404669,35.120622568093395 -247.204280155642,34.22178988326849 -247.6274319066148,33.35505836575877 -248.1215953307393,32.5262645914397 -248.681906614786,31.74027237354087 -249.3054474708171,31.004863813229587 -249.98832684824902,30.321984435797678 -250.72373540856034,29.69844357976655 -251.50972762645915,29.13813229571986 -252.3385214007782,28.643968871595344 -253.20525291828795,28.22081712062258 -253.76653696498056,28.001945525291845 -254.10408560311282,27.869649805447487 -255.0282101167315,27.594357976653715 -255.97276264591437,27.396887159533094 -256.92996108949416,27.27723735408562 -257.89396887159535,27.23735408560313 -486.38132295719845,27.237354085603144 -487.1439688715953,27.19941634241248 -487.8998054474708,27.087548638132326 -488.6400778210117,26.90272373540859 -489.3589494163424,26.644941634241274 -490.0496108949416,26.318093385214038 -490.50875486381324,26.043774319066177 -490.7052529182879,25.926070038910538"/>
<polygon class="l3d0" points="-491.07003891050584,84.02042801556424 -491.318093385214,83.8365758754864 -491.88424124513614,83.32392996108952 -492.3968871595331,82.75778210116735 -492.852140077821,82.14494163424126 -493.2441634241245,81.48929961089497 -493.57101167315176,80.79863813229575 -493.8287937743191,80.07976653696501 -494.0136186770428,79.33949416342416 -494.12548638132296,78.58365758754867 -494.1634241245136,77.82101167315177 -494.1634241245136,68.09338521400781 -494.12548638132296,67.33073929961091 -494.0136186770428,66.57490272373543 -493.8287937743191,65.83463035019457 -493.57101167315176,65.11575875486383 -493.2441634241245,64.42509727626462 -492.852140077821,63.76945525291832 -492.3968871595331,63.15661478599224 -491.88424124513614,62.59046692607007 -491.318093385214,62.07782101167318 -491.07003891050584,61.89396887159536 -490.7052529182879,61.62256809338524 -490.50875486381324,61.5048638132296 -490.50875486381324,63.96595330739303 -490.94455252918283,64.45428015564205 -491.32295719844353,64.98832684824906 -491.6400778210117,65.56128404669263 -491.8900778210117,66.16536964980547 -492.0719844357977,66.79474708171209 -492.1809338521401,67.43968871595334 -492.2178988326848,68.09338521400781 -492.2178988326848,77.82101167315177 -492.1809338521401,78.47470817120625 -492.0719844357977,79.1196498054475 -491.8900778210117,79.74902723735411 -491.6400778210117,80.35311284046695 -491.32295719844353,80.92607003891052 -490.94455252918283,81.46011673151753 -490.50875486381324,81.94844357976656 -490.02042801556416,82.38424124513621 -489.4863813229572,82.76264591439691 -488.9134241245136,83.07976653696501 -488.3093385214008,83.32976653696501 -487.67996108949416,83.511673151751 -487.03501945525295,83.62062256809341 -486.38132295719845,83.65758754863816 -257.89396887159535,83.65758754863815 -256.8764591439689,83.6955252918288 -255.863813229572,83.80933852140079 -254.86381322957197,83.9990272373541 -253.87937743190662,84.2626459143969 -253.76653696498056,84.30252918287938 -252.91828793774317,84.59922178988329 -251.98540856031127,85.00583657587549 -251.08463035019454,85.48249027237355 -250.22276264591437,86.02431906614788 -249.40272373540859,86.62840466926072 -248.63132295719842,87.29280155642024 -247.91050583657588,88.01361867704281 -247.24610894941634,88.78501945525294 -246.6420233463035,89.60505836575877 -246.1001945525292,90.46692607003892 -245.62354085603113,91.36770428015565 -245.2169260700389,92.30058365758757 -244.88035019455253,93.26167315175098 -244.61673151750972,94.24610894941635 -244.4270428015564,95.24610894941635 -244.31322957198444,96.25875486381324 -244.27529182879377,97.2762645914397 -244.27529182879377,107.00389105058368 -244.31322957198444,108.02140077821014 -244.4270428015564,109.03404669260702 -244.61673151750972,110.034046692607 -244.88035019455253,111.01848249027238 -245.2169260700389,111.97957198443581 -245.62354085603113,112.91245136186771 -246.1001945525292,113.81322957198445 -246.6420233463035,114.6750972762646 -247.24610894941634,115.49513618677044 -247.91050583657588,116.26653696498056 -248.63132295719842,116.98735408560313 -249.40272373540859,117.65175097276266 -250.22276264591437,118.25583657587549 -251.08463035019454,118.7976653696498 -251.98540856031127,119.27431906614788 -252.91828793774317,119.68093385214009 -253.76653696498056,119.97762645914399 -253.76653696498056,117.91245136186771 -253.20525291828795,117.69357976653698 -252.3385214007782,117.27042801556422 -251.50972762645915,116.77626459143971 -250.72373540856034,116.21595330739301 -249.98832684824902,115.59241245136187 -249.3054474708171,114.90953307392996 -248.681906614786,114.17412451361868 -248.1215953307393,113.38813229571986 -247.6274319066148,112.55933852140079 -247.204280155642,111.69260700389106 -246.8531128404669,110.79377431906616 -246.57782101167314,109.86964980544748 -246.38035019455253,108.9250972762646 -246.26070038910507,107.96789883268484 -246.22081712062257,107.00389105058368 -246.22081712062257,97.2762645914397 -246.26070038910507,96.31225680933854 -246.38035019455253,95.35505836575878 -246.57782101167314,94.4105058365759 -246.8531128404669,93.48638132295721 -247.204280155642,92.58754863813232 -247.6274319066148,91.72081712062258 -248.1215953307393,90.89202334630352 -248.681906614786,90.10603112840468 -249.3054474708171,89.3706225680934 -249.98832684824902,88.6877431906615 -250.72373540856034,88.06420233463037 -251.50972762645915,87.50389105058366 -252.3385214007782,87.00972762645915 -253.20525291828795,86.58657587548639 -253.76653696498056,86.36770428015565 -254.10408560311282,86.2354085603113 -255.0282101167315,85.96011673151753 -255.97276264591437,85.7626459143969 -256.92996108949416,85.64299610894943 -257.89396887159535,85.60311284046693 -486.38132295719845,85.60311284046695 -487.1439688715953,85.5651750972763 -487.8998054474708,85.45330739299614 -488.6400778210117,85.2684824902724 -489.3589494163424,85.0107003891051 -490.0496108949416,84.68385214007786 -490.50875486381324,84.40953307392998 -490.7052529182879,84.29182879377434"/>
<polygon class="l3d0" points="-254.2548638132296,151.07879377431908 -254.78891050583658,150.70038910505838 -255.36186770428014,150.38326848249028 -255.96595330739297,150.13326848249028 -256.5953307392996,149.95136186770432 -257.24027237354085,149.8424124513619 -257.89396887159535,149.80544747081714 -486.38132295719845,149.80544747081714 -487.39883268482487,149.7675097276265 -488.41147859922177,149.6536964980545 -489.41147859922177,149.4640077821012 -490.3959143968872,149.20038910505838 -490.50875486381324,149.16050583657588 -490.50875486381324,147.09533073929964 -490.1712062256809,147.22762645914398 -489.24708171206225,147.50291828793777 -488.30252918287937,147.7003891050584 -487.3453307392996,147.82003891050587 -486.38132295719845,147.85992217898834 -257.89396887159535,147.85992217898834 -257.13132295719845,147.897859922179 -256.3754863813229,148.00972762645915 -255.6352140077821,148.1945525291829 -254.91634241245134,148.45233463035024 -254.22568093385212,148.77918287937746 -253.76653696498056,149.0535019455253 -253.76653696498056,151.51459143968876"/>
<polygon class="l3d0" points="-253.87937743190662,120.01750972762648 -254.86381322957197,120.28112840466927 -255.863813229572,120.47081712062257 -256.8764591439689,120.58463035019456 -257.89396887159535,120.62256809338523 -486.38132295719845,120.62256809338524 -487.03501945525295,120.65953307392998 -487.67996108949416,120.7684824902724 -488.3093385214008,120.95038910505839 -488.9134241245136,121.20038910505839 -489.4863813229572,121.51750972762649 -490.02042801556416,121.89591439688718 -490.50875486381324,122.33171206225684 -490.50875486381324,119.87062256809341 -490.0496108949416,119.59630350194554 -489.3589494163424,119.2694552529183 -488.6400778210117,119.011673151751 -487.8998054474708,118.82684824902726 -487.1439688715953,118.7149805447471 -486.38132295719845,118.67704280155644 -257.89396887159535,118.67704280155644 -256.92996108949416,118.63715953307394 -255.97276264591437,118.51750972762648 -255.0282101167315,118.32003891050584 -254.10408560311282,118.04474708171207 -253.76653696498056,117.91245136186771 -253.76653696498056,119.97762645914399"/>
<polygon class="l3d0" points="-254.2548638132296,92.71303501945526 -254.78891050583658,92.33463035019457 -255.36186770428014,92.01750972762646 -255.96595330739297,91.76750972762648 -256.5953307392996,91.58560311284049 -257.24027237354085,91.47665369649806 -257.89396887159535,91.43968871595332 -486.38132295719845,91.43968871595334 -487.39883268482487,91.40175097276267 -488.41147859922177,91.28793774319068 -489.41147859922177,91.09824902723739 -490.3959143968872,90.83463035019457 -490.50875486381324,90.79474708171209 -490.50875486381324,88.72957198443582 -490.1712062256809,88.86186770428017 -489.24708171206225,89.13715953307396 -488.30252918287937,89.33463035019457 -487.3453307392996,89.45428015564205 -486.38132295719845,89.49416342412454 -257.89396887159535,89.49416342412452 -257.13132295719845,89.53210116731519 -256.3754863813229,89.64396887159533 -255.6352140077821,89.82879377431907 -254.91634241245134,90.08657587548639 -254.22568093385212,90.41342412451363 -253.76653696498056,90.6877431906615 -253.76653696498056,93.14883268482492"/>
<polygon class="l3d0" points="-253.87937743190662,61.651750972762656 -254.86381322957197,61.91536964980546 -255.863813229572,62.10505836575877 -256.8764591439689,62.218871595330754 -257.89396887159535,62.256809338521414 -486.38132295719845,62.25680933852143 -487.03501945525295,62.29377431906617 -487.67996108949416,62.40272373540859 -488.3093385214008,62.58463035019458 -488.9134241245136,62.83463035019457 -489.4863813229572,63.15175097276268 -490.02042801556416,63.530155642023374 -490.50875486381324,63.96595330739303 -490.50875486381324,61.5048638132296 -490.0496108949416,61.23054474708174 -489.3589494163424,60.9036964980545 -488.6400778210117,60.645914396887186 -487.8998054474708,60.46108949416345 -487.1439688715953,60.349221789883295 -486.38132295719845,60.311284046692634 -257.89396887159535,60.31128404669262 -256.92996108949416,60.271400778210136 -255.97276264591437,60.151750972762656 -255.0282101167315,59.95428015564204 -254.10408560311282,59.67898832684826 -253.76653696498056,59.546692607003905 -253.76653696498056,61.61186770428017"/>
<polygon class="l3d0" points="-254.2548638132296,34.34727626459145 -254.78891050583658,33.968871595330754 -255.36186770428014,33.65175097276266 -255.96595330739297,33.40175097276266 -256.5953307392996,33.21984435797667 -257.24027237354085,33.11089494163425 -257.89396887159535,33.073929961089505 -486.38132295719845,33.07392996108952 -487.39883268482487,33.03599221789886 -488.41147859922177,32.92217898832688 -489.41147859922177,32.73249027237357 -490.3959143968872,32.46887159533077 -490.50875486381324,32.42898832684828 -490.50875486381324,30.363813229572013 -490.1712062256809,30.496108949416374 -489.24708171206225,30.771400778210147 -488.30252918287937,30.968871595330768 -487.3453307392996,31.08852140077824 -486.38132295719845,31.12840466926073 -257.89396887159535,31.128404669260714 -257.13132295719845,31.166342412451378 -256.3754863813229,31.278210116731533 -255.6352140077821,31.46303501945527 -254.91634241245134,31.720817120622584 -254.22568093385212,32.04766536964982 -253.76653696498056,32.321984435797674 -253.76653696498056,34.7830739299611"/>
<polygon class="l3d0" points="-486.38132295719845,3.891050583657617 -487.03501945525295,3.928015564202365 -487.67996108949416,4.036964980544778 -488.3093385214008,4.21887159533077 -488.9134241245136,4.46887159533077 -489.4863813229572,4.785992217898863 -490.02042801556416,5.164396887159564 -490.50875486381324,5.600194552529213 -490.50875486381324,3.139105058365789 -490.0496108949416,2.8647859922179286 -489.3589494163424,2.537937743190691 -488.6400778210117,2.280155642023376 -487.8998054474708,2.0953307392996408 -487.1439688715953,1.983463035019485 -486.38132295719845,1.9455252918288235 -253.76653696498056,1.9455252918288093 -253.76653696498056,3.891050583657603"/>
<polygon class="l3d0" points="-491.07003891050584,142.38618677042803 -491.318093385214,142.2023346303502 -491.88424124513614,141.68968871595334 -492.3968871595331,141.12354085603116 -492.852140077821,140.51070038910507 -493.2441634241245,139.85505836575877 -493.57101167315176,139.16439688715957 -493.8287937743191,138.44552529182883 -494.0136186770428,137.70525291828798 -494.12548638132296,136.94941634241246 -494.1634241245136,136.1867704280156 -494.1634241245136,126.45914396887162 -494.12548638132296,125.69649805447474 -494.0136186770428,124.94066147859924 -493.8287937743191,124.20038910505839 -493.57101167315176,123.48151750972765 -493.2441634241245,122.79085603112843 -492.852140077821,122.13521400778214 -492.3968871595331,121.52237354085605 -491.88424124513614,120.95622568093388 -491.318093385214,120.443579766537 -491.07003891050584,120.25972762645917 -490.7052529182879,119.98832684824905 -490.50875486381324,119.87062256809341 -490.50875486381324,122.33171206225684 -490.94455252918283,122.82003891050586 -491.32295719844353,123.35408560311288 -491.6400778210117,123.92704280155645 -491.8900778210117,124.53112840466929 -492.0719844357977,125.1605058365759 -492.1809338521401,125.80544747081714 -492.2178988326848,126.45914396887162 -492.2178988326848,136.1867704280156 -492.1809338521401,136.84046692607006 -492.0719844357977,137.48540856031133 -491.8900778210117,138.11478599221792 -491.6400778210117,138.71887159533077 -491.32295719844353,139.29182879377436 -490.94455252918283,139.82587548638136 -490.50875486381324,140.31420233463038 -490.02042801556416,140.75000000000003 -489.4863813229572,141.12840466926073 -488.9134241245136,141.44552529182883 -488.3093385214008,141.69552529182883 -487.67996108949416,141.87743190661482 -487.03501945525295,141.98638132295721 -486.38132295719845,142.02334630350197 -257.89396887159535,142.02334630350197 -256.8764591439689,142.06128404669263 -255.863813229572,142.1750972762646 -254.86381322957197,142.36478599221792 -253.87937743190662,142.62840466926073 -253.76653696498056,142.66828793774323 -252.91828793774317,142.9649805447471 -251.98540856031127,143.37159533073932 -251.08463035019454,143.8482490272374 -250.22276264591437,144.3900778210117 -249.40272373540859,144.99416342412454 -248.63132295719842,145.65856031128408 -247.91050583657588,146.37937743190665 -247.24610894941634,147.15077821011675 -246.6420233463035,147.9708171206226 -246.1001945525292,148.83268482490274 -245.62354085603113,149.73346303501947 -245.2169260700389,150.66634241245137 -244.88035019455253,151.6274319066148 -244.61673151750972,152.61186770428017 -244.4270428015564,153.6118677042802 -244.31322957198444,154.62451361867707 -244.27529182879377,155.64202334630352 -244.27529182879377,184.82490272373542 -244.31322957198444,185.8424124513619 -244.4270428015564,186.85505836575877 -244.61673151750972,187.8550583657588 -244.88035019455253,188.83949416342415 -245.2169260700389,189.8005836575876 -245.62354085603113,190.7334630350195 -246.1001945525292,191.63424124513622 -246.6420233463035,192.49610894941637 -247.24610894941634,193.3161478599222 -247.91050583657588,194.08754863813232 -248.63132295719842,194.8083657587549 -249.40272373540859,195.47276264591443 -250.22276264591437,196.07684824902728 -251.08463035019454,196.61867704280158 -251.98540856031127,197.09533073929964 -252.91828793774317,197.50194552529186 -253.76653696498056,197.79863813229574 -253.76653696498056,195.73346303501947 -253.20525291828795,195.51459143968876 -252.3385214007782,195.09143968871598 -251.50972762645915,194.59727626459144 -250.72373540856034,194.03696498054478 -249.98832684824902,193.41342412451365 -249.3054474708171,192.73054474708175 -248.681906614786,191.99513618677045 -248.1215953307393,191.20914396887162 -247.6274319066148,190.38035019455256 -247.204280155642,189.5136186770428 -246.8531128404669,188.61478599221792 -246.57782101167314,187.69066147859925 -246.38035019455253,186.74610894941637 -246.26070038910507,185.7889105058366 -246.22081712062257,184.82490272373542 -246.22081712062257,155.64202334630352 -246.26070038910507,154.67801556420235 -246.38035019455253,153.7208171206226 -246.57782101167314,152.7762645914397 -246.8531128404669,151.85214007782105 -247.204280155642,150.95330739299615 -247.6274319066148,150.0865758754864 -248.1215953307393,149.25778210116735 -248.681906614786,148.47178988326849 -249.3054474708171,147.73638132295721 -249.98832684824902,147.0535019455253 -250.72373540856034,146.42996108949418 -251.50972762645915,145.8696498054475 -252.3385214007782,145.375486381323 -253.20525291828795,144.9523346303502 -253.76653696498056,144.73346303501947 -254.10408560311282,144.60116731517513 -255.0282101167315,144.32587548638134 -255.97276264591437,144.1284046692607 -256.92996108949416,144.00875486381327 -257.89396887159535,143.96887159533077 -486.38132295719845,143.96887159533077 -487.1439688715953,143.93093385214013 -487.8998054474708,143.81906614785996 -488.6400778210117,143.63424124513622 -489.3589494163424,143.3764591439689 -490.0496108949416,143.04961089494168 -490.50875486381324,142.7752918287938 -490.7052529182879,142.65758754863813"/>
<polygon class="l3d0" points="-253.87937743190662,197.83852140077823 -254.86381322957197,198.10214007782105 -255.863813229572,198.29182879377433 -256.8764591439689,198.40564202334633 -257.89396887159535,198.443579766537 -355.170233463035,198.443579766537 -355.170233463035,196.4980544747082 -257.89396887159535,196.4980544747082 -256.92996108949416,196.4581712062257 -255.97276264591437,196.33852140077823 -255.0282101167315,196.14105058365763 -254.10408560311282,195.86575875486383 -253.76653696498056,195.73346303501947 -253.76653696498056,197.79863813229574"/>
<polygon class="l3d0" points="0.00000000000000023825813212983525,3.8910505836575875 -253.76653696498056,3.891050583657603 -253.76653696498056,1.9455252918288093 0.00000000000000011912906606491762,1.9455252918287937"/>
<polygon class="l3d0" points="-253.76653696498056,55.22665369649807 -254.22568093385212,55.50097276264593 -254.91634241245134,55.827821011673166 -255.6352140077821,56.08560311284048 -256.3754863813229,56.270428015564214 -257.13132295719845,56.38229571984437 -257.89396887159535,56.42023346303503 -486.38132295719845,56.420233463035046 -487.3453307392996,56.46011673151753 -488.30252918287937,56.57976653696501 -489.24708171206225,56.77723735408563 -490.1712062256809,57.052529182879404 -490.50875486381324,57.18482490272376 -491.07003891050584,57.4036964980545 -491.93677042801556,57.826848249027265 -492.7655642023346,58.32101167315178 -493.55155642023345,58.88132295719847 -494.2869649805447,59.5048638132296 -494.9698443579766,60.1877431906615 -495.5933852140078,60.923151750972785 -496.15369649805444,61.70914396887162 -496.64785992217895,62.53793774319069 -497.0710116731517,63.40466926070042 -497.4221789883269,64.30350194552531 -497.6974708171206,65.22762645914399 -497.89494163424126,66.17217898832688 -498.01459143968873,67.12937743190665 -498.0544747081712,68.09338521400781 -498.0544747081712,77.82101167315177 -498.01459143968873,78.78501945525295 -497.89494163424126,79.7422178988327 -497.6974708171206,80.68677042801559 -497.4221789883269,81.61089494163427 -497.0710116731517,82.50972762645917 -496.64785992217895,83.3764591439689 -496.15369649805444,84.20525291828797 -495.5933852140078,84.99124513618679 -494.9698443579766,85.72665369649808 -494.2869649805447,86.40953307392998 -493.55155642023345,87.03307392996112 -492.7655642023346,87.59338521400781 -491.93677042801556,88.08754863813232 -491.07003891050584,88.51070038910508 -490.50875486381324,88.72957198443582 -490.50875486381324,90.79474708171209 -491.35700389105057,90.4980544747082 -492.28988326848247,90.09143968871598 -493.1906614785992,89.61478599221792 -494.05252918287937,89.0729571984436 -494.8725680933852,88.46887159533077 -495.6439688715953,87.80447470817124 -496.3647859922179,87.08365758754867 -497.02918287937746,86.31225680933855 -497.6332684824903,85.4922178988327 -498.1750972762646,84.63035019455256 -498.65175097276267,83.72957198443582 -499.0583657587549,82.79669260700392 -499.39494163424126,81.83560311284049 -499.658560311284,80.85116731517512 -499.8482490272374,79.85116731517513 -499.96206225680936,78.83852140077825 -500.0,77.82101167315177 -500.0,68.09338521400781 -499.96206225680936,67.07587548638135 -499.8482490272374,66.06322957198446 -499.658560311284,65.06322957198446 -499.39494163424126,64.0787937743191 -499.0583657587549,63.11770428015567 -498.65175097276267,62.18482490272376 -498.1750972762646,61.28404669260703 -497.6332684824903,60.42217898832687 -497.02918287937746,59.60214007782104 -496.3647859922179,58.830739299610926 -495.6439688715953,58.109922178988356 -494.8725680933852,57.44552529182882 -494.05252918287937,56.84143968871598 -493.1906614785992,56.29961089494166 -492.28988326848247,55.82295719844361 -491.35700389105057,55.41634241245139 -490.50875486381324,55.119649805447494 -490.3959143968872,55.07976653696501 -489.41147859922177,54.816147859922204 -488.41147859922177,54.626459143968894 -487.39883268482487,54.51264591439691 -486.38132295719845,54.47470817120625 -257.89396887159535,54.47470817120624 -257.24027237354085,54.43774319066149 -256.5953307392996,54.32879377431908 -255.96595330739297,54.14688715953309 -255.36186770428014,53.89688715953309 -254.78891050583658,53.57976653696499 -254.2548638132296,53.20136186770429 -253.76653696498056,52.765564202334645 -253.33073929961088,52.277237354085614 -252.9523346303502,51.743190661478614 -252.6352140077821,51.17023346303503 -252.38521400778208,50.56614785992219 -252.2033073929961,49.93677042801558 -252.09435797665373,49.29182879377433 -252.05739299610894,48.638132295719856 -252.05739299610894,38.91050583657589 -252.09435797665373,38.256809338521414 -252.2033073929961,37.611867704280165 -252.38521400778208,36.98249027237355 -252.6352140077821,36.37840466926071 -252.9523346303502,35.805447470817136 -253.33073929961088,35.27140077821013 -253.76653696498056,34.7830739299611 -253.76653696498056,32.321984435797674 -253.57003891050584,32.43968871595332 -253.20525291828795,32.71108949416344 -252.95719844357978,32.89494163424126 -252.3910505836576,33.40758754863815 -251.87840466926068,33.97373540856032 -251.42315175097278,34.586575875486396 -251.03112840466926,35.2422178988327 -250.704280155642,35.93287937743192 -250.4474708171206,36.651750972762656 -250.26167315175098,37.39202334630352 -250.1498054474708,38.147859922179 -250.11186770428017,38.91050583657589 -250.11186770428017,48.638132295719856 -250.1498054474708,49.40077821011674 -250.26167315175098,50.15661478599223 -250.4474708171206,50.89688715953309 -250.704280155642,51.615758754863826 -251.03112840466926,52.30642023346305 -251.42315175097278,52.962062256809354 -251.87840466926068,53.57490272373543 -252.3910505836576,54.141050583657595 -252.95719844357978,54.65369649805449 -253.20525291828795,54.837548638132304 -253.57003891050584,55.108949416342426"/>
<polygon class="l3d0" points="-253.76653696498056,113.59241245136188 -254.22568093385212,113.86673151750975 -254.91634241245134,114.19357976653698 -255.6352140077821,114.45136186770429 -256.3754863813229,114.63618677042803 -257.13132295719845,114.74805447470818 -257.89396887159535,114.78599221789885 -486.38132295719845,114.78599221789887 -487.3453307392996,114.82587548638135 -488.30252918287937,114.94552529182882 -489.24708171206225,115.14299610894945 -490.1712062256809,115.41828793774322 -490.50875486381324,115.55058365758758 -491.07003891050584,115.7694552529183 -491.93677042801556,116.19260700389107 -492.7655642023346,116.68677042801558 -493.55155642023345,117.24708171206228 -494.2869649805447,117.87062256809342 -494.9698443579766,118.55350194552533 -495.5933852140078,119.28891050583661 -496.15369649805444,120.07490272373543 -496.64785992217895,120.9036964980545 -497.0710116731517,121.77042801556424 -497.4221789883269,122.66926070038913 -497.6974708171206,123.59338521400781 -497.89494163424126,124.5379377431907 -498.01459143968873,125.49513618677044 -498.0544747081712,126.45914396887162 -498.0544747081712,136.1867704280156 -498.01459143968873,137.15077821011678 -497.89494163424126,138.1079766536965 -497.6974708171206,139.0525291828794 -497.4221789883269,139.97665369649806 -497.0710116731517,140.875486381323 -496.64785992217895,141.74221789883273 -496.15369649805444,142.57101167315176 -495.5933852140078,143.35700389105062 -494.9698443579766,144.0924124513619 -494.2869649805447,144.7752918287938 -493.55155642023345,145.39883268482492 -492.7655642023346,145.95914396887162 -491.93677042801556,146.45330739299612 -491.07003891050584,146.8764591439689 -490.50875486381324,147.09533073929964 -490.50875486381324,149.16050583657588 -491.35700389105057,148.86381322957203 -492.28988326848247,148.45719844357978 -493.1906614785992,147.98054474708172 -494.05252918287937,147.43871595330742 -494.8725680933852,146.83463035019457 -495.6439688715953,146.17023346303506 -496.3647859922179,145.44941634241246 -497.02918287937746,144.67801556420238 -497.6332684824903,143.8579766536965 -498.1750972762646,142.99610894941637 -498.65175097276267,142.09533073929964 -499.0583657587549,141.16245136186774 -499.39494163424126,140.20136186770432 -499.658560311284,139.21692607003894 -499.8482490272374,138.21692607003894 -499.96206225680936,137.20428015564204 -500.0,136.1867704280156 -500.0,126.45914396887162 -499.96206225680936,125.44163424124517 -499.8482490272374,124.42898832684827 -499.658560311284,123.42898832684828 -499.39494163424126,122.44455252918291 -499.0583657587549,121.48346303501948 -498.65175097276267,120.55058365758758 -498.1750972762646,119.64980544747084 -497.6332684824903,118.7879377431907 -497.02918287937746,117.96789883268485 -496.3647859922179,117.19649805447473 -495.6439688715953,116.47568093385216 -494.8725680933852,115.81128404669263 -494.05252918287937,115.2071984435798 -493.1906614785992,114.66536964980548 -492.28988326848247,114.18871595330741 -491.35700389105057,113.7821011673152 -490.50875486381324,113.48540856031131 -490.3959143968872,113.44552529182882 -489.41147859922177,113.18190661478602 -488.41147859922177,112.99221789883272 -487.39883268482487,112.87840466926073 -486.38132295719845,112.84046692607006 -257.89396887159535,112.84046692607005 -257.24027237354085,112.80350194552531 -256.5953307392996,112.69455252918289 -255.96595330739297,112.5126459143969 -255.36186770428014,112.2626459143969 -254.78891050583658,111.9455252918288 -254.2548638132296,111.56712062256811 -253.76653696498056,111.13132295719845 -253.33073929961088,110.64299610894943 -252.9523346303502,110.10894941634241 -252.6352140077821,109.53599221789884 -252.38521400778208,108.931906614786 -252.2033073929961,108.30252918287938 -252.09435797665373,107.65758754863815 -252.05739299610894,107.00389105058368 -252.05739299610894,97.2762645914397 -252.09435797665373,96.62256809338523 -252.2033073929961,95.97762645914399 -252.38521400778208,95.34824902723737 -252.6352140077821,94.74416342412454 -252.9523346303502,94.17120622568095 -253.33073929961088,93.63715953307394 -253.76653696498056,93.14883268482492 -253.76653696498056,90.6877431906615 -253.57003891050584,90.80544747081713 -253.20525291828795,91.07684824902725 -252.95719844357978,91.26070038910507 -252.3910505836576,91.77334630350197 -251.87840466926068,92.33949416342413 -251.42315175097278,92.95233463035021 -251.03112840466926,93.60797665369651 -250.704280155642,94.29863813229572 -250.4474708171206,95.01750972762648 -250.26167315175098,95.75778210116732 -250.1498054474708,96.51361867704281 -250.11186770428017,97.2762645914397 -250.11186770428017,107.00389105058368 -250.1498054474708,107.76653696498056 -250.26167315175098,108.52237354085605 -250.4474708171206,109.2626459143969 -250.704280155642,109.98151750972765 -251.03112840466926,110.67217898832686 -251.42315175097278,111.32782101167315 -251.87840466926068,111.94066147859924 -252.3910505836576,112.5068093385214 -252.95719844357978,113.01945525291829 -253.20525291828795,113.20330739299612 -253.57003891050584,113.47470817120625"/>
<polygon class="l3d0" points="-253.76653696498056,191.41342412451365 -254.22568093385212,191.6877431906615 -254.91634241245134,192.01459143968873 -255.6352140077821,192.27237354085605 -256.3754863813229,192.45719844357978 -257.13132295719845,192.56906614785996 -257.89396887159535,192.6070038910506 -355.170233463035,192.6070038910506 -355.170233463035,190.66147859922182 -257.89396887159535,190.66147859922182 -257.24027237354085,190.62451361867707 -256.5953307392996,190.51556420233464 -255.96595330739297,190.3336575875487 -255.36186770428014,190.08365758754866 -254.78891050583658,189.7665369649806 -254.2548638132296,189.38813229571988 -253.76653696498056,188.9523346303502 -253.33073929961088,188.46400778210122 -252.9523346303502,187.92996108949418 -252.6352140077821,187.35700389105062 -252.38521400778208,186.75291828793777 -252.2033073929961,186.12354085603116 -252.09435797665373,185.4785992217899 -252.05739299610894,184.82490272373542 -252.05739299610894,155.64202334630352 -252.09435797665373,154.98832684824905 -252.2033073929961,154.3433852140078 -252.38521400778208,153.7140077821012 -252.6352140077821,153.10992217898834 -252.9523346303502,152.53696498054475 -253.33073929961088,152.00291828793775 -253.76653696498056,151.51459143968876 -253.76653696498056,149.0535019455253 -253.57003891050584,149.17120622568098 -253.20525291828795,149.44260700389108 -252.95719844357978,149.6264591439689 -252.3910505836576,150.13910505836577 -251.87840466926068,150.70525291828798 -251.42315175097278,151.31809338521404 -251.03112840466926,151.97373540856034 -250.704280155642,152.66439688715954 -250.4474708171206,153.3832684824903 -250.26167315175098,154.12354085603116 -250.1498054474708,154.87937743190665 -250.11186770428017,155.64202334630352 -250.11186770428017,184.82490272373542 -250.1498054474708,185.58754863813232 -250.26167315175098,186.3433852140078 -250.4474708171206,187.08365758754866 -250.704280155642,187.8025291828794 -251.03112840466926,188.49319066147862 -251.42315175097278,189.14883268482492 -251.87840466926068,189.76167315175098 -252.3910505836576,190.3278210116732 -252.95719844357978,190.84046692607006 -253.20525291828795,191.02431906614788 -253.57003891050584,191.295719844358"/>
<polygon class="l3d0" points="-491.93677042801556,-0.5389105058365458 -492.7655642023346,-0.04474708171203208 -493.55155642023345,0.5155642023346606 -494.2869649805447,1.1391050583657891 -494.9698443579766,1.8219844357976955 -495.5933852140078,2.5573929961089794 -496.15369649805444,3.343385214007812 -496.64785992217895,4.172178988326878 -497.0710116731517,5.038910505836606 -497.4221789883269,5.937743190661509 -497.6974708171206,6.861867704280186 -497.89494163424126,7.806420233463067 -498.01459143968873,8.763618677042833 -498.0544747081712,9.727626459144 -498.0544747081712,19.455252918287968 -498.01459143968873,20.419260700389135 -497.89494163424126,21.376459143968905 -497.6974708171206,22.321011673151784 -497.4221789883269,23.24513618677046 -497.0710116731517,24.143968871595362 -496.64785992217895,25.01070038910509 -496.15369649805444,25.839494163424153 -495.5933852140078,26.625486381322986 -494.9698443579766,27.36089494163427 -494.2869649805447,28.04377431906618 -493.55155642023345,28.667315175097304 -492.7655642023346,29.227626459144 -491.93677042801556,29.72178988326851 -491.07003891050584,30.144941634241277 -490.50875486381324,30.363813229572013 -490.50875486381324,32.42898832684828 -491.35700389105057,32.13229571984438 -492.28988326848247,31.725680933852164 -493.1906614785992,31.249027237354117 -494.05252918287937,30.7071984435798 -494.8725680933852,30.10311284046696 -495.6439688715953,29.438715953307426 -496.3647859922179,28.717898832684853 -497.02918287937746,27.946498054474738 -497.6332684824903,27.1264591439689 -498.1750972762646,26.264591439688747 -498.65175097276267,25.363813229572017 -499.0583657587549,24.430933852140107 -499.39494163424126,23.469844357976683 -499.658560311284,22.485408560311313 -499.8482490272374,21.485408560311313 -499.96206225680936,20.472762645914425 -500.0,19.455252918287968 -500.0,9.727626459144 -499.96206225680936,8.710116731517541 -499.8482490272374,7.697470817120653 -499.658560311284,6.697470817120652 -499.39494163424126,5.713035019455283 -499.0583657587549,4.751945525291859 -498.65175097276267,3.819066147859953 -498.1750972762646,2.918287937743221 -497.6332684824903,2.0564202334630655 -497.02918287937746,1.2363813229572287 -496.3647859922179,0.4649805447471121 -495.6439688715953,-0.25583657587545605 -494.8725680933852,-0.9202334630349891 -494.05252918287937,-1.5243190661478296 -493.1906614785992,-2.066147859922149 -492.28988326848247,-2.542801556420203 -491.35700389105057,-2.949416342412421 -490.50875486381324,-3.2461089494163122 -490.3959143968872,-3.2859922178988024 -489.41147859922177,-3.5496108949416043 -488.41147859922177,-3.7392996108949115 -487.39883268482487,-3.853112840466896 -486.38132295719845,-3.8910505836575577 -0.00000000000000023825813212983525,-3.8910505836575875 -0.00000000000000011912906606491762,-1.9455252918287937 -486.38132295719845,-1.945525291828764 -487.3453307392996,-1.9056420233462736 -488.30252918287937,-1.785992217898803 -489.24708171206225,-1.58852140077818 -490.1712062256809,-1.3132295719844058 -490.50875486381324,-1.1809338521400476 -491.07003891050584,-0.9620622568093085"/>
</g>
</svg>