<svg xmlns="http://www.w3.org/2000/svg" xmlns:xlink="http://www.w3.org/1999/xlink" width="550.0" height="345.50871009126547" viewBox="-399.92209984649696 -264.4435720150841 550.0 345.50871009126547">
<defs>
<style type="text/css">
.l3d0 {stroke: rgb(255, 255, 64); fill: rgb(255, 255, 64); fill-opacity: 0.5;}
</style>
</defs>
<rect x="-399.92209984649696" y="-264.4435720150841" width="550.0" height="345.50871009126547" fill="#222" stroke="none"/>
<g id="gds" transform="scale(1 -1)">
<polygon class="l3d0" points="46.73596884229475,-33.68172913012183 46.73596884229475,-41.044692599220355 43.56518225396216,-41.044692599220355 42.73522901172538,-41.01995304196418 41.908220954876235,-40.94514533311814 41.087103268802366,-40.82144754683729 40.27482113889141,-40.64827064604409 39.47431975053102,-40.42679270489361 38.68913332618636,-40.15760276046336 37.921028977089996,-39.84187888690842 37.17354092570711,-39.480799158383824 36.44843628327029,-39.075541649044645 35.74924927224469,-38.62728443304593 35.078336040940435,-38.138383658697784 34.438052737667626,-37.60942836307775 33.83016647365885,-37.04395276865098 33.25762243430175,-36.442545912495014 32.72218773082891,-35.807563942919955 32.22621851155043,-35.141952045313445 11.357812928892624,-5.339032070712725 10.775844296295077,-4.5473662385152505 10.158533439045854,-3.7827961118840596 9.50646939422249,-3.047677839129263 8.822008310135091,-2.3426004573283876 8.105739223861185,-1.6699201147915463 7.3594292466333595,-1.0302258485962663 6.584845489684195,-0.42587380705265915 5.783755064246275,0.143136009839275 4.956747007397127,0.6744474537694248 4.106766504524394,1.167471487660262 3.235580666860657,1.6216190744342593 2.343778531483443,2.0351231028588326 1.4343052837803933,2.4073945358564544 0.5089280349840903,2.7372552992720687 -0.43058610367288164,3.025294430183203 -1.382470020957939,3.269744817357274 -2.344367568560971,3.470606460794282 -3.3145116352493926,3.6267012863391703 -4.291135109790622,3.7392073681469964 -5.2712928067970175,3.8063575949851747 -6.253806652113525,3.8287410039312344 -137.94953837164235,3.8287410039312424 -137.94953837164235,1.4725926938197138 -6.253806652113525,1.4725926938197056 -5.287196807890271,1.4484421736410624 -4.3229431119771276,1.3748125389500772 -3.363401712684207,1.2528818639018056 -2.4115177953991496,1.0832391855737753 -1.4690584713545383,0.865295466888459 -0.5389689259380122,0.599639744923384 0.3763946925403167,0.2880391309111343 1.274676235770337,-0.07009541222581805 2.154108592519465,-0.47240773617736165 3.0117465774000616,-0.9188978409434964 3.8458230791795427,-1.4083876523691665 4.654570986625325,-1.9391100592217883 5.4350451143497684,-2.5104760244238338 6.18547835112029,-3.120129399665192 6.904692622781834,-3.7668921107908067 7.590331781024289,-4.448997046568095 8.240039677537544,-5.164677095764471 8.853227275244068,-5.912754184224882 9.427538425833752,-6.690872163639215 30.29594400849156,-36.49320310116241 30.8101733771734,-37.18767781556779 31.36033400758444,-37.85328971317429 31.945247825569627,-38.488860719826874 32.5637367569739,-39.092034687215424 33.21285561640963,-39.66163354118489 33.89201536679928,-40.19589017050267 34.59827082275521,-40.693037463936214 35.32985487304484,-41.1513083102529 36.085589443513115,-41.57070270945275 36.86194031169486,-41.94886451322565 37.6571403663575,-42.285204684494076 38.47001153334598,-42.57854514910296 39.296430553117595,-42.828296869974785 40.13580838859484,-43.03387081003202 40.98461081731251,-43.1940888951196 41.84048169096052,-43.30895112523754 42.70165389830629,-43.377868463308296 43.56518225396216,-43.40084090933188 49.09211715240628,-43.40084090933188 49.09211715240628,-36.03787744023336 122.72175184339154,-36.037877440233366 122.72175184339154,-53.70898976606983 49.09211715240628,-53.70898976606982 49.09211715240628,-46.346026296971296 43.56518225396216,-46.346026296971296 42.59798337266138,-46.32187577679265 41.63372967674824,-46.248246142101664 40.67418827745532,-46.12690450413092 39.72230436017026,-45.95667278872536 38.78043407320318,-45.73872907004005 37.850344527786646,-45.473073348074976 36.934980909308315,-45.16147273406273 36.03611032900077,-44.80333819092577 35.15726700932917,-44.40102586697423 34.299039987371046,-43.95453576220809 33.46496348559157,-43.465045950782425 32.65680461522331,-42.9343235439298 31.876330487498866,-42.363546615805284 31.12530821365082,-41.753893240563926 30.4066829790668,-41.107130529438315 29.721043820824345,-40.424436556583494 29.070746887233565,-39.708756507387115 28.45814832660457,-38.96067941892671 27.883248138937354,-38.18256143951238 7.015431593357077,-8.38023050198918 6.501202224675236,-7.6857557875838065 5.950452557186666,-7.020143889977299 5.365538739201479,-6.384572883324715 4.74763884487473,-5.781398915936163 4.097930948361475,-5.211800061966701 3.4193602350493553,-4.67813246972644 2.7131047790934253,-4.180985176292907 1.9809316917262674,-3.722125292898687 1.2257861583355225,-3.3027308936988353 0.44943529015377387,-2.9245690899259347 -0.34635380158639484,-2.588228918657514 -1.1586359314973445,-2.2948884540486287 -1.9856439883464907,-2.0451367331768067 -2.8244327867461947,-1.8395627931195757 -3.673235215463873,-1.6793447080319917 -4.5291060891118855,-1.5644824779140547 -5.390278296457649,-1.4955651398432925 -6.253806652113525,-1.4725926938197051 -137.94953837164235,-1.472592693819697 -137.94953837164235,-3.8287410039312255 -6.253806652113525,-3.8287410039312335 -5.423853409876739,-3.8534805611874043 -4.596845353027592,-3.928288270033445 -3.7757276669537245,-4.052575093391829 -2.963445537042775,-4.225162957107498 -2.1635331857599116,-4.446640898257982 -1.3777577243377166,-4.7158308426882245 -0.6096533752413582,-5.0315547162431695 0.13783467614152412,-5.3926344447677605 0.862350281500819,-5.797891954106944 1.5615372925264153,-6.246149170105662 2.2324505238306727,-6.735049944453804 2.8733228641810085,-7.264005240073843 3.480620091112255,-7.830069871578137 4.053164130469357,-8.431476727734106 4.588598833942202,-9.065869660231634 5.085157090298205,-9.73148155783814 25.95356267295601,-39.53440153243887 26.534942268476033,-40.32606736463634 27.15284216280278,-41.09063749126753 27.804317170548618,-41.82575576402233 28.489367291713542,-42.5308331458232 29.20504734090992,-43.203513488360045 29.951357318137745,-43.84320775455532 30.72594107508691,-44.44814883317646 31.52762053760236,-45.01656961299087 32.35403955737398,-45.547881056921014 33.20402006024671,-46.04090509081185 34.07579493498798,-46.495052677585846 34.96759707036519,-46.90855670601042 35.87707031806824,-47.280828139008044 36.802447566864544,-47.61068890242366 37.74196170552152,-47.89872803333479 38.69384562280658,-48.14317842050886 39.65574317040961,-48.34404006394587 40.625887237098034,-48.50013488949076 41.60192167456173,-48.61264097129858 42.58266840864566,-48.67979119813676 43.56518225396216,-48.702174607082824 46.73596884229475,-48.702174607082824 46.73596884229475,-56.06513807618135 125.07790015350307,-56.065138076181356 125.07790015350307,-33.68172913012184"/>
<polygon class="l3d0" points="-137.76634784053118,54.00645349022142 -137.83526517860196,54.997213854623304 -137.94953837164235,55.98385095948252 -137.94953837164235,50.04282299553629 -137.83526517860196,51.0294601003955 -137.76634784053118,52.02022046479739 -137.7433753945076,53.013336977509404"/>
<polygon class="l3d0" points="-137.76634784053118,124.69090279356728 -137.83526517860196,125.68166315796917 -137.94953837164235,126.66830026282838 -137.94953837164235,120.72727229888216 -137.83526517860196,121.71390940374137 -137.76634784053118,122.70466976814325 -137.7433753945076,123.69778628085527"/>
<polygon class="l3d0" points="-137.76634784053115,218.9368351980284 -137.83526517860193,219.9275955624303 -137.94953837164235,220.9142326672895 -137.94953837164235,191.411721602228 -137.83526517860193,192.3983587070872 -137.76634784053115,193.38911907148912 -137.74337539450758,194.3822355842011 -137.74337539450758,217.94371868531638"/>
<polygon class="l3d0" points="-143.32567977823933,-1.4725926938196965 -143.32567977823933,-3.828741003931225 -137.94953837164235,-3.8287410039312255 -137.94953837164235,-1.472592693819697"/>
<polygon class="l3d0" points="-143.32567977823933,3.828741003931243 -143.32567977823933,1.4725926938197142 -137.94953837164235,1.4725926938197138 -137.94953837164235,3.8287410039312424"/>
<polygon class="l3d0" points="-138.10975645672994,56.9640086564889 -138.31474135970964,57.935919834409916 -138.56390404350395,58.89722834493542 -138.85783354519035,59.84557803975531 -139.19535179061384,60.779790844714526 -139.57528070561932,61.69751061150296 -139.9976202902068,62.59638119181052 -140.46060343314372,63.47522451148211 -140.96364109735254,64.33168442220766 -141.5061442457557,65.16340477567702 -142.08575673004316,65.9697965348127 -142.70247855021483,66.74850355130455 -143.32567977823933,67.46477263757846 -143.32567977823933,63.64899044935284 -143.13954406174054,63.35506094766643 -142.82323115110805,62.85496846884526 -142.36024800817114,62.03738500523655 -142.08575673004316,61.49311474560079 -141.93731938650612,61.198596206836854 -141.5568014344231,60.33919111072367 -141.2186941519221,59.46270393936218 -140.92417561315816,58.57031276690744 -140.67324581813128,57.66496277874709 -140.46767187807404,56.74783204903618 -140.30686475590895,55.822454800239875 -140.19200252579103,54.89000910651324 -140.12249615064272,53.95285111616637 -140.09952370461912,53.013336977509404 -140.12249615064272,52.07382283885243 -140.19200252579103,51.13666484850557 -140.30686475590895,50.204219154778926 -140.46767187807404,49.278841905982624 -140.67324581813128,48.36171117627171 -140.92417561315816,47.456361188111366 -141.2186941519221,46.56397001565662 -141.5568014344231,45.68748284429513 -141.93731938650612,44.828077748181954 -142.08575673004316,44.53355920941801 -142.36024800817114,43.98928894978225 -142.82323115110805,43.17170548617355 -143.13954406174054,42.67161300735237 -143.32567977823933,42.37768350566596 -143.32567977823933,38.56190131744034 -142.70247855021483,39.27817040371425 -142.08575673004316,40.056877420206106 -141.5061442457557,40.86326917934178 -140.96364109735254,41.69498953281114 -140.46060343314372,42.55144944353669 -139.9976202902068,43.430292763208286 -139.57528070561932,44.32916334351584 -139.19535179061384,45.246883110304275 -138.85783354519035,46.1810959152635 -138.56390404350395,47.12944561008339 -138.31474135970964,48.09075412060889 -138.10975645672994,49.0626652985299 -137.94953837164235,50.04282299553629 -137.94953837164235,55.98385095948252"/>
<polygon class="l3d0" points="-143.06827057535966,53.89041318594842 -143.13954406174054,54.764544208999794 -143.25794051432362,55.63396293543095 -143.32567977823933,55.986796144870155 -143.32567977823933,50.03987781014865 -143.25794051432362,50.39271101958786 -143.13954406174054,51.262129746019006 -143.06827057535966,52.13626076907038 -143.04470909225853,53.013336977509404"/>
<polygon class="l3d0" points="-138.10975645672994,127.64845795983477 -138.31474135970964,128.62036913775577 -138.56390404350395,129.58167764828127 -138.85783354519035,130.53002734310115 -139.19535179061384,131.46424014806038 -139.57528070561932,132.38195991484884 -139.9976202902068,133.28083049515638 -140.46060343314372,134.15967381482798 -140.96364109735254,135.01613372555352 -141.5061442457557,135.8478540790229 -142.08575673004316,136.65424583815857 -142.70247855021483,137.43295285465044 -143.32567977823933,138.14922194092432 -143.32567977823933,134.33343975269872 -143.13954406174054,134.03951025101227 -142.82323115110805,133.53941777219111 -142.36024800817114,132.72183430858243 -142.08575673004316,132.17756404894666 -141.93731938650612,131.8830455101827 -141.5568014344231,131.02364041406955 -141.2186941519221,130.14715324270804 -140.92417561315816,129.2547620702533 -140.67324581813128,128.34941208209295 -140.46767187807404,127.43228135238205 -140.30686475590895,126.50690410358574 -140.19200252579103,125.5744584098591 -140.12249615064272,124.63730041951224 -140.09952370461912,123.69778628085527 -140.12249615064272,122.7582721421983 -140.19200252579103,121.82111415185143 -140.30686475590895,120.8886684581248 -140.46767187807404,119.96329120932849 -140.67324581813128,119.04616047961758 -140.92417561315816,118.14081049145723 -141.2186941519221,117.24841931900248 -141.5568014344231,116.37193214764099 -141.93731938650612,115.51252705152783 -142.08575673004316,115.21800851276389 -142.36024800817114,114.67373825312812 -142.82323115110805,113.85615478951941 -143.13954406174054,113.35606231069825 -143.32567977823933,113.06213280901181 -143.32567977823933,109.24635062078622 -142.70247855021483,109.9626197070601 -142.08575673004316,110.74132672355196 -141.5061442457557,111.54771848268764 -140.96364109735254,112.37943883615701 -140.46060343314372,113.23589874688255 -139.9976202902068,114.11474206655414 -139.57528070561932,115.0136126468617 -139.19535179061384,115.93133241365014 -138.85783354519035,116.86554521860937 -138.56390404350395,117.81389491342925 -138.31474135970964,118.77520342395475 -138.10975645672994,119.74711460187577 -137.94953837164235,120.72727229888216 -137.94953837164235,126.66830026282838"/>
<polygon class="l3d0" points="-143.06827057535966,124.57486248929429 -143.13954406174054,125.44899351234567 -143.25794051432362,126.31841223877682 -143.32567977823933,126.67124544821601 -143.32567977823933,120.72432711349451 -143.25794051432362,121.07716032293371 -143.13954406174054,121.94657904936487 -143.06827057535966,122.82071007241625 -143.04470909225853,123.69778628085527"/>
<polygon class="l3d0" points="-138.10975645672994,221.8943903642959 -138.31474135970961,222.86630154221692 -138.56390404350392,223.8276100527424 -138.85783354519035,224.7759597475623 -139.1953517906138,225.71017255252153 -139.5752807056193,226.62789231930995 -139.99762029020678,227.52676289961752 -140.46060343314372,228.40560621928913 -140.96364109735254,229.26206613001463 -141.5061442457557,230.09378648348402 -142.08575673004313,230.9001782426197 -142.70247855021483,231.67888525911155 -143.32567977823933,232.39515434538546 -143.32567977823933,228.57937215715984 -143.1395440617405,228.28544265547342 -142.82323115110805,227.78535017665226 -142.3602480081711,226.96776671304355 -142.08575673004313,226.4234964534078 -141.93731938650612,226.12897791464385 -141.55680143442308,225.26957281853066 -141.21869415192208,224.3930856471692 -140.92417561315816,223.50069447471444 -140.67324581813125,222.59534448655407 -140.46767187807404,221.67821375684315 -140.30686475590892,220.75283650804687 -140.192002525791,219.8203908143202 -140.1224961506427,218.88323282397337 -140.09952370461912,217.94371868531638 -140.09952370461912,194.3822355842011 -140.1224961506427,193.44272144554412 -140.192002525791,192.5055634551973 -140.30686475590892,191.57311776147063 -140.46767187807404,190.64774051267435 -140.67324581813125,189.73060978296343 -140.92417561315816,188.82525979480306 -141.21869415192208,187.9328686223483 -141.55680143442308,187.05638145098683 -141.93731938650612,186.19697635487364 -142.08575673004313,185.90245781610972 -142.3602480081711,185.35818755647395 -142.82323115110805,184.54060409286524 -143.1395440617405,184.04051161404408 -143.32567977823933,183.7465821123577 -143.32567977823933,179.93079992413206 -142.70247855021483,180.64706901040597 -142.08575673004313,181.42577602689784 -141.5061442457557,182.23216778603347 -140.96364109735254,183.06388813950286 -140.46060343314372,183.92034805022837 -139.99762029020678,184.7991913699 -139.5752807056193,185.69806195020755 -139.1953517906138,186.61578171699597 -138.85783354519035,187.5499945219552 -138.56390404350392,188.4983442167751 -138.31474135970961,189.45965272730058 -138.10975645672994,190.4315639052216 -137.94953837164235,191.411721602228 -137.94953837164235,220.9142326672895"/>
<polygon class="l3d0" points="-143.06827057535963,218.8207948937554 -143.1395440617405,219.6949259168068 -143.25794051432362,220.56434464323794 -143.32567977823933,220.91717785267716 -143.32567977823933,191.40877641684037 -143.25794051432362,191.76160962627955 -143.1395440617405,192.6310283527107 -143.06827057535963,193.5051593757621 -143.04470909225853,194.3822355842011 -143.04470909225853,217.94371868531638"/>
<polygon class="l3d0" points="-146.8976006163684,-1.4725926938196965 -146.8976006163684,-3.828741003931225 -143.32567977823933,-3.828741003931225 -143.32567977823933,-1.4725926938196965"/>
<polygon class="l3d0" points="-146.8976006163684,3.828741003931243 -146.8976006163684,1.4725926938197142 -143.32567977823933,1.4725926938197142 -143.32567977823933,3.828741003931243"/>
<polygon class="l3d0" points="-143.63492424394147,41.93885088290769 -143.86700485248747,41.6095791565696 -144.44485022554233,40.86857051303953 -145.05862686032637,40.15701372338585 -145.70656764560704,39.476675898841144 -146.38690547015176,38.82873511356047 -146.8976006163684,38.38813537956962 -146.8976006163684,35.41703236051898 -146.286769166972,35.85586498327725 -145.50806215048013,36.47258680344894 -144.7588069878647,37.12465084827231 -144.04077079035818,37.810879043592294 -143.63492424394147,38.2355747764899 -143.35454259503823,38.52891524109878 -143.32567977823933,38.56190131744034 -143.32567977823933,42.37768350566596"/>
<polygon class="l3d0" points="-143.42345993310897,56.49572417985424 -143.63492424394147,57.34688275688203 -143.8929224838987,58.185671555281736 -144.19509850467048,59.00914538966572 -144.5420413433344,59.81494811172386 -144.93198388865787,60.60072357314605 -145.3637480664858,61.364704662699715 -145.83615580266317,62.103946194997214 -146.3480290230349,62.816092021728416 -146.8976006163684,63.49996406873829 -146.8976006163684,59.2706778520881 -146.87345009618977,59.225911034195974 -146.53298666537864,58.496094095138936 -146.2355229412271,57.74742796960099 -145.98223699789008,56.983446880047325 -145.77430690952275,56.20532890063299 -145.61114363904753,55.41719729090069 -145.494514297697,54.62023012500546 -145.42441888547117,53.81796162541249 -145.40085740237006,53.013336977509404 -145.42441888547117,52.208712329606314 -145.494514297697,51.406443830013345 -145.61114363904753,50.60947666411811 -145.77430690952275,49.82134505438581 -145.98223699789008,49.043227074971476 -146.2355229412271,48.27924598541781 -146.53298666537864,47.53057985987987 -146.87345009618977,46.800762920822834 -146.8976006163684,46.75599610293071 -146.8976006163684,42.526709886280514 -146.3480290230349,43.21058193329039 -145.83615580266317,43.922727760021594 -145.3637480664858,44.66196929231909 -144.93198388865787,45.42595038187275 -144.5420413433344,46.21172584329495 -144.19509850467048,47.01752856535309 -143.8929224838987,47.841002399737064 -143.63492424394147,48.679791198136776 -143.42345993310897,49.53094977516456 -143.32567977823933,50.03987781014865 -143.32567977823933,55.986796144870155"/>
<polygon class="l3d0" points="-143.35454259503823,67.49775871392002 -143.63492424394147,67.79109917852891 -144.04077079035818,68.21579491142651 -144.7588069878647,68.9020231067465 -145.50806215048013,69.55408715156986 -146.286769166972,70.17080897174155 -146.8976006163684,70.60964159449983 -146.8976006163684,67.63853857544919 -146.38690547015176,67.19793884145834 -145.70656764560704,66.54999805617766 -145.05862686032637,65.86966023163295 -144.44485022554233,65.15810344197928 -143.86700485248747,64.4170947984492 -143.63492424394147,64.08782307211112 -143.32567977823933,63.64899044935284 -143.32567977823933,67.46477263757846"/>
<polygon class="l3d0" points="-143.63492424394147,112.62330018625356 -143.86700485248747,112.29402845991547 -144.44485022554233,111.5530198163854 -145.05862686032637,110.84146302673172 -145.70656764560704,110.16112520218701 -146.38690547015176,109.51318441690634 -146.8976006163684,109.07258468291548 -146.8976006163684,106.10148166386485 -146.286769166972,106.54031428662313 -145.50806215048013,107.15703610679482 -144.7588069878647,107.80910015161818 -144.04077079035818,108.49532834693815 -143.63492424394147,108.92002407983577 -143.35454259503823,109.21336454444464 -143.32567977823933,109.24635062078622 -143.32567977823933,113.06213280901181"/>
<polygon class="l3d0" points="-143.42345993310897,127.18017348320011 -143.63492424394147,128.0313320602279 -143.8929224838987,128.87012085862762 -144.19509850467048,129.6935946930116 -144.5420413433344,130.49939741506972 -144.93198388865787,131.2851728764919 -145.3637480664858,132.04915396604557 -145.83615580266317,132.78839549834308 -146.3480290230349,133.50054132507427 -146.8976006163684,134.18441337208415 -146.8976006163684,129.95512715543396 -146.87345009618977,129.91036033754185 -146.53298666537864,129.1805433984848 -146.2355229412271,128.43187727294685 -145.98223699789008,127.6678961833932 -145.77430690952275,126.88977820397886 -145.61114363904753,126.10164659424655 -145.494514297697,125.30467942835133 -145.42441888547117,124.50241092875837 -145.40085740237006,123.69778628085527 -145.42441888547117,122.89316163295217 -145.494514297697,122.0908931333592 -145.61114363904753,121.29392596746399 -145.77430690952275,120.50579435773167 -145.98223699789008,119.72767637831734 -146.2355229412271,118.96369528876367 -146.53298666537864,118.21502916322575 -146.87345009618977,117.48521222416869 -146.8976006163684,117.44044540627658 -146.8976006163684,113.21115918962639 -146.3480290230349,113.89503123663626 -145.83615580266317,114.60717706336747 -145.3637480664858,115.34641859566496 -144.93198388865787,116.11039968521862 -144.5420413433344,116.89617514664081 -144.19509850467048,117.70197786869896 -143.8929224838987,118.52545170308294 -143.63492424394147,119.36424050148264 -143.42345993310897,120.21539907851043 -143.32567977823933,120.72432711349451 -143.32567977823933,126.67124544821601"/>
<polygon class="l3d0" points="-143.3545425950382,138.18220801726588 -143.63492424394147,138.47554848187477 -144.04077079035818,138.90024421477239 -144.75880698786466,139.58647241009234 -145.50806215048013,140.23853645491573 -146.286769166972,140.8552582750874 -146.8976006163684,141.29409089784568 -146.8976006163684,138.32298787879506 -146.38690547015173,137.8823881448042 -145.70656764560704,137.23444735952353 -145.05862686032637,136.5541095349788 -144.44485022554233,135.84255274532515 -143.86700485248747,135.10154410179507 -143.63492424394147,134.77227237545696 -143.32567977823933,134.33343975269872 -143.32567977823933,138.14922194092432"/>
<polygon class="l3d0" points="-143.63492424394147,183.30774948959942 -143.86700485248747,182.9784777632613 -144.4448502255423,182.23746911973123 -145.05862686032637,181.52591233007755 -145.70656764560704,180.84557450553285 -146.38690547015173,180.19763372025216 -146.8976006163684,179.75703398626132 -146.8976006163684,176.7859309672107 -146.286769166972,177.22476358996897 -145.50806215048013,177.84148541014065 -144.75880698786466,178.493549454964 -144.04077079035818,179.179777650284 -143.63492424394147,179.60447338318158 -143.3545425950382,179.8978138477905 -143.32567977823933,179.93079992413206 -143.32567977823933,183.7465821123577"/>
<polygon class="l3d0" points="-143.42345993310894,221.4261058876612 -143.63492424394147,222.27726446468904 -143.89292248389867,223.11605326308873 -144.19509850467048,223.93952709747268 -144.5420413433344,224.74532981953087 -144.93198388865787,225.53110528095303 -145.3637480664858,226.2950863705067 -145.83615580266317,227.0343279028042 -146.34802902303488,227.7464737295354 -146.8976006163684,228.43034577654527 -146.8976006163684,224.20105955989507 -146.87345009618974,224.156292742003 -146.53298666537864,223.42647580294593 -146.23552294122706,222.67780967740796 -145.98223699789006,221.9138285878543 -145.77430690952275,221.13571060843998 -145.6111436390475,220.3475789987077 -145.49451429769698,219.55061183281245 -145.42441888547117,218.74834333321948 -145.40085740237006,217.94371868531638 -145.40085740237006,194.3822355842011 -145.42441888547117,193.57761093629804 -145.49451429769698,192.77534243670505 -145.6111436390475,191.9783752708098 -145.77430690952275,191.19024366107752 -145.98223699789006,190.41212568166318 -146.23552294122706,189.64814459210953 -146.53298666537864,188.8994784665716 -146.87345009618974,188.1696615275145 -146.8976006163684,188.12489470962242 -146.8976006163684,183.89560849297223 -146.34802902303488,184.5794805399821 -145.83615580266317,185.2916263667133 -145.3637480664858,186.0308678990108 -144.93198388865787,186.79484898856447 -144.5420413433344,187.58062444998663 -144.19509850467048,188.38642717204482 -143.89292248389867,189.20990100642877 -143.63492424394147,190.04868980482846 -143.42345993310894,190.8998483818563 -143.32567977823933,191.40877641684037 -143.32567977823933,220.91717785267716"/>
<polygon class="l3d0" points="-143.3545425950382,232.428140421727 -143.63492424394147,232.7214808863359 -144.04077079035818,233.14617661923353 -144.75880698786466,233.83240481455348 -145.50806215048013,234.48446885937688 -146.286769166972,235.10119067954852 -146.8976006163684,235.54002330230682 -146.8976006163684,232.56892028325618 -146.38690547015173,232.12832054926534 -145.70656764560704,231.48037976398464 -145.05862686032637,230.80004193943995 -144.4448502255423,230.08848514978627 -143.86700485248747,229.3474765062562 -143.63492424394147,229.0182047799181 -143.32567977823933,228.57937215715984 -143.32567977823933,232.39515434538546"/>
<polygon class="l3d0" points="-151.05855853202536,-1.4725926938196963 -151.05855853202536,-3.8287410039312246 -146.8976006163684,-3.828741003931225 -146.8976006163684,-1.4725926938196965"/>
<polygon class="l3d0" points="-151.05855853202536,3.8287410039312433 -151.05855853202536,1.4725926938197145 -146.8976006163684,1.4725926938197142 -146.8976006163684,3.828741003931243"/>
<polygon class="l3d0" points="-147.09846225980542,38.21495847877642 -147.8394709033355,37.63711310572157 -147.92488127957705,37.57703132381372 -148.60757525243184,37.09578803147344 -149.40159723293945,36.59333940434216 -150.21918069654814,36.13035626140525 -150.89186103908497,35.79165994182671 -150.97727141532653,35.74866023516717 -151.05855853202536,35.707427639740224 -151.05855853202536,33.13863694464113 -150.97727141532653,33.17221205806022 -150.55905509028173,33.34538895885342 -149.6601845099742,33.76772854344091 -148.78134119030258,34.23071168637782 -147.92488127957705,34.733749350586635 -147.09316092610766,35.27625249898981 -146.8976006163684,35.41703236051898 -146.8976006163684,38.38813537956962"/>
<polygon class="l3d0" points="-147.25573515950538,46.09215131655679 -147.67807474409287,45.40710119539186 -147.92488127957705,45.054267985952656 -148.1398798128747,44.74737966856063 -148.63938325461837,44.11534288437322 -149.1748179580912,43.51393602821725 -149.74382777498315,42.94492621132531 -150.34582366821664,42.40949150785247 -150.97727141532653,41.90998806610882 -151.05855853202536,41.852851469588614 -151.05855853202536,39.039021350237924 -150.97727141532653,39.0849662422851 -150.89186103908497,39.13326728264239 -150.1526195067875,39.60626405589728 -149.4404736800563,40.11754823919148 -148.75660163304642,40.66770886960252 -148.103359514068,41.253211724665235 -147.48310347143112,41.87346776730209 -146.8976006163684,42.526709886280514 -146.8976006163684,46.75599610293071"/>
<polygon class="l3d0" points="-147.48310347143112,64.15320618771672 -148.103359514068,64.77346223035357 -148.75660163304642,65.35896508541629 -149.4404736800563,65.90912571582733 -150.1526195067875,66.42040989912152 -150.89186103908497,66.89340667237641 -150.97727141532653,66.9417077127337 -151.05855853202536,66.98765260478088 -151.05855853202536,64.1738224854302 -150.97727141532653,64.11668588890997 -150.34582366821664,63.617182447166336 -149.74382777498315,63.08174774369349 -149.1748179580912,62.512737926801556 -148.63938325461837,61.91133107064559 -148.1398798128747,61.279294286458175 -147.92488127957705,60.972405969066145 -147.67807474409287,60.61957275962694 -147.25573515950538,59.93452263846201 -146.8976006163684,59.2706778520881 -146.8976006163684,63.49996406873829"/>
<polygon class="l3d0" points="-147.09316092610766,70.75042145602899 -147.92488127957705,71.29292460443217 -148.78134119030258,71.79596226864098 -149.6601845099742,72.2589454115779 -150.55905509028173,72.68128499616539 -150.97727141532653,72.85446189695858 -151.05855853202536,72.88803701037767 -151.05855853202536,70.31924631527858 -150.97727141532653,70.27801371985163 -150.89186103908497,70.23501401319209 -150.21918069654814,69.89631769361357 -149.40159723293945,69.43333455067665 -148.60757525243184,68.93088592354536 -147.92488127957705,68.44964263120508 -147.8394709033355,68.38956084929724 -147.09846225980542,67.81171547624238 -146.8976006163684,67.63853857544919 -146.8976006163684,70.60964159449983"/>
<polygon class="l3d0" points="-147.09846225980542,108.8994077821223 -147.8394709033355,108.32156240906743 -147.92488127957705,108.2614806271596 -148.60757525243184,107.7802373348193 -149.40159723293945,107.27778870768802 -150.21918069654814,106.81480556475111 -150.89186103908497,106.47610924517258 -150.97727141532653,106.43310953851304 -151.05855853202536,106.39187694308609 -151.05855853202536,103.82308624798699 -150.97727141532653,103.85666136140608 -150.55905509028173,104.02983826219929 -149.6601845099742,104.45217784678677 -148.78134119030258,104.91516098972369 -147.92488127957705,105.4181986539325 -147.09316092610766,105.96070180233568 -146.8976006163684,106.10148166386485 -146.8976006163684,109.07258468291548"/>
<polygon class="l3d0" points="-147.25573515950538,116.77660061990265 -147.67807474409287,116.09155049873772 -147.92488127957705,115.73871728929852 -148.1398798128747,115.43182897190651 -148.63938325461837,114.79979218771908 -149.1748179580912,114.1983853315631 -149.74382777498315,113.62937551467118 -150.34582366821664,113.09394081119832 -150.97727141532653,112.5944373694547 -151.05855853202536,112.53730077293449 -151.05855853202536,109.7234706535838 -150.97727141532653,109.76941554563098 -150.89186103908497,109.81771658598825 -150.1526195067875,110.29071335924314 -149.4404736800563,110.80199754253735 -148.75660163304642,111.35215817294838 -148.103359514068,111.93766102801109 -147.48310347143112,112.55791707064796 -146.8976006163684,113.21115918962639 -146.8976006163684,117.44044540627658"/>
<polygon class="l3d0" points="-147.48310347143112,134.83765549106258 -148.103359514068,135.45791153369944 -148.75660163304642,136.04341438876216 -149.4404736800563,136.5935750191732 -150.1526195067875,137.1048592024674 -150.89186103908497,137.5778559757223 -150.97727141532653,137.62615701607956 -151.05855853202536,137.67210190812673 -151.05855853202536,134.85827178877605 -150.97727141532653,134.80113519225586 -150.34582366821664,134.3016317505122 -149.74382777498315,133.76619704703936 -149.1748179580912,133.19718723014742 -148.63938325461837,132.59578037399146 -148.1398798128747,131.96374358980404 -147.92488127957705,131.656855272412 -147.67807474409287,131.30402206297282 -147.25573515950538,130.61897194180787 -146.8976006163684,129.95512715543396 -146.8976006163684,134.18441337208415"/>
<polygon class="l3d0" points="-147.09316092610766,141.43487075937486 -147.92488127957702,141.97737390777803 -148.78134119030256,142.48041157198685 -149.66018450997416,142.94339471492376 -150.55905509028173,143.36573429951125 -150.97727141532653,143.53891120030445 -151.05855853202536,143.57248631372354 -151.05855853202536,141.00369561862445 -150.97727141532653,140.9624630231975 -150.89186103908497,140.91946331653796 -150.21918069654814,140.58076699695943 -149.40159723293942,140.11778385402252 -148.60757525243184,139.61533522689123 -147.92488127957702,139.13409193455095 -147.8394709033355,139.0740101526431 -147.09846225980542,138.49616477958824 -146.8976006163684,138.32298787879506 -146.8976006163684,141.29409089784568"/>
<polygon class="l3d0" points="-147.09846225980542,179.58385708546814 -147.8394709033355,179.00601171241328 -147.92488127957702,178.94592993050543 -148.60757525243184,178.46468663816515 -149.40159723293942,177.9622380110339 -150.21918069654814,177.49925486809695 -150.89186103908497,177.1605585485184 -150.97727141532653,177.11755884185888 -151.05855853202536,177.07632624643193 -151.05855853202536,174.50753555133284 -150.97727141532653,174.5411106647519 -150.55905509028173,174.71428756554513 -149.66018450997416,175.13662715013263 -148.78134119030256,175.59961029306953 -147.92488127957702,176.10264795727832 -147.09316092610766,176.64515110568152 -146.8976006163684,176.7859309672107 -146.8976006163684,179.75703398626132"/>
<polygon class="l3d0" points="-147.25573515950535,187.46104992324848 -147.67807474409284,186.77599980208356 -147.92488127957702,186.42316659264438 -148.1398798128747,186.11627827525234 -148.63938325461834,185.48424149106492 -149.1748179580912,184.88283463490896 -149.74382777498312,184.313824818017 -150.34582366821664,183.77839011454418 -150.97727141532653,183.27888667280052 -151.05855853202536,183.22175007628033 -151.05855853202536,180.40791995692965 -150.97727141532653,180.4538648489768 -150.89186103908497,180.5021658893341 -150.1526195067875,180.97516266258896 -149.44047368005627,181.4864468458832 -148.7566016330464,182.03660747629422 -148.10335951406796,182.62211033135696 -147.48310347143112,183.2423663739938 -146.8976006163684,183.89560849297223 -146.8976006163684,188.12489470962242"/>
<polygon class="l3d0" points="-147.48310347143112,229.0835878955237 -148.10335951406796,229.70384393816056 -148.7566016330464,230.28934679322327 -149.44047368005627,230.8395074236343 -150.1526195067875,231.35079160692854 -150.89186103908497,231.82378838018343 -150.97727141532653,231.8720894205407 -151.05855853202536,231.91803431258788 -151.05855853202536,229.10420419323717 -150.97727141532653,229.047067596717 -150.34582366821664,228.54756415497334 -149.74382777498312,228.0121294515005 -149.1748179580912,227.44311963460856 -148.63938325461834,226.84171277845257 -148.1398798128747,226.20967599426518 -147.92488127957702,225.90278767687315 -147.67807474409284,225.54995446743393 -147.25573515950535,224.86490434626901 -146.8976006163684,224.20105955989507 -146.8976006163684,228.43034577654527"/>
<polygon class="l3d0" points="-147.09316092610766,235.680803163836 -147.92488127957702,236.22330631223917 -148.78134119030256,236.72634397644796 -149.66018450997416,237.1893271193849 -150.55905509028173,237.61166670397236 -150.97727141532653,237.7848436047656 -151.05855853202536,237.81841871818466 -151.05855853202536,235.24962802308556 -150.97727141532653,235.20839542765862 -150.89186103908497,235.1653957209991 -150.21918069654814,234.82669940142054 -149.40159723293942,234.36371625848363 -148.60757525243184,233.86126763135238 -147.92488127957702,233.3800243390121 -147.8394709033355,233.3199425571042 -147.09846225980542,232.74209718404938 -146.8976006163684,232.56892028325618 -146.8976006163684,235.54002330230682"/>
<polygon class="l3d0" points="-156.83936841088402,-1.4725926938196956 -156.83936841088402,-3.8287410039312246 -151.05855853202536,-3.8287410039312246 -151.05855853202536,-1.4725926938196963"/>
<polygon class="l3d0" points="-156.83936841088402,3.8287410039312433 -156.83936841088402,1.4725926938197151 -151.05855853202536,1.4725926938197145 -151.05855853202536,3.8287410039312433"/>
<polygon class="l3d0" points="-151.91737459106105,35.32690968765721 -152.79386176242252,34.98880240515621 -153.24742031211898,34.8385979503866 -153.68625293487725,34.69369482931474 -154.5916029230376,34.443354071365384 -155.50873365274853,34.23719109423063 -156.43411090154484,34.076973009143046 -156.83936841088402,34.02690485755318 -156.83936841088402,31.654263509270866 -156.2727147423022,31.719646624876464 -155.29255704529578,31.879275672886518 -154.3206458673748,32.08484961294375 -153.3593373568493,32.334012296738045 -153.24742031211898,32.368765484312185 -152.41098766202938,32.62794179842446 -151.47677485707018,32.96546004384793 -151.05855853202536,33.13863694464113 -151.05855853202536,35.707427639740224"/>
<polygon class="l3d0" points="-151.63699294215778,41.44818299732697 -152.3220430633227,41.025254375661945 -153.03065466758872,40.64355834942388 -153.24742031211898,40.54224397208908 -153.76047160664575,40.30309491861276 -154.50913773218372,40.00563119446118 -155.27311882173737,39.75234525112419 -156.0512368011517,39.54382612567932 -156.83936841088402,39.381251892281625 -156.83936841088402,36.99859691368134 -156.62260276635376,37.028048767557735 -155.76084152193044,37.19356818634307 -154.90968294490267,37.40503249717558 -154.07089414650298,37.66303073713279 -153.24742031211898,37.965206757904596 -152.44161759006084,38.31214959656852 -151.65584212863865,38.70150310481445 -151.05855853202536,39.039021350237924 -151.05855853202536,41.852851469588614"/>
<polygon class="l3d0" points="-151.65584212863865,67.32517085020436 -152.44161759006084,67.71452435845028 -153.24742031211898,68.06146719711421 -154.07089414650298,68.36364321788601 -154.90968294490267,68.62164145784322 -155.76084152193044,68.83310576867574 -156.62260276635376,68.99862518746107 -156.83936841088402,69.02807704133747 -156.83936841088402,66.64542206273718 -156.0512368011517,66.48284782933949 -155.27311882173737,66.27432870389461 -154.50913773218372,66.02104276055762 -153.76047160664575,65.72357903640605 -153.24742031211898,65.48442998292973 -153.03065466758872,65.38311560559492 -152.3220430633227,65.00141957935686 -151.63699294215778,64.57849095769184 -151.05855853202536,64.1738224854302 -151.05855853202536,66.98765260478088"/>
<polygon class="l3d0" points="-151.47677485707018,73.06121391117087 -152.41098766202938,73.39873215659435 -153.24742031211898,73.65790847070662 -153.3593373568493,73.69266165828076 -154.3206458673748,73.94182434207505 -155.29255704529578,74.14739828213229 -156.2727147423022,74.30702733014235 -156.83936841088402,74.37241044574793 -156.83936841088402,71.99976909746563 -156.43411090154484,71.94970094587575 -155.50873365274853,71.78948286078817 -154.5916029230376,71.58331988365342 -153.68625293487725,71.33297912570406 -153.24742031211898,71.18807600463221 -152.79386176242252,71.03787154986259 -151.91737459106105,70.69976426736159 -151.05855853202536,70.31924631527858 -151.05855853202536,72.88803701037767"/>
<polygon class="l3d0" points="-151.91737459106105,106.01135899100308 -152.79386176242252,105.67325170850208 -153.24742031211898,105.52304725373247 -153.68625293487725,105.37814413266061 -154.5916029230376,105.12780337471125 -155.50873365274853,104.9216403975765 -156.43411090154484,104.76142231248892 -156.83936841088402,104.71135416089903 -156.83936841088402,102.33871281261673 -156.2727147423022,102.40409592822232 -155.29255704529578,102.5637249762324 -154.3206458673748,102.76929891628961 -153.3593373568493,103.01846160008391 -153.24742031211898,103.05321478765805 -152.41098766202938,103.31239110177032 -151.47677485707018,103.6499093471938 -151.05855853202536,103.82308624798699 -151.05855853202536,106.39187694308609"/>
<polygon class="l3d0" points="-151.63699294215778,112.13263230067284 -152.3220430633227,111.7097036790078 -153.03065466758872,111.32800765276974 -153.24742031211898,111.22669327543495 -153.76047160664575,110.98754422195863 -154.50913773218372,110.69008049780705 -155.27311882173737,110.43679455447005 -156.0512368011517,110.22827542902519 -156.83936841088402,110.0657011956275 -156.83936841088402,107.68304621702721 -156.62260276635376,107.71249807090359 -155.76084152193044,107.87801748968894 -154.90968294490267,108.08948180052145 -154.07089414650298,108.34748004047866 -153.24742031211898,108.64965606125047 -152.44161759006084,108.99659889991439 -151.65584212863865,109.38595240816032 -151.05855853202536,109.7234706535838 -151.05855853202536,112.53730077293449"/>
<polygon class="l3d0" points="-151.65584212863865,138.00962015355023 -152.44161759006084,138.39897366179616 -153.24742031211898,138.74591650046008 -154.07089414650298,139.04809252123187 -154.90968294490267,139.3060907611891 -155.76084152193044,139.5175550720216 -156.62260276635376,139.68307449080694 -156.83936841088402,139.7125263446833 -156.83936841088402,137.32987136608304 -156.0512368011517,137.16729713268535 -155.27311882173737,136.95877800724048 -154.50913773218372,136.70549206390348 -153.76047160664575,136.40802833975192 -153.24742031211898,136.1688792862756 -153.03065466758872,136.0675649089408 -152.3220430633227,135.68586888270272 -151.63699294215778,135.2629402610377 -151.05855853202536,134.85827178877605 -151.05855853202536,137.67210190812673"/>
<polygon class="l3d0" points="-151.47677485707018,143.74566321451672 -152.41098766202938,144.08318145994022 -153.24742031211898,144.3423577740525 -153.3593373568493,144.3771109616266 -154.3206458673748,144.62627364542092 -155.29255704529578,144.83184758547816 -156.2727147423022,144.99147663348822 -156.83936841088402,145.0568597490938 -156.83936841088402,142.6842184008115 -156.43411090154484,142.63415024922162 -155.50873365274853,142.47393216413406 -154.5916029230376,142.2677691869993 -153.68625293487725,142.01742842904994 -153.24742031211898,141.87252530797807 -152.79386176242252,141.72232085320846 -151.91737459106105,141.38421357070746 -151.05855853202536,141.00369561862445 -151.05855853202536,143.57248631372354"/>
<polygon class="l3d0" points="-151.91737459106105,176.69580829434892 -152.79386176242252,176.3577010118479 -153.24742031211898,176.2074965570783 -153.68625293487725,176.06259343600644 -154.5916029230376,175.8122526780571 -155.50873365274853,175.60608970092235 -156.43411090154484,175.44587161583473 -156.83936841088402,175.3958034642449 -156.83936841088402,173.02316211596255 -156.2727147423022,173.0885452315682 -155.29255704529578,173.24817427957822 -154.3206458673748,173.4537482196355 -153.3593373568493,173.70291090342974 -153.24742031211898,173.7376640910039 -152.41098766202938,173.99684040511616 -151.47677485707018,174.33435865053963 -151.05855853202536,174.50753555133284 -151.05855853202536,177.07632624643193"/>
<polygon class="l3d0" points="-151.63699294215778,182.81708160401865 -152.3220430633227,182.39415298235366 -153.03065466758872,182.01245695611559 -153.24742031211898,181.91114257878078 -153.76047160664575,181.6719935253045 -154.50913773218372,181.37452980115287 -155.27311882173737,181.1212438578159 -156.0512368011517,180.912724732371 -156.83936841088402,180.75015049897334 -156.83936841088402,178.36749552037307 -156.62260276635376,178.39694737424946 -155.76084152193044,178.56246679303476 -154.90968294490267,178.77393110386728 -154.07089414650298,179.0319293438245 -153.24742031211898,179.3341053645963 -152.44161759006084,179.68104820326022 -151.65584212863865,180.07040171150615 -151.05855853202536,180.40791995692965 -151.05855853202536,183.22175007628033"/>
<polygon class="l3d0" points="-151.65584212863865,232.25555255801137 -152.44161759006084,232.6449060662573 -153.24742031211898,232.99184890492123 -154.07089414650298,233.294024925693 -154.90968294490267,233.5520231656502 -155.76084152193044,233.76348747648274 -156.62260276635376,233.92900689526806 -156.83936841088402,233.95845874914446 -156.83936841088402,231.57580377054416 -156.0512368011517,231.4132295371465 -155.27311882173737,231.2047104117016 -154.50913773218372,230.95142446836462 -153.76047160664575,230.653960744213 -153.24742031211898,230.41481169073674 -153.03065466758872,230.3134973134019 -152.3220430633227,229.93180128716384 -151.63699294215778,229.50887266549884 -151.05855853202536,229.10420419323717 -151.05855853202536,231.91803431258788"/>
<polygon class="l3d0" points="-151.47677485707018,237.99159561897787 -152.41098766202938,238.32911386440134 -153.24742031211898,238.5882901785136 -153.3593373568493,238.62304336608776 -154.3206458673748,238.87220604988204 -155.29255704529578,239.0777799899393 -156.2727147423022,239.23740903794933 -156.83936841088402,239.30279215355495 -156.83936841088402,236.93015080527263 -156.43411090154484,236.88008265368276 -155.50873365274853,236.71986456859514 -154.5916029230376,236.5137015914604 -153.68625293487725,236.26336083351106 -153.24742031211898,236.1184577124392 -152.79386176242252,235.9682532576696 -151.91737459106105,235.6301459751686 -151.05855853202536,235.24962802308556 -151.05855853202536,237.81841871818466"/>
<polygon class="l3d0" points="-353.4222465167293,-1.4725926938196836 -354.36176065538626,-1.4496202477960962 -355.2989186457331,-1.380702909725334 -356.2313643394598,-1.2652516425298692 -356.3927604987024,-1.2375668998860587 -356.3927604987024,-3.6225780267964534 -355.40612339384325,-3.7368512198368626 -354.4153630294413,-3.8057685579076255 -353.4222465167293,-3.8287410039312126 -156.83936841088402,-3.8287410039312246 -156.83936841088402,-1.4725926938196956"/>
<polygon class="l3d0" points="-353.4222465167293,3.8287410039312553 -354.22687116463237,3.8523024870323708 -355.02913966422534,3.922397899258189 -355.8261068301206,4.03902724060871 -356.3927604987024,4.155656581959231 -356.3927604987024,1.752974342722999 -356.2313643394598,1.7217553776140213 -356.04287247465084,1.6858241158848204 -355.17345374821963,1.5674276633017161 -354.29932272516834,1.4961541769208424 -353.4222465167293,1.4725926938197271 -156.83936841088402,1.4725926938197151 -156.83936841088402,3.8287410039312433"/>
<polygon class="l3d0" points="-157.367145632349,33.96152174194758 -158.30371458561834,33.89260440387682 -159.24322872427533,33.86963195785323 -353.4222465167293,33.869631957853244 -354.29932272516834,33.84607047475213 -355.17345374821963,33.77479698837126 -356.04287247465084,33.65640053578815 -356.2313643394598,33.62046927405895 -356.3927604987024,33.58925030894997 -356.3927604987024,31.18656806971374 -355.8261068301206,31.30319741106426 -355.02913966422534,31.41982675241478 -354.22687116463237,31.4899221646406 -353.4222465167293,31.513483647741715 -159.24322872427533,31.513483647741705 -158.25011221156328,31.536456093765292 -157.25935184716138,31.605373431836053 -156.83936841088402,31.654263509270866 -156.83936841088402,34.02690485755318"/>
<polygon class="l3d0" points="-157.63633557677926,39.26462255093111 -158.4386040763722,39.19452713870529 -159.24322872427533,39.17096565560417 -353.4222465167293,39.170965655604185 -354.4153630294413,39.1479932095806 -355.40612339384325,39.079075871509836 -356.3927604987024,38.96480267846943 -356.3927604987024,36.579791551559026 -356.2313643394598,36.60747629420284 -355.2989186457331,36.72292756139831 -354.36176065538626,36.79184489946907 -353.4222465167293,36.814817345492656 -159.24322872427533,36.81481734549264 -158.3661525158363,36.838378828593754 -157.49202149278491,36.90965231497463 -156.83936841088402,36.99859691368134 -156.83936841088402,39.381251892281625"/>
<polygon class="l3d0" points="-157.49202149278491,69.11702164004417 -158.3661525158363,69.18829512642505 -159.24322872427533,69.21185660952617 -353.4222465167293,69.21185660952618 -354.36176065538626,69.23482905554977 -355.2989186457331,69.30374639362053 -356.2313643394598,69.419197660816 -356.3927604987024,69.4468824034598 -356.3927604987024,67.06187127654941 -356.2313643394598,67.04302209006852 -355.40612339384325,66.947598083509 -354.4153630294413,66.87868074543823 -353.4222465167293,66.85570829941464 -159.24322872427533,66.85570829941463 -158.4386040763722,66.83214681631351 -157.63633557677926,66.7620514040877 -156.83936841088402,66.64542206273718 -156.83936841088402,69.02807704133747"/>
<polygon class="l3d0" points="-157.25935184716138,74.42130052318275 -158.25011221156328,74.49021786125351 -159.24322872427533,74.5131903072771 -353.4222465167293,74.51319030727711 -354.22687116463237,74.53675179037823 -355.02913966422534,74.60684720260406 -355.8261068301206,74.72347654395458 -356.3927604987024,74.84010588530509 -356.3927604987024,72.43742364606886 -356.2313643394598,72.40620468095989 -356.04287247465084,72.37027341923068 -355.17345374821963,72.25187696664757 -354.29932272516834,72.18060348026671 -353.4222465167293,72.15704199716559 -159.24322872427533,72.15704199716558 -158.30371458561834,72.13406955114198 -157.367145632349,72.06515221307122 -156.83936841088402,71.99976909746563 -156.83936841088402,74.37241044574793"/>
<polygon class="l3d0" points="-157.367145632349,104.64597104529345 -158.30371458561834,104.57705370722267 -159.24322872427533,104.5540812611991 -353.4222465167293,104.5540812611991 -354.29932272516834,104.53051977809798 -355.17345374821963,104.45924629171711 -356.04287247465084,104.34084983913401 -356.2313643394598,104.3049185774048 -356.3927604987024,104.27369961229583 -356.3927604987024,101.87101737305959 -355.8261068301206,101.98764671441012 -355.02913966422534,102.10427605576064 -354.22687116463237,102.17437146798646 -353.4222465167293,102.19793295108757 -159.24322872427533,102.19793295108757 -158.25011221156328,102.22090539711115 -157.25935184716138,102.28982273518193 -156.83936841088402,102.33871281261673 -156.83936841088402,104.71135416089903"/>
<polygon class="l3d0" points="-157.63633557677926,109.94907185427697 -158.4386040763722,109.87897644205115 -159.24322872427533,109.85541495895004 -353.4222465167293,109.85541495895004 -354.4153630294413,109.83244251292646 -355.40612339384325,109.76352517485569 -356.3927604987024,109.64925198181528 -356.3927604987024,107.26424085490488 -356.2313643394598,107.2919255975487 -355.2989186457331,107.40737686474415 -354.36176065538626,107.47629420281493 -353.4222465167293,107.49926664883851 -159.24322872427533,107.49926664883851 -158.3661525158363,107.52282813193962 -157.49202149278491,107.5941016183205 -156.83936841088402,107.68304621702721 -156.83936841088402,110.0657011956275"/>
<polygon class="l3d0" points="-157.49202149278491,139.80147094339003 -158.3661525158363,139.8727444297709 -159.24322872427533,139.89630591287204 -353.4222465167293,139.89630591287204 -354.36176065538626,139.9192783588956 -355.2989186457331,139.9881956969664 -356.2313643394598,140.10364696416184 -356.3927604987024,140.13133170680564 -356.3927604987024,137.74632057989524 -356.2313643394598,137.72747139341436 -355.40612339384325,137.63204738685485 -354.4153630294413,137.56313004878407 -353.4222465167293,137.5401576027605 -159.24322872427533,137.5401576027605 -158.4386040763722,137.5165961196594 -157.63633557677926,137.44650070743356 -156.83936841088402,137.32987136608304 -156.83936841088402,139.7125263446833"/>
<polygon class="l3d0" points="-157.25935184716138,145.1057498265286 -158.25011221156328,145.17466716459938 -159.24322872427533,145.19763961062296 -353.4222465167293,145.19763961062296 -354.22687116463237,145.2212010937241 -355.02913966422534,145.2912965059499 -355.8261068301206,145.40792584730042 -356.3927604987024,145.52455518865094 -356.3927604987024,143.12187294941472 -356.2313643394598,143.09065398430573 -356.04287247465084,143.0547227225765 -355.17345374821963,142.93632626999343 -354.29932272516834,142.86505278361255 -353.4222465167293,142.84149130051145 -159.24322872427533,142.84149130051145 -158.30371458561834,142.81851885448785 -157.367145632349,142.74960151641707 -156.83936841088402,142.6842184008115 -156.83936841088402,145.0568597490938"/>
<polygon class="l3d0" points="-157.367145632349,175.33042034863928 -158.30371458561834,175.26150301056853 -159.24322872427533,175.23853056454493 -353.4222465167293,175.23853056454496 -354.29932272516834,175.21496908144385 -355.17345374821963,175.14369559506298 -356.04287247465084,175.02529914247987 -356.2313643394598,174.98936788075068 -356.3927604987024,174.95814891564171 -356.3927604987024,172.55546667640547 -355.8261068301206,172.67209601775596 -355.02913966422534,172.7887253591065 -354.22687116463237,172.85882077133232 -353.4222465167293,172.88238225443345 -159.24322872427533,172.88238225443342 -158.25011221156328,172.905354700457 -157.25935184716138,172.97427203852777 -156.83936841088402,173.02316211596255 -156.83936841088402,175.3958034642449"/>
<polygon class="l3d0" points="-157.63633557677926,180.6335211576228 -158.4386040763722,180.563425745397 -159.24322872427533,180.53986426229588 -353.4222465167293,180.5398642622959 -354.4153630294413,180.51689181627233 -355.40612339384325,180.44797447820156 -356.3927604987024,180.33370128516114 -356.3927604987024,177.94869015825077 -356.2313643394598,177.97637490089457 -355.2989186457331,178.09182616809002 -354.36176065538626,178.1607435061608 -353.4222465167293,178.18371595218437 -159.24322872427533,178.18371595218434 -158.3661525158363,178.20727743528548 -157.49202149278491,178.27855092166635 -156.83936841088402,178.36749552037307 -156.83936841088402,180.75015049897334"/>
<polygon class="l3d0" points="-157.25935184716138,239.35168223098975 -158.25011221156328,239.4205995690605 -159.24322872427533,239.4435720150841 -321.22842504444293,239.44357201508413 -321.22842504444293,237.0874237049726 -159.24322872427533,237.08742370497257 -158.30371458561834,237.064451258949 -157.367145632349,236.99553392087822 -156.83936841088402,236.93015080527263 -156.83936841088402,239.30279215355495"/>
<polygon class="l3d0" points="-157.49202149278491,234.04740334785117 -158.3661525158363,234.11867683423202 -159.24322872427533,234.14223831733315 -321.22842504444293,234.14223831733318 -321.22842504444293,231.78609000722165 -159.24322872427533,231.78609000722162 -158.4386040763722,231.76252852412048 -157.63633557677926,231.6924331118947 -156.83936841088402,231.57580377054416 -156.83936841088402,233.95845874914446"/>
<polygon class="l3d0" points="-357.15674158825607,-1.105033557442285 -358.073872317967,-0.8988705803075262 -358.9792223061273,-0.6485298223581762 -359.6348205734159,-0.43176417782791554 -359.87161347858205,-0.35342224651670723 -360.7481006499436,-0.015314964015702846 -361.6075057460567,0.3652029880673091 -361.7736142019196,0.44884625307626835 -361.7736142019196,-2.134670368961023 -361.18870038393436,-2.3767646078249824 -360.2544875789752,-2.714282853248459 -359.6348205734159,-2.906308940522549 -359.3061378841553,-3.0082123549348725 -358.3448293736298,-3.2573750387291662 -357.3729181957088,-3.4629489787863967 -356.3927604987024,-3.6225780267964534 -356.3927604987024,-1.2375668998860587"/>
<polygon class="l3d0" points="-356.6142384398529,4.201601474006405 -357.39235641926723,4.410120599451275 -358.1563375088209,4.663406542788265 -358.9050036343588,4.960870266939846 -359.6348205734159,5.3013336977509615 -360.3434321776819,5.683029723989029 -361.0284822988468,6.105958345654048 -361.68820382567804,6.567763414435908 -361.7736142019196,6.635502678351615 -361.7736142019196,3.7910426309694714 -361.0096331123659,3.359278453141534 -360.2238576509438,2.9699249448956038 -359.6348205734159,2.7160499644810865 -359.41805492888557,2.622982106231681 -358.59458109450156,2.3208060854598775 -357.7557922961019,2.062807845502665 -356.9046337190741,1.8513435346701554 -356.3927604987024,1.752974342722999 -356.3927604987024,4.155656581959231"/>
<polygon class="l3d0" points="-356.9046337190741,33.490881117002814 -357.7557922961019,33.2794168061703 -358.59458109450156,33.02141856621309 -359.41805492888557,32.71924254544129 -359.6348205734159,32.626174687191885 -360.2238576509438,32.37229970677737 -361.0096331123659,31.982946198531437 -361.7736142019196,31.5511820207035 -361.7736142019196,28.706721973321358 -361.68820382567804,28.774461237237066 -361.0284822988468,29.236266306018923 -360.3434321776819,29.65919492768394 -359.6348205734159,30.04089095392201 -358.9050036343588,30.38135438473313 -358.1563375088209,30.678818108884705 -357.39235641926723,30.932104052221696 -356.6142384398529,31.140623177666566 -356.3927604987024,31.18656806971374 -356.3927604987024,33.58925030894997"/>
<polygon class="l3d0" points="-357.3729181957088,38.80517363045938 -358.3448293736298,38.599599690402144 -359.3061378841553,38.35043700660785 -359.6348205734159,38.24853359219552 -360.2544875789752,38.056507504921434 -361.18870038393436,37.71898925949796 -361.7736142019196,37.476895020634 -361.7736142019196,34.8933783985967 -361.6075057460567,34.97702166360566 -360.7481006499436,35.35753961568868 -359.87161347858205,35.69564689818968 -359.6348205734159,35.77398882950089 -358.9792223061273,35.99075447403115 -358.073872317967,36.2410952319805 -357.15674158825607,36.447258209115255 -356.3927604987024,36.579791551559026 -356.3927604987024,38.96480267846943"/>
<polygon class="l3d0" points="-357.15674158825607,69.57941574590357 -358.073872317967,69.78557872303834 -358.9792223061273,70.03591948098769 -359.6348205734159,70.25268512551794 -359.87161347858205,70.33102705682916 -360.7481006499436,70.66913433933016 -361.6075057460567,71.04965229141317 -361.7736142019196,71.13329555642213 -361.7736142019196,68.54977893438485 -361.18870038393436,68.30768469552088 -360.2544875789752,67.9701664500974 -359.6348205734159,67.77814036282331 -359.3061378841553,67.67623694841099 -358.3448293736298,67.42707426461669 -357.3729181957088,67.22150032455946 -356.3927604987024,67.06187127654941 -356.3927604987024,69.4468824034598"/>
<polygon class="l3d0" points="-356.6142384398529,74.88605077735227 -357.39235641926723,75.09456990279713 -358.1563375088209,75.34785584613412 -358.9050036343588,75.6453195702857 -359.6348205734159,75.98578300109682 -360.3434321776819,76.36747902733488 -361.0284822988468,76.7904076489999 -361.68820382567804,77.25221271778176 -361.7736142019196,77.31995198169746 -361.7736142019196,74.47549193431534 -361.0096331123659,74.0437277564874 -360.2238576509438,73.65437424824147 -359.6348205734159,73.40049926782694 -359.41805492888557,73.30743140957755 -358.59458109450156,73.00525538880574 -357.7557922961019,72.74725714884852 -356.9046337190741,72.53579283801602 -356.3927604987024,72.43742364606886 -356.3927604987024,74.84010588530509"/>
<polygon class="l3d0" points="-356.9046337190741,104.17533042034867 -357.7557922961019,103.96386610951616 -358.59458109450156,103.70586786955894 -359.41805492888557,103.40369184878715 -359.6348205734159,103.31062399053775 -360.2238576509438,103.05674901012323 -361.0096331123659,102.6673955018773 -361.7736142019196,102.23563132404935 -361.7736142019196,99.39117127666722 -361.68820382567804,99.45891054058292 -361.0284822988468,99.92071560936476 -360.3434321776819,100.3436442310298 -359.6348205734159,100.72534025726786 -358.9050036343588,101.06580368807899 -358.1563375088209,101.36326741223056 -357.39235641926723,101.61655335556755 -356.6142384398529,101.82507248101241 -356.3927604987024,101.87101737305959 -356.3927604987024,104.27369961229583"/>
<polygon class="l3d0" points="-357.3729181957088,109.48962293380522 -358.3448293736298,109.28404899374799 -359.3061378841553,109.03488630995369 -359.6348205734159,108.93298289554137 -360.2544875789752,108.74095680826728 -361.18870038393436,108.4034385628438 -361.7736142019196,108.16134432397985 -361.7736142019196,105.57782770194255 -361.6075057460567,105.66147096695151 -360.7481006499436,106.04198891903454 -359.87161347858205,106.38009620153552 -359.6348205734159,106.45843813284674 -358.9792223061273,106.675203777377 -358.073872317967,106.92554453532635 -357.15674158825607,107.13170751246112 -356.3927604987024,107.26424085490488 -356.3927604987024,109.64925198181528"/>
<polygon class="l3d0" points="-357.15674158825607,140.26386504924943 -358.073872317967,140.47002802638417 -358.9792223061273,140.72036878433354 -359.6348205734159,140.9371344288638 -359.87161347858205,141.015476360175 -360.7481006499436,141.353583642676 -361.6075057460567,141.734101594759 -361.7736142019196,141.81774485976797 -361.7736142019196,139.2342282377307 -361.18870038393436,138.99213399886673 -360.2544875789752,138.65461575344324 -359.6348205734159,138.46258966616915 -359.3061378841553,138.36068625175685 -358.3448293736298,138.11152356796254 -357.3729181957088,137.90594962790533 -356.3927604987024,137.74632057989524 -356.3927604987024,140.13133170680564"/>
<polygon class="l3d0" points="-356.6142384398529,145.5705000806981 -357.39235641926723,145.77901920614298 -358.1563375088209,146.03230514947998 -358.9050036343588,146.32976887363156 -359.6348205734159,146.67023230444266 -360.3434321776819,147.05192833068074 -361.0284822988468,147.47485695234576 -361.68820382567804,147.93666202112763 -361.7736142019196,148.00440128504331 -361.7736142019196,145.15994123766117 -361.0096331123659,144.72817705983326 -360.2238576509438,144.33882355158732 -359.6348205734159,144.0849485711728 -359.41805492888557,143.9918807129234 -358.59458109450156,143.6897046921516 -357.7557922961019,143.4317064521944 -356.9046337190741,143.22024214136187 -356.3927604987024,143.12187294941472 -356.3927604987024,145.52455518865094"/>
<polygon class="l3d0" points="-356.9046337190741,174.85977972369457 -357.7557922961019,174.64831541286202 -358.59458109450156,174.39031717290482 -359.41805492888557,174.08814115213303 -359.6348205734159,173.99507329388362 -360.2238576509438,173.7411983134691 -361.0096331123659,173.35184480522318 -361.7736142019196,172.92008062739524 -361.7736142019196,170.0756205800131 -361.68820382567804,170.1433598439288 -361.0284822988468,170.60516491271065 -360.3434321776819,171.02809353437564 -359.6348205734159,171.40978956061375 -358.9050036343588,171.75025299142484 -358.1563375088209,172.04771671557646 -357.39235641926723,172.3010026589134 -356.6142384398529,172.5095217843583 -356.3927604987024,172.55546667640547 -356.3927604987024,174.95814891564171"/>
<polygon class="l3d0" points="-357.3729181957088,180.1740722371511 -358.3448293736298,179.96849829709384 -359.3061378841553,179.7193356132996 -359.6348205734159,179.61743219888726 -360.2544875789752,179.42540611161317 -361.18870038393436,179.0878878661897 -361.7736142019196,178.84579362732575 -361.7736142019196,176.26227700528844 -361.6075057460567,176.3459202702974 -360.7481006499436,176.7264382223804 -359.87161347858205,177.0645455048814 -359.6348205734159,177.1428874361926 -358.9792223061273,177.35965308072286 -358.073872317967,177.60999383867224 -357.15674158825607,177.81615681580698 -356.3927604987024,177.94869015825077 -356.3927604987024,180.33370128516114"/>
<polygon class="l3d0" points="-362.44629454445646,0.7881316097323285 -363.26387800806515,1.2511147526692439 -364.05789998857273,1.7535633798005272 -364.8260043376691,2.294888454048651 -365.5670129811992,2.8727338271035037 -365.57231431489686,2.8774461237237268 -366.27856977085287,3.4865104618875566 -366.3180352550472,3.524208834849341 -366.3180352550472,0.4700515878672724 -365.57231431489686,-0.06597215268310042 -364.7405939614276,-0.6084753010862799 -363.88413405070196,-1.1115129652950915 -363.0052907310304,-1.5744961082320068 -362.1064201507229,-1.9968356928194984 -361.7736142019196,-2.134670368961023 -361.7736142019196,0.44884625307626835"/>
<polygon class="l3d0" points="-362.3202406098655,7.067266856179551 -362.9216474660214,7.602701559652397 -363.49065728291333,8.17171137654433 -364.0260919863862,8.773118232700298 -364.52559542812986,9.405155016887717 -364.98740049691173,10.064876543718945 -365.4103291185767,10.749926664883873 -365.57231431489686,11.05092461150062 -365.79202514481483,11.458538269149914 -366.1324885756259,12.18835520820696 -366.3180352550472,12.65546161068657 -366.3180352550472,7.868357281617472 -365.76787462463614,7.1844852346076005 -365.57231431489686,6.966541515922284 -365.1823717695735,6.531243115629179 -364.5621157269366,5.910987072992319 -363.9088736079582,5.3254842179296045 -363.22500156094833,4.775323587518562 -362.5128557342171,4.264039404224361 -361.7736142019196,3.7910426309694714 -361.7736142019196,6.635502678351615"/>
<polygon class="l3d0" points="-362.5128557342171,31.078185247448612 -363.22500156094833,30.56690106415441 -363.9088736079582,30.01674043374337 -364.5621157269366,29.431237578680655 -365.1823717695735,28.81098153604379 -365.57231431489686,28.375683135750688 -365.76787462463614,28.15773941706537 -366.3180352550472,27.4738673700555 -366.3180352550472,22.686763040986403 -366.1324885756259,23.15386944346601 -365.79202514481483,23.883686382523056 -365.57231431489686,24.291300040172352 -365.4103291185767,24.592297986789102 -364.98740049691173,25.277348107954026 -364.52559542812986,25.937069634785257 -364.0260919863862,26.569106418972673 -363.49065728291333,27.17051327512864 -362.9216474660214,27.739523092020576 -362.3202406098655,28.27495779549342 -361.7736142019196,28.706721973321358 -361.7736142019196,31.5511820207035"/>
<polygon class="l3d0" points="-362.1064201507229,37.339060344492474 -363.0052907310304,36.91672075990498 -363.88413405070196,36.45373761696806 -364.7405939614276,35.95069995275925 -365.57231431489686,35.40819680435607 -366.3180352550472,34.8721730638057 -366.3180352550472,31.818015816823632 -366.27856977085287,31.855714189785417 -365.57231431489686,32.46477852794925 -365.5670129811992,32.46949082456947 -364.8260043376691,33.04733619762432 -364.05789998857273,33.588661271872446 -363.26387800806515,34.091109899003726 -362.44629454445646,34.55409304194064 -361.7736142019196,34.8933783985967 -361.7736142019196,37.476895020634"/>
<polygon class="l3d0" points="-362.44629454445646,71.47258091307819 -363.26387800806515,71.9355640560151 -364.05789998857273,72.4380126831464 -364.8260043376691,72.97933775739452 -365.5670129811992,73.55718313044936 -365.57231431489686,73.56189542706959 -366.27856977085287,74.17095976523342 -366.3180352550472,74.2086581381952 -366.3180352550472,71.15450089121313 -365.57231431489686,70.61847715066277 -364.7405939614276,70.07597400225958 -363.88413405070196,69.57293633805077 -363.0052907310304,69.10995319511385 -362.1064201507229,68.68761361052636 -361.7736142019196,68.54977893438485 -361.7736142019196,71.13329555642213"/>
<polygon class="l3d0" points="-362.3202406098655,77.7517161595254 -362.9216474660214,78.28715086299826 -363.49065728291333,78.85616067989018 -364.0260919863862,79.45756753604616 -364.52559542812986,80.08960432023358 -364.98740049691173,80.7493258470648 -365.4103291185767,81.43437596822973 -365.57231431489686,81.73537391484646 -365.79202514481483,82.14298757249577 -366.1324885756259,82.87280451155281 -366.3180352550472,83.33991091403243 -366.3180352550472,78.55280658496332 -365.76787462463614,77.86893453795345 -365.57231431489686,77.65099081926813 -365.1823717695735,77.21569241897502 -364.5621157269366,76.59543637633817 -363.9088736079582,76.00993352127546 -363.22500156094833,75.45977289086441 -362.5128557342171,74.94848870757022 -361.7736142019196,74.47549193431534 -361.7736142019196,77.31995198169746"/>
<polygon class="l3d0" points="-362.5128557342171,101.76263455079446 -363.22500156094833,101.25135036750027 -363.9088736079582,100.70118973708922 -364.5621157269366,100.11568688202651 -365.1823717695735,99.49543083938966 -365.57231431489686,99.06013243909655 -365.76787462463614,98.84218872041123 -366.3180352550472,98.15831667340134 -366.3180352550472,93.37121234433225 -366.1324885756259,93.83831874681186 -365.79202514481483,94.56813568586891 -365.57231431489686,94.9757493435182 -365.4103291185767,95.27674729013495 -364.98740049691173,95.96179741129988 -364.52559542812986,96.6215189381311 -364.0260919863862,97.25355572231852 -363.49065728291333,97.8549625784745 -362.9216474660214,98.42397239536642 -362.3202406098655,98.95940709883928 -361.7736142019196,99.39117127666722 -361.7736142019196,102.23563132404935"/>
<polygon class="l3d0" points="-362.1064201507229,108.02350964783831 -363.0052907310304,107.60117006325083 -363.88413405070196,107.13818692031391 -364.7405939614276,106.6351492561051 -365.57231431489686,106.09264610770192 -366.3180352550472,105.55662236715155 -366.3180352550472,102.50246512016948 -366.27856977085287,102.54016349313126 -365.57231431489686,103.14922783129511 -365.5670129811992,103.15394012791532 -364.8260043376691,103.73178550097018 -364.05789998857273,104.2731105752183 -363.26387800806515,104.77555920234958 -362.44629454445646,105.2385423452865 -361.7736142019196,105.57782770194255 -361.7736142019196,108.16134432397985"/>
<polygon class="l3d0" points="-362.44629454445646,142.15703021642403 -363.26387800806515,142.62001335936094 -364.05789998857273,143.12246198649223 -364.8260043376691,143.66378706074036 -365.5670129811992,144.24163243379522 -365.57231431489686,144.24634473041544 -366.27856977085287,144.85540906857926 -366.3180352550472,144.89310744154105 -366.3180352550472,141.83895019455898 -365.57231431489686,141.3029264540086 -364.7405939614276,140.76042330560543 -363.88413405070196,140.2573856413966 -363.0052907310304,139.7944024984597 -362.1064201507229,139.3720629138722 -361.7736142019196,139.2342282377307 -361.7736142019196,141.81774485976797"/>
<polygon class="l3d0" points="-362.3202406098655,148.43616546287126 -362.9216474660214,148.9716001663441 -363.49065728291333,149.54060998323604 -364.0260919863862,150.142016839392 -364.52559542812986,150.77405362357945 -364.98740049691173,151.43377515041067 -365.4103291185767,152.1188252715756 -365.57231431489686,152.41982321819236 -365.79202514481483,152.8274368758416 -366.1324885756259,153.5572538148987 -366.3180352550472,154.0243602173783 -366.3180352550472,149.2372558883092 -365.76787462463614,148.5533838412993 -365.57231431489686,148.335440122614 -365.1823717695735,147.90014172232088 -364.5621157269366,147.279885679684 -363.9088736079582,146.6943828246213 -363.22500156094833,146.14422219421027 -362.5128557342171,145.63293801091606 -361.7736142019196,145.15994123766117 -361.7736142019196,148.00440128504331"/>
<polygon class="l3d0" points="-362.5128557342171,172.44708385414035 -363.22500156094833,171.9357996708461 -363.9088736079582,171.3856390404351 -364.5621157269366,170.80013618537237 -365.1823717695735,170.1798801427355 -365.57231431489686,169.74458174244242 -365.76787462463614,169.5266380237571 -366.3180352550472,168.84276597674722 -366.3180352550472,164.05566164767814 -366.1324885756259,164.52276805015774 -365.79202514481483,165.2525849892148 -365.57231431489686,165.66019864686407 -365.4103291185767,165.96119659348082 -364.98740049691173,166.64624671464577 -364.52559542812986,167.305968241477 -364.0260919863862,167.9380050256644 -363.49065728291333,168.53941188182037 -362.9216474660214,169.1084216987123 -362.3202406098655,169.64385640218515 -361.7736142019196,170.0756205800131 -361.7736142019196,172.92008062739524"/>
<polygon class="l3d0" points="-362.1064201507229,178.7079589511842 -363.0052907310304,178.2856193665967 -363.88413405070196,177.8226362236598 -364.7405939614276,177.31959855945098 -365.57231431489686,176.7770954110478 -366.3180352550472,176.24107167049743 -366.3180352550472,173.18691442351536 -366.27856977085287,173.22461279647715 -365.57231431489686,173.83367713464096 -365.5670129811992,173.8383894312612 -364.8260043376691,174.41623480431605 -364.05789998857273,174.95755987856418 -363.26387800806515,175.46000850569544 -362.44629454445646,175.92299164863235 -361.7736142019196,176.26227700528844 -361.7736142019196,178.84579362732575"/>
<polygon class="l3d0" points="-366.37870607403255,3.581934468447074 -366.95890759539753,4.1344512471682275 -367.60684838067823,4.814789071712932 -368.2206250154623,5.526345861366613 -368.79847038851716,6.267354504896689 -369.31093264596643,6.994226258566096 -369.33979546276527,7.035458853993048 -369.33979546276527,3.2196766657674263 -369.31093264596643,3.186690589425865 -368.6247044506464,2.4686543919193764 -367.9066682531399,1.7824261965993937 -367.1574130905244,1.1303621517760283 -366.37870607403255,0.5136403316043356 -366.3180352550472,0.4700515878672724 -366.3180352550472,3.524208834849341"/>
<polygon class="l3d0" points="-366.37870607403255,27.389635067969014 -366.8293194383414,26.761721543324292 -366.95890759539753,26.5590927886547 -367.3023162115963,26.022480011026797 -367.73408038942426,25.258498921473134 -368.12343389767017,24.47272346005094 -368.4703767363341,23.6669207379928 -368.77255275710587,22.843446903608818 -369.03055099706313,22.004658105209113 -369.2420153078956,21.153499528181325 -369.31093264596643,20.794775947966844 -369.33979546276527,20.644571493197237 -369.33979546276527,14.69765315847574 -369.31093264596643,14.547448703706127 -369.2420153078956,14.188725123491649 -369.03055099706313,13.33756654646386 -368.77255275710587,12.498777748064155 -368.4703767363341,11.675303913680176 -368.12343389767017,10.869501191622032 -367.73408038942426,10.083725730199838 -367.3023162115963,9.319744640646173 -366.95890759539753,8.783131863018273 -366.8293194383414,8.580503108348681 -366.37870607403255,7.952589583703959 -366.3180352550472,7.868357281617472 -366.3180352550472,12.65546161068657 -366.37870607403255,12.808022213766293 -366.4299522997775,12.9370213337449 -366.68323824311454,13.701002423298563 -366.89175736855935,14.479120402712894 -367.0543316019571,15.267252012445201 -367.1709609433076,16.064219178340423 -367.24105635553343,16.8664876779334 -367.26461783863454,17.671112325836486 -367.24105635553343,18.475736973739576 -367.1709609433076,19.27800547333255 -367.0543316019571,20.074972639227774 -366.89175736855935,20.863104248960077 -366.68323824311454,21.641222228374414 -366.4299522997775,22.405203317928073 -366.37870607403255,22.534202437906682 -366.3180352550472,22.686763040986403 -366.3180352550472,27.4738673700555"/>
<polygon class="l3d0" points="-366.37870607403255,34.828584320068636 -367.1574130905244,34.211862499896945 -367.9066682531399,33.559798455073576 -368.6247044506464,32.87357025975359 -369.31093264596643,32.155534062247106 -369.33979546276527,32.12254798590555 -369.33979546276527,28.306765797679923 -369.31093264596643,28.347998393106877 -368.79847038851716,29.074870146776284 -368.2206250154623,29.81587879030636 -367.60684838067823,30.52743557996004 -366.95890759539753,31.207773404504746 -366.37870607403255,31.760290183225898 -366.3180352550472,31.818015816823632 -366.3180352550472,34.8721730638057"/>
<polygon class="l3d0" points="-366.37870607403255,74.26638377179293 -366.95890759539753,74.81890055051409 -367.60684838067823,75.49923837505878 -368.2206250154623,76.21079516471247 -368.79847038851716,76.95180380824253 -369.31093264596643,77.67867556191194 -369.33979546276527,77.71990815733889 -369.33979546276527,73.90412596911328 -369.31093264596643,73.87113989277172 -368.6247044506464,73.15310369526524 -367.9066682531399,72.46687549994525 -367.1574130905244,71.81481145512188 -366.37870607403255,71.1980896349502 -366.3180352550472,71.15450089121313 -366.3180352550472,74.2086581381952"/>
<polygon class="l3d0" points="-366.37870607403255,98.07408437131487 -366.8293194383414,97.44617084667014 -366.95890759539753,97.24354209200055 -367.3023162115963,96.70692931437264 -367.73408038942426,95.94294822481899 -368.12343389767017,95.15717276339679 -368.4703767363341,94.35137004133865 -368.77255275710587,93.52789620695468 -369.03055099706313,92.68910740855496 -369.2420153078956,91.83794883152719 -369.31093264596643,91.4792252513127 -369.33979546276527,91.32902079654309 -369.33979546276527,85.38210246182159 -369.31093264596643,85.23189800705198 -369.2420153078956,84.8731744268375 -369.03055099706313,84.0220158498097 -368.77255275710587,83.18322705141 -368.4703767363341,82.35975321702603 -368.12343389767017,81.55395049496788 -367.73408038942426,80.76817503354569 -367.3023162115963,80.00419394399202 -366.95890759539753,79.46758116636413 -366.8293194383414,79.26495241169454 -366.37870607403255,78.63703888704981 -366.3180352550472,78.55280658496332 -366.3180352550472,83.33991091403243 -366.37870607403255,83.49247151711215 -366.4299522997775,83.62147063709075 -366.68323824311454,84.3854517266444 -366.89175736855935,85.16356970605874 -367.0543316019571,85.95170131579106 -367.1709609433076,86.74866848168627 -367.24105635553343,87.55093698127925 -367.26461783863454,88.35556162918233 -367.24105635553343,89.16018627708543 -367.1709609433076,89.96245477667841 -367.0543316019571,90.75942194257362 -366.89175736855935,91.54755355230594 -366.68323824311454,92.32567153172027 -366.4299522997775,93.08965262127393 -366.37870607403255,93.21865174125253 -366.3180352550472,93.37121234433225 -366.3180352550472,98.15831667340134"/>
<polygon class="l3d0" points="-366.37870607403255,105.51303362341449 -367.1574130905244,104.8963118032428 -367.9066682531399,104.24424775841942 -368.6247044506464,103.55801956309945 -369.31093264596643,102.83998336559296 -369.33979546276527,102.8069972892514 -369.33979546276527,98.99121510102579 -369.31093264596643,99.03244769645273 -368.79847038851716,99.75931945012215 -368.2206250154623,100.50032809365221 -367.60684838067823,101.21188488330588 -366.95890759539753,101.89222270785059 -366.37870607403255,102.44473948657176 -366.3180352550472,102.50246512016948 -366.3180352550472,105.55662236715155"/>
<polygon class="l3d0" points="-366.37870607403255,144.95083307513877 -366.95890759539753,145.50334985385993 -367.60684838067823,146.18368767840465 -368.2206250154623,146.89524446805834 -368.79847038851716,147.6362531115884 -369.31093264596643,148.3631248652578 -369.33979546276527,148.40435746068474 -369.33979546276527,144.58857527245914 -369.31093264596643,144.55558919611758 -368.6247044506464,143.83755299861107 -367.9066682531399,143.15132480329112 -367.1574130905244,142.49926075846776 -366.37870607403255,141.88253893829605 -366.3180352550472,141.83895019455898 -366.3180352550472,144.89310744154105"/>
<polygon class="l3d0" points="-366.37870607403255,168.75853367466075 -366.8293194383414,168.130620150016 -366.95890759539753,167.92799139534642 -367.3023162115963,167.39137861771852 -367.73408038942426,166.62739752816483 -368.12343389767017,165.84162206674267 -368.4703767363341,165.0358193446845 -368.77255275710587,164.21234551030054 -369.03055099706313,163.37355671190085 -369.2420153078956,162.52239813487304 -369.31093264596643,162.16367455465857 -369.33979546276527,162.01347009988896 -369.33979546276527,156.06655176516747 -369.31093264596643,155.91634731039787 -369.2420153078956,155.5576237301834 -369.03055099706313,154.70646515315556 -368.77255275710587,153.86767635475587 -368.4703767363341,153.04420252037193 -368.12343389767017,152.23839979831374 -367.73408038942426,151.45262433689157 -367.3023162115963,150.6886432473379 -366.95890759539753,150.15203046970998 -366.8293194383414,149.9494017150404 -366.37870607403255,149.32148819039568 -366.3180352550472,149.2372558883092 -366.3180352550472,154.0243602173783 -366.37870607403255,154.17692082045804 -366.4299522997775,154.30591994043664 -366.68323824311454,155.0699010299903 -366.89175736855935,155.84801900940462 -367.0543316019571,156.6361506191369 -367.1709609433076,157.43311778503215 -367.24105635553343,158.23538628462512 -367.26461783863454,159.04001093252822 -367.24105635553343,159.8446355804313 -367.1709609433076,160.64690408002429 -367.0543316019571,161.44387124591952 -366.89175736855935,162.23200285565179 -366.68323824311454,163.01012083506615 -366.4299522997775,163.7741019246198 -366.37870607403255,163.9031010445984 -366.3180352550472,164.05566164767814 -366.3180352550472,168.84276597674722"/>
<polygon class="l3d0" points="-366.37870607403255,176.19748292676036 -367.1574130905244,175.58076110658868 -367.9066682531399,174.9286970617653 -368.6247044506464,174.24246886644534 -369.31093264596643,173.52443266893883 -369.33979546276527,173.49144659259727 -369.33979546276527,169.67566440437164 -369.31093264596643,169.7168969997986 -368.79847038851716,170.44376875346802 -368.2206250154623,171.18477739699807 -367.60684838067823,171.89633418665179 -366.95890759539753,172.57667201119648 -366.37870607403255,173.1291887899176 -366.3180352550472,173.18691442351536 -366.3180352550472,176.24107167049743"/>
<polygon class="l3d0" points="-369.96299669078974,31.40627889963164 -370.57971851096147,30.627571883139783 -371.15933099524887,29.821180124004112 -371.70183414365204,28.989459770534744 -372.20487180786085,28.132999859809203 -372.6678549507978,27.2541565401376 -373.09019453538525,26.355285959830052 -373.47012345039076,25.43756619304161 -373.8076416958142,24.503353388082388 -374.1015711975006,23.5550036932625 -374.3507338812949,22.593695182736997 -374.55630782135216,21.621784004815993 -374.7159368693622,20.641626307809595 -374.83021006240267,19.654989202950393 -374.8991274004734,18.664228838548496 -374.92209984649696,17.671112325836486 -374.8991274004734,16.67799581312448 -374.83021006240267,15.687235448722582 -374.7159368693622,14.700598343863378 -374.55630782135216,13.720440646856982 -374.3507338812949,12.748529468935978 -374.1015711975006,11.787220958410472 -373.8076416958142,10.838871263590582 -373.47012345039076,9.904658458631362 -373.09019453538525,8.986938691842921 -372.6678549507978,8.088068111535373 -372.20487180786085,7.209224791863773 -371.70183414365204,6.352764881138232 -371.15933099524887,5.521044527668862 -370.57971851096147,4.714652768533192 -369.96299669078974,3.9359457520413312 -369.33979546276527,3.2196766657674263 -369.33979546276527,7.035458853993048 -369.8422440898965,7.829480834500632 -370.3052272328335,8.647064298109333 -370.7281558544985,9.485853096509036 -371.10867380658146,10.345258192622216 -371.4467810890825,11.221745363983706 -371.741888664924,12.114136536438446 -371.99222942287327,13.019486524598802 -372.19839240000806,13.936617254309715 -372.35861048509565,14.861994503106018 -372.47406175229116,15.794440196832655 -372.5429790903619,16.731598187179515 -372.56595153638546,17.671112325836486 -372.5429790903619,18.61062646449346 -372.47406175229116,19.54778445484032 -372.35861048509565,20.480230148566953 -372.19839240000806,21.40560739736326 -371.99222942287327,22.32273812707417 -371.741888664924,23.228088115234524 -371.4467810890825,24.120479287689268 -371.10867380658146,24.996966459050753 -370.7281558544985,25.856371555163935 -370.3052272328335,26.69516035356364 -369.8422440898965,27.51274381717234 -369.33979546276527,28.306765797679923 -369.33979546276527,32.12254798590555"/>
<polygon class="l3d0" points="-369.96299669078974,102.0907282029775 -370.57971851096147,101.31202118648564 -371.15933099524887,100.50562942734997 -371.70183414365204,99.6739090738806 -372.20487180786085,98.81744916315505 -372.6678549507978,97.93860584348346 -373.09019453538525,97.0397352631759 -373.47012345039076,96.12201549638746 -373.8076416958142,95.18780269142823 -374.1015711975006,94.23945299660835 -374.3507338812949,93.27814448608285 -374.55630782135216,92.30623330816184 -374.7159368693622,91.32607561115545 -374.83021006240267,90.33943850629625 -374.8991274004734,89.34867814189435 -374.92209984649696,88.35556162918233 -374.8991274004734,87.36244511647033 -374.83021006240267,86.37168475206843 -374.7159368693622,85.38504764720922 -374.55630782135216,84.40488995020284 -374.3507338812949,83.43297877228183 -374.1015711975006,82.47167026175632 -373.8076416958142,81.52332056693643 -373.47012345039076,80.58910776197722 -373.09019453538525,79.67138799518878 -372.6678549507978,78.77251741488122 -372.20487180786085,77.89367409520963 -371.70183414365204,77.03721418448409 -371.15933099524887,76.2054938310147 -370.57971851096147,75.39910207187904 -369.96299669078974,74.62039505538719 -369.33979546276527,73.90412596911328 -369.33979546276527,77.71990815733889 -369.8422440898965,78.51393013784649 -370.3052272328335,79.33151360145519 -370.7281558544985,80.17030239985489 -371.10867380658146,81.02970749596807 -371.4467810890825,81.90619466732954 -371.741888664924,82.7985858397843 -371.99222942287327,83.70393582794466 -372.19839240000806,84.62106655765557 -372.35861048509565,85.54644380645186 -372.47406175229116,86.4788895001785 -372.5429790903619,87.41604749052537 -372.56595153638546,88.35556162918233 -372.5429790903619,89.29507576783931 -372.47406175229116,90.23223375818617 -372.35861048509565,91.16467945191282 -372.19839240000806,92.09005670070911 -371.99222942287327,93.00718743042002 -371.741888664924,93.91253741858037 -371.4467810890825,94.80492859103512 -371.10867380658146,95.68141576239661 -370.7281558544985,96.54082085850978 -370.3052272328335,97.3796096569095 -369.8422440898965,98.1971931205182 -369.33979546276527,98.99121510102579 -369.33979546276527,102.8069972892514"/>
<polygon class="l3d0" points="-369.96299669078974,172.77517750632336 -370.57971851096147,171.9964704898315 -371.15933099524887,171.19007873069583 -371.70183414365204,170.35835837722647 -372.20487180786085,169.50189846650093 -372.6678549507978,168.62305514682933 -373.09019453538525,167.72418456652179 -373.47012345039076,166.80646479973333 -373.8076416958142,165.8722519947741 -374.1015711975006,164.92390229995422 -374.3507338812949,163.96259378942875 -374.55630782135216,162.9906826115077 -374.7159368693622,162.01052491450133 -374.83021006240267,161.0238878096421 -374.8991274004734,160.0331274452402 -374.92209984649696,159.04001093252822 -374.8991274004734,158.04689441981623 -374.83021006240267,157.0561340554143 -374.7159368693622,156.0694969505551 -374.55630782135216,155.0893392535487 -374.3507338812949,154.11742807562769 -374.1015711975006,153.15611956510222 -373.8076416958142,152.2077698702823 -373.47012345039076,151.27355706532308 -373.09019453538525,150.35583729853462 -372.6678549507978,149.45696671822708 -372.20487180786085,148.57812339855548 -371.70183414365204,147.72166348782994 -371.15933099524887,146.88994313436058 -370.57971851096147,146.08355137522489 -369.96299669078974,145.30484435873302 -369.33979546276527,144.58857527245914 -369.33979546276527,148.40435746068474 -369.8422440898965,149.19837944119234 -370.3052272328335,150.01596290480106 -370.7281558544985,150.85475170320075 -371.10867380658146,151.71415679931394 -371.4467810890825,152.59064397067542 -371.741888664924,153.48303514313017 -371.99222942287327,154.38838513129053 -372.19839240000806,155.30551586100145 -372.35861048509565,156.23089310979773 -372.47406175229116,157.1633388035244 -372.5429790903619,158.10049679387123 -372.56595153638546,159.04001093252822 -372.5429790903619,159.9795250711852 -372.47406175229116,160.91668306153204 -372.35861048509565,161.84912875525868 -372.19839240000806,162.77450600405498 -371.99222942287327,163.6916367337659 -371.741888664924,164.59698672192627 -371.4467810890825,165.489377894381 -371.10867380658146,166.3658650657425 -370.7281558544985,167.22527016185566 -370.3052272328335,168.06405896025535 -369.8422440898965,168.8816424238641 -369.33979546276527,169.67566440437164 -369.33979546276527,173.49144659259727"/>
<polygon class="l3d0" points="-369.407534726681,161.66063689044978 -369.5259311792641,160.7912181640186 -369.59720466564494,159.91708714096723 -369.62076614874604,159.04001093252822 -369.59720466564494,158.1629347240892 -369.5259311792641,157.2888037010378 -369.407534726681,156.41938497460666 -369.33979546276527,156.06655176516747 -369.33979546276527,162.01347009988896"/>
<polygon class="l3d0" points="-369.407534726681,90.9761875871039 -369.5259311792641,90.10676886067274 -369.59720466564494,89.23263783762135 -369.62076614874604,88.35556162918233 -369.59720466564494,87.47848542074333 -369.5259311792641,86.60435439769194 -369.407534726681,85.73493567126079 -369.33979546276527,85.38210246182159 -369.33979546276527,91.32902079654309"/>
<polygon class="l3d0" points="-369.407534726681,20.291738283758033 -369.5259311792641,19.42231955732688 -369.59720466564494,18.548188534275504 -369.62076614874604,17.671112325836486 -369.59720466564494,16.79403611739747 -369.5259311792641,15.919905094346094 -369.407534726681,15.050486367914939 -369.33979546276527,14.69765315847574 -369.33979546276527,20.644571493197237"/>
</g>
</svg>