<svg xmlns="http://www.w3.org/2000/svg" xmlns:xlink="http://www.w3.org/1999/xlink" width="567.7644554313765" height="745.4090097451415" viewBox="-53.25274425588307 -705.8236241390824 567.7644554313765 745.4090097451415">
<defs>
<style type="text/css">
.l3d0 {stroke: rgb(255, 255, 64); fill: rgb(255, 255, 64); fill-opacity: 0.5;}
</style>
</defs>
<rect x="-53.25274425588307" y="-705.8236241390824" width="567.7644554313765" height="745.4090097451415" fill="#222" stroke="none"/>
<g id="gds" transform="scale(1 -1)">
<polygon class="l3d0" points="77.77033486869257,5.703157890370789 13.768460085153333,5.703157890370789 114.01649560649456,105.95119341171201 115.04047168226566,107.0042037458341 116.03437656188756,108.08572986940806 116.9976917764611,109.19421637573649 117.92938038818804,110.3296632648194 118.82892392816926,111.49103359885854 119.69580392750561,112.67677197115654 120.52898344839888,113.88635991281427 121.3279440219499,115.1187604860335 122.09164871036047,116.37345522191505 122.82009751363054,117.64888871376162 123.51225349396191,118.94402402377492 124.16811665135457,120.25834268305583 124.78716851690935,121.59080775380609 125.36785368392893,122.93986382932835 125.91120909021153,124.30447397182432 126.41567932905977,125.68360124349581 126.88126440047368,127.07672717544365 127.3074458355541,128.4822963609705 127.69422363430108,129.89927186227808 128.04107932781545,131.32661674156813 128.34801291609722,132.76329406104244 128.61398746134816,134.20774841400365 128.84003990136648,135.65894286265345 129.02461482945483,137.11584046919364 129.16874918341148,138.57792276472506 129.2719244943373,140.0431158736512 129.3097727239734,140.94369635143067 129.33362229333312,141.5103828581739 129.35384258039898,142.9792052493939 129.33362229333312,144.4475091717148 129.2719244943373,145.91529462513662 129.16874918341148,147.3804877340628 129.02461482945483,148.84205156069507 128.84003990136648,150.29894916723526 128.61398746134816,151.75066208478418 128.34801291609722,153.19511643774538 128.04107932781545,154.63127528832055 127.69422363430108,156.05862016761066 127.3074458355541,157.47559566891823 126.88126440047368,158.88116485444505 126.41567932905977,160.2742907863929 125.91120909021153,161.65341805806437 125.36785368392893,163.01854666945948 125.27764009548123,163.22800810470585 121.88270574401324,163.22800810470585 122.21504430835213,162.4876345167559 122.76306593472684,161.16398341729075 123.27272086256635,159.82529671975098 123.74297215407236,158.4715744241366 124.17381980924493,157.1054088749432 124.56474535918488,155.72680007217087 124.91574880389224,154.33782189141604 125.22579320556878,152.93899280157783 125.49487856421446,151.53186820935358 125.72300487982929,150.11748505254167 125.91017215241327,148.6968802689402 126.05586191306729,147.2716092652466 126.16007416179133,145.84270897925919 126.2222904296863,144.41173481767524 126.24302918565127,142.9792052493939 126.2222904296863,141.54667568111262 126.19584851583095,140.94369635143067 126.16007416179133,140.11518305062953 126.05586191306729,138.6862827646421 125.91017215241327,137.26101176094852 125.72300487982929,135.84040697734704 125.49487856421446,134.4260238205351 125.22579320556878,133.0188992283109 124.91574880389224,131.62007013847267 124.56474535918488,130.23109195771784 124.17381980924493,128.85248315494547 123.74297215407236,127.4863176057521 123.27272086256635,126.13311377903686 122.76306593472684,124.79390861259797 122.21504430835213,123.47025751313282 121.62865598344219,122.16319741843965 121.00441942889614,120.87376526631674 120.34285311361313,119.6029979945623 119.64447550649227,118.3519325409746 118.9103235453318,117.12160584335189 118.14039723013175,115.9130548394924 117.33573349869036,114.72783493609353 116.49685081990671,113.56646460205438 115.62478613157911,112.42946230627409 114.72005790260665,111.31890192434916 113.78318460188848,110.2347834562796 112.8152031672228,109.17866230876275 111.81715053640794,108.15105695069776 6.258956550232377,2.5923444956230854 74.65952147394486,2.5923444956230854 74.65952147394486,-2.5923444956230854 -2.5923444956230854,-2.5923444956230854 -2.5923444956230854,74.65952147394486 2.5923444956230854,74.65952147394486 2.5923444956230854,6.258956550232377 108.15105695069776,111.81715053640794 109.09570728490282,112.79135359786308 110.01028642295863,113.79459091766921 110.89323895816786,114.82530708912896 111.74404642163135,115.88246517444405 112.56219034445,116.96554670471538 113.34611531992641,118.0735147421447 114.09582134806061,119.20481388003459 114.81027149105434,120.358925649486 115.48894728000846,121.5342946438015 116.13133024602386,122.730402394082 116.7363834513023,123.94517502473097 117.30358842694463,125.17809406684931 117.83242670405174,126.42812258263876 118.32289828262363,127.69370516540195 118.77396622486205,128.97380487734063 119.18563053076699,130.26738478065656 119.55685426254021,131.57288946865233 119.88815588908085,132.88928200352973 120.17849847259062,134.2150069785914 120.42788201306958,135.54902745603903 120.63578804161854,136.8903064980744 120.80273502713666,138.23728869800016 120.92820450072483,139.58893711801804 121.01167799348389,140.94369635143067 121.05315550541386,142.3005294604398 121.05315550541386,143.65788103834805 121.01167799348389,145.01419567845804 120.92820450072483,146.36895491187067 120.80273502713666,147.72060333188853 120.63578804161854,149.06758553181427 120.42788201306958,150.40886457384966 120.17849847259062,151.74288505129732 119.88815588908085,153.06861002635898 119.55685426254021,154.38500256123638 119.18563053076699,155.69050724923216 118.77396622486205,156.98408715254806 118.32289828262363,158.26418686448676 117.83242670405174,159.52976944724995 117.30358842694463,160.7797979630394 116.7363834513023,162.01271700515773 116.13133024602386,163.22800810470585 112.58655838270886,163.22800810470585 112.99459340631994,162.50370705262876 113.60172048719487,161.33974437409398 114.17151780733282,160.15659834629162 114.70294842893556,158.95634284481812 115.19601235200305,157.73897786967353 115.64915416983797,156.50709576535343 116.06289235133941,155.26069653185783 116.43670842760827,154.00237251368242 116.76956546084627,152.7321237108271 117.06198191995254,151.4520239988884 117.31292086712887,150.1631103156646 117.52238230237522,148.86693806785306 117.69036622569159,147.56506266215118 117.81635416817888,146.258002567458 117.90034612983706,144.9478316593701 117.94234211066616,143.63558687568568 117.94234211066616,142.32230515420304 117.90034612983706,141.0100603705186 117.89619837864406,140.94369635143067 117.81635416817888,139.69988946243072 117.69036622569159,138.39282936773753 117.52238230237522,137.09095396203566 117.31292086712887,135.79478171422411 117.06198191995254,134.5058680310003 116.76956546084627,133.22576831906161 116.43670842760827,131.95603798510544 116.06289235133941,130.69719549803085 115.64915416983797,129.4513147334344 115.19601235200305,128.21891416021518 114.70294842893556,127.0020676539697 114.17151780733282,125.8012936835971 113.60172048719487,124.61814765579473 112.99459340631994,123.45418497725996 112.35013656470804,122.31044258579107 111.66990536905654,121.18743895028715 110.95338135046632,120.08724794634469 110.20211991563474,119.01038804286287 109.41715800236007,117.9578961776399 108.5984956106423,116.93132775737315 107.74716967827969,115.9317197198609 106.86473561196959,114.95959053400225 105.95119341171201,114.01649560649456 5.703157890370789,13.768460085153333 5.703157890370789,77.77033486869257 -5.703157890370789,77.77033486869257 -5.703157890370789,-5.703157890370789 77.77033486869257,-5.703157890370789"/>
<polygon class="l3d0" points="115.48894728000846,164.4235973860872 114.81027149105434,165.59896638040271 114.09582134806061,166.7530781498541 113.34611531992641,167.88437728774403 112.56219034445,168.99234532517332 111.74404642163135,170.07542685544465 110.89323895816786,171.13310340965887 110.01028642295863,172.16381958111862 109.09570728490282,173.16653843202562 108.15105695069776,174.1412599623799 -0.8741385639241045,283.1659370081027 -5.228758847671764,283.1659370081027 -5.056627173162391,282.97876973551865 -4.0326510973912715,281.92524093249745 105.95119341171201,171.94139642339414 106.86473561196959,170.9983014958865 107.74716967827969,170.02617231002782 108.5984956106423,169.02656427251557 109.41715800236007,167.99999585224882 110.20211991563474,166.94802245592498 110.95338135046632,165.87116255244314 111.66990536905654,164.7704530796016 112.35013656470804,163.6479679129968 112.58655838270886,163.22800810470585 116.13133024602386,163.22800810470585"/>
<polygon class="l3d0" points="124.78716851690935,164.36760274498172 124.16811665135457,165.6995493468329 123.51225349396191,167.0138680061138 122.82009751363054,168.3090033161271 122.09164871036047,169.58443680797365 121.3279440219499,170.83913154385522 120.52898344839888,172.07153211707444 119.69580392750561,173.28112005873214 118.82892392816926,174.4673768999293 117.92938038818804,175.6282287650693 116.9976917764611,176.76367565415222 116.03437656188756,177.87268062937977 115.04047168226566,178.9536882840546 114.01649560649456,180.0066986181767 10.857257216568607,283.1659370081027 6.458567076395356,283.1659370081027 111.81715053640794,177.80735354809008 112.8152031672228,176.77974819002506 113.78318460188848,175.72310857360912 114.72005790260665,174.63899010553953 115.62478613157911,173.5284297236146 116.49685081990671,172.39194589673346 117.33573349869036,171.23005709379518 118.14039723013175,170.04483719039632 118.9103235453318,168.83628618653682 119.64447550649227,167.6064779578132 120.34285311361313,166.3554125042255 121.00441942889614,165.0846452324711 121.62865598344219,163.79469461144905 121.88270574401324,163.22800810470585 125.27764009548123,163.22800810470585"/>
<polygon class="l3d0" points="176.8870712521439,270.8300064912306 178.35433823666654,270.8922227591256 179.82004981449185,270.99487960115226 181.28213211002327,271.1390139551089 182.73902971656344,271.32358888319726 184.19022416521324,271.5496413232156 185.6346785181744,271.8156158684665 187.07135583764872,272.1225494567483 188.49818224803968,272.4694051502627 189.91515774934726,272.8561829490096 191.3207269348741,273.2823643840901 192.71385286682192,273.7484679244031 194.09349860739255,274.2524196943522 195.45759028098942,274.79577510063484 196.8071648254108,275.3764602676544 198.13911142726192,275.99551213320916 199.45343008654285,276.65137529060183 200.74856539655613,277.34353127093317 202.02399888840267,278.0719800742033 203.27817515538516,278.8356847626139 204.51109419750347,279.63464533616485 205.72120060806034,280.46782485705813 206.90693898035832,281.3341863874954 208.06830931439748,282.2337299274766 209.20323773458128,283.1659370081027 204.1383150590329,283.1659370081027 203.66961917422424,282.82789528587335 202.48439927082535,282.02323155443196 201.27584826696585,281.25330523923196 200.04604003824227,280.5191532780715 198.7949745846546,279.82077567095064 197.52420731290013,279.1592093556676 196.2342566918781,278.53497280112157 194.92719659718492,277.94806600731255 193.60354549771978,277.4000443809378 192.26485880018,276.89038945309824 190.91165497346475,276.42013816159226 189.5449709553723,275.9892905064197 188.16688062149905,275.59888342537886 186.77738397184507,275.2478799806715 185.37907335090597,274.93783557899496 183.97143028978266,274.6687502203493 182.5570471329707,274.4406239047344 181.1369608182684,274.25345663215046 179.71168981457478,274.10776687149644 178.2822710596882,274.0035546227724 176.8512968981043,273.9413383548775 175.41876732982294,273.9200811300134 173.98623776154164,273.9413383548775 172.55474513105855,274.0040730916715 171.12584484507113,274.10776687149644 169.70057384137755,274.25345663215046 168.27996905777613,274.44010543583533 166.86558590096416,274.6687502203493 165.45846130873994,274.93783557899496 164.05963221890173,275.2483984495706 162.6706540381469,275.59888342537886 161.29256370427365,275.9892905064197 159.92587968618116,276.4206566304914 158.5726758594659,276.8909079219974 157.23347069302702,277.4000443809378 155.90981959356185,277.94858447621164 154.60224102996958,278.53497280112157 153.31332734674578,279.15972782456674 152.04256007499134,279.82077567095064 150.79097615250453,280.5191532780715 149.5611679237809,281.25382370813105 148.35261691992147,282.02375002333116 147.16739701652259,282.82789528587335 146.69921960061305,283.1659370081027 141.6332599872664,283.1659370081027 141.63377845616554,283.16541853920353 142.76922534524846,282.2337299274766 143.9305956792876,281.33470485639447 145.1163340515856,280.46782485705813 146.32644046214244,279.63464533616485 147.55832256646252,278.8356847626139 148.81301730234412,278.0719800742033 150.08845079419066,277.34353127093317 151.3841045731031,276.65137529060183 152.698423232384,275.99551213320916 154.03036983423513,275.3769787365535 155.3794259097574,274.7952566317357 156.7440360522534,274.2529381632513 158.123681792824,273.747949455504 159.5168077247718,273.2823643840901 160.92185844139956,272.8561829490096 162.33883394270714,272.4694051502627 163.7661788219972,272.1225494567483 165.20285614147153,271.81613433736567 166.64679202553356,271.5496413232156 168.0985049430825,271.32358888319726 169.55540254962267,271.1390139551089 171.01696637625497,270.99487960115226 172.48267795408026,270.89170429022647 173.94994493860293,270.8300064912306 175.41824886092382,270.80978620416477"/>
<polygon class="l3d0" points="176.09744311877708,279.1104732791499 177.45375775888706,279.152469259979 178.8085169922997,279.23542428383894 180.15964694341844,279.36089375742705 181.50714761224336,279.52784074294516 182.84842665427874,279.7357467714942 184.18244713172635,279.98513031197314 185.508172106788,280.2754728954829 186.8245646416654,280.6067745220235 188.13058779856033,280.9779982537967 189.423130764078,281.3896625597017 190.70374894491582,281.84073050194013 191.969331527679,282.3306836116129 193.21936004346844,282.8600403576191 193.88455564104532,283.1659370081027 184.17363316044126,283.1659370081027 183.89210454821657,283.1016468646112 182.60267239609368,282.851226386334 181.30650014828214,282.64124648218854 180.0041062736811,282.47326255887214 178.69756464788702,282.3472746163848 177.38739373979914,282.26276418582756 176.07514895611473,282.2212866738976 174.76186723463206,282.2212866738976 173.44962245094766,282.2632826547267 172.1399700117589,282.3472746163848 170.83239144816662,282.47326255887214 169.52999757356557,282.64124648218854 168.23434379465314,282.8507079174349 166.94543011142935,283.1016468646112 166.66390149920468,283.1659370081027 156.9529790186006,283.1659370081027 157.61765614727835,282.8600403576191 158.8676846630678,282.331202080512 160.133267245831,281.84073050194013 161.41336695776968,281.3896625597017 162.7069468610856,280.9779982537967 164.01245154908136,280.6067745220235 165.32884408395878,280.275991364382 166.65508752791956,279.98513031197314 167.98858953646808,279.7357467714942 169.33038704740258,279.52784074294516 170.6768507784292,279.36089375742705 172.0284991984471,279.235942752738 173.3832584318597,279.1519507910799 174.7395730719697,279.10995481025077"/>
<polygon class="l3d0" points="-1.8333060273046462,284.1251044714832 -2.8313586581195342,285.1527098295482 -3.7993400927851946,286.20934944596416 -4.735694924604253,287.2934679140337 -5.640941622475835,288.4035098270595 -6.51300631080344,289.5405121228398 -7.351888989587071,290.70188245687893 -8.156552721028476,291.88762082917697 -8.926479036228532,293.09617183303646 -9.66063099738899,294.32598006176005 -10.358490135610726,295.5770455153477 -11.020574919792862,296.84781278710216 -11.644811474338901,298.13724493922507 -12.231199799248843,299.44482350281737 -12.779739894522688,300.7679561333834 -13.288876353463062,302.1071612998223 -13.75912764496909,303.46036512653757 -14.189975300141645,304.82704914463005 -14.580900850081608,306.20513947850327 -14.814730323586812,307.1306064634407 -18.015757306782195,307.1306064634407 -17.71089759409692,305.8733193830635 -17.324119795349958,304.4563438817559 -16.897419891370397,303.05077469622904 -16.431834819956492,301.6576487642812 -15.927364581108238,300.27852149260974 -15.38400917482564,298.9139113501138 -14.803324007806069,297.5648552745915 -14.184272142251276,296.23290867274034 -13.528408984858634,294.9185900134595 -12.83625300452727,293.62293623454707 -12.107804201257185,292.34750274270044 -11.344099512846622,291.093326475718 -10.545138939295587,289.86040743359973 -9.711959418402328,288.65081949194195 -8.845079419065968,287.46508111964397 -7.9455358790847574,286.30371078560484 -7.0138472673578205,285.1682638965219 -6.050532052784282,284.05977739019346 -5.228758847671764,283.1659370081027 -0.8741385639241045,283.1659370081027"/>
<polygon class="l3d0" points="4.0326510973912715,289.99054312728 3.1196273660328213,290.93415652368674 2.2361563619244738,291.9057672406463 1.385348898460977,292.9058937470577 0.5672049756423312,293.93246216732445 -0.2182754065314638,294.9844355636483 -0.9695368413630341,296.0612954671301 -1.6855423910541303,297.1614864710726 -2.3662920556047524,298.28449010657647 -3.010748897216652,299.4287509669445 -3.617875978091578,300.59271364547925 -4.187673298229533,301.7753412043825 -4.719103919832265,302.97611517475514 -5.212167842899777,304.19296168100067 -5.665828129633817,305.42536225421986 -6.079047842236136,306.6717614877154 -6.21540516270591,307.1306064634407 -9.45479884443652,307.1306064634407 -9.201786021663706,306.24143230144193 -8.79012171575876,304.94837086702523 -8.339572242419466,303.6677526861874 -7.848582194948454,302.4026885723233 -7.319743917841345,301.1526600565339 -6.752020473299889,299.9192225455164 -6.147485736920585,298.70444991486744 -5.505102770905185,297.50834216458696 -4.826945450850186,296.33297317027143 -4.111976838957339,295.17886140082 -3.3627892797222665,294.0475622629301 -2.577827366447597,292.9395942255008 -1.7607203814271997,291.8570311641286 -0.9093944490645784,290.79935460991436 -0.02644191385535547,289.7686384384547 0.8881372242004691,288.76540111864847 1.8333060273046462,287.79119805719336 6.458567076395356,283.1659370081027 10.857257216568607,283.1659370081027"/>
<polygon class="l3d0" points="146.00602668248345,283.66677796465706 144.86902438670313,284.53884265298467 143.7584640047782,285.44408935085625 142.67434553670864,286.3809626515744 141.6182243891918,287.3484256173409 140.5906190311268,288.3464782481558 121.80649081584193,307.1306064634407 117.40676373787043,307.1306064634407 138.39075549214107,286.1466147091701 139.44376582626313,285.1231571022981 140.52529194983708,284.12925222267614 141.6332599872664,283.1659370081027 146.69921960061305,283.1659370081027"/>
<polygon class="l3d0" points="165.6658488683898,283.39406332371743 164.39560006553447,283.7274388258546 163.1367575784599,284.1007364332243 161.89035834496434,284.51447461472577 160.65795777174512,284.9676164325607 159.44162973439876,285.4606803556282 158.24085576402615,285.99211097723094 157.0582282051229,286.56190829736886 155.89374705768898,287.16903537824385 154.75000466622012,287.8134922198557 153.62751949961532,288.4937234155072 152.52681002677375,289.2102474340974 151.44995012329193,289.961508868929 150.39797672696807,290.7469892511028 149.3708898378022,291.5651331739214 148.37128180028995,292.41645910628404 147.3996710833304,293.29889317259415 146.45657615582272,294.21243537285176 133.53840506523375,307.1306064634407 129.13867798726227,307.1306064634407 144.25671261683698,292.012571833866 145.23091567829212,291.06792149966094 146.23363452919912,290.1533423616051 147.264869169558,289.270908295295 148.3220272548731,288.41958236293243 149.40562725404354,287.6014384401137 150.51307682257374,286.81751346463733 151.64489442936275,286.06780743650313 152.79848772991505,285.35335729350936 153.97385672423056,284.6746815045553 155.16996447451106,284.03229853853986 156.38473710516,283.42724533326145 156.9529790186006,283.1659370081027 166.66390149920468,283.1659370081027"/>
<polygon class="l3d0" points="194.45279755448593,283.42724533326145 195.66757018513488,284.03229853853986 196.86315946651627,284.6746815045553 198.03852846083177,285.35335729350936 199.19264023028316,286.06780743650313 200.32393936817306,286.81751346463733 201.43190740560237,287.6014384401137 202.5149889358737,288.41958236293243 203.57266549008793,289.2703898263959 204.60286319264856,290.1533423616051 205.60610051245467,291.06792149966094 206.58082204280896,292.012571833866 213.9130092142293,299.34475900528633 214.85765954843436,300.31948053564065 215.77223868649017,301.32271785544674 216.6551912216994,302.3534340269065 217.506517154062,303.4111105811207 218.3241426079815,304.49367364249287 219.10858605235708,305.60164167992224 219.85829208049128,306.73294081781216 220.10456480757549,307.1306064634407 216.3778103606677,307.1306064634407 215.96407217916627,306.53799651174126 215.1791102658916,305.4860231154174 214.36096634307296,304.45945469515067 213.50964041071032,303.46036512653757 212.62668787550112,302.4877174717797 211.71366414414265,301.54462254427204 204.38095850382322,294.21243537285176 203.43786357631552,293.29889317259415 202.46573439045687,292.41645910628404 201.4661263529446,291.5651331739214 200.43955793267784,290.7469892511028 199.387584536354,289.961508868929 198.31020616397308,289.20972896519834 197.21001516003062,288.4937234155072 196.08752999342582,287.8129737509566 194.94326913305778,287.16903537824385 193.779306454523,286.56138982846977 192.59616042672064,285.9915925083318 191.39590492524715,285.4606803556282 190.17853995010256,284.9676164325607 188.94665784578248,284.51447461472577 187.7002586122869,284.1002179643252 186.44193459411144,283.7269203569555 185.17168579125615,283.39406332371743 184.17363316044126,283.1659370081027 193.88455564104532,283.1659370081027"/>
<polygon class="l3d0" points="210.31224270980883,284.12925222267614 211.39325036448363,285.1231571022981 212.44677916750487,286.1466147091701 219.7789663389252,293.4793203494895 220.80294241469633,294.53233068361163 221.7968472943182,295.6133383382865 222.75964403999262,296.722343313514 223.69185112061868,297.8577902025969 224.59139466059992,299.0191605366361 225.45827465993625,300.2043804400349 226.2909357119304,301.4144868505918 227.08989628548142,302.6474058927101 227.853600973892,303.9015821596926 228.5820497771621,305.17701565153914 229.27472422639255,306.4721509615524 229.60343350843758,307.1306064634407 226.10480537714466,307.1306064634407 225.40694623892293,305.87954100985297 224.67227580886336,304.64973278112944 223.90234949366328,303.44170024616903 223.09768576222186,302.255961873871 222.25932155233738,301.0945915398319 221.38673839511063,299.9581077129508 220.48201016613817,298.8470288621267 219.54513686542,297.76291039405714 218.57715543075435,296.70678924654027 217.57910279993945,295.6786654195762 210.2469156285191,288.3464782481558 209.218791801555,287.3484256173409 208.16267065403815,286.38044418267526 207.0785521859686,285.4435708819571 205.96799180404366,284.53884265298467 204.8315079771625,283.6662594957579 204.1383150590329,283.1659370081027 209.20323773458128,283.1659370081027"/>
<polygon class="l3d0" points="-14.931904294788973,307.5946361281572 -15.241430227566369,308.9929467490963 -15.511034055111171,310.4005898102197 -15.739678839625126,311.8144544981325 -15.925809174410864,313.2350592817339 -16.072017403964004,314.6603302854275 -16.176229652688054,316.0897490403141 -16.238445920583008,317.520723201898 -16.259184676547992,318.95325277017935 -16.238445920583008,320.3857823384607 -16.176229652688054,321.8167565000446 -16.072017403964004,323.24565678603204 -15.925809174410864,324.6714462586247 -15.739678839625126,326.0920510422262 -15.511034055111171,327.505915730139 -15.241430227566369,328.91355879126235 -14.931904294788973,330.3118694122015 -14.580900850081608,331.7008475929563 -14.189975300141645,333.07945639572864 -13.75912764496909,334.4461404138212 -13.288876353463062,335.79882577163727 -12.779739894522688,337.1385494069753 -12.577018554964962,337.62798404774895 -15.927364581108238,337.62798404774895 -16.431834819956492,336.24833830717836 -16.897419891370397,334.8552123752305 -17.324119795349958,333.44964318970364 -17.71089759409692,332.03266768839603 -18.057234818712168,330.60584127800513 -18.36416840699394,329.1686454896317 -18.63066142114399,327.7247096055696 -18.8561953922632,326.2735151569198 -19.040770320351566,324.8166175503796 -19.184904674308207,323.3545352548482 -19.288079985234006,321.88934214592206 -19.349777784229836,320.4220751613994 -19.37051654019482,318.95325277017935 -19.349777784229836,317.4844303789593 -19.288079985234006,316.01716339443664 -19.184904674308207,314.55145181661135 -19.040770320351566,313.08988798997905 -18.8561953922632,311.6329903834389 -18.63066142114399,310.1817959347891 -18.36416840699394,308.73734158182793 -18.057234818712168,307.30066426235356 -18.015757306782195,307.1306064634407 -14.814730323586812,307.1306064634407"/>
<polygon class="l3d0" points="-6.452863918504985,307.9300855058909 -6.785720951742989,309.20033430874616 -7.077618941950148,310.4799155517857 -7.3290763580255875,311.76882923500955 -7.538537793271932,313.06500148282106 -7.706521716588309,314.3673953574221 -7.8325096590755905,315.6744554521153 -7.916501620733779,316.98462636020315 -7.959016070461998,318.2963526749885 -7.959016070461998,319.6096343964711 -7.916501620733779,320.92187918015554 -7.8325096590755905,322.2320500882434 -7.706521716588309,323.5391101829366 -7.538537793271932,324.8415040575376 -7.3290763580255875,326.13767630534915 -7.077618941950148,327.4265899885729 -6.785720951742989,328.70617123161253 -6.452863918504985,329.9759015655687 -6.079047842236136,331.23474405264324 -5.665828129633817,332.48114328613883 -5.212167842899777,333.7135438593581 -4.719103919832265,334.93039036560356 -4.187673298229533,336.130645867077 -3.617875978091578,337.3137918948794 -3.454039805968199,337.62798404774895 -6.917412052120642,337.62798404774895 -7.319743917841345,336.7538454838248 -7.848582194948454,335.5038169680354 -8.339572242419466,334.23823438527216 -8.79012171575876,332.9581346733335 -9.201786021663706,331.6645547700176 -9.57300975343693,330.3590500820218 -9.903792911078437,329.0426575471444 -10.194653963487347,327.7169325720827 -10.444037503966287,326.3829120946351 -10.65194353251526,325.04163305259976 -10.818890518033387,323.69465085267393 -10.944359991621544,322.3430024326561 -11.027833484380606,320.9887616681426 -11.069310996310577,319.6319285591334 -11.069310996310577,318.2740585123261 -11.027833484380606,316.9177438722161 -10.944359991621544,315.56350310770256 -10.818890518033387,314.2118546876847 -10.65194353251526,312.864872487759 -10.444037503966287,311.5235934457236 -10.194653963487347,310.1895729682759 -9.903792911078437,308.8638479932143 -9.57300975343693,307.54693698943777 -9.45479884443652,307.1306064634407 -6.21540516270591,307.1306064634407"/>
<polygon class="l3d0" points="91.3091132315337,337.62798404774895 86.9093861535622,337.62798404774895 117.40676373787043,307.1306064634407 121.80649081584193,307.1306064634407"/>
<polygon class="l3d0" points="103.04102748092554,337.62798404774895 98.64130040295403,337.62798404774895 129.13867798726227,307.1306064634407 133.53840506523375,307.1306064634407"/>
<polygon class="l3d0" points="220.572742223485,307.88757105616264 221.25141801243913,309.06242158157903 221.89380097845452,310.2580108629604 222.49833571483381,311.47330196250846 223.06605915937527,312.70673947352594 223.59489743648237,313.95624952041624 224.08536901505428,315.2223505720786 224.53591848839355,316.5024502840173 224.9475827942985,317.7955117184341 225.31932499497086,319.10101640642984 225.65010815261238,320.41740894130726 225.94045073612216,321.7431339163689 226.1898342766011,323.0776728627157 226.39825877404917,324.41843343585197 226.5646872906682,325.7659341046768 226.69015676425636,327.11706405579554 226.7736302570154,328.4718232892082 226.81510776894538,329.82865639821733 226.8156262378445,331.1860079761256 226.77414872591453,332.5423226162356 226.69015676425636,333.89708184964815 226.5646872906682,335.2487302696661 226.39825877404917,336.5951940006927 226.2380518842197,337.62798404774895 223.085760977542,337.62798404774895 223.28433456590673,336.39558347452976 223.45231848922313,335.0931895999287 223.5783064317104,333.7861295052355 223.6622983933686,332.4759585971476 223.7048128430968,331.1642322823623 223.7048128430968,329.85095056087965 223.66281686226773,328.53818730829613 223.5783064317104,327.2280164002082 223.45231848922313,325.9214747744142 223.28433456590673,324.6190808998131 223.0748731306604,323.3229086520016 222.9105184896379,322.4788412842267 222.82393418348408,322.0339949687778 222.53203619327692,320.7538952568391 222.41900997326778,320.3240845394648 222.1991791600389,319.48416492288294 221.82536308377004,318.2253224358084 221.4116249022686,316.97944167121193 220.95796461553456,315.74704109799274 220.46541916136619,314.53019459174726 219.93398853976348,313.32942062137465 219.36419121962552,312.1467930624713 218.75654566985145,310.9828303839366 218.11260729713868,309.83856952356854 217.43185763258805,308.71556588806465 216.715852082897,307.6153748841222 216.3778103606677,307.1306064634407 220.10456480757549,307.1306064634407"/>
<polygon class="l3d0" points="229.93058738378522,307.7864696208333 230.5491207804409,309.1189346915836 231.12980594746045,310.46799076710585 231.67316135374304,311.8326009096018 232.1776315925913,313.21224665017246 232.6432166640052,314.6048541132212 232.83816097007607,315.2477555481357 233.06991656798476,316.0109417676472 233.45669436673174,317.42791726895473 233.8035500602461,318.8547436793457 234.10996517962874,320.29142099882 234.3764581937788,321.73587535178115 234.601992164898,323.187069800431 234.78708556188548,324.6439674069711 234.93070144694303,326.10604970250256 235.0338767578688,327.5712428114287 235.09557455686465,329.03850979595137 235.11631331282965,330.5073321871714 235.09557455686465,331.9761545783915 235.0338767578688,333.4434215629141 234.93121991584215,334.9086146718403 234.78708556188548,336.37017849847257 234.6273971409551,337.62798404774895 231.48754948785643,337.62798404774895 231.6721244159448,336.2250072067177 231.8178141765988,334.8002546719233 231.92202642532288,333.3708359170367 231.98476116211694,331.93934328655365 232.00549991808194,330.5068137182723 231.98476116211694,329.07480261889015 231.92202642532288,327.64330998840705 231.81833264549792,326.2144097024196 231.6721244159448,324.789138698726 231.48547561225993,323.36853391512454 231.2573492966451,321.9541507583126 230.9877454691003,320.5470261660884 230.67770106742378,319.1481970762502 230.32721609161555,317.75921889549534 229.93629054167556,316.380610092723 229.87666661827623,316.1913689445425 229.50544288650303,315.01444454352963 229.03519159499697,313.66124071681435 228.5255366671575,312.3220355503755 227.97751504078278,310.99838445091035 227.39060824697373,309.69132435621714 226.76637169242767,308.4018922040943 226.10480537714466,307.1306064634407 229.60343350843758,307.1306064634407"/>
<polygon class="l3d0" points="-12.231199799248843,338.46168203754127 -11.644811474338901,339.76926060113357 -11.020574919792862,341.0586927532565 -10.358490135610726,342.3294600250109 -9.66063099738899,343.58052547859864 -8.926479036228532,344.81033370732223 -8.156552721028476,346.0188847111817 -7.351888989587071,347.2046230834797 -6.51300631080344,348.3659934175189 -5.640941622475835,349.50247724440004 -4.735694924604253,350.61303762632497 -3.7993400927851946,351.69715609439453 -2.8313586581195342,352.7537957108105 -1.8333060273046462,353.7814010688755 5.4993996130148135,361.1135882402958 6.527004971079806,362.1121593400099 7.583644587495775,363.0796223057764 8.648061237398613,363.99990460172256 4.005690714636792,363.99990460172256 3.2995360740290636,363.3134517792816 -4.0326510973912715,355.98126460786125 -5.056627173162391,354.92773580484 -6.050532052784282,353.84672815016523 -7.0138472673578205,352.7382416438368 -7.9455358790847574,351.6027947547538 -8.845079419065968,350.4414244207147 -9.711959418402328,349.25568604841675 -10.545138939295587,348.0455796378598 -11.344099512846622,346.8131790646406 -12.107804201257185,345.5590027976582 -12.83625300452727,344.2835693058116 -13.528408984858634,342.9879155268992 -14.184272142251276,341.6735968676183 -14.803324007806069,340.3416502657672 -15.38400917482564,338.9925941902449 -15.927364581108238,337.62798404774895 -12.577018554964962,337.62798404774895"/>
<polygon class="l3d0" points="-3.010748897216652,338.4777545734142 -2.3662920556047524,339.6214969648831 -1.6855423910541303,340.74450060038697 -0.9695368413630341,341.84469160432946 -0.2182754065314638,342.9220699767104 0.5672049756423312,343.97404337303425 1.385348898460977,345.000611793301 2.2361563619244738,346.00021983081325 3.1196273660328213,346.9723490166719 4.0326510973912715,347.9154439441796 11.364838268811608,355.2476311155999 12.30845166521841,356.16117331585747 13.280062382177944,357.04412585106667 14.280188888589329,357.89493331453025 15.306238839956945,358.713595706248 16.35873070517992,359.49855761952267 17.435590608661748,360.2503375232534 18.535781612604186,360.9663430729444 19.65878524810811,361.6470927374951 20.80252763957701,362.29154957910697 21.967008787010904,362.8986766599819 23.149636345914153,363.4684739801199 24.35041031628677,363.99990460172256 17.534099699495428,363.99990460172256 16.55315654235165,363.39277752084763 15.421857404461736,362.6430714927135 14.31388936703243,361.8586280483379 13.230807836761104,361.0410025944184 12.17364975144601,360.1896766620557 11.142933579986272,359.30724259574566 10.139696260180136,358.3926634576898 9.165493198724983,357.4474946545856 1.8333060273046462,350.11530748316534 0.8881372242004691,349.1405859528111 -0.02644191385535547,348.137867101904 -0.9093944490645784,347.1066324615452 -1.7607203814271997,346.0494743762301 -2.577827366447597,344.96639284595875 -3.3627892797222665,343.8584248085295 -4.111976838957339,342.72712567063957 -4.826945450850186,341.5730139011882 -5.505102770905185,340.39764490687264 -6.147485736920585,339.2020556254913 -6.752020473299889,337.98676452594316 -6.917412052120642,337.62798404774895 -3.454039805968199,337.62798404774895"/>
<polygon class="l3d0" points="71.48960262469696,357.4474946545856 70.51488109434268,358.3926634576898 69.51216224343567,359.30724259574566 68.48092760307681,360.1896766620557 67.42376951776171,361.0410025944184 66.34068798749038,361.8586280483379 65.23271995006108,362.6430714927135 64.10142081217116,363.39277752084763 63.120477655027386,363.99990460172256 56.304167038236045,363.99990460172256 57.50494100860866,363.4684739801199 58.562099093923756,362.95933752117946 58.68756856751191,362.8986766599819 59.20085277764528,362.6311467080336 59.8520497149458,362.29154957910697 60.995792106414704,361.6470927374951 62.118795741918625,360.9663430729444 63.218986745861066,360.2503375232534 64.29636511824202,359.49855761952267 65.34833851456587,358.713595706248 66.37490693483261,357.89493331453025 67.37451497234488,357.04412585106667 68.34664415820353,356.16117331585747 69.2897390857112,355.2476311155999 86.9093861535622,337.62798404774895 91.3091132315337,337.62798404774895"/>
<polygon class="l3d0" points="77.35555974939287,363.3134517792816 76.64940510878515,363.99990460172256 72.0065161171242,363.99990460172256 73.07145123592618,363.0796223057764 74.12809085234213,362.1121593400099 75.15569621040713,361.1135882402958 98.64130040295403,337.62798404774895 103.04102748092554,337.62798404774895"/>
<polygon class="l3d0" points="226.1898342766011,337.9369915116272 225.94045073612216,339.27101198907485 225.65010815261238,340.5967369641365 225.31932499497086,341.9131294990139 224.9475827942985,343.2186341870097 224.53591848839355,344.5122140903256 224.08536901505428,345.79231380226423 223.59437896758328,347.05789638502745 223.06554069047613,348.30792490081694 222.49833571483381,349.5408439429352 221.89380097845452,350.75561657358423 221.25141801243913,351.9517243238647 220.572742223485,353.12761178707933 219.85829208049128,354.28120508763163 219.10858605235708,355.41302269442065 218.3241426079815,356.5204722629508 217.506517154062,357.6035537932222 216.6551912216994,358.6612303474364 215.77223868649017,359.69194651889615 214.85765954843436,360.69518383870223 213.9130092142293,361.6688684312583 211.581973043765,363.99990460172256 207.18328290359176,363.99990460172256 211.71366414414265,359.46952336117164 212.62668787550112,358.5259099647649 213.50964041071032,357.55481771670446 214.36044787417384,356.5546912102931 215.1791102658916,355.5281227900263 215.96407217916627,354.47563092480334 216.71533361399784,353.39928949022067 217.43185763258805,352.2985800173791 218.11208882823956,351.1760948507743 218.75654566985145,350.03183399040626 219.36367275072638,348.8678713118715 219.93347007086433,347.68524375296823 220.46541916136619,346.48395131369654 220.95796461553456,345.26762327635015 221.4116249022686,344.0352227031309 221.82484461487095,342.78882346963536 222.1986606911398,341.53049945145995 222.53203619327692,340.2602506486046 222.82393418348408,338.9801509366659 223.0753915995595,337.69175572234127 223.085760977542,337.62798404774895 226.2380518842197,337.62798404774895"/>
<polygon class="l3d0" points="234.601992164898,337.8270761050128 234.3764581937788,339.2787890225617 234.10996517962874,340.7232433755229 233.8035500602461,342.1594022260981 233.45669436673174,343.5872655742873 233.06991656798476,345.0037226066957 232.6432166640052,346.4092917922226 232.1776315925913,347.8024177241704 231.67316135374304,349.182063464741 231.13032441635957,350.54667360723704 230.5491207804409,351.8957296827593 229.93058738378522,353.22767628461037 229.27472422639255,354.5419949438913 228.5825682460612,355.8371302539046 227.85411944279113,357.11308221465026 227.08989628548142,358.36725848163275 226.2909357119304,359.599659054852 225.45827465993625,360.80924699650967 224.59087619170077,361.9955038377068 223.69185112061868,363.15635570284684 222.99969514028734,363.99990460172256 218.85920251187812,363.99990460172256 219.54513686542,363.25123551138665 220.48149169723905,362.1671170433171 221.38673839511063,361.05707513029125 222.25880308343824,359.92007283451096 223.09768576222186,358.7587025004718 223.90234949366328,357.57296412817385 224.67227580886336,356.36441312431435 225.4064277700238,355.1346048955907 226.10480537714466,353.88353944200304 226.76637169242767,352.6127721702486 227.39060824697373,351.3233400181257 227.97699657188363,350.0157614545334 228.5255366671575,348.69262882396737 229.03467312609789,347.35342365752854 229.5049244176039,346.00021983081325 229.93629054167556,344.63353581272077 230.32721609161555,343.25492700994835 230.67770106742378,341.86594882919354 230.9877454691003,340.4671197393553 231.25683082774597,339.05999514713113 231.48547561225993,337.64561199031914 231.48754948785643,337.62798404774895 234.6273971409551,337.62798404774895"/>
<polygon class="l3d0" points="157.79808332417372,417.78379432131385 153.39939318400047,417.78379432131385 207.18328290359176,363.99990460172256 211.581973043765,363.99990460172256"/>
<polygon class="l3d0" points="222.76016250889174,364.29180259192975 221.7968472943182,365.40028909825816 220.80242394579722,366.48181522183216 219.7789663389252,367.5348255559542 169.52999757356557,417.78379432131385 165.13078896449318,417.78379432131385 217.57910279993945,365.3354804858676 218.5776738996535,364.3073566589035 218.85920251187812,363.99990460172256 222.99969514028734,363.99990460172256"/>
<polygon class="l3d0" points="323.53237008724795,417.4753053263347 324.9996370717706,417.53700312533056 326.4653486495959,417.6401784362563 327.9269124762282,417.78379432131385 316.20070138472676,417.78379432131385 317.66226521135906,417.6396599673572 319.1274583202852,417.53700312533056 320.5947253048079,417.4753053263347 322.0635476960279,417.4545665703697"/>
<polygon class="l3d0" points="76.30203094637166,364.3374278550527 75.22102329169682,365.33133273467456 74.11201831646926,366.29464794924814 72.97708989628548,367.226336560975 71.81520109334723,368.1258801009563 70.62998118994835,368.9927601002926 69.41987477939149,369.82542115228676 68.18747420617227,370.62490019473694 66.93329793918983,371.3886048831475 65.65786444734327,372.11705368641753 64.36221066843085,372.8092096667489 63.04789200914994,373.4650728241416 61.71542693839968,374.0836062207972 60.36688933177655,374.6648098567159 59.00176072038143,375.2076467940994 57.62263344870995,375.7121170329477 56.229507516762105,376.1777021043616 54.82393833123527,376.60440200834114 53.406962829927686,376.99117980708814 51.97961795063762,377.3375170317034 50.5429406311633,377.64445061998515 49.09900474710125,377.9109436341352 47.64781029845144,378.13647760525436 46.190912691911265,378.3215710022419 44.72883039637985,378.4657053561985 43.263637287453676,378.5683621982252 41.795851834031886,378.63057846612014 40.327547911710965,378.65079875318605 38.85872552049093,378.63057846612014 37.39145853596826,378.5683621982252 35.92574695814297,378.4657053561985 34.46418313151067,378.3215710022419 33.0072855249705,378.13647760525436 31.556091076320694,377.9109436341352 30.111636723359517,377.64445061998515 28.6749594038852,377.3375170317034 27.24761452459513,376.99117980708814 25.83063902328755,376.60440200834114 24.425069837760713,376.1777021043616 23.031943905812867,375.7121170329477 21.652816634141384,375.2076467940994 20.288206491645393,374.6648098567159 18.93915041612314,374.0836062207972 17.607203814271998,373.4650728241416 16.292885154991094,372.8092096667489 14.997231376078675,372.11705368641753 13.721797884232117,371.3886048831475 12.467621617249668,370.62490019473694 11.23470257513133,369.82542115228676 10.025114633473596,368.9927601002926 8.839376261175596,368.1258801009563 7.6780059271364545,367.226336560975 6.542559038053543,366.29464794924814 5.434072531725112,365.33133273467456 4.35254640815116,364.3374278550527 4.005690714636792,363.99990460172256 8.648061237398613,363.99990460172256 8.667244586666223,364.0164956064946 9.777804968591155,364.92174230436615 10.91480726437144,365.79380699269376 12.076177598410583,366.63268967147735 13.261915970708582,367.43683493401966 14.470466974568064,368.20676124921977 15.700275203291657,368.9414316792793 16.950822187980233,369.63929081750103 18.222107928633793,370.3008571327841 19.511540080756717,370.9250936873301 20.818600175449877,371.5120004811392 22.142251274915026,372.060540576413 23.48145644135391,372.5696770353534 24.83466026806916,373.0399283268594 26.201344286161653,373.4707759820319 27.579434620034885,373.8617015319719 28.968412800789732,374.2121865077802 30.367241890627948,374.52223090945665 31.774884951751286,374.79183473700147 33.18874963966412,375.01996105261634 34.609354423265565,375.20660985630116 36.03462542695914,375.3522996169552 37.46404418184571,375.45651186567926 38.895018343429655,375.5192466024733 40.327547911710965,375.53998535843834 41.75955901109316,375.5192466024733 43.19105164157624,375.45651186567926 44.619951927563676,375.3522996169552 46.04522293125725,375.20660985630116 46.71301087332975,375.11898861234914 47.46634618375782,375.01996105261634 48.35603881465566,374.8763451675588 48.880210871670656,374.79183473700147 49.919222545516384,374.5927426797376 50.28733546389487,374.52223090945665 51.68616455373308,374.2121865077802 53.07514273448793,373.8617015319719 54.45375153726029,373.4707759820319 55.81991708645365,373.0399283268594 57.1731209131689,372.5696770353534 58.51232607960779,372.060540576413 59.83597717907294,371.5120004811392 61.14355574266522,370.9250936873301 62.432469425889025,370.3008571327841 63.703755166542585,369.63929081750103 64.95482062013028,368.9414316792793 66.18462884885388,368.20676124921977 67.39317985271336,367.43683493401966 68.57839975611222,366.63268967147735 69.7402885590505,365.79380699269376 70.87677238593166,364.92174230436615 71.98733276785659,364.0164956064946 72.0065161171242,363.99990460172256 76.64940510878515,363.99990460172256"/>
<polygon class="l3d0" points="62.947309042719766,364.1072276638414 61.77194004840426,364.7859034527955 60.576350767022895,365.4277679499118 59.361059667474784,366.0328211551902 58.128140625356444,366.6005445997316 56.87811210956699,367.12938287683875 55.61252952680381,367.61985445541063 54.33242981486513,368.07092239764904 53.49458407387974,368.3374154117991 53.038849911549214,368.4820682346549 51.73334522355343,368.8538104353272 50.41695268867602,369.1845935929687 49.09122771361437,369.47493617647854 47.75720723616673,369.72483818585664 46.415928194131354,369.93274421440555 45.0689459942056,370.0996911999237 43.71729757418771,370.22464220461273 42.36305680967421,370.3081156973718 41.00622370066509,370.3501116782009 39.64835365385772,370.3501116782009 38.29203901374772,370.3081156973718 36.93779824923422,370.22464220461273 35.586149829216346,370.0996911999237 34.23916762929059,369.93274421440555 32.8978885872552,369.72483818585664 31.56334964090844,369.47493617647854 30.237624665846795,369.1845935929687 28.92123213096939,368.8538104353272 27.615727442973608,368.4820682346549 26.322666008556812,368.07092239764904 25.042047827719006,367.61985445541063 23.77646524495582,367.12938287683875 22.52695519806549,366.6005445997316 21.293517687048027,366.0328211551902 20.078745056399047,365.4277679499118 18.882637306118557,364.7859034527955 17.70726831180305,364.1072276638414 17.534099699495428,363.99990460172256 24.35041031628677,363.99990460172256 25.567256822532247,364.4929685247901 26.79965739575146,364.94611034262505 28.04605662924704,365.35984852412645 29.304380647422484,365.73314613149614 30.574629450277794,366.0660031647342 31.854210693317352,366.35841962384046 33.14312437654115,366.6093585710168 34.43929662435269,366.8193384751622 35.74169049895373,366.98732239847857 37.04823212474776,367.1127918720668 38.3589215017348,367.1973023026241 39.67064781652008,367.2392982834532 40.983929538002734,367.2392982834532 42.29617432168714,367.1973023026241 43.606345229775044,367.1127918720668 44.91340532446821,366.98732239847857 46.215799199069245,366.8193384751622 47.511971446880786,366.6093585710168 48.80036666120546,366.35841962384046 50.08046637314415,366.0660031647342 51.35019670710033,365.73314613149614 52.6090391941749,365.35984852412645 53.85543842767048,364.94611034262505 55.087839000889694,364.4929685247901 56.304167038236045,363.99990460172256 63.120477655027386,363.99990460172256"/>
<polygon class="l3d0" points="144.81199280779944,430.76988483768815 143.81394017698454,431.79749019575314 142.84595874231889,432.8541298121691 142.0164085037195,433.8143342133479 138.0293826694512,433.8143342133479 138.6997629560193,432.9490096207089 139.63093309884715,431.813562731626 140.5947667823198,430.7050762252976 141.58867166194167,429.6235501017236 142.61264773771282,428.5705397676015 153.39939318400047,417.78379432131385 157.79808332417372,417.78379432131385"/>
<polygon class="l3d0" points="153.4994576815315,433.8143342133479 149.10024907245912,433.8143342133479 165.13078896449318,417.78379432131385 169.52999757356557,417.78379432131385"/>
<polygon class="l3d0" points="329.3843285516675,417.96888771830135 330.8350045314182,418.19442168942055 332.2794588843794,418.4609147035706 333.7161362038537,418.7673298229533 335.14296261424465,419.1141855164676 336.55993811555226,419.5009633152146 337.9660257699782,419.92766321919413 339.35863323302686,420.3937667595072 339.74800337626954,420.5358272378673 340.7382789735975,420.8977185294563 342.1028891160935,421.44107393573887 343.4519451916157,422.0217591027585 344.784410262366,422.6402924994141 346.0987289216469,423.2961556568068 347.39386423166025,423.98883010603726 348.6692977235068,424.71727890930737 349.92347399048924,425.4809835977179 351.1563930326075,426.279944171269 352.3664994431644,427.11260522326313 353.5517193465633,427.9794852225994 354.7136081495015,428.8790287625807 355.84853656968534,429.8112358432067 356.95754154491294,430.77403258888114 358.0385491995877,431.767937468503 359.0915595337098,432.79191354427417 360.1139802027836,433.8143342133479 355.66810939279,433.8143342133479 354.80796948914224,433.02574301777935 353.7238510210726,432.0888697170612 352.6127721702486,431.1841414880887 351.47628834336746,430.311558330862 350.3149180093283,429.4731941209775 349.12969810592944,428.6685303895361 347.92114710206994,427.89860407433605 346.69133887334635,427.1639336442764 345.4402734197586,426.46607450605467 344.1689876791051,425.8045081907717 342.8795555269822,425.18027163622565 341.572495432289,424.5933648424166 340.24884433282386,424.0453432160419 338.909639166385,423.5356882882024 337.5564353396697,423.06543699669635 337.29979323460304,422.9845558484329 336.19026979047635,422.6345893415238 335.464931800601,422.4287571885713 334.811660987704,422.2436637915838 333.4226828069492,421.89317881577557 332.02385371711097,421.58313441409905 330.6167291248867,421.31353058655424 329.2023459680748,421.08592273983857 327.78174118447333,420.8987554672546 326.35647018077975,420.75254723770144 324.9275698947923,420.64885345787644 323.49607726430924,420.5861187210824 322.06406616492706,420.5653799651174 320.63153659664573,420.5861187210824 319.20004396616264,420.64885345787644 317.7706252112761,420.7530657066005 316.34587267648163,420.8987554672546 314.9252678928802,421.0854042709394 313.51088473606825,421.3140490554534 312.103760143844,421.58313441409905 310.7049310540058,421.89317881577557 309.315952873251,422.2436637915838 307.9373440704786,422.6345893415238 306.5706600523861,423.06595546559544 305.2174562256709,423.5362067571015 303.87825105923196,424.0453432160419 302.55511842866593,424.5938833113157 301.2475398650737,425.18027163622565 299.9581077129508,425.8045081907717 298.68734044119634,426.46607450605467 297.4362749876086,427.1644521131755 296.20646675888497,427.89860407433605 294.99791575502553,428.6685303895361 293.81217738272755,429.4731941209775 292.65080704868836,430.3120767997611 291.51380475290813,431.1841414880887 290.40376283988235,432.0893881859603 289.31964437181273,433.02574301777935 288.45898599926585,433.8143342133479 284.0136336581714,433.8143342133479 285.03605432724515,432.79191354427417 286.0890646613673,431.7684559374021 287.17059078494117,430.77403258888114 288.27907729126963,429.8107173743076 289.41452418035254,428.8790287625807 290.57537604549253,427.9800036914986 291.76163288668965,427.11260522326313 292.97122082834744,426.279944171269 294.20362140156664,425.4809835977179 295.45831613744815,424.7167604404082 296.7337496292947,423.98831163713817 298.02888493930806,423.2961556568068 299.34320359858896,422.6402924994141 300.6751502004401,422.0217591027585 302.0247247448615,421.4405554668398 303.38881641845836,420.8977185294563 304.7684621590289,420.3932482906081 306.16158809097675,419.92766321919413 307.5671572765036,419.5009633152146 308.9841327778112,419.1141855164676 310.4114776571013,418.7673298229533 311.84763650767644,418.4609147035706 313.29209086063764,418.19442168942055 314.74380377818653,417.96888771830135 316.20070138472676,417.78379432131385 327.9269124762282,417.78379432131385"/>
<polygon class="l3d0" points="322.74274195388114,425.75577211425394 324.0990565939911,425.79724962618394 325.4538158274038,425.88072311894297 326.80494577852255,426.0061925925312 328.1524464473475,426.17262110915016 329.4932070204837,426.38104560659826 330.82774596683043,426.63042914707717 332.1534709418921,426.92077173058703 333.12041543875955,427.1639336442764 333.39053773520345,427.23133460116264 333.4698634767695,427.2515548882285 334.7753681647653,427.6232970889008 336.0684295991821,428.0349613948058 337.3485293111208,428.48551086814507 338.6146303627831,428.97598244671696 339.8646588785725,429.5048207238241 341.09757792069087,430.07254416836554 342.312869020239,430.67759737364395 343.50845830162035,431.3194618707602 344.6833088270367,431.9981376597144 345.8379390653873,432.7125878027081 346.9692382032772,433.46229383084227 347.4664498775377,433.8143342133479 341.58804949926275,433.8143342133479 340.424086820728,433.2066886635738 339.24145926182473,432.6368913434359 338.0406852914521,432.1054607218332 336.82383878520665,431.6129152676648 335.59143821198745,431.1592549809307 334.34555744739095,430.7455167994293 333.0867149603164,430.37221919205956 332.2467953437345,430.15186990993163 331.81698462636024,430.0388436899225 330.53688491442153,429.74694569971524 329.2479712311977,429.49600675253896 327.9517989833862,429.2865453172926 326.6494051087852,429.1185613939762 325.3428634829911,428.99257345148897 324.03269257490325,428.90806302093165 322.7199293223197,428.86606704010256 321.4071660697362,428.86606704010256 320.0949212860518,428.90858148983074 318.7847503779638,428.99257345148897 317.4776902832707,429.1185613939762 316.1752964086697,429.2865453172926 314.87964262975726,429.49600675253896 313.59072894653343,429.74694569971524 312.3111477034939,430.0388436899225 311.04038043173944,430.37221919205956 309.782056413564,430.7460352683284 308.5356571800684,431.1592549809307 307.3032566068492,431.6129152676648 306.08692856950285,432.1054607218332 304.88615459913024,432.637409812335 303.70300857132787,433.207207132473 302.53904589279307,433.8143342133479 296.6606455145182,433.8143342133479 297.1578571887787,433.46229383084227 298.2896747955677,432.7125878027081 299.44378656501914,431.9981376597144 300.6191555593347,431.3194618707602 301.81526330961515,430.67759737364395 303.0300359402641,430.07254416836554 304.26295498238244,429.50533919272317 305.5129834981719,428.9765009156161 306.7785660809351,428.48551086814507 308.05866579287374,428.0349613948058 309.35224569618964,427.6232970889008 310.6577503841855,427.2515548882285 311.97414291906284,426.9212901994861 313.29986789412453,426.63042914707717 314.63388837157214,426.38104560659826 315.9756858825067,426.17262110915016 317.3221496135333,426.0061925925312 318.6737980335512,425.88072311894297 320.0285572669638,425.79724962618394 321.38487190707383,425.75525364535486"/>
<polygon class="l3d0" points="141.90908544160072,433.93824828023867 141.00383874372912,435.0488086621636 140.1317740554015,436.18581095794394 139.2928913766179,437.347181291983 138.4887461140756,438.53291966428105 137.71881979887553,439.7409521992414 136.98466783771508,440.9712788968641 136.28629023059423,442.22182588155266 135.62472391531122,443.49311162220624 135.00048736076516,444.78254377432916 134.41409903585526,446.08960386902237 133.8655589405814,447.4132549684875 133.356422481641,448.75246013492637 132.88565272123586,450.1056639616416 132.45480506606333,451.471829510835 132.06439798502248,452.85043831360736 131.7133945403151,454.23941649436216 131.4033501386386,455.63824558420043 131.13426477999292,457.0458886453237 130.90561999547896,458.45975333323656 130.71897119179408,459.880358116838 130.57328143114006,461.3056291205316 130.54735798618384,461.6592249097346 127.42773062015102,461.6592249097346 127.46039416079587,461.1967506517154 127.60452851475252,459.73518682508313 127.78910344284088,458.27828921854297 128.0146374139601,456.826576300994 128.28113042811015,455.38264041693196 128.5880640163919,453.9459630974577 128.93440124100715,452.5186182181676 129.32117903975413,451.10164271686006 129.7478789437337,449.6960735313332 130.2134640151476,448.30294759938533 130.71793425399585,446.9238203277138 131.26077119137932,445.5586917163187 131.841974827298,444.2101541096956 132.4610266928528,442.87768903894533 133.11688985024546,441.56337037966443 133.8090458305768,440.267716600752 134.5374946338469,438.99228310890544 135.30119932225747,437.73810684192296 136.1001598958085,436.5057062687038 136.93333941670176,435.2961183270461 137.79970094713897,434.11037995474805 138.0293826694512,433.8143342133479 142.0164085037195,433.8143342133479"/>
<polygon class="l3d0" points="150.67794993249535,436.63584196238406 149.76440773223777,437.5794553587909 148.88145519702857,438.5510660757504 148.03064773356505,439.55067411326263 147.21250381074643,440.5772425335294 146.42702342857262,441.6297343987524 145.6752435248419,442.70659430223424 144.95923797515084,443.80678530617666 144.2784883106002,444.92978894168056 143.63403146898833,446.07353133314945 143.02690438811337,447.2380124805834 142.45710706797541,448.4206400394866 141.92619491527182,449.6214140098592 141.43313099220433,450.8382605161047 140.97947070547028,452.0701426204248 140.56573252396882,453.3170603228195 140.1924349165991,454.57538434099496 139.85957788336108,455.84511467495116 139.5671614242548,457.1252143868898 139.3162224770785,458.4136096012145 139.10624257293304,459.71030031792515 138.93877711851576,461.012175723627 138.87656085062082,461.6592249097346 135.75174879559674,461.6592249097346 135.82588984817158,460.8571535227888 135.99335530258884,459.5101713228631 136.2012613311378,458.1683738119286 136.45064487161673,456.83435333448085 136.74098745512651,455.5086283594193 137.07228908166715,454.1922358245418 137.4435128134404,452.8867311365461 137.8546586504462,451.5931512332302 138.3057265926846,450.31305152129147 138.79619817125652,449.04746893852825 139.32555491726276,447.79795889163796 139.89275989290508,446.5645213806205 140.49781309818349,445.3497487499715 141.1401960641989,444.153640999691 141.8183533842539,442.9782720053755 142.53332199614673,441.8241602359241 143.28250955538184,440.6928610980342 144.06695299975738,439.5848930606049 144.88457845367688,438.50181153033355 145.7359043860395,437.4446534450185 146.61885692124872,436.4139372735587 147.53291759040542,435.4106999537526 148.47808639350959,434.43649689229744 149.10024907245912,433.8143342133479 153.4994576815315,433.8143342133479"/>
<polygon class="l3d0" points="288.2635232242959,433.9932059835459 287.2359178662309,434.99177708325993 260.5684700397562,461.6592249097346 256.1687429617847,461.6592249097346 284.0136336581714,433.8143342133479 288.45898599926585,433.8143342133479"/>
<polygon class="l3d0" points="301.39478503242503,434.4587910549598 300.2722998658203,435.13902225061133 299.1721088618778,435.8555462692015 298.095248958396,436.60680770403303 297.042757093173,437.3917696173077 296.01618867290625,438.2104320090255 295.0160621664949,439.06123947248904 294.04496991843445,439.94419200769823 293.1013565220277,440.85773420795584 272.29986582024895,461.6592249097346 267.90065721117656,461.6592249097346 290.902011451941,438.6578706689701 291.8756960444971,437.713220334765 292.87893336430324,436.7986411967092 293.909649535763,435.9156886615 294.9673260899772,435.06488119803646 296.0504076202485,434.24673727521787 296.6606455145182,433.8143342133479 302.53904589279307,433.8143342133479"/>
<polygon class="l3d0" points="348.07720624070646,434.24673727521787 349.15976930207864,435.06488119803646 350.2174458562929,435.9156886615 351.2481620277526,436.7986411967092 352.2513993475588,437.713220334765 353.22612087791305,438.6578706689701 360.55830804933333,445.9900578403904 361.5029583835384,446.9647793707447 362.4175375215942,447.9680166905508 363.3004900568034,448.99873286201057 364.151297520267,450.05640941622477 364.9694414430856,451.13897247759695 365.753366418562,452.24694051502627 366.5030724466962,453.3782396529162 367.21804105858905,454.5323514223676 367.89619837864404,455.70772041668306 368.53858134465946,456.90330969806445 369.14363454993793,458.1186007976126 369.71135799447933,459.3515198397309 370.24019627158646,460.6015483555204 370.6497867018949,461.6592249097346 367.30618077144027,461.6592249097346 367.1101995275712,461.1749749579522 366.5792873748676,459.9747194564787 366.0094900547296,458.7915734286764 365.40184450495553,457.62761075014157 364.75790613224274,456.4838683586727 364.07715646769213,455.36086472316873 363.36115091800104,454.2606737192263 362.6093710142703,453.18329534684534 361.8244091009957,452.1313219505215 361.0057467092779,451.10475353025475 360.1544207769153,450.1051454927425 359.2719867106052,449.13301630688386 358.3584445103476,448.18992137937613 351.0262573389273,440.85773420795584 350.0831624114196,439.94419200769823 349.11103322556096,439.06123947248904 348.1114251880487,438.2099135401264 347.08485676778196,437.3917696173077 346.0328833714581,436.60680770403303 344.95550499907716,435.8550278003024 343.8553139951347,435.13902225061133 342.7323103596308,434.4582725860607 341.58804949926275,433.8143342133479 347.4664498775377,433.8143342133479"/>
<polygon class="l3d0" points="366.4242651740293,440.1241007156945 367.4482412498004,441.1776295187157 368.44214612942227,442.2586371733905 369.4049428750967,443.36764214861813 370.33714995572274,444.5025705688019 371.23669349570395,445.66394090284103 372.10305502614125,446.849679275139 372.9362345470345,448.0597856856959 373.73519512058556,449.2927047278142 374.4988998089961,450.54688099479665 375.22734861226616,451.8223144866432 375.91950459259755,453.1174497966565 376.57536774999016,454.43176845593746 377.1944196155449,455.76371505778854 377.77510478256454,457.11328960220993 378.3184601888471,458.47738127580686 378.82241195879624,459.8570270163774 379.2885154991093,461.25015294832525 379.41242956600007,461.6592249097346 376.1507417216071,461.6592249097346 375.6804904301011,460.30653955191843 375.1708355022616,458.96733438547955 374.6228138758869,457.64368328601444 374.03590708207776,456.3366231913213 373.4116705275318,455.0466725702992 372.75010421224874,453.7759052985448 372.0517266051279,452.52483984495706 371.3175746439674,451.2950316162335 370.54764832876737,450.086480612374 369.742984597326,448.90126070897514 368.90462038744147,447.73937190603687 368.03203723021477,446.6028880791557 367.1273090012423,445.49232769723073 366.1904357005241,444.4082092291612 365.2224542658584,443.35208808164435 364.22440163504353,442.3239642546802 356.8922144636232,434.99177708325993 355.86409063665906,433.993724452445 355.66810939279,433.8143342133479 360.1139802027836,433.8143342133479"/>
<polygon class="l3d0" points="130.46906918241604,462.734529406519 130.40685291452107,464.1660220370021 130.3861141585561,465.5985516052834 130.40685291452107,467.0305627046656 130.46906918241604,468.46205533514865 130.57328143114006,469.89095562113613 130.71897119179408,471.3162266248297 130.90561999547896,472.73683140843116 131.13426477999292,474.15121456524315 131.4033501386386,475.5583391574673 131.7133945403151,476.9571682473055 132.06439798502248,478.3461464280604 132.45480506606333,479.7247552308328 132.88565272123586,481.0909207800261 133.356422481641,482.4441246067414 133.8655589405814,483.78332977318024 134.41409903585526,485.1069808726454 135.00048736076516,486.41404096733856 135.62472391531122,487.7034731194614 136.28629023059423,488.97475886011506 136.98466783771508,490.22582431370273 137.71881979887553,491.4556325424264 138.47682132939576,492.6450001970182 134.80606152359343,492.6450001970182 134.5374946338469,492.2043016327623 133.8090458305768,490.9288681409157 133.11688985024546,489.63321436200334 132.4610266928528,488.3188957027224 131.841974827298,486.98643063197215 131.26077119137932,485.637893025349 130.71793425399585,484.2727644139539 130.2134640151476,482.8936371422824 129.7478789437337,481.50051121033454 129.32117903975413,480.0949420248077 128.93440124100715,478.6779665235002 128.5880640163919,477.25062164421007 128.28113042811015,475.81394432473576 128.0146374139601,474.3700084406737 127.78910344284088,472.91829552312475 127.60452851475252,471.4613979165846 127.46039416079587,469.9998340899523 127.35721884987007,468.5346409810261 127.29552105087424,467.06685552760433 127.27478229490926,465.5985516052834 127.29552105087424,464.1297292140634 127.35721884987007,462.6619437606416 127.42773062015102,461.6592249097346 130.54735798618384,461.6592249097346"/>
<polygon class="l3d0" points="138.81278917602847,462.31923581832024 138.72827874547116,463.6294067264081 138.6862827646421,464.9416515100925 138.6862827646421,466.2549332315752 138.72827874547116,467.56717801525957 138.81278917602847,468.87734892334754 138.93877711851576,470.18440901804064 139.10624257293304,471.4862844237426 139.3162224770785,472.7829751404533 139.5671614242548,474.07137035477797 139.85957788336108,475.3514700667166 140.1924349165991,476.62120040067276 140.56573252396882,477.8800428877474 140.97947070547028,479.126442121243 141.43313099220433,480.358324225563 141.92619491527182,481.5751707318085 142.45710706797541,482.77594470218116 143.02690438811337,483.9585722610844 143.63403146898833,485.1230534085182 144.2784883106002,486.26679579998716 144.95923797515084,487.3897994354911 145.6752435248419,488.48999043943354 146.42702342857262,489.56736881181445 147.21250381074643,490.61934220813833 148.03064773356505,491.64591062840503 148.88093672812943,492.6450001970182 144.8472486929399,492.6450001970182 144.06695299975738,491.61169168106284 143.28250955538184,490.5037236436335 142.53332199614673,489.3724245057436 141.8183533842539,488.2183127362922 141.1401960641989,487.04294374197667 140.49781309818349,485.84735446059534 139.89275989290508,484.63206336104724 139.32555491726276,483.39862585002976 138.79619817125652,482.14911580313947 138.3057265926846,480.88353322037625 137.8546586504462,479.6034335084376 137.4435128134404,478.30985360512165 137.07228908166715,477.00434891712587 136.74098745512651,475.68795638224844 136.45064487161673,474.3622314071868 136.2012613311378,473.0282109297392 135.99335530258884,471.6869318877038 135.82588984817158,470.3399496877781 135.70093884348253,468.98830126776016 135.61746535072348,467.63354203434756 135.5754693698944,466.27722739423757 135.5754693698944,464.9193573474302 135.61746535072348,463.56304270732016 135.70093884348253,462.2088019428067 135.75174879559674,461.6592249097346 138.87656085062082,461.6592249097346"/>
<polygon class="l3d0" points="229.5826947524726,492.6450001970182 225.18296767450107,492.6450001970182 256.1687429617847,461.6592249097346 260.5684700397562,461.6592249097346"/>
<polygon class="l3d0" points="241.31409053296528,492.6450001970182 236.91488192389292,492.6450001970182 267.90065721117656,461.6592249097346 272.29986582024895,461.6592249097346"/>
<polygon class="l3d0" points="370.73014938125925,461.86713093828354 371.18121732349766,463.14774911912133 371.5928816294026,464.44081055353814 371.9641053611758,465.746315241534 372.29540698771643,467.06270777641134 372.5857495712262,468.38843275147303 372.83513311170515,469.72297169781973 373.04303914025417,471.063732270956 373.2099861257723,472.4112329397809 373.33545559936044,473.7623628908997 373.4189290921195,475.1171221243123 373.46040660404947,476.4734367644223 373.4609250729486,477.83130681122964 373.4189290921195,479.1876214513396 373.3349371304613,480.5423806847523 373.2099861257723,481.89402910477014 373.04303914025417,483.2404928357968 372.83513311170515,484.58229034673127 372.5857495712262,485.9157923552798 372.29488851881734,487.24203579924057 371.9641053611758,488.55842833411793 371.5928816294026,489.86393302211377 371.18121732349766,491.15751292542967 370.73014938125925,492.4376126373684 370.6497867018949,492.6450001970182 367.3066992403394,492.6450001970182 367.6032634506387,491.91292211145424 368.05640526847355,490.68052153823504 368.470143449975,489.43412230473945 368.84395952624385,488.1752798176649 369.1768165594819,486.90503101480954 369.46923301858817,485.62544977177004 369.7201719657645,484.3365360885462 369.92963340101085,483.0408823096338 370.0976173243272,481.7384884350327 370.2236052668145,480.43090987144046 370.3075972284726,479.12125743225164 370.34959320930176,477.80901264856726 370.34959320930176,476.4957309270846 370.3081156973718,475.1834861434002 370.2236052668145,473.8733152353123 370.0976173243272,472.5667736095183 369.92963340101085,471.2643797349172 369.7201719657645,469.9682074871057 369.46923301858817,468.6787753349828 369.1768165594819,467.39919409194323 368.84395952624385,466.129463757987 368.47066191887416,464.87062127091247 368.05640526847355,463.624740506316 367.6032634506387,462.39233993309676 367.30618077144027,461.6592249097346 370.6497867018949,461.6592249097346"/>
<polygon class="l3d0" points="379.7146969341897,462.6557221338521 380.1014747329367,464.07269763515967 380.4483304264511,465.49952404555063 380.75526401473286,466.93671983392403 381.0212385599838,468.3811741868853 381.24729100000206,469.83185016663595 381.4318659280904,471.2887477731761 381.57600028204706,472.75083006870756 381.67865712407377,474.21654164653285 381.7408733919687,475.68380863105546 381.76109367903456,477.15263102227556 381.7408733919687,478.62093494459646 381.6791755929729,480.08820192911907 381.57600028204706,481.55391350694435 381.4318659280904,483.0154773335767 381.24729100000206,484.4723749401168 381.0212385599838,485.9240878576658 380.7547455458337,487.3680237417279 380.4483304264511,488.80470106120214 380.1014747329367,490.23204594049224 379.7146969341897,491.6490214417998 379.41294803489916,492.6450001970182 376.150223252708,492.6450001970182 376.5815893767796,491.2783161789257 376.97199645782047,489.9002258450525 377.32248143362875,488.5112476642977 377.63304430420436,487.1124185744594 377.90212966285003,485.7052939822352 378.130774447364,484.2909108254232 378.31742325104887,482.87030604182183 378.4631130117029,481.44503503812825 378.5668067915278,480.0161347521408 378.6295415283219,478.5846421216577 378.65079875318605,477.15211255337636 378.6295415283219,475.7195829850951 378.5673252604269,474.28860882351114 378.4631130117029,472.85970853752366 378.31742325104887,471.433919064931 378.1302559784649,470.0138327502287 377.90212966285003,468.5994495934167 377.63304430420436,467.1918065322934 377.32299990252784,465.7934959113543 376.97199645782047,464.4045177305994 376.5815893767796,463.02590892782706 376.1507417216071,461.6592249097346 379.41242956600007,461.6592249097346"/>
<polygon class="l3d0" points="138.4887461140756,492.66366507738667 139.2928913766179,493.8494034496847 140.1317740554015,495.01077378372383 141.00383874372912,496.1477760795041 141.90908544160072,497.25833646142905 142.84595874231889,498.3424549294986 143.81394017698454,499.39909454591464 144.81199280779944,500.42669990397957 152.14417997921979,507.7588870753999 153.17178533728475,508.75693970621484 154.22842495370074,509.72492114088044 155.3125434217703,510.66179444159866 156.42310380369523,511.56704113947023 157.56010609947552,512.4391058277978 158.72147643351465,513.2779885065816 159.5961334663379,513.87111692718 154.32330476224053,513.87111692718 153.1878578731576,512.9399467843522 152.07885289793006,511.97611310087956 150.99784524325526,510.9822082212576 149.94483490913314,509.9587506143857 142.61264773771282,502.6260449740662 141.58867166194167,501.5730346399441 140.5947667823198,500.49202698526926 139.63093309884715,499.3830220100417 138.6997629560193,498.24757512095886 137.79970094713897,497.08620478691967 136.93333941670176,495.9009848835208 136.1001598958085,494.69087847296396 135.30119932225747,493.4584778997447 134.80606152359343,492.6450001970182 138.47682132939576,492.6450001970182"/>
<polygon class="l3d0" points="148.88145519702857,492.64551866591734 149.76440773223777,493.617647851776 150.67794993249535,494.56074277928366 158.01013710391567,501.892929950704 158.95323203142337,502.8064721509616 159.92536121728202,503.6894246861708 160.9249692547943,504.5402321496343 161.95153767506105,505.3583760724529 163.004029540284,506.1438564546267 164.0808894437658,506.8956363583574 165.18108044770827,507.6116419080485 166.3040840832122,508.2923915725991 167.4478264746811,508.93684841421106 168.61230762211497,509.54397549508593 169.79493518101825,510.1137728152239 170.99570915139086,510.6446849679275 172.21255565763633,511.13774889099506 173.4444377619564,511.5914091777291 174.69083699545197,512.0051473592306 175.94967948252656,512.3784449666002 177.21940981648274,512.7113019998383 178.4995095284214,513.0037184589445 179.7879047427461,513.2546574061208 181.08459545945675,513.4646373102663 182.38647086515869,513.6321027646836 183.69353095985187,513.7580907071708 185.00370186793975,513.8426011377281 185.89494990553496,513.87111692718 170.67062915163973,513.87111692718 170.4217640800599,513.7746817119429 169.17225403316957,513.2453249659366 167.9388165221521,512.6781199902942 166.72404389150313,512.0730667850158 165.52793614122263,511.4306838190004 164.35256714690712,510.75252649894543 163.19845537745573,510.0375578870526 162.06715623956583,509.2883703278175 160.95918820213652,508.503926883442 159.8761066718652,507.6863014295225 158.81894858655008,506.83497549715986 157.78823241509033,505.9520229619506 156.78499509528422,505.03796229279396 155.81027356492993,504.09279348968977 148.47808639350959,496.7606063182694 147.53291759040542,495.7858847879151 146.61885692124872,494.78316593700816 145.7359043860395,493.7519312966493 144.88457845367688,492.69477321133417 144.8472486929399,492.6450001970182 148.88093672812943,492.6450001970182"/>
<polygon class="l3d0" points="218.13490145980103,504.09279348968977 217.16017992944677,505.03796229279396 216.15694260964062,505.9520229619506 215.12622643818088,506.83497549715986 214.0690683528658,507.6863014295225 212.98598682259447,508.503926883442 211.87801878516515,509.2883703278175 210.74671964727523,510.0375578870526 209.59260787782384,510.75252649894543 208.41723888350833,511.4306838190004 207.22113113322783,512.0730667850158 206.00635850257888,512.6781199902942 204.7729209915614,513.2453249659366 203.5234109446711,513.7746817119429 203.27454587309126,513.87111692718 188.050225119196,513.87111692718 188.94147315679123,513.8426011377281 190.25164406487914,513.7580907071708 191.5587041595723,513.6321027646836 192.8605795652742,513.4646373102663 194.1572702819849,513.2546574061208 195.44566549630954,513.0037184589445 196.72576520824822,512.7113019998383 197.9954955422044,512.3784449666002 199.25433802927898,512.0051473592306 200.50073726277455,511.5914091777291 201.73261936709466,511.13774889099506 202.94946587334013,510.6446849679275 204.15023984371274,510.1137728152239 205.332867402616,509.54397549508593 206.4973485500499,508.93684841421106 207.64109094151877,508.2923915725991 208.7640945770227,507.6116419080485 209.86428558096515,506.8956363583574 210.94114548444696,506.1438564546267 211.99363734966997,505.3583760724529 213.0202057699367,504.5402321496343 214.01981380744894,503.6894246861708 214.9919429933076,502.8064721509616 215.9350379208153,501.892929950704 225.18296767450107,492.6450001970182 229.5826947524726,492.6450001970182"/>
<polygon class="l3d0" points="224.00034011559782,509.9587506143857 222.94732978147576,510.9822082212576 221.86580365790178,511.97611310087956 220.75731715157335,512.9399467843522 219.62187026249043,513.87111692718 214.3490415583931,513.87111692718 215.2236985912163,513.2779885065816 216.38506892525544,512.4391058277978 217.52207122103576,511.56704113947023 218.63263160296069,510.66179444159866 219.71675007103025,509.72492114088044 220.7733896874462,508.75693970621484 221.80099504551123,507.7588870753999 236.91488192389292,492.6450001970182 241.31409053296528,492.6450001970182"/>
<polygon class="l3d0" points="370.2396778026873,493.70319522013153 369.71083952558024,494.95322373592103 369.14363454993793,496.18614277803937 368.53858134465946,497.4009154086883 367.89619837864404,498.5970231589688 367.21804105858905,499.7723921532843 366.5030724466962,500.9265039227357 365.753366418562,502.05780306062564 364.9694414430856,503.16577109805496 364.151297520267,504.24885262832623 363.29997158790434,505.30601071364134 362.4175375215942,506.33724535400023 361.5029583835384,507.33996420490723 360.55830804933333,508.3141672663624 355.0013583885157,513.87111692718 350.6021497794433,513.87111692718 358.3584445103476,506.1148221962758 359.2719867106052,505.17120879986896 360.1544207769153,504.1995980829094 361.0057467092779,503.19999004539716 361.8244091009957,502.17290315623126 362.6093710142703,501.1209297599074 363.3606324491019,500.0440698564256 364.07715646769213,498.9438788524832 364.75738766334365,497.82087521697923 365.40184450495553,496.6771328255104 366.00897158583047,495.51265167807645 366.57876890596845,494.33002411917323 367.1101995275712,493.12925014880057 367.3066992403394,492.6450001970182 370.6497867018949,492.6450001970182"/>
<polygon class="l3d0" points="379.2885154991093,493.05459062732666 378.8229304276954,494.4477165592745 378.317941719948,495.82684383094596 377.7756232514636,497.191453973442 377.1939011466458,498.5405100489642 376.57536774999016,499.87245665081537 375.91950459259755,501.18677531009627 375.22734861226616,502.4824290890087 374.4988998089961,503.75786258085526 373.73519512058556,505.01255731673683 372.9362345470345,506.244957889956 372.10305502614125,507.45454583161376 371.23617502680486,508.6402842039118 370.33714995572274,509.8016545379509 369.40546134399585,510.9371014270338 368.44214612942227,512.0455879333623 367.44772278090124,513.1271140569362 366.72445866662247,513.87111692718 362.33354555993606,513.87111692718 364.22440163504353,511.98026085207255 365.2224542658584,510.95265549400756 366.189917231625,509.89653434649074 367.12679053234314,508.8124158784211 368.03203723021477,507.7018554964962 368.9041019185423,506.5653716696151 369.742984597326,505.40348286667677 370.5471298598683,504.21826296327794 371.3170561750683,503.00971195941844 372.0517266051279,501.77990373069485 372.75010421224874,500.52831980820804 373.41115205863264,499.2575525364536 374.03590708207776,497.9686388532298 374.6222954069877,496.6610602896375 375.1708355022616,495.3374091901723 375.67997196120194,493.9982040237335 376.150223252708,492.6450001970182 379.41294803489916,492.6450001970182"/>
<polygon class="l3d0" points="291.4572916429035,577.4151836727922 290.45872054318954,578.4427890308572 289.49125757742297,579.4994286472731 288.5543842767048,580.5835471153428 287.6491375788332,581.6941074972676 286.7770728905056,582.831109793048 285.938190211722,583.9924801270871 285.13404494917967,585.177700030486 284.3641186339797,586.3862510343455 283.62944820392005,587.616059263069 282.93158906569835,588.8671247166567 282.2700227504153,590.1384104573103 281.6457861958693,591.4278426094332 281.0588794020602,592.7349027041264 280.5103393067863,594.0585538035916 280.00120284784595,595.3977589700304 279.53095155633997,596.7509627967457 279.21675940347046,597.746941551964 275.96647787485824,597.746941551964 276.3931777788378,596.3413723664372 276.8587628502517,594.9482464344894 277.36323308909994,593.5691191628179 277.9060700264834,592.2039905514229 278.4872736624021,590.8554529447997 279.1058070590578,589.5229878740495 279.7616702164504,588.2086692147685 280.4538261967818,586.9130154358561 281.182793468951,585.6375819440095 281.9459796884624,584.3834056770271 282.74545873091256,583.151005103808 283.5781197829067,581.940898693251 284.4449997822431,580.7556787898521 285.3445433222243,579.594308455813 286.27623193395124,578.45886156673 287.23954714852476,577.3498565915025 288.23345202814664,576.2688489368277 289.2574281039178,575.2158386027056 350.6021497794433,513.87111692718 355.0013583885157,513.87111692718"/>
<polygon class="l3d0" points="366.4242651740293,514.1801243910583 297.32324876759947,583.2811407974882 296.40970656734186,584.2242357249959 295.52675403213266,585.1963649108545 294.67594656866913,586.1959729483667 293.8572841769514,587.2225413686334 293.0723222636767,588.2745147649573 292.32054235994605,589.3518931373383 291.6045368102549,590.4520841412807 290.9237871457043,591.5750877767846 290.2793303040924,592.7188301682536 289.6722032232175,593.8833113156874 289.1024059030795,595.0659388745908 288.57149375037585,596.2667128449634 288.07791135840927,597.4830408823096 287.980957674273,597.746941551964 284.67312609785796,597.746941551964 284.9510254277887,596.9583503563955 285.4414970063606,595.6927677736323 285.9703352834677,594.442739257843 286.53805872800916,593.2098202157246 287.14311193328757,591.9945291161765 287.785494899303,590.7989398347951 288.463652219358,589.6235708404796 289.17862083125084,588.4694590710282 289.92780839048595,587.3381599331383 290.71225183486143,586.2301918957089 291.52987728878094,585.1471103654377 292.3812032211436,584.0899522801226 293.2641557563528,583.0587176397637 294.1782164255095,582.0559987888566 295.1233852286137,581.0812772585024 362.33354555993606,513.87111692718 366.72445866662247,513.87111692718"/>
<polygon class="l3d0" points="474.76352633510925,540.7542478156905 417.77083259883574,597.746941551964 413.37162398976335,597.746941551964 472.5641812650227,538.5543842767048"/>
<polygon class="l3d0" points="480.6294834598052,546.6196864714874 429.5022283793284,597.746941551964 425.1030197702561,597.746941551964 478.42961992081945,544.4203414014007"/>
<polygon class="l3d0" points="218.46049992845133,514.7711789360604 217.2747615561533,515.6375404664976 216.0651736144956,516.4707199873908 214.83277304127637,517.2696805609419 213.57859677429389,518.0333852493525 212.30316328244734,518.7618340526226 211.00750950353495,519.4539900329539 209.69319084425402,520.1098531903465 208.36072577350376,520.7289050559014 207.01218816688063,521.31010869182 205.6470595554855,521.8529456292035 204.26793228381405,522.3574158680518 202.87480635186617,522.8230009394657 201.46923716633933,523.2497008434452 200.05226166503175,523.6364786421922 198.6249167857417,523.9828158668074 197.18823946626736,524.2897494550892 195.74430358220533,524.5562424692392 194.2925906646564,524.7817764403585 192.83569305811622,524.9663513684469 191.37412923148392,525.1104857224035 189.90893612255778,525.2136610333292 188.44115066913596,525.2753588323251 186.97232827791595,525.2960975882901 185.504024355595,525.2753588323251 184.03623890217324,525.2136610333292 182.57104579324704,525.1104857224035 181.10948196661474,524.9663513684469 179.65258436007457,524.7817764403585 178.20087144252565,524.5562424692392 176.7569355584636,524.2897494550892 175.32025823898928,523.9828158668074 173.8929133596992,523.6364786421922 172.47593785839163,523.2497008434452 171.0703686728648,522.8230009394657 169.67724274091697,522.3574158680518 168.29811546924546,521.8529456292035 166.93298685785035,521.31010869182 165.58444925122723,520.7289050559014 164.25198418047697,520.1098531903465 162.93766552119604,519.4539900329539 161.64201174228361,518.7618340526226 160.36657825043707,518.0333852493525 159.11240198345465,517.2696805609419 157.88000141023542,516.4707199873908 156.67041346857766,515.6375404664976 155.4846750962797,514.7711789360604 154.32330476224053,513.87111692718 159.5961334663379,513.87111692718 159.90721480581269,514.0821337691237 161.11524734077304,514.8520600843239 162.34557403839574,515.5862120454843 163.5961210230843,516.2845896526052 164.86740676373788,516.9461559678881 166.1568389158608,517.5703925224342 167.46389901055397,518.1572993162432 168.7875501100191,518.705320942618 170.12675527645797,519.2149758704575 171.47995910317323,519.6852271619634 172.8461246523666,520.1160748171361 174.22473345513896,520.5064818981768 175.61371163589382,520.8574853428843 177.01254072573204,521.1675297445607 178.41966531795623,521.4366151032065 179.8340484747682,521.6652598877204 181.25465325836964,521.8519086914052 182.67992426206322,521.9975984520593 184.10882454805068,522.1018107007833 185.54031717853374,522.1640269686783 186.97232827791595,522.1852841935424 188.40485784619725,522.1640269686783 189.83635047668034,522.1018107007833 191.26525076266776,521.9975984520593 192.69052176636134,521.8519086914052 194.11112654996276,521.6652598877204 195.52550970677473,521.4366151032065 196.93263429899895,521.1675297445607 198.33146338883716,520.8574853428843 199.720441569592,520.5064818981768 201.09905037236436,520.1160748171361 202.46521592155773,519.6852271619634 203.818419748273,519.2149758704575 205.15762491471187,518.705320942618 206.48127601417704,518.1572993162432 207.7883361088702,517.5703925224342 209.0777682609931,516.9461559678881 210.34905400164666,516.2845896526052 211.59960098633525,515.5862120454843 212.82992768395798,514.8520600843239 214.03796021891833,514.0821337691237 214.3490415583931,513.87111692718 219.62187026249043,513.87111692718"/>
<polygon class="l3d0" points="202.25782836190788,514.2651532905147 200.9777286499692,514.7162212327531 199.68414874665328,515.127367069759 198.37864405865753,515.4985908015321 197.0622515237801,515.8298924280729 195.73652654871847,516.1202350115826 194.4025060712708,516.3696185520615 193.0607085603363,516.5775245806105 191.71372636041056,516.7449900350277 190.36207794039265,516.8699410397169 189.0078371758792,516.9534145324759 187.6515225357692,516.9954105133049 186.2936524889618,516.9954105133049 184.93733784885183,516.9534145324759 183.5830970843383,516.8699410397169 182.2309301954213,516.7449900350277 180.88446646439468,516.5775245806105 179.54266895346015,516.3696185520615 178.20864847601254,516.1202350115826 176.88292350095088,515.8298924280729 175.5665309660735,515.4985908015321 174.2610262780777,515.127367069759 172.96744637476178,514.7162212327531 171.68734666282307,514.2651532905147 170.67062915163973,513.87111692718 185.89494990553496,513.87111692718 186.31594665162416,513.8845971185573 187.62922837310683,513.8845971185573 188.050225119196,513.87111692718 203.27454587309126,513.87111692718"/>
<polygon class="l3d0" points="279.1001039011674,598.1171283459391 278.7091783512274,599.4957371487114 278.3586933754192,600.8847153294663 278.0486489737427,602.2835444193045 277.97813720346176,602.651657337683 277.77904514619786,603.6906690115287 277.55091883058304,605.1050521683406 277.36427002689817,606.5256569519421 277.21858026624415,607.9509279556356 277.1143680175201,609.3798282416232 277.0521517496251,610.8113208721062 277.0308945247611,612.2433319714884 277.0521517496251,613.6758615397697 277.1143680175201,615.1073541702528 277.21858026624415,616.5362544562402 277.36427002689817,617.9615254599338 277.55091883058304,619.3821302435352 277.77904514619786,620.795994931448 278.0486489737427,622.2036379925714 278.3586933754192,623.6024670824096 278.7091783512274,624.9914452631645 279.1001039011674,626.3700540659369 279.53095155633997,627.7362196151302 280.00120284784595,629.0894234418454 280.5103393067863,630.4286286082843 281.0588794020602,631.7522797077495 281.6457861958693,633.0593398024427 282.2700227504153,634.3487719545656 282.93158906569835,635.6200576952191 283.62944820392005,636.8706046799076 284.3641186339797,638.1009313775304 285.13404494917967,639.3089639124908 285.938190211722,640.4947022847888 286.7770728905056,641.6560726188279 287.6491375788332,642.7930749146082 288.5543842767048,643.9036352965331 289.49125757742297,644.9877537646026 290.45872054318954,646.0438749121195 291.4572916429035,647.0714802701845 298.7894788143239,654.404185910504 299.55629431612914,655.148707249647 295.13479154439443,655.148707249647 289.2574281039178,649.2713438091703 288.23345202814664,648.2183334750482 287.23954714852476,647.1368073514743 286.27623193395124,646.0283208451458 285.3445433222243,644.8928739560629 284.4449997822431,643.7315036220239 283.5781197829067,642.5457652497258 282.74545873091256,641.336177308068 281.9459796884624,640.1032582659498 281.182793468951,638.8490819989672 280.4538261967818,637.5736485071207 279.7616702164504,636.2785131971075 279.1058070590578,634.9641945378265 278.4872736624021,633.6317294670763 277.9060700264834,632.282673391554 277.36323308909994,630.9180632490579 276.8587628502517,629.5389359773866 276.3931777788378,628.1458100454386 275.96647787485824,626.7402408599118 275.57970007611124,625.3232653586042 275.233362851496,623.8959204793142 274.92642926321423,622.4592431598397 274.6599362490642,621.0153072757778 274.43440227794497,619.5635943582289 274.24930888095747,618.1066967516887 274.1056929959,616.6451329250564 274.0025176849742,615.1799398161302 273.94030141707924,613.7121543627085 273.9200811300134,612.2433319714884 273.94030141707924,610.7750280491675 273.99162983809254,609.5638847008124 274.0025176849742,609.3072425957456 274.1056929959,607.8420494868194 274.24930888095747,606.3804856601872 274.43440227794497,604.923588053647 274.6599362490642,603.4718751360981 274.92642926321423,602.027939252036 275.233362851496,600.5912619325618 275.57970007611124,599.1639170532717 275.96647787485824,597.746941551964 279.21675940347046,597.746941551964"/>
<polygon class="l3d0" points="287.6247695405744,598.7154414555289 287.21103135907293,599.9618406890245 286.8377337517032,601.220683176099 286.50487671846514,602.4904135100552 286.21246025935886,603.770513221994 285.9615213121826,605.0589084363186 285.7515414080371,606.3550806841301 285.58355748472076,607.6574745587311 285.45808801113253,608.9645346534244 285.3735775805753,610.2747055615122 285.3315815997462,611.5869503451967 285.3315815997462,612.9002320666792 285.3735775805753,614.2119583814646 285.45808801113253,615.5226477584516 285.58355748472076,616.8297078531447 285.7515414080371,618.1315832588466 285.9615213121826,619.4277555066582 286.21246025935886,620.716669189882 286.50487671846514,621.9962504329216 286.8377337517032,623.2664992357768 287.21103135907293,624.5248232539524 287.6247695405744,625.771740956347 288.07791135840927,627.0036230606671 288.57149375037585,628.2204695669126 289.1024059030795,629.4212435372852 289.6722032232175,630.6038710961884 290.2793303040924,631.7683522436224 290.9237871457043,632.9120946350912 291.6045368102549,634.0350982705951 292.32054235994605,635.1352892745376 293.0723222636767,636.2121491780194 293.8572841769514,637.2646410432424 294.67594656866913,638.2912094635092 295.52675403213266,639.2908175010215 296.40970656734186,640.262428217981 297.32324876759947,641.2060416143878 304.65543593901975,648.5382287858081 305.5985308665274,649.4512525171666 306.5706600523861,650.3347235212749 307.5702680898983,651.1855309847384 308.5968365101651,652.0036749075571 309.64880990648896,652.7891552897307 310.7261882788699,653.5404167245624 311.82637928281235,654.2564222742535 312.94938291831625,654.9371719388041 313.3247544012825,655.148707249647 307.6044870372406,655.148707249647 306.5214055069693,654.3316002646266 305.4642474216542,653.4802743322639 304.4330127812953,652.5973217970547 303.43029393038836,651.6827426589988 302.45557240003404,650.7380923247938 295.1233852286137,643.4053866844744 294.1782164255095,642.4311836230193 293.2641557563528,641.427946303213 292.3812032211436,640.3972301317534 291.52987728878094,639.3400720464383 290.71225183486143,638.2569905161669 289.92780839048595,637.1490224787376 289.17862083125084,636.0177233408476 288.463652219358,634.8636115713963 287.785494899303,633.6882425770808 287.14311193328757,632.4921348268003 286.53805872800916,631.2773621961513 285.9703352834677,630.0439246851339 285.4414970063606,628.7944146382436 284.9510254277887,627.5288320554803 284.4999574855503,626.2487323435417 284.08881164854444,624.9551524402257 283.7170694478721,623.64964775223 283.3862862902306,622.3332552173525 283.09594370672085,621.0075302422908 282.8460416973428,619.6735097648433 282.6381356687938,618.3317122539088 282.47118868327567,616.984730053983 282.34623767858665,615.633081633965 282.26276418582756,614.2788408694516 282.2207682049985,612.9225262293417 282.2207682049985,611.5646561825342 282.26276418582756,610.2078230735251 282.34623767858665,608.8535823090116 282.47118868327567,607.5019338889938 282.6381356687938,606.154951689068 282.8460416973428,604.8136726470326 283.09594370672085,603.4796521695849 283.3862862902306,602.1539271945232 283.7170694478721,600.8375346596459 283.8710547109121,600.2972900667581 284.08881164854444,599.5320299716502 284.4999574855503,598.2384500683343 284.5450642797741,598.1103882502504 284.67312609785796,597.746941551964 287.980957674273,597.746941551964"/>
<polygon class="l3d0" points="364.779681826006,650.7380923247938 363.80547876455086,651.6827426589988 362.8022414447447,652.5973217970547 361.77152527328496,653.4802743322639 360.71384871907077,654.3316002646266 359.6312856576985,655.148707249647 353.91101829365664,655.148707249647 354.28638977662285,654.9371719388041 355.4093934121268,654.2564222742535 356.50958441606923,653.5404167245624 357.58644431955105,652.7891552897307 358.638936184774,652.0036749075571 359.66498613614164,651.1855309847384 360.665112642553,650.3347235212749 361.6367233595126,649.4512525171666 362.58033675591935,648.5382287858081 413.37162398976335,597.746941551964 417.77083259883574,597.746941551964"/>
<polygon class="l3d0" points="372.10046268164564,655.148707249647 367.6789599099109,655.148707249647 368.44577541171617,654.404185910504 425.1030197702561,597.746941551964 429.5022283793284,597.746941551964"/>
<polygon class="l3d0" points="370.64563895070194,656.6035309805907 369.59211014768067,657.6275070563618 368.51110249300586,658.6214119359836 367.40261598667746,659.5847271505572 366.26716909759455,660.516415762284 365.1057987635554,661.4159593022654 363.9200603912574,662.2828393016017 362.71047244959965,663.116018822495 361.4775534074813,663.914979396046 360.2233771404989,664.6786840844564 358.9479436486523,665.4071328877266 357.6522898697399,666.099288868058 356.337971210459,666.7551520254507 355.00602460860785,667.3742038910054 353.6569685330856,667.954889058025 352.2923583905896,668.4982444643075 350.91323111891813,669.0027147031559 349.5201051869703,669.4682997745698 348.1145360014434,669.8949996785493 346.69756050013586,670.2817774772963 345.27021562084576,670.6281147019115 343.8335383013715,670.9350482901932 342.3890839484103,671.2015413043433 340.9378894997605,671.4270752754626 339.4809918932203,671.6116502035509 338.01942806658803,671.7557845575076 336.55371648876275,671.8589598684334 335.08644950424,671.9206576674292 333.61762711302,671.9413964233942 332.1493231906991,671.9206576674292 330.68153773727727,671.8589598684334 329.2163446283511,671.7557845575076 327.75426233281974,671.6116502035509 326.2973647262795,671.4270752754626 324.8461702776297,671.2015413043433 323.4022343935677,670.9350482901932 321.9650386051942,670.6281147019115 320.5382121948033,670.2817774772963 319.1212366934957,669.8949996785493 317.71566750796893,669.4682997745698 316.3225415760211,669.0027147031559 314.9434143043495,668.4982444643075 313.57828569295447,667.954889058025 312.2297480863313,667.3742038910054 310.897283015581,666.7551520254507 309.5829643563001,666.099288868058 308.2873105773877,665.4071328877266 307.01187708554113,664.6786840844564 305.7577008185587,663.914979396046 304.5253002453395,663.116018822495 303.31519383478263,662.2828393016017 302.12945546248466,661.4159593022654 300.9680851284455,660.516415762284 299.83263823936255,659.5847271505572 298.7241517330342,658.6214119359836 297.64314407835934,657.6275070563618 296.5896152753381,656.6035309805907 295.13479154439443,655.148707249647 299.55629431612914,655.148707249647 299.81708417238883,655.402238541319 300.8737237888048,656.3702199759846 301.9578422568744,657.3065748078037 303.0684026387993,658.2118215056752 304.2048864656805,659.0844046629019 305.3667752686187,659.9227688727864 306.55199517201766,660.7274326042278 307.7605461758771,661.4973589194278 308.9903544046007,662.2315108805883 310.2414198581884,662.92937001881 311.51218712994284,663.5914548029922 312.80161928206576,664.2156913575382 314.10919784565806,664.8020796824482 315.4328489451232,665.350619777722 316.77205411156206,665.8597562366624 318.12525793827734,666.3300075281685 319.4914234874707,666.760855183341 320.87003229024305,667.1517807332809 322.2590104709979,667.5027841779884 323.657321091937,667.8123101107658 325.0649641530603,668.0819139383105 326.47882884097316,668.3105587228245 327.8994336245746,668.4966890576102 329.3252230971673,668.6428972871634 330.7541233831547,668.7471095358874 332.18561601363785,668.8093258037824 333.61762711302,668.8300645597474 335.05015668130136,668.8093258037824 336.48113084288525,668.7471095358874 337.9105495977718,668.6428972871634 339.3358206014654,668.4966890576102 340.75642538506685,668.3105587228245 342.1702900729797,668.0819139383105 343.57793313410303,667.8123101107658 344.9762437550421,667.5027841779884 346.36574040469606,667.1517807332809 347.74383073856933,666.760855183341 349.11051475666187,666.3300075281685 350.46371858337704,665.8597562366624 351.802923749816,665.350619777722 353.126056380382,664.8020796824482 354.43363494397425,664.2156913575382 355.72306709609717,663.5914548029922 356.9938343678516,662.92937001881 358.24489982143933,662.2315108805883 359.474708050163,661.4973589194278 360.68325905402236,660.7274326042278 361.8689974263204,659.9227688727864 363.0303677603595,659.0844046629019 364.1673700561398,658.2118215056752 365.2774119691656,657.3065748078037 366.36153043723516,656.3702199759846 367.4181700536512,655.402238541319 367.6789599099109,655.148707249647 372.10046268164564,655.148707249647"/>
<polygon class="l3d0" points="358.52331762026927,655.9336691629217 357.39201848237934,656.6828567221567 356.23790671292795,657.3978253340496 355.0625377186124,658.0759826541046 353.86642996833194,658.7183656201199 352.65165733768293,659.3234188253983 351.41821982666545,659.8906238010408 350.16870977977516,660.419980547047 348.90312719701194,660.9104521256188 347.6225090161742,661.3610015989582 346.3294475817574,661.7726659048631 345.02394289376156,662.1438896366363 343.70703188998505,662.4751912631768 342.38182538382256,662.7655338466867 341.0472864374758,663.0149173871657 339.7060073954404,663.2228234157146 338.3590251955146,663.3897704012328 337.00737677549677,663.5152398748208 335.6531360109833,663.59871336758 334.29682137087326,663.6401908795099 332.9389513240659,663.6401908795099 331.58211821505677,663.59871336758 330.22787745054325,663.5152398748208 328.8762290305254,663.3897704012328 327.5292468305997,663.2228234157146 326.1879677885642,663.0149173871657 324.8539473111166,662.7655338466867 323.5282223360549,662.4751912631768 322.21182980117754,662.1438896366363 320.9063251131818,661.7726659048631 319.61274520986586,661.3610015989582 318.33264549792716,660.9104521256188 317.06706291516394,660.419980547047 315.81703439937456,659.8906238010408 314.58411535725617,659.3234188253983 313.3688242577081,658.7183656201199 312.17323497632674,658.0759826541046 310.99786598201126,657.3978253340496 309.8437542125599,656.6828567221567 308.71245507466995,655.9336691629217 307.6044870372406,655.148707249647 313.3247544012825,655.148707249647 314.09312530978514,655.5821472493152 315.257606457219,656.18927433019 316.4402340161223,656.758553181429 317.64048951759577,657.2899838030316 318.8573360238413,657.7830477260991 320.0897365970605,658.2367080128331 321.3361358305561,658.6499277254355 322.59497831763065,659.0237438017043 323.8647086515868,659.3566008349424 325.1448083635255,659.6484988251494 326.4332035778502,659.899956241225 327.72937582566175,660.1094176764714 329.03176970026277,660.2774015997876 330.3388297949559,660.403389542275 331.64900070304384,660.4873815039332 332.9612454867283,660.5298959536614 334.27452720821094,660.5298959536614 335.5862535229962,660.4873815039332 336.89694289998323,660.403389542275 338.20348452577724,660.2774015997876 339.50587840037826,660.1094176764714 340.80205064818983,659.899956241225 342.0909643314136,659.6484988251494 343.3705455744532,659.3566008349424 344.64079437730845,659.0237438017043 345.8991183954839,658.6499277254355 347.1455176289795,658.2367080128331 348.37791820219877,657.7830477260991 349.59476470844425,657.2899838030316 350.79553867881685,656.758553181429 351.9781662377201,656.18927433019 353.14264738515396,655.5821472493152 353.91101829365664,655.148707249647 359.6312856576985,655.148707249647"/>
</g>
</svg>