<svg xmlns="http://www.w3.org/2000/svg" xmlns:xlink="http://www.w3.org/1999/xlink" width="550.0" height="550.0" viewBox="-275.0 -275.0 550.0 550.0">
<defs>
<style type="text/css">
.l3d0 {stroke: rgb(255, 255, 64); fill: rgb(255, 255, 64); fill-opacity: 0.5;}
</style>
</defs>
<rect x="-275.0" y="-275.0" width="550.0" height="550.0" fill="#222" stroke="none"/>
<g id="gds" transform="scale(1 -1)">
<polygon class="l3d0" points="-202.79255319148936,-3.324468085106383 -3.324468085106383,-3.324468085106383 -3.324468085106383,-202.79255319148936 3.324468085106383,-202.79255319148936 3.324468085106383,-3.324468085106383 202.79255319148936,-3.324468085106383 202.79255319148936,3.324468085106383 3.324468085106383,3.324468085106383 3.324468085106383,202.79255319148936 -3.324468085106383,202.79255319148936 -3.324468085106383,3.324468085106383 -202.79255319148936,3.324468085106383 -216.0904255319149,16.622340425531913 -16.622340425531913,16.622340425531913 -16.622340425531913,216.0904255319149 16.622340425531913,216.0904255319149 16.622340425531913,16.622340425531913 216.0904255319149,16.622340425531913 216.0904255319149,-16.622340425531913 16.622340425531913,-16.622340425531913 16.622340425531913,-216.0904255319149 -16.622340425531913,-216.0904255319149 -16.622340425531913,-16.622340425531913 -216.0904255319149,-16.622340425531913 -216.0904255319149,16.622340425531913 -202.79255319148936,3.324468085106383 -216.0904255319149,16.622340425531913 -219.41489361702128,23.27127659574468 -199.46808510638297,23.27127659574468 -199.46808510638297,37.898936170212764 -234.04255319148936,37.898936170212764 -234.04255319148936,7.3138297872340425 -250.0,7.3138297872340425 -250.0,-7.3138297872340425 -234.04255319148936,-7.3138297872340425 -234.04255319148936,-37.898936170212764 -199.46808510638297,-37.898936170212764 -199.46808510638297,-23.27127659574468 -219.41489361702128,-23.27127659574468 -223.40425531914894,-27.26063829787234 -203.45744680851064,-27.26063829787234 -203.45744680851064,-33.909574468085104 -230.0531914893617,-33.909574468085104 -230.0531914893617,-3.324468085106383 -250.0,-3.324468085106383 -250.0,3.324468085106383 -230.0531914893617,3.324468085106383 -230.0531914893617,33.909574468085104 -203.45744680851064,33.909574468085104 -203.45744680851064,27.26063829787234 -223.40425531914894,27.26063829787234 -223.40425531914894,-27.26063829787234 -219.41489361702128,-23.27127659574468 -219.41489361702128,23.27127659574468 -216.0904255319149,16.622340425531913 -202.79255319148936,3.324468085106383 -216.0904255319149,16.622340425531913 -16.622340425531913,16.622340425531913 -16.622340425531913,216.0904255319149 -23.27127659574468,219.41489361702128 23.27127659574468,219.41489361702128 23.27127659574468,199.46808510638297 37.898936170212764,199.46808510638297 37.898936170212764,234.04255319148936 7.3138297872340425,234.04255319148936 7.3138297872340425,250.0 -7.3138297872340425,250.0 -7.3138297872340425,234.04255319148936 -37.898936170212764,234.04255319148936 -37.898936170212764,199.46808510638297 -23.27127659574468,199.46808510638297 -27.26063829787234,203.45744680851064 -33.909574468085104,203.45744680851064 -33.909574468085104,230.0531914893617 -3.324468085106383,230.0531914893617 -3.324468085106383,250.0 3.324468085106383,250.0 3.324468085106383,230.0531914893617 33.909574468085104,230.0531914893617 33.909574468085104,203.45744680851064 27.26063829787234,203.45744680851064 27.26063829787234,223.40425531914894 -27.26063829787234,223.40425531914894 -27.26063829787234,203.45744680851064 -23.27127659574468,199.46808510638297 -23.27127659574468,219.41489361702128 -16.622340425531913,216.0904255319149 -16.622340425531913,16.622340425531913 -216.0904255319149,16.622340425531913 -202.79255319148936,3.324468085106383 -216.0904255319149,16.622340425531913 -16.622340425531913,16.622340425531913 -16.622340425531913,216.0904255319149 16.622340425531913,216.0904255319149 16.622340425531913,16.622340425531913 216.0904255319149,16.622340425531913 219.41489361702128,23.27127659574468 219.41489361702128,-23.27127659574468 199.46808510638297,-23.27127659574468 199.46808510638297,-37.898936170212764 234.04255319148936,-37.898936170212764 234.04255319148936,-7.3138297872340425 250.0,-7.3138297872340425 250.0,7.3138297872340425 234.04255319148936,7.3138297872340425 234.04255319148936,37.898936170212764 199.46808510638297,37.898936170212764 199.46808510638297,23.27127659574468 203.45744680851064,27.26063829787234 203.45744680851064,33.909574468085104 230.0531914893617,33.909574468085104 230.0531914893617,3.324468085106383 250.0,3.324468085106383 250.0,-3.324468085106383 230.0531914893617,-3.324468085106383 230.0531914893617,-33.909574468085104 203.45744680851064,-33.909574468085104 203.45744680851064,-27.26063829787234 223.40425531914894,-27.26063829787234 223.40425531914894,27.26063829787234 203.45744680851064,27.26063829787234 199.46808510638297,23.27127659574468 219.41489361702128,23.27127659574468 216.0904255319149,16.622340425531913 16.622340425531913,16.622340425531913 16.622340425531913,216.0904255319149 -16.622340425531913,216.0904255319149 -16.622340425531913,16.622340425531913 -216.0904255319149,16.622340425531913 -202.79255319148936,3.324468085106383 -216.0904255319149,16.622340425531913 -16.622340425531913,16.622340425531913 -16.622340425531913,216.0904255319149 16.622340425531913,216.0904255319149 16.622340425531913,16.622340425531913 216.0904255319149,16.622340425531913 216.0904255319149,-16.622340425531913 16.622340425531913,-16.622340425531913 16.622340425531913,-216.0904255319149 23.27127659574468,-219.41489361702128 -23.27127659574468,-219.41489361702128 -23.27127659574468,-199.46808510638297 -37.898936170212764,-199.46808510638297 -37.898936170212764,-234.04255319148936 -7.3138297872340425,-234.04255319148936 -7.3138297872340425,-250.0 7.3138297872340425,-250.0 7.3138297872340425,-234.04255319148936 37.898936170212764,-234.04255319148936 37.898936170212764,-199.46808510638297 23.27127659574468,-199.46808510638297 27.26063829787234,-203.45744680851064 33.909574468085104,-203.45744680851064 33.909574468085104,-230.0531914893617 3.324468085106383,-230.0531914893617 3.324468085106383,-250.0 -3.324468085106383,-250.0 -3.324468085106383,-230.0531914893617 -33.909574468085104,-230.0531914893617 -33.909574468085104,-203.45744680851064 -27.26063829787234,-203.45744680851064 -27.26063829787234,-223.40425531914894 27.26063829787234,-223.40425531914894 27.26063829787234,-203.45744680851064 23.27127659574468,-199.46808510638297 23.27127659574468,-219.41489361702128 16.622340425531913,-216.0904255319149 16.622340425531913,-16.622340425531913 216.0904255319149,-16.622340425531913 216.0904255319149,16.622340425531913 16.622340425531913,16.622340425531913 16.622340425531913,216.0904255319149 -16.622340425531913,216.0904255319149 -16.622340425531913,16.622340425531913 -216.0904255319149,16.622340425531913 -202.79255319148936,3.324468085106383"/>
</g>
</svg>